<svg xmlns="http://www.w3.org/2000/svg" xmlns:xlink="http://www.w3.org/1999/xlink" fill="none" version="1.1" width="58.0001220703125" height="24.84002685546875" viewBox="0 0 58.0001220703125 24.84002685546875"><g><path d="M6.9282235703125,0L13.8564280703125,4.000001L13.8564280703125,6.8572388L7.9664540703125,6.8572388L9.1424331703125,3.7937086L3.0359730703125,7.9600091L6.0913343703125,9.1328526L4.5833921703125,13.061175L10.6898520703125,8.8948746L10.5918070703125,8.8572388L13.8564280703125,8.8572388L13.8564280703125,12.000003L6.9282235703125,16.000004L0.000019669532500000004,12.000003L0.000019431112499999995,4.0000014L6.9282235703125,0Z" fill-rule="evenodd" fill="#F95914" fill-opacity="1"/></g><path d="M29.752532235839844,6.0536618328125L29.603961235839844,7.3462338328125L21.343387135839844,7.3462338328125L21.491959135839842,6.0536618328125L24.834816435839844,6.0536618328125L24.968531635839845,4.7908041328125L22.323959335839845,4.7908041328125Q22.026816335839843,4.7908041328125,21.885673535839842,4.6942329328125005Q21.744530635839844,4.5976617328125,21.744530635839844,4.404518632812501Q21.744530635839844,4.2410898328125,21.803958435839846,4.0776610328125L22.383387135839843,2.1759470728125L23.735388235839842,2.1759470728125L23.423387535839844,3.5130903328125L25.117102635839842,3.5130903328125L25.339960135839846,1.5816606928125L26.766246835839844,1.5816606928125L26.543390235839844,3.5130903328125L29.589104235839844,3.5130903328125L29.440531235839842,4.7908041328125L26.394817335839846,4.7908041328125L26.261103635839845,6.0536618328125L29.752532235839844,6.0536618328125ZM18.357101235839842,1.9976611728125L20.823386935839842,3.2308036328125L20.659959035839844,4.7462327328125L18.178815135839844,3.5130903328125L18.357101235839842,1.9976611728125ZM29.678247235839844,12.9770921328125L29.247390235839845,14.3439491328125L23.066816335839846,14.3439491328125Q21.803958435839846,14.3439491328125,20.808529835839842,13.8090911328125Q20.065673135839845,13.4228061328125,19.456529635839843,12.6948051328125Q19.025672635839843,13.8239501328125,18.371958135839844,14.4033781328125L16.856529235839844,14.0170911328125Q17.539957935839844,13.2593771328125,17.941100835839844,12.4942341328125Q18.342243935839843,11.7290921328125,18.461100935839845,10.7930917328125L18.921672535839843,7.1828050328125L17.272529305839843,7.1828050328125L17.435957965839844,5.7862339328125L19.545672935839843,5.7862339328125Q19.961672735839844,5.7862339328125,20.191958635839843,6.0313759328125Q20.422244335839842,6.2765188328125,20.422244335839842,6.7222328328125Q20.422244335839842,6.9005193328125,20.407387235839842,6.9896621328125L19.872529735839844,10.9862327328125Q19.857672735839845,11.0159483328125,19.857672735839845,11.1050911328125Q20.333101235839845,11.8628051328125,21.090815535839845,12.3382341328125Q22.115959135839844,12.9770921328125,23.601673635839845,12.9770921328125L29.678247235839844,12.9770921328125ZM28.623390235839842,12.0559471328125L21.402815835839846,12.0559471328125L21.759387035839843,9.084520332812499Q21.83367343583984,8.594234032812501,22.123387335839844,8.3342328328125Q22.413102135839843,8.0742340328125,22.888530235839845,8.0742340328125L27.850818235839846,8.0742340328125Q28.370817235839844,8.0742340328125,28.653104235839844,8.356519732812501Q28.935389235839843,8.6388049328125,28.935389235839843,9.158804432812499Q28.935389235839843,9.3222341328125,28.920532235839843,9.4113769328125L28.623390235839842,12.0559471328125ZM27.449673235839846,9.2925200328125L23.126244535839845,9.2925200328125L22.992530835839844,10.8376627328125L27.286247235839845,10.8376627328125L27.449673235839846,9.2925200328125ZM35.35367423583985,1.4776611328125L35.20510623583984,2.7553756328125L37.06225023583984,2.7553756328125L36.92853123583984,3.9142327328125L35.08624823583985,3.9142327328125L35.071392235839845,4.0330901328125Q35.91824523583985,4.5828044328125,36.913673235839845,5.5188040328125L35.97767423583984,6.3359475328125Q35.368532235839844,5.6525187328125,34.93767723583984,5.2068047328125004L34.685104235839844,7.5393762328125L33.37767623583984,7.5393762328125L33.58567623583984,5.5485186328125Q32.32281723583984,6.8856616328125,31.208533235839845,7.6136627328125L30.302246235839846,6.8410902328125Q31.104532235839844,6.3062329328125,31.995961235839843,5.5336618328125Q32.887390235839845,4.7610895328125,33.689674235839846,3.9142327328125L31.416532235839846,3.9142327328125L31.550247235839844,2.7553756328125L33.88281623583984,2.7553756328125L34.03139123583985,1.4776611328125L35.35367423583985,1.4776611328125ZM40.98453323583985,1.5073754508125L40.85082023583985,2.7553756328125L43.18339123583984,2.7553756328125L43.049677235839845,3.9142327328125L40.954818235839845,3.9142327328125Q41.99481723583985,5.3405187328125,43.70339223583984,6.8856616328125L42.54453323583984,7.5096621328125Q41.37082123583984,6.2616615328125,40.59824723583984,5.0879473328125L40.330820235839845,7.5690908328125L38.99367723583984,7.5690908328125L39.231388235839844,5.3553757328125Q38.191391235839845,6.4993763328125,37.06225023583984,7.3462338328125L36.126251235839845,6.5885191328125Q37.53767623583984,5.6376614328125,39.15710623583985,3.9142327328125L37.37424423583984,3.9142327328125L37.50796323583984,2.7553756328125L39.51367523583984,2.7553756328125L39.662246235839845,1.5073754508125L40.98453323583985,1.5073754508125ZM36.80967523583985,7.4205188328125Q36.45310223583984,7.8365197328125,36.09653123583985,8.2228045328125L40.568535235839846,8.2228045328125Q41.14796223583984,8.2228045328125,41.45996123583984,8.4382333328125Q41.77196323583985,8.6536626328125,41.77196323583985,9.0102343328125Q41.77196323583985,9.3816619328125,41.45996123583984,9.8570909328125Q40.93996223583984,10.6445198328125,39.89996123583984,11.3873777328125Q38.85995823583984,12.1302351328125,37.448534235839844,12.7542331328125Q36.051962235839845,13.3782351328125,34.46967723583984,13.8388061328125Q32.887390235839845,14.2993771328125,31.327389235839846,14.5222351328125L30.539962235839845,13.2742351328125Q33.392532235839845,12.8879491328125,35.725101235839844,12.0410921328125L33.70453023583984,10.6296625328125Q33.40739023583984,10.9268064328125,32.90224823583984,11.3725195328125L30.970819235839844,11.3725195328125Q31.832533235839843,10.6445198328125,33.06567423583984,9.4410901328125Q34.23939123583985,8.267376432812501,34.98224823583985,7.4205188328125L36.80967523583985,7.4205188328125ZM34.92281923583984,9.4410901328125L34.62567523583984,9.7530908328125L37.18110423583984,11.4170904328125Q38.59253123583984,10.7188043328125,39.647392235839845,9.7828054328125Q39.825678235839845,9.6045189328125,39.825678235839845,9.5450916328125Q39.825678235839845,9.4410901328125,39.45424823583984,9.4410901328125L34.92281923583984,9.4410901328125ZM45.73882123583984,2.8296609328124998L49.363964235839845,2.8296609328124998L49.54225123583984,1.5816606928125L51.072540235839845,1.5816606928125L50.90910723583984,2.8296609328124998L53.37540023583984,2.8296609328124998L53.22682223583984,4.0925188328125L50.730819235839846,4.0925188328125L50.552536235839845,5.5039472328125L51.993683235839846,5.5039472328125Q53.687397235839846,4.2559471328125,54.90568123583984,2.4433758828125L56.56967923583984,2.4433758828125Q55.52968223583984,4.2113757328125,54.14796823583984,5.5039472328125L56.61425023583984,5.5039472328125L56.46567923583984,6.8262334328125L52.46910823583984,6.8262334328125Q51.77082423583985,7.2719474328125,51.458820235839845,7.4502334328125L51.027965235839844,7.6879477328125L50.582252235839846,7.9256615328125L53.657684235839845,7.9256615328125Q54.14796823583984,7.9256615328125,54.43025623583984,8.1856622328125Q54.71253623583984,8.4456625328125,54.71253623583984,8.8913774328125Q54.71253623583984,9.0399475328125,54.69767723583984,9.1142335328125L54.103393235839846,14.2399491328125L45.51596823583984,14.2399491328125L46.03596723583985,9.7976617328125Q45.69425223583984,9.9165201328125,44.52053623583984,10.2136621328125L44.16396523583984,10.3028049328125L43.53996623583984,9.0548052328125Q47.22453323583984,8.1782336328125,49.83939323583984,6.8262334328125L44.13424823583985,6.8262334328125L44.29768023583985,5.5039472328125L49.00739323583984,5.5039472328125L49.20053823583984,4.0925188328125L45.59025023583985,4.0925188328125L45.73882123583984,2.8296609328124998ZM53.16739223583984,9.1736631328125L47.833679235839845,9.1736631328125L47.55139523583985,9.2925200328125L47.41767723583985,10.4810905328125L53.033680235839846,10.4810905328125L53.16739223583984,9.1736631328125ZM47.12053723583985,12.9919481328125L52.76625023583984,12.9919481328125L52.899967235839846,11.6696631328125L47.269108235839845,11.6696631328125L47.12053723583985,12.9919481328125Z" fill="#FFFFFF" fill-opacity="0.8799999952316284"/><g><path d="M4.8721222703125,22.572Q4.8441223703125,22.5299997,4.9841222703125,22.5439997Q5.4041223703125,22.572,5.9501223703125,22.803Q5.9851221703125,22.8169999,6.0061220703125,22.8239999Q6.1811222703125,22.908,6.2441220703125,22.9885001Q6.3071222703125,23.0689998,6.2931222703125,23.2160001Q6.2861223703125,23.7199998,5.9011220703125,23.7199998Q5.6211223703125,23.7199998,5.4811219703125,23.454Q5.4181222703125,23.335,5.3411221703125,23.2649999Q5.1871223703125,23.131999999999998,5.0366220703125,22.977999699999998Q4.8861222703125,22.8239999,4.8861222703125,22.796Q4.8861222703125,22.7609997,4.8371224703125,22.7189999Q4.7881221703125,22.677,4.8406224703125,22.6420002Q4.8931221703125,22.606999899999998,4.8721222703125,22.572ZM1.9881220703125,21.0319998Q2.2471220703125,20.758999799999998,2.2681221703125,20.758999799999998Q2.3031220703125,20.758999799999998,2.3066220703125,20.829Q2.3101222703125,20.8989999,2.2821221703125,20.9829998Q2.2331220703125,21.095,2.1421220703125,21.2035Q2.0511221703125,21.3119998,2.0511221703125,21.3364999Q2.0511221703125,21.360999800000002,1.9671220703125,21.4694998Q1.8831220703125,21.5779998,1.8271220703125,21.704L1.6451221703125,22.102999699999998Q1.4771220703125,22.46,1.5541220703125,22.4949999Q1.5961221703125,22.5019999,1.5541220703125,22.677Q1.5051220703125,22.908,1.3896220703125,23.0304999Q1.2741220703125,23.1529999,1.1411220703125,23.125Q1.0781221703125,23.1040001,0.9381220903125,22.9219999Q0.7631220803125,22.7049999,0.7246220703125,22.5964999Q0.6861221203125,22.4879999,0.7141221203125,22.348Q0.7491220803125,22.2290001,0.8681221003125,22.152Q1.1761220703125,21.9489999,1.5331220703125,21.543L1.9881220703125,21.0319998ZM1.4421220703125,19.2820001Q1.5331220703125,19.2749996,1.5471221703125,19.2679996Q1.5821220703125,19.2609997,1.8586220703125,19.3589997Q2.1351220703125,19.4569998,2.2051222703125,19.4990001Q2.3101222703125,19.5549998,2.3346221703125,19.625Q2.3591220703125,19.6949997,2.3381221703125,19.8559999Q2.3171222703125,20.017,2.2366220703125,20.122Q2.1561221703125,20.227,2.0791220703125,20.1989999Q1.8761220703125,20.1429999,1.8761220703125,20.0869999Q1.8761220703125,20.066,1.7291221703125,19.9259996Q1.1901221703125,19.4219999,1.3791221703125,19.3099999Q1.4001221703125,19.289,1.4421220703125,19.2820001ZM3.5561220703125,18.67999983Q3.5701222703125,18.63800001,3.5876221703125,18.61699963Q3.6051220703125,18.595999720000002,3.6051220703125,18.54349995Q3.6051220703125,18.4909997,3.6436221703125,18.476999759999998Q3.6821222703125,18.46299982,3.6926221703125,18.46299982Q3.7031221703125,18.46299982,3.8641221703125,18.63100004Q4.0951223703125,18.8829999,3.9831220703125,18.98799992Q3.9341220703125,19.0439997,3.8501221703125,19.3099999Q3.8431222703125,19.3449998,3.8781220703125,19.3449998Q3.9271220703125,19.3449998,4.2421221703125,19.296Q4.4591221703125,19.2609997,4.9351219703125,19.2189999Q5.0891222703125,19.2049999,5.1276221703125,19.2154999Q5.1661224703125,19.2259998,5.2501220703125,19.296Q5.3271221703125,19.3729997,5.3411221703125,19.408Q5.3551220703125,19.4429998,5.3481220703125,19.5479999Q5.3271221703125,19.701999700000002,5.2641219703125,19.7544999Q5.2011222703125,19.8069997,5.0471219703125,19.7789998Q4.6971220703125,19.723,4.0811223703125,19.7789998Q3.7661220703125,19.8069997,3.7591221703125,19.8139997Q3.7381222703125,19.8280001,3.5421221703125,20.5839999Q3.4791221703125,20.829,3.4371220703125,20.878Q3.3951222703125,20.9269998,3.3951222703125,20.9619999Q3.3951222703125,20.997,3.3041221703125,21.1754999Q3.2131221703125,21.353999899999998,3.2306220703125,21.3715Q3.2481221703125,21.3889999,3.4931220703125,21.322499999999998Q3.7381222703125,21.2559998,3.8151221703125,21.2419999Q3.8711221703125,21.2279999,3.8851222703125,21.1859999Q3.8991222703125,21.1439998,3.9131221703125,20.892Q3.9481222703125,20.4229999,4.0321221703125,20.4229999Q4.0671219703125,20.4229999,4.3401222703125,20.563Q4.5151223703125,20.6539998,4.5676221703125,20.6889999Q4.6201224703125,20.724,4.6201224703125,20.773Q4.6201224703125,20.8429999,4.5921220703125,20.8954999Q4.5641221703125,20.948,4.5781221703125,21.0319998Q4.5991220703125,21.0879998,4.6131219703125,21.0985Q4.6271223703125,21.109,4.7181219703125,21.095Q4.8301219703125,21.080999900000002,5.0891222703125,21.095Q5.2711224703125,21.109,5.3131222703125,21.1264999Q5.3551220703125,21.1439998,5.3761224703125,21.214Q5.4251222703125,21.326,5.3866224703125,21.4519999Q5.3481220703125,21.5779998,5.2501220703125,21.6059999Q5.1661224703125,21.641,4.9631223703125,21.599Q4.7391223703125,21.5709999,4.6551222703125,21.5955Q4.5711221703125,21.6199999,4.5361223703125,21.7249999Q4.4871220703125,21.872,4.5081224703125,22.8590002Q4.5431222703125,23.7340002,4.3821220703125,24.0840001Q4.2911224703125,24.2729998,4.2316221703125,24.3325Q4.1721219703125,24.3920002,4.1791219703125,24.441Q4.1861223703125,24.4829998,4.0916223703125,24.539Q3.9971222703125,24.5950003,3.9201221703125,24.5950003Q3.8571221703125,24.5950003,3.7171220703125,24.549500000000002Q3.5771221703125,24.5040002,3.5771221703125,24.448Q3.5771221703125,24.3920002,3.5491220703125,24.3920002Q3.5211221703125,24.3920002,3.4511222703125,24.2800002Q3.3811220703125,24.1680002,3.3006222703125,24.080500100000002Q3.2201220703125,23.993000000000002,3.2201220703125,23.9685001Q3.2201220703125,23.9439998,3.0171222703125,23.7129998Q2.8351220703125,23.4959998,2.8071222703125,23.5100002Q2.8001222703125,23.5170002,2.7861220703125,23.552Q2.7651221703125,23.6290002,2.6986222703125,23.7164998Q2.6321220703125,23.8039999,2.5761220703125,23.9229999Q2.5201220703125,24.0419998,2.4536220703125,24.073500199999998Q2.3871221703125,24.105,2.2681221703125,24.0139999Q2.1001221703125,23.887999999999998,2.0231220703125,23.7620001Q1.9811221703125,23.6919999,1.9706221703125,23.5834999Q1.9601220703125,23.4749999,1.9881220703125,23.454Q2.0231220703125,23.4400001,2.0441221703125,23.3594999Q2.0651221703125,23.2789998,2.1351220703125,23.2195001Q2.2051222703125,23.1599998,2.2681221703125,23.0339999Q2.3171222703125,22.9429998,2.4396221703125,22.796Q2.5621220703125,22.6490002,2.6111221703125,22.6350002Q2.6321220703125,22.6209998,2.6811220703125,22.586Q2.7791220703125,22.5019999,2.8771221703125,22.7189999Q2.9331221703125,22.8590002,2.9331221703125,23.027L2.9331221703125,23.1879997L3.1151220703125,23.3000002Q3.4091222703125,23.4749999,3.5246221703125,23.5135002Q3.6401221703125,23.552,3.6961221703125,23.481999899999998Q3.8011221703125,23.3559999,3.8431222703125,22.3340001Q3.8641221703125,21.7249999,3.8571221703125,21.7145Q3.8501221703125,21.704,3.5491220703125,21.7949998Q3.3111221703125,21.865000000000002,3.1291222703125,21.9665Q2.9471220703125,22.0679998,2.9051220703125,22.1589999Q2.8491220703125,22.2779999,2.7371220703125,22.274499900000002Q2.6251220703125,22.2709999,2.6041221703125,22.1589999Q2.5831222703125,22.0679998,2.5551221703125,22.0504999Q2.5271222703125,22.033,2.5656220703125,21.977Q2.6041221703125,21.921,2.5691220703125,21.8299999Q2.5341222703125,21.738999800000002,2.5516221703125,21.6935Q2.5691220703125,21.648,2.5341222703125,21.648Q2.4501220703125,21.648,2.5481221703125,21.543Q2.5621220703125,21.5289998,2.5901222703125,21.5079999Q2.6811220703125,21.438,2.6811220703125,21.4029999Q2.6811220703125,21.368,2.8211221703125,21.080999900000002Q2.9961221703125,20.7309999,3.0871221703125,20.485999800000002Q3.1291222703125,20.3529999,3.1641220703125,20.2969999Q3.1991221703125,20.2409999,3.2481221703125,20.073Q3.2901222703125,19.9189997,3.2586221703125,19.8979998Q3.2271220703125,19.8769999,3.0381221703125,19.954Q2.8911220703125,19.9959998,2.8036222703125,19.9889998Q2.7161221703125,19.981999899999998,2.6321220703125,19.9049997Q2.4011220703125,19.6949997,2.9891221703125,19.5409999Q3.0731222703125,19.52,3.1921222703125,19.4919996L3.3741221703125,19.4499998L3.4301221703125,19.2749996Q3.5141222703125,19.0019999,3.5561220703125,18.67999983ZM12.0611230703125,23.741000200000002Q12.4321220703125,23.7480001,12.4496220703125,23.7270002Q12.4671220703125,23.705999900000002,12.5791220703125,23.7270002Q12.9641230703125,23.776,13.0516220703125,23.821499799999998Q13.1391220703125,23.8670001,13.1601220703125,23.993000000000002Q13.2021220703125,24.2309999,13.0761220703125,24.3780003Q13.0131220703125,24.434,12.9816230703125,24.444499999999998Q12.9501230703125,24.4549999,12.8451220703125,24.448Q12.7051220703125,24.427,12.6036220703125,24.3955002Q12.5021230703125,24.363999800000002,12.3131220703125,24.3429999L11.7811220703125,24.2800002Q11.4591220703125,24.2379999,10.7136220703125,24.2379999Q9.9681224703125,24.2379999,9.7581224703125,24.2800002Q9.5691222703125,24.322,9.1491222703125,24.3780003Q8.4491224703125,24.4759998,8.3021220703125,24.616000200000002Q8.2251224703125,24.6859999,8.1866225703125,24.6859999Q8.1481218703125,24.6859999,8.0291223703125,24.6090002Q7.9171218703125,24.5320001,7.8751220703125,24.4759998Q7.8331222703125,24.4200001,7.8261222703125,24.3499999Q7.8191222703125,24.294000099999998,7.8471221703125,24.2659998Q7.8751220703125,24.2379999,8.0011224703125,24.1820002Q8.3161220703125,24.0139999,9.4571218703125,23.881Q9.6531219703125,23.8600001,9.7861223703125,23.8249998Q9.8981218703125,23.7969999,10.7731220703125,23.7655001Q11.6481230703125,23.7340002,12.0611230703125,23.741000200000002ZM9.7511224703125,18.421Q9.8071222703125,18.3579998,9.9051217703125,18.37549973Q10.0031220703125,18.39299965,10.0661220703125,18.45249987Q10.1291220703125,18.51199961,10.1536220703125,18.51199961Q10.1781220703125,18.51199961,10.2446220703125,18.60649967Q10.3111220703125,18.70099974,10.3111220703125,18.73600006Q10.3111220703125,18.77099991,10.2096220703125,18.87949991Q10.1081220703125,18.98799992,10.1081220703125,19.0124998Q10.1081220703125,19.0369997,10.0346220703125,19.1349998Q9.9611224703125,19.2329998,9.9856223703125,19.2329998Q10.0101220703125,19.2329998,10.2551220703125,19.1875Q10.5001220703125,19.1419997,10.6646220703125,19.1419997Q10.8291220703125,19.1419997,10.8501220703125,19.1209998Q10.8921220703125,19.0509996,11.2001230703125,19.2224998Q11.5081220703125,19.3940001,11.5081220703125,19.4849997Q11.5081220703125,19.5759997,11.2001230703125,19.8069997Q11.0811220703125,19.8909998,11.0216220703125,19.9400001Q10.9621220703125,19.9889998,10.9446220703125,19.9889998Q10.9271220703125,19.9889998,10.7836230703125,20.1185Q10.6401220703125,20.2479999,10.5071220703125,20.3425Q10.3741230703125,20.4369998,10.3706230703125,20.4579999Q10.3671230703125,20.478999899999998,10.4826220703125,20.4929998Q10.5981220703125,20.507,10.7171220703125,20.507Q10.8361220703125,20.507,11.1686220703125,20.5874999Q11.5011210703125,20.668,11.7776220703125,20.7624998Q12.0541230703125,20.856999899999998,12.1241230703125,20.9304998Q12.1941220703125,21.0039999,12.2011220703125,21.207Q12.2221220703125,21.9069998,12.1381220703125,22.2290001Q12.1171230703125,22.326999700000002,12.0856230703125,22.5124998Q12.0541230703125,22.698,11.9841220703125,22.8449998Q11.9141220703125,22.9920001,11.6586230703125,23.2614999Q11.4031220703125,23.5310001,11.2911220703125,23.566Q11.2141230703125,23.5939999,11.1896230703125,23.586999900000002Q11.1651220703125,23.5799999,11.1161220703125,23.5310001Q11.0461220703125,23.454,10.9621220703125,23.383999799999998Q10.8781220703125,23.3140001,10.8081230703125,23.223Q10.6751220703125,23.0409999,10.6366220703125,23.0165Q10.5981220703125,22.9920001,10.4371220703125,22.9920001Q10.2411220703125,22.9920001,10.1711220703125,23.0549998Q10.0311220703125,23.1879997,9.9471225703125,23.1040001Q9.9121227703125,23.0760002,9.8806218703125,23.0760002Q9.8491220703125,23.0760002,9.7511224703125,23.1110001Q9.5201225703125,23.180999800000002,9.3451223703125,23.447Q9.2961215703125,23.5170002,9.2471217703125,23.488999800000002Q9.1771220703125,23.4400001,9.1211223703125,23.3070002Q9.0651225703125,23.1739998,9.0651225703125,23.0619998Q9.0651225703125,22.9219999,9.0336217703125,22.9219999Q9.0021219703125,22.9219999,9.0021219703125,22.8800001Q9.0021219703125,22.8379998,8.9566221703125,22.8099999Q8.9111223703125,22.7820001,8.8866224703125,22.5825Q8.8621225703125,22.3829999,8.8341216703125,22.3129997Q8.8061218703125,22.243000000000002,8.7431220703125,21.6759999Q8.6941222703125,21.2419999,8.7011222703125,21.1299999Q8.7081222703125,21.0179999,8.7921218703125,21.0179999Q8.8481216703125,21.0179999,9.0511226703125,20.884999999999998Q9.2541217703125,20.7519999,9.5306224703125,20.661Q9.8071222703125,20.5699999,9.9401225703125,20.444Q10.0731220703125,20.3179998,10.1641220703125,20.2479999Q10.3741230703125,20.073,10.5911220703125,19.6529999L10.6611220703125,19.512999999999998L10.5491220703125,19.4990001Q10.4581220703125,19.4990001,10.1851220703125,19.5549998Q9.9121227703125,19.6110001,9.8421220703125,19.6459999Q9.8071222703125,19.6739998,9.7861223703125,19.6634998Q9.7651223703125,19.6529999,9.7161216703125,19.5969996L9.6531219703125,19.52L9.6181220703125,19.5899997Q9.5761222703125,19.6599998,9.4851226703125,19.7125001Q9.3941221703125,19.7649999,9.1666221703125,19.9714999Q8.9391221703125,20.178,8.8761224703125,20.227Q8.8131217703125,20.2759998,8.7221221703125,20.2934999Q8.6311225703125,20.3109999,8.6101217703125,20.283Q8.5891217703125,20.2409999,8.6871223703125,20.0695Q8.7851218703125,19.8979998,8.9111223703125,19.7509999Q9.0651225703125,19.5689998,9.0651225703125,19.5409999Q9.0651225703125,19.512999999999998,9.1211223703125,19.4534998Q9.1771220703125,19.3940001,9.2821216703125,19.2469997Q9.3871221703125,19.0929999,9.5271224703125,18.79899979Q9.6461219703125,18.53299999,9.7511224703125,18.421ZM10.9341220703125,20.9619999Q10.3461230703125,20.9059999,10.3461230703125,20.9549999Q10.3531230703125,20.9829998,10.4301220703125,21.0249999Q10.5771220703125,21.095,10.5911220703125,21.214Q10.5981220703125,21.3399999,10.7171220703125,21.375Q10.8921220703125,21.4029999,10.8921220703125,21.641Q10.8921220703125,21.753,10.8151230703125,21.809Q10.6821220703125,21.9069998,10.6576220703125,21.9594998Q10.6331220703125,22.0120001,10.6331220703125,22.2290001L10.6331220703125,22.4879999L10.7311220703125,22.4879999Q10.8921220703125,22.4879999,10.8921220703125,22.6350002Q10.8921220703125,22.8099999,10.9481220703125,22.8099999Q10.9621220703125,22.8099999,11.0321220703125,22.7469997Q11.1161220703125,22.6700001,11.1896230703125,22.5194998Q11.2631220703125,22.369,11.2911220703125,22.2290001Q11.4241220703125,21.5779998,11.4101220703125,21.27L11.4031220703125,21.080999900000002L11.2421230703125,21.0249999Q11.0811220703125,20.9829998,10.9341220703125,20.9619999ZM9.8981218703125,21.543Q9.9401225703125,21.5289998,9.9401225703125,21.3924999Q9.9401225703125,21.2559998,9.9646224703125,21.136999799999998Q9.9891223703125,21.0179999,9.9681224703125,21.0039999Q9.9541225703125,20.990000000000002,9.7651223703125,21.0319998Q9.5761222703125,21.0739999,9.4641217703125,21.1159999Q9.3941221703125,21.1439998,9.2961215703125,21.2419999L9.1841220703125,21.326L9.2191219703125,21.5079999Q9.2401218703125,21.6829998,9.2541217703125,21.753L9.2611217703125,21.816L9.3801221703125,21.738999800000002Q9.4921226703125,21.655,9.6811218703125,21.6059999L9.8981218703125,21.543ZM9.9051217703125,22.2360001Q9.9051217703125,22.0959997,9.8981218703125,22.0609999Q9.8911218703125,22.026,9.8491220703125,22.026Q9.7861223703125,22.026,9.7756223703125,22.0469999Q9.7651223703125,22.0679998,9.6321220703125,22.1064997Q9.4991225703125,22.145,9.3941221703125,22.102999699999998L9.3031215703125,22.0539999L9.3171224703125,22.2919998Q9.3311223703125,22.5299997,9.3731221703125,22.6104999Q9.4151220703125,22.691,9.4151220703125,22.7259998Q9.4151220703125,22.8239999,9.6531219703125,22.7189999Q9.6741218703125,22.711999900000002,9.6811218703125,22.711999900000002Q9.8421220703125,22.6350002,9.8736219703125,22.572Q9.9051217703125,22.508999799999998,9.9051217703125,22.2360001ZM17.2481230703125,20.1289999Q17.5631220703125,20.073,17.7101210703125,20.1569998Q17.8221230703125,20.2199998,17.8221230703125,20.3039999Q17.8221230703125,20.395,17.7766230703125,20.447499999999998Q17.7311230703125,20.5,17.6051220703125,20.5349998Q17.4581220703125,20.5839999,17.2306210703125,20.7939999Q17.0031220703125,21.0039999,16.8911230703125,21.095Q16.7791210703125,21.1859999,16.7721210703125,21.1929998Q16.7721210703125,21.1929998,16.8001210703125,21.207Q16.8281210703125,21.221,16.8736230703125,21.2419999Q16.9191230703125,21.262999999999998,16.9751220703125,21.2839999Q17.1711220703125,21.360999800000002,17.2831230703125,21.4519999Q17.4231220703125,21.5779998,17.5316220703125,21.536Q17.6401210703125,21.494,17.9131220703125,21.214Q18.3331220703125,20.78,18.3331220703125,20.675Q18.3331220703125,20.612000000000002,18.3821220703125,20.5769999Q18.4311220703125,20.5419998,18.5011210703125,20.5699999Q18.5641210703125,20.5839999,18.6166230703125,20.6469998Q18.6691230703125,20.7099998,18.7461220703125,20.884999999999998Q18.8161220703125,21.053,18.7916220703125,21.136999799999998Q18.7671220703125,21.221,18.6271230703125,21.3119998Q18.4871220703125,21.4029999,18.3786220703125,21.5079999Q18.2701220703125,21.6129999,18.1196210703125,21.7249999Q17.9691220703125,21.8369999,17.9691220703125,21.858Q17.9691220703125,21.928,18.2771220703125,22.2010002Q18.4451220703125,22.348,18.6691230703125,22.4635Q18.8931220703125,22.579,19.4461210703125,22.8239999Q19.8311230703125,22.9850001,19.9151230703125,23.0689998Q19.9781230703125,23.125,19.9816230703125,23.1459999Q19.9851230703125,23.1669998,19.9431230703125,23.23Q19.8941230703125,23.3140001,19.7821220703125,23.3280001Q19.6631220703125,23.3559999,19.5161230703125,23.4295001Q19.3691210703125,23.5029998,19.3131220703125,23.559Q19.2711220703125,23.6149998,19.1801220703125,23.6325002Q19.0891230703125,23.6500001,19.0681230703125,23.6079998Q19.0541230703125,23.5799999,18.9701230703125,23.559Q18.8931220703125,23.5450001,18.6096230703125,23.349Q18.3261220703125,23.1529999,18.1651230703125,23.006L17.9131220703125,22.7750001L17.8151230703125,22.691L17.7871230703125,23.0339999Q17.7731230703125,23.2930002,17.7346230703125,23.5205002Q17.6961210703125,23.7480001,17.6611210703125,23.783Q17.6261210703125,23.8179998,17.6261210703125,23.856500099999998Q17.6261210703125,23.895,17.5386220703125,24.0209999Q17.4511220703125,24.1469998,17.4511220703125,24.1820002Q17.4511220703125,24.217,17.2866230703125,24.3744998Q17.1221220703125,24.5320001,17.0171220703125,24.5879998Q16.8631230703125,24.6789999,16.6111220703125,24.6929998Q16.5271220703125,24.6999998,16.4571230703125,24.6020002Q16.3801230703125,24.4759998,16.2681220703125,24.3534999Q16.1561220703125,24.2309999,16.1281220703125,24.2309999Q16.0861220703125,24.2309999,15.9671220703125,24.1399999Q15.8481220703125,24.0489998,15.8341220703125,24.006999999999998Q15.8201220703125,23.9650002,15.7851220703125,23.9299998Q15.7641220703125,23.9159999,15.8271220703125,23.9229999Q15.9181220703125,23.9299998,16.2191220703125,24Q16.4781230703125,24.0560002,16.6111220703125,24.0630002Q16.6951220703125,24.0700002,16.7301220703125,24.0560002Q16.7651210703125,24.0419998,16.8211210703125,23.9860001Q16.9051230703125,23.887999999999998,17.0101220703125,23.671Q17.1151220703125,23.454,17.1571220703125,23.2789998Q17.2061210703125,23.0760002,17.2131210703125,22.6490002Q17.2061210703125,22.0050001,17.1361220703125,22.0120001Q17.0941220703125,22.0190001,16.9821220703125,22.243000000000002Q16.6741220703125,22.8239999,16.1561220703125,23.1739998Q16.0091230703125,23.2719998,16.0021230703125,23.2930002Q15.9461220703125,23.349,15.7221220703125,23.4749999Q15.4981220703125,23.6009998,15.4351220703125,23.6009998Q15.3791220703125,23.6009998,15.5611220703125,23.3909998Q15.6241230703125,23.3210001,15.6661220703125,23.2859998Q15.7431220703125,23.23,15.7431220703125,23.198500199999998Q15.7431220703125,23.1669998,16.0091230703125,22.866000200000002Q16.3171210703125,22.5159998,16.4571230703125,22.330500100000002Q16.5971220703125,22.145,16.6881220703125,21.955999900000002Q16.7931210703125,21.7249999,16.8421210703125,21.704Q16.8911230703125,21.6829998,16.8211210703125,21.6269999Q16.7511210703125,21.585,16.7056220703125,21.585Q16.6601220703125,21.585,16.6601220703125,21.633999799999998Q16.6601220703125,21.7739999,16.4921230703125,22.0015001Q16.3241210703125,22.2290001,16.1281220703125,22.355Q15.9881220703125,22.4460001,15.9531220703125,22.4775Q15.9181220703125,22.508999799999998,15.8271220703125,22.579L15.6031220703125,22.7539997Q15.3511220703125,22.9429998,15.2531220703125,22.9429998Q15.1271220703125,22.9429998,15.7291220703125,22.3199997Q16.0161230703125,22.0190001,16.0966220703125,21.8789999Q16.1771220703125,21.738999800000002,16.2296220703125,21.6689999Q16.2821220703125,21.599,16.2751220703125,21.592Q16.2541220703125,21.5779998,16.0966220703125,21.6619999Q15.9391220703125,21.7459998,15.8691220703125,21.809Q15.6801220703125,21.977,15.5471220703125,21.977Q15.4281220703125,21.977,15.5541220703125,21.704Q15.6031220703125,21.6059999,15.6836220703125,21.5325Q15.7641220703125,21.4589999,16.0511230703125,21.262999999999998Q16.3591210703125,21.046,16.4851230703125,20.9445Q16.6111220703125,20.8429999,16.8491210703125,20.619Q16.9961220703125,20.478999899999998,16.9751220703125,20.4719999Q16.9681220703125,20.4649999,16.9331230703125,20.4649999Q16.8631230703125,20.4649999,16.5971220703125,20.5489998Q16.3311210703125,20.6329999,16.2961220703125,20.668Q16.2681220703125,20.6959999,16.1666220703125,20.6889999Q16.0651230703125,20.6819999,16.0161230703125,20.6539998Q15.8551220703125,20.5279999,16.2261220703125,20.3669999Q16.4781230703125,20.261999799999998,16.8631230703125,20.1919999L17.2481230703125,20.1289999ZM16.7931210703125,18.37899971Q16.8631230703125,18.36499977,16.8771230703125,18.36149979Q16.8911230703125,18.3579998,16.9891220703125,18.41400003L17.1991210703125,18.51199961Q17.2831230703125,18.5539999,17.3391230703125,18.61699963Q17.3951220703125,18.67999983,17.3951220703125,18.72899961Q17.3951220703125,18.77099991,17.4301220703125,18.87599993Q17.4441220703125,18.93899965,17.4791220703125,18.96350002Q17.5141220703125,18.98799992,17.6611210703125,19.0159998Q17.8641220703125,19.0650001,18.1371230703125,19.0929999Q18.6341230703125,19.1489997,18.9421230703125,19.2609997Q19.1451220703125,19.3239999,19.1941220703125,19.3239999Q19.2431220703125,19.3239999,19.3831210703125,19.4534998Q19.5231230703125,19.5829997,19.5511230703125,19.6599998Q19.6351220703125,19.8629999,19.4216230703125,20.0344999Q19.2081220703125,20.205999900000002,19.0051230703125,20.073Q18.8651220703125,19.9889998,18.5641210703125,20.1359999Q18.4101220703125,20.2129998,18.3751220703125,20.2129998Q18.2561230703125,20.2129998,18.3751220703125,20.0449998Q18.3891220703125,20.017,18.4031220703125,20.0029998Q18.5081210703125,19.8769999,18.5081210703125,19.8174996Q18.5081210703125,19.7579999,18.5641210703125,19.6529999Q18.6831230703125,19.4639997,18.5291210703125,19.4639997Q18.4661220703125,19.4639997,18.3366220703125,19.4254999Q18.2071230703125,19.3870001,17.9621220703125,19.3694997Q17.7171210703125,19.3519998,17.6051220703125,19.3169999Q17.5281220703125,19.303,17.4826220703125,19.3099999Q17.4371220703125,19.3169999,17.3251230703125,19.3799996Q17.1781210703125,19.4569998,17.1221220703125,19.4604998Q17.0661220703125,19.4639997,16.9401230703125,19.415Q16.8561230703125,19.3729997,16.8036230703125,19.3694997Q16.7511210703125,19.3659997,16.5901220703125,19.3940001Q16.2331220703125,19.4569998,16.0651230703125,19.5479999Q16.0091230703125,19.5829997,15.9111220703125,19.625Q15.8411220703125,19.6529999,15.8166220703125,19.6914997Q15.7921220703125,19.73,15.7641220703125,19.849Q15.7081220703125,20.0379999,15.7081220703125,20.1149998Q15.7081220703125,20.1849999,15.6101220703125,20.3494999Q15.5121220703125,20.5139999,15.3861220703125,20.6259999Q15.2881220703125,20.7379999,15.2251220703125,20.7414999Q15.1621220703125,20.7449999,15.0991220703125,20.6539998Q15.0571220703125,20.5839999,15.0326220703125,20.3739998Q15.0081220703125,20.1639998,15.0431220703125,20.122Q15.0781220703125,20.0799999,15.1411220703125,19.954L15.2461220703125,19.7509999Q15.2881220703125,19.6739998,15.2881220703125,19.6215Q15.2881220703125,19.5689998,15.3581220703125,19.4429998Q15.4001220703125,19.3449998,15.4281220703125,19.3274999Q15.4561220703125,19.3099999,15.5541220703125,19.3099999Q15.7011220703125,19.3099999,15.9881220703125,19.2189999Q16.2751220703125,19.1279998,16.4781230703125,19.086L16.6951220703125,19.0579996L16.6951220703125,18.93899965Q16.6951220703125,18.82699966,16.6741220703125,18.65899992Q16.6601220703125,18.51199961,16.6846220703125,18.45249987Q16.7091220703125,18.39299965,16.7931210703125,18.37899971ZM25.8441220703125,23.180999800000002Q26.2291220703125,23.125,26.5791220703125,23.3769999Q26.7121220703125,23.454,26.8416210703125,23.5904999Q26.9711230703125,23.7270002,26.9711230703125,23.776Q26.9711230703125,23.7969999,27.0131220703125,23.8460002Q27.0551220703125,23.895,27.0131220703125,23.9334998Q26.9711230703125,23.9720001,26.9711230703125,24.0279999Q26.9711230703125,24.1890001,26.7891220703125,24.2800002Q26.6841220703125,24.336,26.6071220703125,24.3080001Q26.5511230703125,24.2800002,26.4251210703125,24.1574998Q26.2991220703125,24.0349998,26.2991220703125,24Q26.2991220703125,23.9790001,26.1031230703125,23.776Q25.7041220703125,23.3559999,25.7041220703125,23.2930002Q25.7041220703125,23.1950002,25.8441220703125,23.180999800000002ZM25.7041220703125,21.0109999Q25.8021220703125,20.990000000000002,25.8896220703125,20.9375Q25.9771230703125,20.884999999999998,26.0331230703125,20.8989999Q26.0891230703125,20.9129999,26.1801220703125,20.934Q26.2781220703125,20.948,26.3166220703125,21.0074999Q26.3551220703125,21.0669999,26.3691210703125,21.221Q26.3761210703125,21.375,26.3411220703125,21.4064999Q26.3061220703125,21.438,26.0961230703125,21.431Q25.9561230703125,21.424,25.7706220703125,21.4659998Q25.5851210703125,21.5079999,25.5851210703125,21.543Q25.5851210703125,21.5709999,25.6691230703125,21.6129999Q25.7391220703125,21.641,25.7496220703125,21.6829998Q25.7601220703125,21.7249999,25.7601220703125,21.8929999L25.7601220703125,22.1170001L25.8651220703125,22.102999699999998Q26.3341220703125,22.0469999,26.7471220703125,22.0120001Q26.9711230703125,21.9979999,27.0306220703125,21.928Q27.0901220703125,21.858,27.1741220703125,21.8615Q27.2581210703125,21.865000000000002,27.4121230703125,21.9489999Q27.5801220703125,22.033,27.6151220703125,22.033Q27.6501220703125,22.033,27.7481230703125,22.1099997Q27.8041230703125,22.1729999,27.8216230703125,22.2080002Q27.8391230703125,22.243000000000002,27.8391230703125,22.326999700000002Q27.8391230703125,22.467,27.7831230703125,22.5159998Q27.7551230703125,22.5439997,27.6781210703125,22.5685Q27.6011220703125,22.5929999,27.5451220703125,22.5964999Q27.4891220703125,22.5999999,27.4821220703125,22.586Q27.4821220703125,22.5510001,27.3736230703125,22.4809999Q27.2651210703125,22.4109998,27.0061230703125,22.3829999Q26.5091230703125,22.326999700000002,26.0751230703125,22.4109998L25.8091220703125,22.4460001Q25.7461220703125,22.467,25.7216220703125,22.4844999Q25.6971230703125,22.5019999,25.6831230703125,22.5510001Q25.6621230703125,22.6490002,25.6236230703125,22.7224998Q25.5851210703125,22.796,25.5291210703125,22.9499998Q25.4731220703125,23.1040001,25.3086220703125,23.3140001Q25.1441230703125,23.5240002,24.9761220703125,23.6989999L24.6751210703125,23.9790001Q24.5841220703125,24.0840001,24.3881220703125,24.217Q24.1921210703125,24.3499999,24.1221220703125,24.3850002Q24.0521220703125,24.3990002,23.9681220703125,24.4584999Q23.8841230703125,24.518000100000002,23.8701230703125,24.5040002Q23.8071210703125,24.434,24.1291220703125,24.1750002Q24.3671230703125,23.9720001,24.5701220703125,23.678Q24.9551220703125,23.1040001,25.0741230703125,22.7259998Q25.0951230703125,22.6420002,25.0846210703125,22.6209998Q25.0741230703125,22.5999999,25.0041220703125,22.6279998Q24.9341220703125,22.6560001,24.7241230703125,22.7189999Q24.4861220703125,22.789,24.4266220703125,22.8204999Q24.3671230703125,22.8520002,24.2551230703125,22.9499998Q24.1571220703125,23.0339999,24.1186220703125,23.051499800000002Q24.0801220703125,23.0689998,24.0031220703125,23.0619998Q23.9051230703125,23.0409999,23.8001210703125,22.9709997Q23.7231220703125,22.915,23.7021220703125,22.8835001Q23.6811220703125,22.8520002,23.6811220703125,22.7820001Q23.6811220703125,22.7049999,23.7021220703125,22.680500000000002Q23.7231220703125,22.6560001,23.8071210703125,22.6279998Q24.2201210703125,22.4530001,24.7731230703125,22.3129997Q25.2281230703125,22.2080002,25.2351230703125,22.1975002Q25.2421230703125,22.1869998,25.2596230703125,21.928Q25.2771220703125,21.6689999,25.3016220703125,21.6689999Q25.3261220703125,21.6689999,25.3401220703125,21.6129999Q25.3471220703125,21.592,25.3191220703125,21.5674999Q25.2911220703125,21.543,25.2351230703125,21.5079999Q25.1441230703125,21.4729998,25.1196210703125,21.4484999Q25.0951230703125,21.424,25.1021230703125,21.368Q25.1021230703125,21.2839999,25.1791230703125,21.2279999Q25.2631220703125,21.1859999,25.4381220703125,21.1055Q25.6131210703125,21.0249999,25.7041220703125,21.0109999ZM24.7451230703125,20.7029998Q24.8011230703125,20.6329999,24.9761220703125,20.8009999Q25.0881230703125,20.9129999,25.1091230703125,20.9759998Q25.1301230703125,21.0319998,25.0076220703125,21.27Q24.8851220703125,21.5079999,24.7941230703125,21.599Q24.6961210703125,21.6829998,24.4406220703125,21.858Q24.1851210703125,22.033,24.1571220703125,22.033Q24.1291220703125,22.033,24.0241220703125,22.102999699999998Q23.9331230703125,22.1659999,23.9401230703125,22.145Q23.9401230703125,22.131,24.0731220703125,21.9489999Q24.3391230703125,21.599,24.4511220703125,21.375Q24.4651220703125,21.3329999,24.5946220703125,21.1125Q24.7241230703125,20.892,24.7241230703125,20.8044999Q24.7241230703125,20.717,24.7451230703125,20.7029998ZM22.6521220703125,21.1999998Q22.7641220703125,20.9829998,22.8411220703125,20.8219998Q22.9181210703125,20.661,22.9776230703125,20.6329999Q23.0371230703125,20.6049998,23.1421220703125,20.6329999Q23.1981220703125,20.661,23.2226220703125,20.6889999Q23.2471220703125,20.717,23.2541220703125,20.773Q23.2681220703125,20.8709998,23.2961220703125,20.9059999Q23.3241210703125,20.941,23.2051220703125,21.1439998L23.1071220703125,21.360999800000002L23.2331220703125,21.375Q23.4011230703125,21.3889999,23.5866220703125,21.5534999Q23.7721210703125,21.7179999,23.7721210703125,21.8439999Q23.7721210703125,21.928,23.7231220703125,22.0889997Q23.5551220703125,22.684,23.4781230703125,22.8239999Q23.4291230703125,22.9499998,23.4291230703125,22.977999699999998Q23.4291230703125,23.006,23.3871230703125,23.02Q23.3451210703125,23.0339999,23.3451210703125,23.1215Q23.3451210703125,23.2090001,23.2576220703125,23.3455Q23.1701220703125,23.481999899999998,23.1701220703125,23.5029998Q23.1701220703125,23.552,22.9986230703125,23.7725Q22.8271220703125,23.993000000000002,22.7711220703125,23.993000000000002Q22.7361220703125,23.993000000000002,22.6521220703125,24.098L22.5611230703125,24.2030001L22.5331230703125,24.1259999Q22.4911210703125,24.0419998,22.4701210703125,24.0419998Q22.4561210703125,24.0419998,22.4386210703125,23.9965Q22.4211220703125,23.9510002,22.4281210703125,23.9299998Q22.4351210703125,23.9159999,22.3721220703125,23.8249998Q22.3091220703125,23.7340002,22.3091220703125,23.7094998Q22.3091220703125,23.6849999,22.2111220703125,23.6149998Q22.1131230703125,23.5450001,22.1131230703125,23.5240002Q22.1131230703125,23.5029998,21.9171220703125,23.3175001Q21.7211230703125,23.131999999999998,21.6931230703125,23.131999999999998Q21.6581230703125,23.131999999999998,21.5391220703125,23.2160001Q21.1821210703125,23.481999899999998,21.1611210703125,23.454Q21.1191210703125,23.419000099999998,21.4551220703125,23.027Q21.6861230703125,22.768000100000002,21.7981220703125,22.613999800000002Q22.1621230703125,22.102999699999998,22.1621230703125,22.0749998Q22.1621230703125,22.0609999,22.2391220703125,21.9384999Q22.3161220703125,21.816,22.4281210703125,21.6129999L22.6521220703125,21.1999998ZM23.0231230703125,22.7259998Q23.0861220703125,22.4809999,23.1141220703125,22.393499900000002Q23.1421220703125,22.305999800000002,23.1876220703125,22.0889997Q23.2331220703125,21.872,23.2436220703125,21.816Q23.2541220703125,21.759999999999998,23.1596220703125,21.6935Q23.0651230703125,21.6269999,23.0301230703125,21.6269999Q22.9951230703125,21.6269999,22.9041210703125,21.7809999Q22.7781220703125,21.9909999,22.4596210703125,22.355Q22.1411230703125,22.7189999,21.9661220703125,22.8379998Q21.9241220703125,22.8870001,21.8821220703125,22.9534998Q21.8401220703125,23.02,21.8751220703125,23.0409999Q22.0641210703125,23.1739998,22.4281210703125,23.2859998Q22.6031230703125,23.342,22.6486220703125,23.3455Q22.6941220703125,23.349,22.7501220703125,23.3140001Q22.9041210703125,23.2160001,23.0231230703125,22.7259998ZM22.7431220703125,19.106999899999998Q22.7781220703125,19.072,23.0931220703125,19.1139998Q23.1771220703125,19.1279998,23.2506220703125,19.2014999Q23.3241210703125,19.2749996,23.3556210703125,19.2749996Q23.3871230703125,19.2749996,23.4781230703125,19.3729997Q23.5691220703125,19.4709997,23.5691220703125,19.6145Q23.5691220703125,19.7579999,23.5236220703125,19.7894998Q23.4781230703125,19.8210001,23.4781230703125,19.8699999Q23.4781230703125,19.9189997,23.3801230703125,19.9679999Q23.2821220703125,20.017,23.2191220703125,20.0029998Q23.1211220703125,19.981999899999998,23.0196230703125,19.835Q22.9181210703125,19.6879997,22.8691210703125,19.4990001Q22.8551220703125,19.4219999,22.7781220703125,19.3519998Q22.6451220703125,19.198,22.7431220703125,19.106999899999998ZM24.9481220703125,18.81299973Q24.9481220703125,18.78499985,25.0076220703125,18.65899992Q25.0671210703125,18.53299999,25.1196210703125,18.54699993Q25.1721230703125,18.56099987,25.3506220703125,18.72899961Q25.5291210703125,18.89699984,25.5291210703125,18.93199968Q25.5291210703125,19.0439997,25.2701220703125,19.5689998Q25.2421230703125,19.625,25.2141230703125,19.6774998Q25.1861230703125,19.73,25.1721230703125,19.7614999Q25.1581230703125,19.7929997,25.1581230703125,19.7929997Q25.1651230703125,19.7929997,25.4241220703125,19.7054996Q25.6831230703125,19.618,25.8161220703125,19.6004996Q25.9491230703125,19.5829997,26.0121230703125,19.5514998Q26.0751230703125,19.52,26.1696220703125,19.5514998Q26.2641220703125,19.5829997,26.3551220703125,19.6040001Q26.5511230703125,19.6389999,26.5791220703125,19.8909998Q26.5931220703125,20.0449998,26.5441230703125,20.1079998Q26.5091230703125,20.1429999,26.4636230703125,20.1534998Q26.4181210703125,20.1639998,26.2781220703125,20.1429999Q26.0611230703125,20.1359999,25.9771230703125,20.1639998Q25.6271230703125,20.2689998,25.4416220703125,20.2584999Q25.2561230703125,20.2479999,25.1301230703125,20.122L25.0251220703125,20.017L24.9411220703125,20.1079998Q24.5351220703125,20.612000000000002,24.5211220703125,20.6399999Q24.5001220703125,20.675,24.3251230703125,20.8044999Q24.1501220703125,20.934,24.0451220703125,20.990000000000002Q23.8981230703125,21.0599999,23.8351210703125,21.1229999Q23.7721210703125,21.1859999,23.7721210703125,21.151Q23.7721210703125,21.1159999,23.8176230703125,21.080999900000002Q23.8631230703125,21.046,23.8631230703125,21.0144999Q23.8631230703125,20.9829998,23.9331230703125,20.9094999Q24.0031220703125,20.836,24.0311220703125,20.78Q24.0591220703125,20.724,24.1221220703125,20.6329999Q24.2061210703125,20.5,24.1816210703125,20.4614999Q24.1571220703125,20.4229999,23.9051230703125,20.3879998Q23.6811220703125,20.3599999,23.5201220703125,20.3879998Q23.1211220703125,20.485999800000002,22.9461210703125,20.556Q22.8621220703125,20.5909998,22.8341220703125,20.5909998Q22.7991220703125,20.5909998,22.6486220703125,20.6645Q22.4981210703125,20.7379999,22.4141220703125,20.7939999Q22.1971230703125,20.9059999,22.0431210703125,21.109Q21.9801220703125,21.1999998,21.8961220703125,21.196499799999998Q21.8121220703125,21.1929998,21.6511230703125,21.0879998Q21.4971220703125,20.997,21.4971220703125,20.9129999Q21.4971220703125,20.829,21.5741210703125,20.7695Q21.6511230703125,20.7099998,21.8611220703125,20.5979998Q22.1341230703125,20.4719999,22.6801220703125,20.2969999Q23.2261220703125,20.122,23.4991230703125,20.0869999Q23.6601220703125,20.073,23.6741220703125,20.0449998Q23.6881220703125,20.017,23.8771230703125,20.017Q24.1711220703125,20.017,24.2761230703125,20.1639998Q24.3111230703125,20.227,24.3461230703125,20.2129998Q24.3671230703125,20.1919999,24.5036220703125,19.9154997Q24.6401210703125,19.6389999,24.7171210703125,19.4569998Q24.9481220703125,18.87599993,24.9481220703125,18.81299973ZM32.7601240703125,23.6009998Q32.7601240703125,23.5170002,32.7811200703125,23.5170002Q32.8161240703125,23.5100002,33.1381220703125,23.6009998Q33.5231210703125,23.705999900000002,33.6631240703125,23.895Q33.6981200703125,23.9369998,33.7296220703125,24.1085Q33.7611240703125,24.2800002,33.7471240703125,24.329Q33.7261240703125,24.3850002,33.6841200703125,24.4025002Q33.6421200703125,24.4200001,33.6421200703125,24.4689999Q33.6421200703125,24.546,33.4811210703125,24.4829998Q33.4251210703125,24.4689999,33.3096240703125,24.356999899999998Q33.1941220703125,24.2449999,33.1171230703125,24.1329999Q33.0401230703125,24.0279999,32.9421230703125,23.9369998Q32.8441240703125,23.8460002,32.8441240703125,23.8144999Q32.8441240703125,23.783,32.8021240703125,23.7445002Q32.7601240703125,23.705999900000002,32.7601240703125,23.6009998ZM31.6471210703125,23.3979998Q31.7521230703125,23.335,31.9411220703125,23.5240002Q32.0741230703125,23.643000100000002,32.0741230703125,23.7515001Q32.0741230703125,23.8600001,31.9621220703125,23.9439998Q31.8571220703125,24.0279999,31.7101210703125,24.1085Q31.5631220703125,24.1890001,31.5106220703125,24.1890001Q31.4581220703125,24.1890001,31.4406220703125,24.2135Q31.4231220703125,24.2379999,31.1571220703125,24.3464999Q30.8911230703125,24.4549999,30.8806230703125,24.444499999999998Q30.8701230703125,24.434,31.1081220703125,24.2030001Q31.2761230703125,24.0279999,31.4371220703125,23.7865Q31.5981220703125,23.5450001,31.5981220703125,23.4679999Q31.5981220703125,23.419000099999998,31.6471210703125,23.3979998ZM29.8341220703125,21.0739999Q29.8621220703125,20.997,30.0021230703125,21.0669999Q30.0721230703125,21.102,30.1421220703125,21.1999998Q30.2121220703125,21.2979999,30.2121220703125,21.360999800000002Q30.2121220703125,21.3959999,30.1036220703125,21.6269999Q29.9951230703125,21.858,29.9461210703125,21.9419999Q29.9181210703125,21.984,29.8831210703125,22.0539999Q29.8621220703125,22.1099997,29.4981210703125,22.4775Q29.1341230703125,22.8449998,28.9311220703125,23.027Q28.4901220703125,23.419000099999998,28.4411220703125,23.419000099999998Q28.3781220703125,23.419000099999998,28.4341220703125,23.3559999Q28.4411220703125,23.342,28.4551220703125,23.335Q28.4971220703125,23.2930002,28.4971220703125,23.2579999Q28.4971220703125,23.244,28.5846210703125,23.1215Q28.6721230703125,22.9990001,28.7211230703125,22.9569998Q28.8051220703125,22.8800001,29.0956230703125,22.4635Q29.3861220703125,22.0469999,29.4771210703125,21.8509998Q29.5471230703125,21.7179999,29.5856230703125,21.6794999Q29.6241230703125,21.641,29.6241230703125,21.592Q29.6241230703125,21.543,29.6591220703125,21.5009999Q29.7431220703125,21.4099998,29.8341220703125,21.0739999ZM32.6201210703125,20.612000000000002Q32.6481210703125,20.5769999,32.6516230703125,20.321499799999998Q32.6551210703125,20.066,32.6971210703125,20.0449998Q32.7391200703125,20.0239999,32.7741240703125,20.0239999Q32.8231200703125,20.0239999,32.9316210703125,20.073Q33.0401230703125,20.122,33.1031230703125,20.1919999Q33.1661220703125,20.2479999,33.1731220703125,20.2794998Q33.1801220703125,20.3109999,33.1661220703125,20.402Q33.1381220703125,20.5419998,33.1556210703125,20.5595Q33.1731220703125,20.5769999,33.3761210703125,20.563Q33.5651210703125,20.5489998,33.6421200703125,20.5874999Q33.7191240703125,20.6259999,33.7541240703125,20.78Q33.8101230703125,20.9549999,33.7261240703125,21.0039999Q33.6421200703125,21.053,33.4181210703125,20.9689999Q33.3481220703125,20.941,33.2851220703125,20.923499800000002Q33.2221220703125,20.9059999,33.1801220703125,20.9024999Q33.1381220703125,20.8989999,33.1381220703125,20.9129999Q33.1311230703125,20.9199998,33.1171230703125,21.7879999L33.1031230703125,22.6420002L33.2921220703125,22.663000099999998Q33.4741210703125,22.684,33.7471240703125,22.6560001Q34.3281210703125,22.5929999,34.4401210703125,22.6560001Q34.4961240703125,22.684,34.5416220703125,22.7820001Q34.5871240703125,22.8800001,34.5941240703125,22.9850001Q34.6011240703125,23.237000000000002,34.3351210703125,23.1950002Q34.2161220703125,23.1739998,34.1741220703125,23.1459999Q34.0411220703125,23.0830002,33.2851220703125,23.0479999Q33.0611230703125,23.0409999,32.9981230703125,23.044499899999998Q32.9351230703125,23.0479999,32.9211230703125,23.0760002Q32.8931240703125,23.1599998,32.7391200703125,23.0760002Q32.6621210703125,23.0409999,32.4066240703125,23.0689998Q32.1511230703125,23.0970001,32.0146220703125,23.100500099999998Q31.8781220703125,23.1040001,31.5176220703125,23.223Q31.1571220703125,23.342,31.0311220703125,23.454Q30.9051230703125,23.566,30.8771230703125,23.566Q30.8281210703125,23.566,30.7161220703125,23.5029998Q30.6041220703125,23.4400001,30.5691220703125,23.3909998Q30.5271220703125,23.335,30.4991230703125,23.335Q30.4781230703125,23.335,30.4221230703125,23.3979998Q30.3661230703125,23.461,30.3661230703125,23.4959998Q30.3591210703125,23.5240002,30.1806220703125,23.7164998Q30.0021230703125,23.9089999,29.9461210703125,23.9299998Q29.8691210703125,23.9650002,29.8341220703125,24.0035Q29.7991220703125,24.0419998,29.7536220703125,24.0419998Q29.7081220703125,24.0419998,29.6906220703125,24.0840001Q29.6731220703125,24.1259999,29.5961230703125,24.1329999Q29.5611230703125,24.1399999,29.5401230703125,24.119Q29.5191230703125,24.098,29.4911210703125,24.0349998Q29.4561210703125,23.9229999,29.3476220703125,23.7620001Q29.2391220703125,23.6009998,29.2391220703125,23.559Q29.2391220703125,23.5240002,29.3021220703125,23.4959998Q29.3651220703125,23.4679999,29.4351210703125,23.4679999Q29.4701210703125,23.461,29.4911210703125,23.4400001Q29.5121230703125,23.419000099999998,29.6031230703125,23.419000099999998Q29.6871220703125,23.419000099999998,29.7501220703125,23.3594999Q29.8131220703125,23.3000002,29.9321210703125,23.1040001Q30.0931220703125,22.8379998,30.1736220703125,22.5159998Q30.2541220703125,22.1939998,30.1841220703125,22.0749998Q30.1491220703125,21.9979999,30.1071220703125,21.9979999Q30.0581230703125,21.9979999,30.0546230703125,21.9489999Q30.0511230703125,21.8999999,30.0931220703125,21.823Q30.1911220703125,21.6829998,30.3871230703125,21.731999899999998Q30.4921230703125,21.759999999999998,30.6321220703125,21.8509998Q30.7721210703125,21.9419999,30.7721210703125,21.984Q30.7721210703125,22.026,30.8001210703125,22.033Q30.8211210703125,22.04,30.7966210703125,22.2325001Q30.7721210703125,22.4250002,30.7441210703125,22.4530001Q30.7231220703125,22.4879999,30.6706220703125,22.711999900000002Q30.6181220703125,22.9359999,30.5971220703125,23.012999999999998Q30.5691220703125,23.0830002,30.5866220703125,23.0900002Q30.6041220703125,23.0970001,30.7231220703125,23.0409999Q30.8491210703125,22.9850001,30.9821220703125,22.9639997Q31.1151220703125,22.9429998,31.2341230703125,22.901Q31.3531230703125,22.8590002,31.4721220703125,22.830999900000002L31.5911220703125,22.796L31.6121220703125,22.606999899999998Q31.6261210703125,22.4039998,31.5981220703125,22.305999800000002Q31.5701220703125,22.2080002,31.6191210703125,22.071499799999998Q31.6681210703125,21.9349999,31.6681210703125,21.5534999Q31.6681210703125,21.1719999,31.6471210703125,21.1719999Q31.6261210703125,21.1719999,31.5561220703125,21.214Q31.4861220703125,21.2559998,31.4721220703125,21.2839999Q31.4441220703125,21.3329999,31.3636230703125,21.3155Q31.2831230703125,21.2979999,31.1991210703125,21.2279999Q31.1011220703125,21.136999799999998,31.1011220703125,21.0879998Q31.1011220703125,21.0599999,31.2796210703125,20.9689999Q31.4581220703125,20.878,31.5771220703125,20.856999899999998Q31.6541210703125,20.836,31.6891210703125,20.7624998Q31.7241230703125,20.6889999,31.7241230703125,20.5035Q31.7241230703125,20.3179998,31.7451230703125,20.3179998Q31.9271220703125,20.3179998,32.0181240703125,20.485999800000002Q32.0881230703125,20.612000000000002,32.1126210703125,20.612000000000002Q32.1371230703125,20.612000000000002,32.1371230703125,20.6574998Q32.1371230703125,20.7029998,32.1021230703125,20.7029998Q32.0671230703125,20.7029998,32.0811230703125,20.717Q32.0951230703125,20.7309999,32.3436200703125,20.6819999Q32.5921210703125,20.6329999,32.6201210703125,20.612000000000002ZM32.6061210703125,21.0739999Q32.6061210703125,20.9549999,32.5711210703125,20.9445Q32.5361210703125,20.934,32.3121220703125,20.990000000000002Q32.1231230703125,21.0249999,32.0531230703125,21.046Q32.0111240703125,21.053,31.9971220703125,21.080999900000002Q31.9831220703125,21.109,31.9831220703125,21.1999998Q31.9831220703125,21.3049998,31.9971220703125,21.326Q32.0111240703125,21.3469999,32.0531230703125,21.3329999Q32.1441230703125,21.2979999,32.3051220703125,21.3049998Q32.4661220703125,21.3119998,32.5081210703125,21.353999899999998Q32.5501210703125,21.3959999,32.5641210703125,21.3924999Q32.5781210703125,21.3889999,32.5921210703125,21.3119998Q32.6061210703125,21.2279999,32.6061210703125,21.0739999ZM32.5781210703125,21.8299999Q32.5781210703125,21.6759999,32.5641210703125,21.648Q32.5501210703125,21.6199999,32.4871220703125,21.6059999Q32.4101220703125,21.599,32.3401220703125,21.6234999Q32.2701220703125,21.648,32.2106210703125,21.641Q32.1511230703125,21.633999799999998,32.0671230703125,21.6689999Q31.9831220703125,21.704,31.9516220703125,21.704Q31.9201220703125,21.704,31.9341220703125,21.8509998Q31.9341220703125,21.9349999,31.9481220703125,21.9594998Q31.9621220703125,21.984,31.9971220703125,21.977Q32.1651230703125,21.9419999,32.3156200703125,21.984Q32.4661220703125,22.026,32.5081210703125,22.102999699999998Q32.5361210703125,22.145,32.5396230703125,22.1415Q32.5431210703125,22.137999999999998,32.5571210703125,22.102999699999998Q32.5781210703125,22.0469999,32.5781210703125,21.8299999ZM32.5291210703125,22.6209998Q32.5431210703125,22.572,32.5501210703125,22.3969998Q32.5571210703125,22.2220001,32.5291210703125,22.2185001Q32.5011210703125,22.2150002,32.3226240703125,22.256999999999998Q32.1441230703125,22.2989998,32.0741230703125,22.3199997Q31.9411220703125,22.369,31.9621220703125,22.606999899999998L31.9691220703125,22.7259998L32.1371230703125,22.7259998Q32.4941210703125,22.7329998,32.5291210703125,22.6209998ZM29.7151220703125,19.3239999Q29.8061220703125,19.2119999,29.8691210703125,19.2329998Q29.9321210703125,19.2539997,30.0371230703125,19.2820001Q30.1281220703125,19.296,30.2541220703125,19.3589997Q30.3801230703125,19.4219999,30.4151230703125,19.4639997Q30.4431230703125,19.506,30.4606230703125,19.6774998Q30.4781230703125,19.849,30.5061230703125,19.8839998Q30.5481220703125,19.9330001,30.4921230703125,20.0624998Q30.4361230703125,20.1919999,30.3451210703125,20.2479999Q30.1981220703125,20.3529999,30.1071220703125,20.1989999Q30.0721230703125,20.1149998,29.9951230703125,20.0449998Q29.9181210703125,19.9749999,29.9181210703125,19.947Q29.9181210703125,19.9330001,29.8026220703125,19.7719998Q29.6871220703125,19.6110001,29.6521220703125,19.5899997Q29.6171230703125,19.5689998,29.6311230703125,19.4849997Q29.6451220703125,19.401,29.7151220703125,19.3239999ZM31.7591230703125,18.70799971Q31.7801230703125,18.595999720000002,31.8116230703125,18.55749989Q31.8431220703125,18.51900005,31.9551220703125,18.56449986Q32.0671230703125,18.60999966,32.0776210703125,18.63100004Q32.0881230703125,18.65199995,32.2281230703125,18.74650002Q32.3681220703125,18.8409996,32.3821220703125,18.86199999Q32.3961220703125,18.89699984,32.3541220703125,18.98449993Q32.3121220703125,19.072,32.2491230703125,19.1419997Q32.1791230703125,19.2119999,32.1441230703125,19.2679996Q31.9551220703125,19.5479999,31.9691220703125,19.5759997Q31.9831220703125,19.5829997,32.0461230703125,19.5479999Q32.2981220703125,19.4289999,32.6271210703125,19.3799996Q32.7671200703125,19.3589997,32.8231200703125,19.3379998Q32.8861240703125,19.303,33.0576210703125,19.296Q33.2291220703125,19.289,33.3061220703125,19.3099999Q33.5231210703125,19.3799996,33.5231210703125,19.6459999Q33.5231210703125,19.744,33.5091210703125,19.7684999Q33.4951210703125,19.7929997,33.4111210703125,19.8139997Q33.2991220703125,19.835,33.2711220703125,19.8139997Q33.2431220703125,19.7929997,32.9876210703125,19.7859998Q32.7321240703125,19.7789998,32.5571210703125,19.7999997Q32.3751220703125,19.8210001,32.3191220703125,19.8769999Q32.2491230703125,19.954,32.1196210703125,19.9154997Q31.9901220703125,19.8769999,31.9131220703125,19.7509999L31.8641220703125,19.6599998L31.5631220703125,19.981999899999998L31.2481230703125,20.3039999L31.3041230703125,20.3739998Q31.3671230703125,20.444,31.3636230703125,20.5489998Q31.3601230703125,20.6539998,31.2971230703125,20.717Q31.2201210703125,20.7869999,31.0731220703125,20.7869999Q30.9261230703125,20.7869999,30.9051230703125,20.7519999Q30.8911230703125,20.724,30.8176230703125,20.7275Q30.7441210703125,20.7309999,30.7371220703125,20.773Q30.7231220703125,20.8009999,30.6601220703125,20.7659998Q30.5551220703125,20.7029998,30.2751220703125,20.773Q30.1071220703125,20.8079998,29.8691210703125,20.863999800000002Q29.4631210703125,20.948,29.1761230703125,21.109Q28.9871220703125,21.207,28.9381220703125,21.3049998Q28.8891220703125,21.4099998,28.7876220703125,21.4099998Q28.6861230703125,21.4099998,28.5741210703125,21.3049998L28.4971220703125,21.2349999L28.5601210703125,21.1299999Q28.6231210703125,21.0179999,28.6651230703125,21.0039999Q28.7071230703125,20.990000000000002,28.7071230703125,20.948Q28.7071230703125,20.9059999,28.7351230703125,20.9199998Q28.7911220703125,20.9549999,29.2741220703125,20.773Q29.6731220703125,20.619,30.2821220703125,20.4929998Q30.7021220703125,20.4089999,30.7966210703125,20.3809998Q30.8911230703125,20.3529999,30.9261230703125,20.3179998Q30.9821220703125,20.2549999,31.1571220703125,20.0239999Q31.3321230703125,19.7929997,31.3531230703125,19.744Q31.4791220703125,19.5339999,31.6051220703125,19.2154999Q31.7311230703125,18.89699984,31.7591230703125,18.70799971ZM39.1791230703125,20.878Q39.2351230703125,20.863999800000002,39.4381220703125,20.863999800000002Q39.5711210703125,20.863999800000002,39.6341210703125,20.8885Q39.6971210703125,20.9129999,39.8931240703125,21.046Q40.1591220703125,21.2419999,40.1696240703125,21.2979999Q40.1801220703125,21.353999899999998,40.2151220703125,21.4624999Q40.2501220703125,21.5709999,40.1871220703125,21.697Q39.9631230703125,22.1659999,39.7321240703125,21.8929999Q39.6551210703125,21.802,39.4906230703125,21.633999799999998Q39.3261220703125,21.4659998,39.2141230703125,21.2979999Q39.1021230703125,21.1299999,39.0286220703125,21.0634999Q38.9551240703125,20.997,38.9551240703125,20.9759998Q38.9551240703125,20.9549999,39.0321230703125,20.923499800000002Q39.1091230703125,20.892,39.1791230703125,20.878ZM40.7821230703125,18.53999996Q40.8591230703125,18.51199961,41.0866240703125,18.51900005Q41.3141210703125,18.52600002,41.3771210703125,18.56799984Q41.4261210703125,18.58899975,41.5066220703125,18.72199965Q41.5871240703125,18.85500002,41.5731240703125,18.99499989Q41.5731240703125,19.0929999,41.5521240703125,19.1244998Q41.5311200703125,19.1559997,41.4751200703125,19.184Q41.3631210703125,19.2539997,41.2931210703125,19.2574997Q41.2231220703125,19.2609997,41.1321220703125,19.2119999Q40.8871230703125,19.0929999,40.0541230703125,19.1139998Q39.6061210703125,19.1209998,39.0741230703125,19.1629996Q38.5421220703125,19.2049999,38.5211220703125,19.2259998Q38.5001220703125,19.2399998,38.5701220703125,19.3589997Q38.8641200703125,19.9119997,38.7381210703125,20.0589998Q38.6891210703125,20.0939999,38.6541210703125,20.4929998Q38.6191210703125,20.892,38.6331210703125,21.1999998Q38.6401210703125,21.494,38.6366230703125,21.6899998Q38.6331210703125,21.8859999,38.6331210703125,22.4809999Q38.6331210703125,23.0760002,38.5841220703125,23.3280001Q38.5351220703125,23.5799999,38.5036240703125,23.8425002Q38.4721220703125,24.105,38.4476200703125,24.1224999Q38.4231220703125,24.1399999,38.4231220703125,24.224Q38.4231220703125,24.3080001,38.3181230703125,24.4200001L38.2201230703125,24.5320001L38.1361240703125,24.3850002Q38.0521240703125,24.2449999,38.0381240703125,24.224Q38.0031200703125,24.2030001,37.9996220703125,24.080500100000002Q37.9961200703125,23.9580002,37.9961200703125,23.335Q37.9961200703125,22.691,37.9926220703125,22.4949999Q37.9891200703125,22.2989998,37.9961200703125,20.856999899999998Q38.0031200703125,19.415,38.0031200703125,19.3309999L38.0031200703125,19.2399998L37.8281210703125,19.2679996Q37.5831220703125,19.289,36.7851220703125,19.4359999Q36.6031230703125,19.4709997,36.5821230703125,19.4955001Q36.5611230703125,19.52,36.4771230703125,19.52Q36.3931240703125,19.52,36.2566220703125,19.5794997Q36.1201210703125,19.6389999,36.1201210703125,19.6809998Q36.1201210703125,19.8210001,35.7631220703125,19.6389999Q35.6511230703125,19.5829997,35.5321230703125,19.506Q35.1891210703125,19.2749996,35.9171220703125,19.1209998Q35.9451220703125,19.1139998,35.9731220703125,19.1139998Q36.2041210703125,19.0650001,36.5436210703125,18.9914999Q36.8831210703125,18.91799974,37.5831220703125,18.8585Q38.2831230703125,18.79899979,38.5841220703125,18.77099991L39.1791230703125,18.71499968Q40.0331230703125,18.6239996,40.4181210703125,18.6239996Q40.6421200703125,18.6239996,40.6631240703125,18.5994997Q40.6841200703125,18.57499981,40.7821230703125,18.53999996ZM44.4641230703125,21.6619999Q44.6811220703125,21.641,44.6881220703125,21.641Q44.6951220703125,21.6269999,44.9121210703125,21.7495Q45.1291240703125,21.872,45.1711230703125,21.9069998Q45.2341230703125,21.9629998,45.2516210703125,22.1170001Q45.2691230703125,22.2709999,45.1501240703125,22.5264997Q45.0311200703125,22.7820001,45.0311200703125,22.8134999Q45.0311200703125,22.8449998,44.8911210703125,23.0409999Q44.7091220703125,23.349,44.7931210703125,23.383999799999998Q44.8281210703125,23.383999799999998,44.9086230703125,23.5310001Q44.9891200703125,23.678,44.9611210703125,23.7585001Q44.9331210703125,23.8390002,44.8246230703125,23.8705001Q44.7161220703125,23.902,44.4711230703125,23.895Q44.1981200703125,23.895,43.9251210703125,23.9860001L43.6451220703125,24.0770001L43.6661220703125,24.2030001Q43.6731220703125,24.3150001,43.6031230703125,24.3499999Q43.5401230703125,24.3850002,43.4316210703125,24.325499999999998Q43.3231240703125,24.2659998,43.2881200703125,24.1609998Q43.2531200703125,24.0630002,43.1831210703125,23.9475002Q43.1131210703125,23.8319998,43.0886230703125,23.5205002Q43.0641210703125,23.2090001,43.0186230703125,23.0409999Q42.9731220703125,22.8730001,42.9696230703125,22.7399998Q42.9661220703125,22.606999899999998,42.9031220703125,22.4250002Q42.7281230703125,21.921,43.0501210703125,21.97Q43.1551210703125,21.984,43.3861240703125,21.8859999Q43.7221220703125,21.7459998,44.4641230703125,21.6619999ZM44.5201220703125,22.137999999999998Q44.5341220703125,22.0609999,44.5271220703125,22.0469999Q44.5201220703125,22.033,44.4431230703125,22.033Q44.0231210703125,22.0609999,43.8341220703125,22.1240001Q43.7221220703125,22.1589999,43.5961230703125,22.1729999Q43.4491230703125,22.2010002,43.4246220703125,22.2674999Q43.4001240703125,22.3340001,43.4141230703125,22.606999899999998Q43.4351230703125,22.9219999,43.4841230703125,23.1529999L43.5401230703125,23.3909998L43.6381220703125,23.3769999Q43.7361220703125,23.3559999,43.8971210703125,23.3559999Q44.0091210703125,23.3559999,44.0441210703125,23.3315001Q44.0791210703125,23.3070002,44.1491240703125,23.180999800000002Q44.2611240703125,23.006,44.3451230703125,22.7820001Q44.4431230703125,22.5369997,44.5201220703125,22.137999999999998ZM45.9971240703125,21.536Q46.2351230703125,21.4659998,46.4871220703125,21.4835Q46.7391200703125,21.5009999,47.0891230703125,21.5114999Q47.4391210703125,21.5219998,47.5161210703125,21.5569999Q47.6701200703125,21.6269999,47.8626210703125,21.7949998Q48.0551220703125,21.9629998,48.1251220703125,22.0889997Q48.2301220703125,22.256999999999998,48.0131220703125,22.46Q47.8871230703125,22.5929999,47.7716220703125,22.764499700000002Q47.6561200703125,22.9359999,47.5861210703125,23.012999999999998Q47.5161210703125,23.0900002,47.5161210703125,23.1075001Q47.5161210703125,23.125,47.6701200703125,23.3210001Q47.8941230703125,23.636000199999998,47.7751240703125,23.7585001Q47.6561200703125,23.881,47.1871220703125,23.8179998Q46.9001240703125,23.776,46.5711210703125,23.8039999L46.2351230703125,23.8319998L46.2351230703125,23.9860001Q46.2351230703125,24.119,46.1966210703125,24.1820002Q46.1581230703125,24.2449999,46.0951230703125,24.224Q46.0321230703125,24.217,45.9481240703125,24.105Q45.8641200703125,23.993000000000002,45.8641200703125,23.9369998Q45.8641200703125,23.887999999999998,45.7731210703125,23.6989999Q45.6821210703125,23.5100002,45.6611210703125,23.2579999Q45.6401210703125,23.006,45.5666240703125,22.7084999Q45.4931220703125,22.4109998,45.4511220703125,22.145Q45.4161220703125,21.97,45.4196200703125,21.9175Q45.4231220703125,21.865000000000002,45.4511220703125,21.816Q45.5911220703125,21.655,45.9971240703125,21.536ZM46.9071230703125,22.6490002Q47.2151220703125,22.033,47.1416210703125,21.9665Q47.0681230703125,21.8999999,46.5221210703125,21.9489999Q45.9761240703125,21.9979999,45.9481240703125,22.0679998Q45.9341200703125,22.1099997,45.9516220703125,22.3094997Q45.9691240703125,22.508999799999998,45.9621240703125,22.7049999Q45.9481240703125,23.0409999,46.0671230703125,23.180999800000002Q46.0951230703125,23.2160001,46.2526210703125,23.1704998Q46.4101220703125,23.125,46.5011210703125,23.1040001Q46.7111210703125,23.0619998,46.9071230703125,22.6490002ZM44.7651210703125,18.70799971Q44.9121210703125,18.65199995,46.0601230703125,18.72899961Q46.2351230703125,18.73600006,46.5711210703125,18.8409996Q46.8861240703125,18.93899965,46.9981230703125,19.0299997Q47.1101230703125,19.1209998,47.0961230703125,19.2820001Q47.0961230703125,19.4499998,47.0226210703125,19.5374999Q46.9491230703125,19.625,46.7111210703125,19.723Q46.5991210703125,19.7649999,46.4451220703125,19.9749999Q46.2911220703125,20.1849999,46.2911220703125,20.2094998Q46.2911220703125,20.234,46.3541220703125,20.2549999Q46.4171220703125,20.2759998,46.4871220703125,20.4369998Q46.5571210703125,20.5979998,46.5851210703125,20.619Q46.6341210703125,20.6399999,46.6201210703125,20.7029998Q46.6061210703125,20.7659998,46.5571210703125,20.8149998Q46.5011210703125,20.863999800000002,46.3821220703125,20.8885Q46.2631220703125,20.9129999,46.2176210703125,20.878Q46.1721230703125,20.8429999,45.7941210703125,20.8044999Q45.4161220703125,20.7659998,45.1571230703125,20.8149998Q44.7301220703125,20.884999999999998,44.7301220703125,21.0039999Q44.7301220703125,21.0389998,44.5936200703125,21.0704999Q44.4571230703125,21.102,44.4221230703125,21.0739999Q44.3661230703125,21.046,44.2611240703125,20.8395Q44.1561200703125,20.6329999,44.1071200703125,20.4579999Q43.9881210703125,20.0869999,43.9181210703125,19.6879997Q43.8481220703125,19.289,43.8726230703125,19.2119999Q43.8971210703125,19.1349998,43.8621220703125,19.0929999Q43.8271220703125,19.0509996,43.9881210703125,18.93899965Q44.2961230703125,18.75,44.5901220703125,18.74300003Q44.6811220703125,18.73600006,44.7651210703125,18.70799971ZM45.6471210703125,19.0509996Q45.4651220703125,19.0089998,45.1781230703125,18.99849987Q44.8911210703125,18.98799992,44.7651210703125,19.0019999Q44.3381230703125,19.072,44.3311230703125,19.1489997Q44.3171230703125,19.289,44.3801230703125,19.3870001Q44.4291230703125,19.4499998,44.4291230703125,19.5304999Q44.4291230703125,19.6110001,44.4641230703125,19.6739998Q44.4991230703125,19.737000000000002,44.5201220703125,19.8979998Q44.5411220703125,20.0799999,44.5936200703125,20.2409999Q44.6461220703125,20.402,44.6811220703125,20.402Q44.7231220703125,20.402,44.7301220703125,20.3669999Q44.7511210703125,20.339,45.0101200703125,20.2724998Q45.2691230703125,20.205999900000002,45.3811230703125,20.205999900000002Q45.4511220703125,20.205999900000002,45.5386240703125,20.1429999Q45.6261210703125,20.0799999,45.6261210703125,20.0239999Q45.6261210703125,19.9959998,45.7241210703125,19.7999997Q45.8151210703125,19.625,45.8606220703125,19.401Q45.9061200703125,19.177,45.8641200703125,19.1209998Q45.8151210703125,19.072,45.6471210703125,19.0509996ZM53.4381220703125,18.21799994L53.5711210703125,18.23899984Q53.6971210703125,18.25999975,53.7636220703125,18.33349991Q53.8301240703125,18.40700006,53.8021240703125,18.48399973Q53.7881240703125,18.5539999,53.5851210703125,18.75Q53.3821220703125,18.94599962,53.3821220703125,18.96350002Q53.3821220703125,18.98099995,53.7951200703125,18.98099995Q54.3131220703125,18.98099995,54.5021210703125,19.072Q54.9571230703125,19.2679996,55.0761220703125,19.3239999Q55.1251220703125,19.3449998,55.1321220703125,19.3729997Q55.1391220703125,19.401,55.1251220703125,19.5409999Q55.0761220703125,20.0239999,55.0131220703125,20.1429999Q54.9781230703125,20.2129998,54.9641230703125,20.2549999Q54.9361230703125,20.3249998,54.8416210703125,20.4824998Q54.7471240703125,20.6399999,54.6631240703125,20.7379999Q54.5581210703125,20.863999800000002,54.4251210703125,20.941L54.2921220703125,21.0109999L54.1871220703125,20.892Q54.1031230703125,20.8079998,54.0681230703125,20.7869999Q54.0331230703125,20.7659998,53.9491230703125,20.7659998Q53.7181210703125,20.7659998,53.6481210703125,20.829Q53.6411210703125,20.836,53.6481210703125,20.8429999Q53.6621210703125,20.8709998,53.7531200703125,20.892Q53.8441240703125,20.9129999,53.8441240703125,20.948Q53.8441240703125,20.9829998,53.8756220703125,21.0005Q53.9071230703125,21.0179999,53.9631230703125,21.102Q54.0191230703125,21.1859999,54.0121230703125,21.4554999Q54.0051230703125,21.7249999,53.9981230703125,21.7739999Q53.9981230703125,21.816,54.0261230703125,21.8264999Q54.0541230703125,21.8369999,54.1801220703125,21.8369999Q54.3691210703125,21.8439999,54.5686230703125,21.8299999Q54.7681240703125,21.816,54.7821230703125,21.759999999999998Q54.7891230703125,21.7249999,54.8206210703125,21.7179999Q54.8521230703125,21.711,54.9781230703125,21.7179999Q55.1531220703125,21.731999899999998,55.2476230703125,21.7879999Q55.3421210703125,21.8439999,55.4051210703125,21.9629998Q55.4401210703125,22.0469999,55.4471210703125,22.0819998Q55.4541210703125,22.1170001,55.4261210703125,22.1869998Q55.3981210703125,22.2709999,55.3211210703125,22.326999700000002Q55.2581210703125,22.3759999,55.2301220703125,22.3794999Q55.2021220703125,22.3829999,55.1041220703125,22.348Q54.9081230703125,22.2779999,54.4881210703125,22.256999999999998Q54.0681230703125,22.2360001,54.0191230703125,22.2849998Q53.9981230703125,22.305999800000002,53.9701230703125,23.0970001Q53.9491230703125,24.006999999999998,53.9176220703125,24.322Q53.8861240703125,24.6370001,53.7951200703125,24.777Q53.7531200703125,24.8400002,53.6936230703125,24.8295002Q53.6341210703125,24.819000199999998,53.5221210703125,24.7280002L53.3821220703125,24.6090002L53.3961220703125,23.783Q53.4101220703125,22.9639997,53.3751220703125,22.677L53.3401220703125,22.3969998L53.2071230703125,22.4039998Q53.0741230703125,22.4180002,52.9516220703125,22.4530001Q52.8291210703125,22.4879999,52.7346230703125,22.5019999Q52.6401210703125,22.5159998,52.5771220703125,22.575499999999998Q52.5141220703125,22.6350002,52.4546200703125,22.6174998Q52.3951220703125,22.5999999,52.3181230703125,22.6279998Q52.1921230703125,22.677,52.1081240703125,22.5159998Q52.0171200703125,22.326999700000002,52.1501240703125,22.2849998Q52.2411230703125,22.256999999999998,52.4301220703125,22.1869998Q52.6331210703125,22.102999699999998,53.1791230703125,21.9909999L53.3961220703125,21.9349999L53.3961220703125,21.5149999Q53.4031220703125,21.3959999,53.3996240703125,21.301499800000002Q53.3961220703125,21.207,53.3926240703125,21.1545Q53.3891220703125,21.102,53.3891220703125,21.109Q53.3751220703125,21.1159999,53.2841220703125,21.277Q53.2001230703125,21.4029999,53.1056210703125,21.4835Q53.0111240703125,21.5639999,52.6821210703125,21.7879999Q52.4021220703125,21.9909999,52.3146210703125,22.0644999Q52.2271230703125,22.137999999999998,52.2026210703125,22.137999999999998Q52.1781230703125,22.137999999999998,52.0661240703125,22.2150002Q51.9961200703125,22.2709999,51.9751200703125,22.2989998Q51.9541210703125,22.326999700000002,51.9541210703125,22.4320002Q51.9541210703125,22.572,51.9156230703125,22.6104999Q51.8771210703125,22.6490002,51.8736230703125,22.6700001Q51.8701210703125,22.691,51.8141210703125,22.7609997Q51.7581210703125,22.830999900000002,51.7301220703125,22.7925Q51.7021220703125,22.7539997,51.6461220703125,22.7189999Q51.5831220703125,22.684,51.5586200703125,22.586Q51.5341220703125,22.4879999,51.5411220703125,22.3759999Q51.5551220703125,22.2360001,51.5691220703125,21.7249999L51.5761220703125,21.221L51.4921230703125,21.2349999Q51.4011230703125,21.262999999999998,51.3276210703125,21.3049998Q51.2541240703125,21.3469999,51.1841200703125,21.3119998Q51.1211200703125,21.2839999,51.1106220703125,21.294499899999998Q51.1001200703125,21.3049998,51.0721210703125,21.4099998Q51.0091210703125,21.6829998,50.8936230703125,21.9629998Q50.7781220703125,22.243000000000002,50.7011220703125,22.2989998Q50.6591220703125,22.3340001,50.6591220703125,22.3794999Q50.6591220703125,22.4250002,50.6031230703125,22.474L50.4421230703125,22.613999800000002Q50.2461200703125,22.7820001,50.0641210703125,22.8800001Q49.9101220703125,22.977999699999998,49.8961220703125,22.9990001Q49.8751220703125,23.027,49.7281230703125,23.100500099999998Q49.5811230703125,23.1739998,49.5671230703125,23.1599998Q49.5041240703125,23.0970001,49.8261220703125,22.7750001Q50.0081210703125,22.586,50.1446230703125,22.4004998Q50.2811200703125,22.2150002,50.2811200703125,22.1659999Q50.2811200703125,22.1170001,50.3056220703125,22.1099997Q50.3301240703125,22.102999699999998,50.4281230703125,21.9105Q50.5261230703125,21.7179999,50.5261230703125,21.6829998Q50.5261230703125,21.655,50.5716210703125,21.5079999Q50.6171230703125,21.360999800000002,50.6521220703125,21.2839999Q50.6801220703125,21.1999998,50.7536240703125,20.6645Q50.8271220703125,20.1289999,50.8131220703125,20.0939999Q50.7991220703125,20.0799999,50.8341220703125,19.7335Q50.8691210703125,19.3870001,50.8481220703125,19.296Q50.8201220703125,19.1629996,50.9006230703125,19.0895Q50.9811210703125,19.0159998,51.1001200703125,19.072Q51.1701200703125,19.0929999,51.1876220703125,19.1875Q51.2051240703125,19.2820001,51.2471240703125,19.3099999Q51.2821230703125,19.3239999,51.2891230703125,19.401Q51.2961230703125,19.4779997,51.2891230703125,19.737000000000002Q51.2891230703125,20.1429999,51.2996220703125,20.1429999Q51.3101230703125,20.1429999,51.4851230703125,20.066Q51.5901220703125,20.0239999,51.6321220703125,19.9854999Q51.6741220703125,19.947,51.7021220703125,19.8909998Q51.7791210703125,19.7089996,51.8141210703125,19.1349998Q51.8351210703125,18.67999983,51.9261210703125,18.6239996Q51.9471210703125,18.60999966,52.0731240703125,18.70099974Q52.1991230703125,18.79199982,52.2341230703125,18.84800005Q52.2691230703125,18.91799974,52.2621230703125,19.1664996Q52.2551230703125,19.415,52.2131230703125,19.527Q52.1781230703125,19.625,52.1571230703125,19.7089996Q52.1501240703125,19.7649999,52.1571230703125,19.7824998Q52.1641230703125,19.7999997,52.2131230703125,19.7999997Q52.2831230703125,19.7999997,52.3146210703125,19.723Q52.3461230703125,19.6459999,52.6611210703125,19.296Q53.2491230703125,18.63800001,53.2491230703125,18.56099987Q53.2491230703125,18.53999996,53.2911220703125,18.50499964Q53.3331220703125,18.46999979,53.3331220703125,18.43499994Q53.3331220703125,18.39999962,53.3821220703125,18.30200005L53.4381220703125,18.21799994ZM54.4251210703125,19.415Q54.3761210703125,19.3659997,54.2921220703125,19.3519998Q54.2081220703125,19.3379998,54.0471230703125,19.3239999L53.8791240703125,19.3099999L53.8651240703125,19.4429998Q53.8511240703125,19.5619998,53.8301240703125,19.6040001Q53.8231200703125,19.6389999,53.8441240703125,19.6494999Q53.8651240703125,19.6599998,53.9281230703125,19.6739998Q54.1101230703125,19.6949997,54.1556210703125,19.7614999Q54.2011220703125,19.8280001,54.1171230703125,19.947Q54.0821230703125,20.017,53.9351230703125,20.017Q53.7881240703125,20.017,53.7566220703125,20.073Q53.7251200703125,20.1289999,53.6936230703125,20.2724998Q53.6621210703125,20.4159999,53.6796230703125,20.4229999Q53.6971210703125,20.4299998,53.9421230703125,20.4229999Q54.1241230703125,20.4159999,54.1626200703125,20.402Q54.2011220703125,20.3879998,54.2291220703125,20.3249998Q54.3761210703125,20.0309999,54.4286230703125,19.7614999Q54.4811210703125,19.4919996,54.4251210703125,19.415ZM53.1581230703125,19.3940001Q53.0741230703125,19.3589997,53.0356220703125,19.3694997Q52.9971240703125,19.3799996,52.9201200703125,19.4569998Q52.8151210703125,19.5409999,52.8151210703125,19.6459999Q52.8151210703125,19.7509999,52.8641200703125,19.8210001L52.9131240703125,19.8769999L53.1441230703125,19.8069997L53.3751220703125,19.737000000000002L53.4101220703125,19.5619998Q53.4381220703125,19.3870001,53.4241220703125,19.3729997Q53.4101220703125,19.3589997,53.3156200703125,19.3975Q53.2211230703125,19.4359999,53.1581230703125,19.3940001ZM52.4371220703125,19.7999997Q52.4931220703125,19.7999997,52.4931220703125,19.7719998Q52.4931220703125,19.744,52.4546200703125,19.744Q52.4161220703125,19.744,52.4021220703125,19.7649999Q52.3951220703125,19.7789998,52.4056210703125,19.7894998Q52.4161220703125,19.7999997,52.4371220703125,19.7999997ZM53.3051220703125,20.1359999Q53.3051220703125,20.0939999,53.2421230703125,20.1009998Q53.2071230703125,20.1009998,53.0671230703125,20.1359999Q52.9481240703125,20.1709998,52.9271240703125,20.1884999Q52.9061200703125,20.205999900000002,52.9061200703125,20.2689998Q52.9061200703125,20.3669999,52.9341200703125,20.478999899999998Q52.9551240703125,20.563,52.9726220703125,20.5839999Q52.9901240703125,20.6049998,53.0321230703125,20.6049998Q53.1091230703125,20.6049998,53.1511230703125,20.556Q53.1861230703125,20.5139999,53.2456210703125,20.3564999Q53.3051220703125,20.1989999,53.3051220703125,20.1359999ZM52.8361210703125,20.8989999Q52.7101210703125,20.836,52.7276230703125,20.7835Q52.7451210703125,20.7309999,52.6751210703125,20.5734999Q52.6051220703125,20.4159999,52.5876240703125,20.3109999Q52.5701220703125,20.205999900000002,52.5561220703125,20.205999900000002L52.4161220703125,20.227Q52.0241240703125,20.29,51.6181220703125,20.485999800000002Q51.3521230703125,20.612000000000002,51.2961230703125,20.612000000000002Q51.2401240703125,20.612000000000002,51.2086220703125,20.668Q51.1771240703125,20.724,51.1771240703125,20.8009999Q51.1771240703125,20.863999800000002,51.1351200703125,20.923499800000002Q51.0931210703125,20.9829998,51.1141200703125,20.9829998Q51.1561200703125,20.9829998,51.3696210703125,20.878Q51.5831220703125,20.773,51.5901220703125,20.7449999Q51.6041220703125,20.6959999,51.6566240703125,20.6645Q51.7091220703125,20.6329999,51.8666230703125,20.7134998Q52.0241240703125,20.7939999,52.0556220703125,20.7939999Q52.0871240703125,20.7939999,52.1256220703125,20.856999899999998Q52.1641230703125,20.9199998,52.1291240703125,21.0249999Q51.9611210703125,21.5639999,52.0031200703125,21.8929999L52.0241240703125,22.0679998L52.3461230703125,21.7459998Q52.5631220703125,21.543,52.7346230703125,21.326Q52.9061200703125,21.109,52.9481240703125,20.997Q52.9551240703125,20.9759998,52.9236220703125,20.9549999Q52.8921200703125,20.934,52.8361210703125,20.8989999Z" fill="#FFFFFF" fill-opacity="1"/></g></svg>