<svg xmlns="http://www.w3.org/2000/svg" xmlns:xlink="http://www.w3.org/1999/xlink" fill="none" version="1.1" width="120.353759765625" height="120" viewBox="0 0 120.353759765625 120"><defs><linearGradient x1="0.8360541462898254" y1="0.36099812388420105" x2="0.2742954301963935" y2="1.1939570499902739" id="master_svg0_2_19950"><stop offset="0%" stop-color="#FF8F57" stop-opacity="1"/><stop offset="100%" stop-color="#FFB48A" stop-opacity="0.10000000149011612"/></linearGradient><linearGradient x1="0.16394764184951782" y1="0.36099812388420105" x2="0.7257063333523068" y2="1.193957037095766" id="master_svg1_2_19936"><stop offset="0%" stop-color="#FF8F57" stop-opacity="1"/><stop offset="100%" stop-color="#FFB48A" stop-opacity="0.10000000149011612"/></linearGradient><linearGradient x1="0.5000031590461731" y1="0.05067876726388931" x2="0.5000031590461731" y2="0.9281762838363647" id="master_svg2_2_086857"><stop offset="0%" stop-color="#FFA98C" stop-opacity="1"/><stop offset="96.42857313156128%" stop-color="#FF996C" stop-opacity="1"/></linearGradient><linearGradient x1="0.5000109672546387" y1="0.02130604349076748" x2="0.5000109672546387" y2="1.7284283638000488" id="master_svg3_2_19910"><stop offset="0%" stop-color="#FFEEEB" stop-opacity="1"/><stop offset="100%" stop-color="#FFEEEB" stop-opacity="0.20000000298023224"/></linearGradient><linearGradient x1="0.5000038743019104" y1="0.9432121515274048" x2="0.5000038743019104" y2="0.024735186249017715" id="master_svg4_2_19919"><stop offset="0%" stop-color="#FFB48A" stop-opacity="1"/><stop offset="100%" stop-color="#FFB48A" stop-opacity="0"/></linearGradient></defs><path d="M104.473296640625,74.51415442382813L15.351806640625,74.51415442382813L26.287655640624997,46.635284423828125L93.537475640625,46.635284423828125L104.473296640625,74.51415442382813Z" fill="#FF8269" fill-opacity="1" style="mix-blend-mode:passthrough"/><path d="M103.200904984375,73.4979076796875L16.626708984375,73.4979076796875L26.749907984375,47.0897216796875L93.015464984375,47.0897216796875L103.200904984375,73.4979076796875Z" fill="#DB3A14" fill-opacity="1" style="mix-blend-mode:passthrough"/><path d="M15.34516,74.51113918359376L0,93.01348518359376L11.400087,67.93329418359374L26.281008,46.63226318359375L15.34516,74.51113918359376Z" fill="url(#master_svg0_2_19950)" fill-opacity="1" style="mix-blend-mode:passthrough"/><path d="M135.1059021875,74.51113918359376L119.7607421875,93.01348518359376L131.16082918749998,67.93329418359374L146.04175018749999,46.63226318359375L135.1059021875,74.51113918359376Z" fill="url(#master_svg1_2_19936)" fill-opacity="1" transform="matrix(-1,0,0,1,239.521484375,0)" style="opacity:0.5;"/><path d="M89.39030121875,74.51415442382813L30.43665411875,74.51415442382813L26.28857421875,46.635284423828125L93.53837621875,46.635284423828125L89.39030121875,74.51415442382813Z" fill="#FF906E" fill-opacity="1" style="opacity:0.20000000298023224;"/><path d="M104.473296640625,74.51431274414062L15.351806640625,74.51431274414062L26.381931640624998,108.27590974414062C26.889126640625,109.82765974414062,28.335295640625,110.87600374414063,29.966248640625,110.87600374414063L89.858878640625,110.87600374414063C91.489814640625,110.87600374414063,92.935973640625,109.82765974414062,93.443168640625,108.27590974414062L104.473296640625,74.51431274414062Z" fill="url(#master_svg2_2_086857)" fill-opacity="1" style="mix-blend-mode:passthrough"/><path d="" fill="url(#master_svg3_2_19910)" fill-opacity="1" style="opacity:0.5;"/><path d="M96.900611828125,9.7928466796875L22.800048828125,9.7928466796875L43.720060828125,73.63332367968749L75.980613828125,73.63332367968749L96.900611828125,9.7928466796875Z" fill="url(#master_svg4_2_19919)" fill-opacity="1" style="opacity:0.800000011920929;"/><path d="M49.23122815,33.006808427504886C48.75608645,32.53166669750488,47.96229029,32.53166669750488,47.48526114,33.006808427504886C47.01011937,33.48195028750488,47.01011937,34.275746267504886,47.48526114,34.59250696750488L52.08585975,39.03472516750488C52.56100085,39.509865267504885,53.35479785,39.35148616750488,53.82994035,39.03472516750488C54.30696775,38.55958126750488,54.30696775,37.765786167504885,53.82994035,37.288757367504886L49.23122815,33.006808427504886Z" fill="#F74E0C" fill-opacity="1" style="mix-blend-mode:passthrough"/><path d="M72.34165190603028,33.006808427504886C71.86650320603027,32.53166669750488,71.07271860603028,32.53166669750488,70.59568310603028,33.006808427504886L65.99508044603027,37.29064556750488C65.51804557603027,37.765786167504885,65.51804557603027,38.55958126750488,65.99508044603027,39.03472516750488C66.47022789603028,39.35148616750488,67.26401230603027,39.509865267504885,67.73916050603027,39.03472516750488L72.33976320603027,34.59250696750488C72.81679770603027,34.275746267504886,72.81679770603027,33.481956007504884,72.34165190603028,33.006808427504886Z" fill="#F74E0C" fill-opacity="1" style="mix-blend-mode:passthrough"/><path d="M59.7522525815918,30.58599853515625C59.079130981591796,30.58599853515625,58.5191398265918,31.14787703515625,58.6303831315918,31.70786793515625L58.743513791591795,38.10157153515625C58.743513791591795,38.77469153515625,59.4166357515918,39.22344113515625,59.9766269815918,39.33468243515625C60.649748581591794,39.33468243515625,61.2116219815918,38.77469153515625,61.2097391815918,38.10157153515625L60.9853665815918,31.81911133515625C60.987247481591794,31.14598977515625,60.4253692815918,30.58599853515625,59.7522525815918,30.58599853515625Z" fill="#F74E0C" fill-opacity="1" style="mix-blend-mode:passthrough"/></svg>