<svg xmlns="http://www.w3.org/2000/svg" style="display:none">
  <symbol id="home" viewBox="0 0 48 48" fill="none">
<path stroke-linejoin="round" stroke-linecap="round" stroke-width="4" stroke="currentColor" d="M9 18v24h30V18L24 6 9 18Z" data-follow-stroke="currentColor"/><path stroke-linejoin="round" stroke-width="4" stroke="currentColor" d="M19 29v13h10V29H19Z" data-follow-stroke="currentColor"/><path stroke-linecap="round" stroke-width="4" stroke="currentColor" d="M9 42h30" data-follow-stroke="currentColor"/>
  </symbol>
  <symbol id="star" viewBox="0 0 48 48" fill="none">
<path stroke-linejoin="round" stroke-width="4" stroke="currentColor" d="m23.999 5-6.113 12.478L4 19.49l10.059 9.834L11.654 43 24 36.42 36.345 43 33.96 29.325 44 19.491l-13.809-2.013L24 5Z" data-follow-stroke="currentColor"/>
  </symbol>
  <symbol id="folder" viewBox="0 0 48 48" fill="none">
<path stroke-linejoin="round" stroke-linecap="round" stroke-width="4" stroke="currentColor" d="M43 23v-9a2 2 0 0 0-2-2H24l-5-6H7a2 2 0 0 0-2 2v32a2 2 0 0 0 2 2h15"/><path stroke-linejoin="round" stroke-linecap="round" stroke-width="4" stroke="currentColor" d="M28 30.8c0-.933 6-2.8 6-2.8s6 1.867 6 2.8c0 7.467-6 11.2-6 11.2s-6-3.733-6-11.2Z"/>
  </symbol>
  <symbol id="shopping" viewBox="0 0 48 48" fill="none">
<path stroke-linejoin="round" stroke-linecap="round" stroke-width="4" stroke="currentColor" d="M39 32H13L8 12h36l-5 20Z" data-follow-stroke="currentColor"/><path stroke-linejoin="round" stroke-linecap="round" stroke-width="4" stroke="currentColor" d="M3 6h3.5L8 12m0 0 5 20h26l5-20H8Z"/><circle stroke-linejoin="round" stroke-linecap="round" stroke-width="4" stroke="currentColor" r="3" cy="39" cx="13"/><circle stroke-linejoin="round" stroke-linecap="round" stroke-width="4" stroke="currentColor" r="3" cy="39" cx="39"/><path stroke-linejoin="round" stroke-linecap="round" stroke-width="4" stroke="currentColor" d="M22 22h8"/>
  </symbol>
  <symbol id="shopping-cart-del" viewBox="0 0 48 48" fill="none">
<path stroke-linejoin="round" stroke-linecap="round" stroke-width="4" stroke="currentColor" d="M39 32H13L8 12h36l-5 20Z" data-follow-stroke="currentColor"/><path stroke-linejoin="round" stroke-linecap="round" stroke-width="4" stroke="currentColor" d="M3 6h3.5L8 12m0 0 5 20h26l5-20H8Z"/><circle stroke-linejoin="round" stroke-linecap="round" stroke-width="4" stroke="currentColor" r="3" cy="39" cx="13"/><circle stroke-linejoin="round" stroke-linecap="round" stroke-width="4" stroke="currentColor" r="3" cy="39" cx="39"/><path stroke-linejoin="round" stroke-linecap="round" stroke-width="4" stroke="currentColor" d="M22 22h8"/>
  </symbol>
  <symbol id="tag" viewBox="0 0 48 48" fill="none">
<path stroke-linejoin="round" stroke-width="4" stroke="currentColor" d="M42.17 29.245 29.262 42.151a3.6 3.6 0 0 1-5.094 0L8 26V8h18l16.17 16.17a3.6 3.6 0 0 1 0 5.075Z"/><path fill="#333" d="M18.5 21a2.5 2.5 0 1 0 0-5 2.5 2.5 0 0 0 0 5Z" clip-rule="evenodd" fill-rule="evenodd"/>
  </symbol>
  <symbol id="setting" viewBox="0 0 48 48" fill="none">
<path stroke-linejoin="round" stroke-linecap="round" stroke-width="4" stroke="currentColor" d="M41.5 10h-6m-8-4v8m0-4h-22m8 14h-8m16-4v8m22-4h-22m20 14h-6m-8-4v8m0-4h-22"/>
  </symbol>
  <symbol id="list" viewBox="0 0 48 48" fill="none">
<path stroke-linejoin="round" stroke-linecap="round" stroke-width="4" stroke="currentColor" d="m5 10 3 3 6-6M5 24l3 3 6-6M5 38l3 3 6-6m7-11h22M21 38h22M21 10h22"/>
  </symbol>
  <symbol id="buy" viewBox="0 0 48 48" fill="none">
<path stroke-linejoin="round" stroke-width="4" stroke="currentColor" d="M6 15h36l-2 27H8L6 15Z" clip-rule="evenodd"/><path stroke-linejoin="round" stroke-linecap="round" stroke-width="4" stroke="currentColor" d="M16 19V6h16v13"/><path stroke-linecap="round" stroke-width="4" stroke="currentColor" d="M16 34h16"/>
  </symbol>
  <symbol id="commodity" viewBox="0 0 48 48" fill="none">
<path stroke-linejoin="round" stroke-width="4" stroke="currentColor" d="M9.781 9.752A2 2 0 0 1 11.766 8h24.468a2 2 0 0 1 1.985 1.752l3.5 28A2 2 0 0 1 39.734 40H8.266a2 2 0 0 1-1.985-2.248l3.5-28Z"/><path stroke-linejoin="round" stroke-linecap="round" stroke-width="4" stroke="currentColor" d="M15 18s2 4 9 4 9-4 9-4"/>
  </symbol>
  <symbol id="more-one" viewBox="0 0 48 48" fill="none">
<circle fill="currentColor" r="3" cy="12" cx="24" data-follow-stroke="currentColor"/><circle fill="currentColor" r="3" cy="24" cx="24" data-follow-stroke="currentColor"/><circle fill="currentColor" r="3" cy="35" cx="24" data-follow-stroke="currentColor"/>
  </symbol>
  <symbol id="more-two" viewBox="0 0 48 48" fill="none">
<path stroke-linejoin="round" stroke-width="4" stroke="currentColor" d="M24 44c11.046 0 20-8.954 20-20S35.046 4 24 4 4 12.954 4 24s8.954 20 20 20Z" data-follow-stroke="currentColor"/><circle fill="currentColor" r="3" cy="24" cx="14" data-follow-stroke="currentColor"/><circle fill="currentColor" r="3" cy="24" cx="24" data-follow-stroke="currentColor"/><circle fill="currentColor" r="3" cy="24" cx="34" data-follow-stroke="currentColor"/>
  </symbol>
  <symbol id="more-three" viewBox="0 0 48 48" fill="none">
<path stroke-linejoin="round" stroke-width="4" stroke="currentColor" d="M24 44c11.046 0 20-8.954 20-20S35.046 4 24 4 4 12.954 4 24s8.954 20 20 20Z" data-follow-stroke="currentColor"/><path fill="currentColor" d="M21.5 14a2.5 2.5 0 1 0 5 0 2.5 2.5 0 0 0-5 0Zm0 10a2.5 2.5 0 1 0 5 0 2.5 2.5 0 0 0-5 0ZM24 36.5a2.5 2.5 0 1 1 0-5 2.5 2.5 0 0 1 0 5Z" clip-rule="evenodd" fill-rule="evenodd" data-follow-stroke="currentColor"/>
  </symbol>
  <symbol id="bookmark" viewBox="0 0 48 48" fill="none">
<path stroke-linejoin="round" stroke-width="4" stroke="currentColor" d="M10 44a2 2 0 0 1-2-2V6a2 2 0 0 1 2-2h28a2 2 0 0 1 2 2v36a2 2 0 0 1-2 2H10Z" data-follow-stroke="currentColor"/><path stroke-linejoin="round" stroke-linecap="round" stroke-width="4" stroke="currentColor" d="M21 22V4h12v18l-6-6.273L21 22Z" clip-rule="evenodd" data-follow-stroke="currentColor"/><path stroke-linejoin="round" stroke-linecap="round" stroke-width="4" stroke="currentColor" d="M10 4h28" data-follow-stroke="currentColor"/>
  </symbol>
  <symbol id="bookmark-one" viewBox="0 0 48 48" fill="none">
<path stroke-linejoin="round" stroke-linecap="round" stroke-width="4" stroke="currentColor" d="M34 10V4H8v34l6-3" data-follow-stroke="currentColor"/><path stroke-linejoin="round" stroke-width="4" stroke="currentColor" d="M14 44V10h26v34l-13-6.273L14 44Z" data-follow-stroke="currentColor"/>
  </symbol>
  <symbol id="chart-histogram" viewBox="0 0 48 48" fill="none">
<path stroke-linejoin="round" stroke-linecap="round" stroke-width="4" stroke="currentColor" d="M6 6v36h36M14 30v4m8-12v12m8-28v28m8-20v20"/>
  </symbol>
  <symbol id="comments" viewBox="0 0 48 48" fill="none">
<path stroke-linejoin="round" stroke-linecap="round" stroke-width="4" stroke="currentColor" d="M33 38H22v-8h14v-8h8v16h-5l-3 3-3-3Z"/><path stroke-linejoin="round" stroke-linecap="round" stroke-width="4" stroke="currentColor" d="M4 6h32v24H17l-4 4-4-4H4V6Z"/><path stroke-linecap="round" stroke-width="4" stroke="currentColor" d="M12 22h6m-6-8h12"/>
  </symbol>
  <symbol id="table" viewBox="0 0 48 48" fill="none">
<rect stroke-linejoin="round" stroke-linecap="round" stroke-width="4" stroke="currentColor" rx="2" height="40" width="32" y="4" x="8"/><path stroke-linejoin="round" stroke-linecap="round" stroke-width="4" stroke="currentColor" d="M14 16h20m-20 8h20m-20 8h20M18 12v24"/>
  </symbol>
  <symbol id="doc-search" viewBox="0 0 48 48" fill="none">
<path stroke-linejoin="round" stroke-linecap="round" stroke-width="4" stroke="currentColor" d="M40 27V6a2 2 0 0 0-2-2H10a2 2 0 0 0-2 2v36a2 2 0 0 0 2 2h11m-4-32h14m-14 8h14m-14 8h6"/><path stroke-linejoin="round" stroke-linecap="round" stroke-width="4" stroke="currentColor" d="M37 37c0 1.38-.56 2.63-1.465 3.535A5 5 0 1 1 37 37Z" data-follow-stroke="currentColor"/><path stroke-linejoin="round" stroke-linecap="round" stroke-width="4" stroke="currentColor" d="m39 44-3.465-3.465m0 0a5 5 0 1 0-7.071-7.07 5 5 0 0 0 7.072 7.07Z"/>
  </symbol>
  <symbol id="file-cabinet" viewBox="0 0 48 48" fill="none">
<path stroke-linejoin="round" stroke-width="4" stroke="currentColor" d="M42 4H6v10h36V4Zm0 15H6v10h36V19Zm0 15H6v10h36V34Z"/><path stroke-linecap="round" stroke-width="4" stroke="currentColor" d="M21 9h6m-6 15h6m-6 15h6"/>
  </symbol>
  <symbol id="inbox" viewBox="0 0 48 48" fill="none">
<path stroke-linejoin="round" stroke-linecap="round" stroke-width="4" stroke="currentColor" d="M4 30 9 6h30l5 24"/><path stroke-linejoin="round" stroke-width="4" stroke="currentColor" d="M4 30h10.91l1.817 6h14.546l1.818-6H44v13H4V30Z"/><path stroke-linejoin="round" stroke-linecap="round" stroke-width="4" stroke="currentColor" d="M19 14h10m-13 8h16"/>
  </symbol>
  <symbol id="message-security" viewBox="0 0 48 48" fill="none">
<path stroke-linejoin="round" stroke-linecap="round" stroke-width="4" stroke="currentColor" d="M25.5 37H21l-10 5v-5H4V7h40v11"/><path stroke-linejoin="round" stroke-linecap="round" stroke-width="4" stroke="currentColor" d="M29 25.2c0-1.067 7-3.2 7-3.2s7 2.133 7 3.2c0 8.533-7 12.8-7 12.8s-7-4.267-7-12.8ZM12 15h6m-6 6h12"/>
  </symbol>
  <symbol id="people-top-card" viewBox="0 0 48 48" fill="none">
<path stroke-linejoin="round" stroke-linecap="round" stroke-width="4" stroke="currentColor" d="M44 8H4v30h15l5 5 5-5h15V8Z"/><circle stroke-linejoin="round" stroke-linecap="round" stroke-width="4" stroke="currentColor" r="5" cy="19" cx="24"/><path stroke-linejoin="round" stroke-linecap="round" stroke-width="4" stroke="currentColor" d="M33 32c0-4.418-4.03-8-9-8s-9 3.582-9 8"/>
  </symbol>
  <symbol id="user-positioning" viewBox="0 0 48 48" fill="none">
<circle stroke-linejoin="round" stroke-linecap="round" stroke-width="4" stroke="currentColor" r="6" cy="16" cx="24"/><path stroke-linejoin="round" stroke-linecap="round" stroke-width="4" stroke="currentColor" d="M36 36c0-6.627-5.373-12-12-12s-12 5.373-12 12M36 4h8v8M12 4H4v8m32 32h8v-8m-32 8H4v-8"/>
  </symbol>
  <symbol id="delivery" viewBox="0 0 48 48" fill="none">
<path stroke-linejoin="round" stroke-linecap="round" stroke-width="4" stroke="currentColor" d="m20 33 6 2s15-3 17-3 2 2 0 4-9 8-15 8-10-3-14-3H4"/><path stroke-linejoin="round" stroke-linecap="round" stroke-width="4" stroke="currentColor" d="M4 29c2-2 6-5 10-5s13.5 4 15 6-3 5-3 5M16 18v-8a2 2 0 0 1 2-2h24a2 2 0 0 1 2 2v16"/><path stroke-linejoin="round" stroke-linecap="round" stroke-width="4" stroke="currentColor" d="M25 8h10v9H25z"/>
  </symbol>
  <symbol id="order" viewBox="0 0 48 48" fill="none">
<path stroke-linejoin="round" stroke-width="4" stroke="currentColor" d="M33.05 7H38a2 2 0 0 1 2 2v33a2 2 0 0 1-2 2H10a2 2 0 0 1-2-2V9a2 2 0 0 1 2-2h7v3h14V7h2.05Z"/><path stroke-linejoin="round" stroke-linecap="round" stroke-width="4" stroke="currentColor" d="M17 4h14v6H17zm10 15-8 8.001h10.004l-8.004 8"/>
  </symbol>
  <symbol id="coupon" viewBox="0 0 48 48" fill="none">
<path stroke-linejoin="round" stroke-width="4" stroke="currentColor" d="M4 19.313V9h40v10.313a5.5 5.5 0 0 0-3.636 5.187A5.5 5.5 0 0 0 44 29.687V40H4V29.687A5.5 5.5 0 0 0 7.636 24.5 5.5 5.5 0 0 0 4 19.313Z"/><path stroke-linejoin="round" stroke-linecap="round" stroke-width="4" stroke="currentColor" d="m19 16 5 5 5-5m-11 6h12m-12 6.167h12M24 22v12"/>
  </symbol>
  <symbol id="wallet" viewBox="0 0 48 48" fill="none">
<path stroke-linejoin="round" stroke-linecap="round" stroke-width="4" stroke="currentColor" d="M17.982 11.969 31.785 4l4.612 7.989-18.415-.02Z" clip-rule="evenodd"/><path stroke-linejoin="round" stroke-width="4" stroke="currentColor" d="M4 14a2 2 0 0 1 2-2h36a2 2 0 0 1 2 2v28a2 2 0 0 1-2 2H6a2 2 0 0 1-2-2V14Z"/><path stroke-linejoin="round" stroke-width="4" stroke="currentColor" d="M35.25 33H44V23h-8.75c-2.9 0-5.25 2.239-5.25 5s2.35 5 5.25 5Z"/><path stroke-linecap="round" stroke-width="4" stroke="currentColor" d="M44 16.5v24"/>
  </symbol>
  <symbol id="bank-card" viewBox="0 0 48 48" fill="none">
<path stroke-linejoin="round" stroke-linecap="round" stroke-width="4" stroke="currentColor" d="M14 13V9a2 2 0 0 1 2-2h26a2 2 0 0 1 2 2v18a2 2 0 0 1-2 2h-2"/><rect stroke-linejoin="round" stroke-linecap="round" stroke-width="4" stroke="currentColor" rx="2" height="22" width="30" y="19" x="4"/><path stroke-linejoin="round" stroke-linecap="round" stroke-width="4" stroke="currentColor" d="M4 28h30m0-5v12M4 23v12m7-1h8m6 0h2"/>
  </symbol>
  <symbol id="bill" viewBox="0 0 48 48" fill="none">
<path stroke-linejoin="round" stroke-linecap="round" stroke-width="4" stroke="currentColor" d="M10 6a2 2 0 0 1 2-2h24a2 2 0 0 1 2 2v38l-7-5-7 5-7-5-7 5V6Zm8 16h12m-12 8h12M18 14h12" data-follow-stroke="currentColor"/>
  </symbol>
  <symbol id="financing" viewBox="0 0 48 48" fill="none">
<path stroke-width="4" stroke="currentColor" d="M12 9.927V7a3 3 0 0 1 3-3h26a3 3 0 0 1 3 3v26a3 3 0 0 1-3 3h-2.983"/><rect stroke-linejoin="round" stroke-width="4" stroke="currentColor" rx="3" height="34" width="34" y="10" x="4"/><path stroke-linejoin="round" stroke-linecap="round" stroke-width="4" stroke="currentColor" d="m15 17 6 6 6-6m-13 8h14m-14 6h14m-7-6v11"/>
  </symbol>
  <symbol id="transaction" viewBox="0 0 48 48" fill="none">
<path stroke-linejoin="round" stroke-linecap="round" stroke-width="4" stroke="currentColor" d="M39 6H9a3 3 0 0 0-3 3v30a3 3 0 0 0 3 3h30a3 3 0 0 0 3-3V9a3 3 0 0 0-3-3Z"/><path stroke-linejoin="round" stroke-linecap="round" stroke-width="4" stroke="currentColor" d="m21 31 5 4 8-10M14 15h20m-20 8h8"/>
  </symbol>
  <symbol id="receive" viewBox="0 0 48 48" fill="none">
<path stroke-linejoin="round" stroke-linecap="round" stroke-width="4" stroke="currentColor" d="M4.592 19.467A2 2 0 0 1 6.537 17h34.926a2 2 0 0 1 1.945 2.467l-5.04 21A2 2 0 0 1 36.423 42H11.577a2 2 0 0 1-1.945-1.533l-5.04-21Z"/><path stroke-linejoin="round" stroke-linecap="round" stroke-width="4" stroke="currentColor" d="M11 7h8v10h-8zm8 10 6.5-9L38 17"/><path stroke-linecap="round" stroke-width="4" stroke="currentColor" d="M15 25h8"/>
  </symbol>
  <symbol id="building-one" viewBox="0 0 48 48" fill="none">
<path stroke-linejoin="round" stroke-linecap="round" stroke-width="4" stroke="currentColor" d="M11 14 25 4v40H11V14Z" clip-rule="evenodd"/><path stroke-linejoin="round" stroke-linecap="round" stroke-width="4" stroke="currentColor" d="m25 13 14 10v21M4 44h40"/>
  </symbol>
  <symbol id="mall-bag" viewBox="0 0 48 48" fill="none">
<path stroke-linejoin="round" stroke-width="4" stroke="currentColor" d="M6 12.6V41a2 2 0 0 0 2 2h32a2 2 0 0 0 2-2V12.6H6Z"/><path stroke-linejoin="round" stroke-linecap="round" stroke-width="4" stroke="currentColor" d="M42 12.6 36.333 5H11.667L6 12.6v0m25.555 6.6c0 4.198-3.382 7.6-7.555 7.6s-7.556-3.402-7.556-7.6"/>
  </symbol>
  <symbol id="handbag" viewBox="0 0 48 48" fill="none">
<path stroke-linejoin="round" stroke-linecap="round" stroke-width="4" stroke="currentColor" d="M14 14a6 6 0 0 1 6-6h9a6 6 0 0 1 6 6v2H14v-2ZM4 25l19.515 4.879c.318.08.652.08.97 0L44 25v13a2 2 0 0 1-2 2H6a2 2 0 0 1-2-2V25Z"/><path stroke-linejoin="round" stroke-linecap="round" stroke-width="4" stroke="currentColor" d="M44 27v-9a2 2 0 0 0-2-2H6a2 2 0 0 0-2 2v9"/><path fill="#333" d="M26.5 23a2.5 2.5 0 1 1-5 0 2.5 2.5 0 0 1 5 0Z"/>
  </symbol>
  <symbol id="box" viewBox="0 0 48 48" fill="none">
<rect stroke-linejoin="round" stroke-width="4" stroke="currentColor" rx="2" height="30" width="36" y="12" x="6"/><path stroke-linejoin="round" stroke-linecap="round" stroke-width="4" stroke="currentColor" d="M17.95 24.008h12M6 13l7-8h22l7 8"/>
  </symbol>
  <symbol id="warehousing" viewBox="0 0 48 48" fill="none">
<path stroke-linejoin="round" stroke-linecap="round" stroke-width="4" stroke="currentColor" d="M34 24H18m6-6-6 6 6 6"/><circle stroke-width="4" stroke="currentColor" r="4" cy="24" cx="38"/><path stroke-linecap="round" stroke-width="4" stroke="currentColor" d="M40.706 13A20.102 20.102 0 0 0 38 9.717 19.935 19.935 0 0 0 24 4C12.954 4 4 12.954 4 24s8.954 20 20 20c5.45 0 10.392-2.18 14-5.717A20.104 20.104 0 0 0 40.706 35"/>
  </symbol>
  <symbol id="ranking-list" viewBox="0 0 48 48" fill="none">
<path stroke-width="4" stroke="currentColor" d="M42 8H6a2 2 0 0 0-2 2v28a2 2 0 0 0 2 2h36a2 2 0 0 0 2-2V10a2 2 0 0 0-2-2Z"/><path stroke-linecap="round" stroke-width="4" stroke="currentColor" d="M24 17v14m8-7v7m-16-9v9"/>
  </symbol>
  <symbol id="refresh" viewBox="0 0 48 48" fill="none">
<path stroke-linejoin="round" stroke-linecap="round" stroke-width="4" stroke="currentColor" d="M42 8v16M6 24v16m36-16c0-9.941-8.059-18-18-18a17.947 17.947 0 0 0-12.952 5.5M6 24c0 9.941 8.059 18 18 18a17.94 17.94 0 0 0 12.5-5.048" data-follow-stroke="currentColor"/>
  </symbol>
  <symbol id="edit" viewBox="0 0 48 48" fill="none">
<circle stroke-linejoin="round" stroke-linecap="round" stroke-width="4" stroke="currentColor" r="7" cy="11" cx="24"/><path stroke-linejoin="round" stroke-linecap="round" stroke-width="4" stroke="currentColor" d="M4 41c0-8.837 8.059-16 18-16m9 17 10-10-4-4-10 10v4h4Z"/>
  </symbol>
  <symbol id="scan-setting" viewBox="0 0 48 48" fill="none">
<rect stroke-linejoin="round" stroke-linecap="round" stroke-width="4" stroke="currentColor" rx="3" height="38" width="38" y="5" x="5"/><path stroke-linejoin="round" stroke-linecap="round" stroke-width="4" stroke="currentColor" d="m34 21 3 3-3 3m-20-6-3 3 3 3m13-13-3-3-3 3m6 20-3 3-3-3"/>
  </symbol>
  <symbol id="database-config" viewBox="0 0 48 48" fill="none">
<path stroke-linejoin="round" stroke-linecap="round" stroke-width="4" stroke="currentColor" d="M34 12v9a9.975 9.975 0 0 0-7.442 3.32A9.963 9.963 0 0 0 24 31a10.01 10.01 0 0 0 5.074 8.705C26.412 40.51 22.878 41 19 41c-8.284 0-15-2.239-15-5V12"/><path stroke-linejoin="round" stroke-linecap="round" stroke-width="4" stroke="currentColor" d="M34 12c0 2.761-6.716 5-15 5-8.284 0-15-2.239-15-5s6.716-5 15-5c8.284 0 15 2.239 15 5ZM4 28c0 2.761 6.716 5 15 5 1.807 0 3.54-.106 5.144-.302M4 20c0 2.761 6.716 5 15 5 2.756 0 5.339-.248 7.558-.68"/><path stroke-linejoin="round" stroke-linecap="round" stroke-width="4" stroke="currentColor" d="M44 31c0 5.523-4.477 10-10 10-1.79 0-3.472-.47-4.926-1.295A10.01 10.01 0 0 1 24 31c0-2.568.968-4.91 2.558-6.68A9.975 9.975 0 0 1 34 21c5.523 0 10 4.477 10 10Zm-10-4v4m3.464-2L34 31m3.464 2L34 31m0 4v-4m-3.464 2L34 31m-3.464-2L34 31"/>
  </symbol>
  <symbol id="schedule" viewBox="0 0 48 48" fill="none">
<rect stroke-linejoin="round" stroke-linecap="round" stroke-width="4" stroke="currentColor" rx="2" height="30" width="40" y="10" x="4"/><path stroke-linecap="round" stroke-width="4" stroke="currentColor" d="M14 6v8m11 9H14m20 8H14M34 6v8"/>
  </symbol>
  <symbol id="plan" viewBox="0 0 48 48" fill="none">
<path stroke-linejoin="round" stroke-width="4" stroke="currentColor" d="M5 19h38v22a2 2 0 0 1-2 2H7a2 2 0 0 1-2-2V19Zm0-9a2 2 0 0 1 2-2h34a2 2 0 0 1 2 2v9H5v-9Z"/><path stroke-linejoin="round" stroke-linecap="round" stroke-width="4" stroke="currentColor" d="m16 31 6 6 12-12"/><path stroke-linecap="round" stroke-width="4" stroke="currentColor" d="M16 5v8m16-8v8"/>
  </symbol>
  <symbol id="view-list" viewBox="0 0 48 48" fill="none">
<rect stroke-linejoin="round" stroke-width="4" stroke="currentColor" rx="2" height="40" width="32" y="4" x="8"/><path stroke-linejoin="round" stroke-linecap="round" stroke-width="4" stroke="currentColor" d="M21 14h12M21 24h12M21 34h12"/><path fill="#333" d="M15 16a2 2 0 1 0 0-4 2 2 0 0 0 0 4Zm0 10a2 2 0 1 0 0-4 2 2 0 0 0 0 4Zm0 10a2 2 0 1 0 0-4 2 2 0 0 0 0 4Z" clip-rule="evenodd" fill-rule="evenodd"/>
  </symbol>
  <symbol id="application-one" viewBox="0 0 48 48" fill="none">
<path stroke-linejoin="round" stroke-width="4" stroke="currentColor" d="M41 14 24 4 7 14v20l17 10 17-10V14Z"/><path stroke-linejoin="round" stroke-linecap="round" stroke-width="4" stroke="currentColor" d="M16 18.998 23.993 24l8.002-5.002M24 24v9"/>
  </symbol>
  <symbol id="all-application" viewBox="0 0 48 48" fill="none">
<path stroke-linejoin="round" stroke-width="4" stroke="currentColor" d="M18 6H8a2 2 0 0 0-2 2v10a2 2 0 0 0 2 2h10a2 2 0 0 0 2-2V8a2 2 0 0 0-2-2Zm0 22H8a2 2 0 0 0-2 2v10a2 2 0 0 0 2 2h10a2 2 0 0 0 2-2V30a2 2 0 0 0-2-2ZM40 6H30a2 2 0 0 0-2 2v10a2 2 0 0 0 2 2h10a2 2 0 0 0 2-2V8a2 2 0 0 0-2-2Zm0 22H30a2 2 0 0 0-2 2v10a2 2 0 0 0 2 2h10a2 2 0 0 0 2-2V30a2 2 0 0 0-2-2Z" data-follow-stroke="currentColor"/>
  </symbol>
  <symbol id="category-management" viewBox="0 0 48 48" fill="none">
<rect stroke-width="4" stroke="currentColor" rx="4" height="14" width="36" y="28" x="6"/><path stroke-linecap="round" stroke-width="4" stroke="currentColor" d="M20 7H10a4 4 0 0 0-4 4v6a4 4 0 0 0 4 4h10"/><circle stroke-width="4" stroke="currentColor" r="8" cy="14" cx="34"/><circle fill="#333" r="3" cy="14" cx="34"/>
  </symbol>
  <symbol id="internal-data" viewBox="0 0 48 48" fill="none">
<path stroke-linejoin="round" stroke-linecap="round" stroke-width="4" stroke="currentColor" d="M6 18V9a3 3 0 0 1 3-3h30a3 3 0 0 1 3 3v9m-10 6v7m-8-16v16m-8-12v12M6 30v9a3 3 0 0 0 3 3h30a3 3 0 0 0 3-3v-9"/>
  </symbol>
  <symbol id="ad-product" viewBox="0 0 48 48" fill="none">
<path stroke-linejoin="round" stroke-width="4" stroke="currentColor" d="M44 14 24 4 4 14v20l20 10 20-10V14Z"/><path stroke-linejoin="round" stroke-linecap="round" stroke-width="4" stroke="currentColor" d="m4 14 20 10m0 20V24m20-10L24 24M34 9 14 19"/>
  </symbol>
  <symbol id="config" viewBox="0 0 48 48" fill="none">
<path stroke-linejoin="round" stroke-width="4" stroke="currentColor" d="m24 4-6 6h-8v8l-6 6 6 6v8h8l6 6 6-6h8v-8l6-6-6-6v-8h-8l-6-6Z"/><path stroke-linejoin="round" stroke-width="4" stroke="currentColor" d="M24 30a6 6 0 1 0 0-12 6 6 0 0 0 0 12Z"/>
  </symbol>
  <symbol id="material-three" viewBox="0 0 48 48" fill="none">
<path stroke-linejoin="round" stroke-linecap="round" stroke-width="4" stroke="currentColor" d="M9 15V9.564c0-.892.087-1.215.25-1.54.164-.327.404-.583.71-.757.305-.174.608-.267 1.444-.267h25.192c.836 0 1.14.093 1.445.267.305.174.545.43.709.756.163.326.25.65.25 1.54V15"/>
<path stroke-linejoin="round" stroke-width="4" stroke="currentColor" d="M5 15h38v26H5V15Z"/><path fill="#333" d="M13 26a3 3 0 1 0 0-6 3 3 0 0 0 0 6Z" clip-rule="evenodd" fill-rule="evenodd"/><path stroke-linejoin="round" stroke-linecap="round" stroke-width="4" stroke="currentColor" d="M5.57 40.39 15 30l5 4 6-7 16.394 13.39"/>
</symbol>
  <symbol id="pin" viewBox="0 0 48 48" fill="none">
<path stroke-linejoin="round" stroke-width="4" stroke="currentColor" d="M10.696 17.504c2.639-2.638 5.774-2.565 9.182-.696L32.62 9.745l-.721-4.958L43.213 16.1l-4.947-.71-7.074 12.73c1.783 3.638 1.942 6.544-.697 9.182l-7.778-7.778L6.443 41.556l11.995-16.31-7.742-7.742Z" data-follow-stroke="currentColor"/>
</symbol>
  <symbol id="pushpin" viewBox="0 0 48 48" fill="none">
<path stroke-linejoin="round" stroke-linecap="round" stroke-width="4" stroke="currentColor" d="M32 4H16l4 3-4 13s-6 4-6 8h10l4 16 4-16h10c0-4-4-6.833-6-8L28 7l4-3Z" data-follow-stroke="currentColor"/>
</symbol>
  <symbol id="down-c" viewBox="0 0 48 48" fill="none">
<path stroke-linejoin="round" stroke-width="4" stroke="currentColor" d="M24 44c11.046 0 20-8.954 20-20S35.046 4 24 4 4 12.954 4 24s8.954 20 20 20Z" data-follow-stroke="currentColor"/>
<path stroke-linejoin="round" stroke-linecap="round" stroke-width="4" stroke="currentColor" d="m33 21-9 9-9-9" data-follow-stroke="currentColor"/>
</symbol>
  <symbol id="density" viewBox="0 0 48 48" fill="none">
<path stroke-linecap="round" stroke-width="4" stroke="currentColor" d="M8 10h32M8 20h32M8 30h32M8 40h32" data-follow-stroke="currentColor"/>
</symbol>
</svg>