<svg xmlns="http://www.w3.org/2000/svg" viewBox="0 0 48 48" fill="none" width="24" height="24"><path stroke-linejoin="round" stroke-width="1.5" stroke="currentColor" d="M36.686 15.171a15.37 15.37 0 0 1 2.529 6.102H44v5.454h-4.785a15.37 15.37 0 0 1-2.529 6.102l3.385 3.385-3.857 3.857-3.385-3.385a15.37 15.37 0 0 1-6.102 2.529V44h-5.454v-4.785a15.37 15.37 0 0 1-6.102-2.529l-3.385 3.385-3.857-3.857 3.385-3.385a15.37 15.37 0 0 1-2.529-6.102H4v-5.454h4.785a15.37 15.37 0 0 1 2.529-6.102l-3.385-3.385 3.857-3.857 3.385 3.385a15.37 15.37 0 0 1 6.102-2.529V4h5.454v4.785a15.37 15.37 0 0 1 6.102 2.529l3.385-3.385 3.857 3.857-3.385 3.385Z" data-follow-stroke="currentColor"/><path stroke-linejoin="round" stroke-width="1.5" stroke="currentColor" d="M24 29a5 5 0 1 0 0-10 5 5 0 0 0 0 10Z" data-follow-stroke="currentColor"/></svg>