<svg xmlns="http://www.w3.org/2000/svg" xmlns:xlink="http://www.w3.org/1999/xlink" fill="none" version="1.1" width="311.03558349609375" height="40.00000762939453" viewBox="0 0 311.03558349609375 40.00000762939453"><g><path d="M17.32050991743469,0L34.64101891743469,10.000002L34.64101891743469,17.143097L19.916088917434692,17.143097L22.856036917434693,9.484272L7.589883117434693,19.900026L15.228287917434692,22.832136L11.458432917434692,32.652946L26.724583917434693,22.237188L26.479466917434692,22.143097L34.64101891743469,22.143097L34.64101891743469,30.000006L17.32050991743469,40.000008L7.152546923828345e-7,30.000006L4.692382767068626e-12,10.000003L17.32050991743469,0Z" fill-rule="evenodd" fill="#F95914" fill-opacity="1"/></g><path d="M78.88127086914062,15.134283531738282L78.50984586914063,18.36571453173828L57.85841086914063,18.36571453173828L58.229839869140626,15.134283531738282L66.58698486914062,15.134283531738282L66.92127186914063,11.977140431738281L60.30984086914063,11.977140431738281Q59.56698386914063,11.977140431738281,59.21412686914063,11.73571203173828Q58.86126886914062,11.494284131738281,58.86126886914062,11.01142593173828Q58.86126886914062,10.60285423173828,59.00983886914062,10.194282531738281L60.458409869140624,5.4399974317382815L63.838412869140626,5.4399974317382815L63.05841086914063,8.782855531738281L67.29269986914062,8.782855531738281L67.84984186914062,3.9542814517382814L71.41555986914062,3.9542814517382814L70.85841786914062,8.782855531738281L78.47270386914062,8.782855531738281L78.10127286914063,11.977140431738281L70.48698586914063,11.977140431738281L70.15270186914063,15.134283531738282L78.88127086914062,15.134283531738282ZM50.392695869140624,4.994282631738281L56.55840966914062,8.077138931738281L56.14984036914063,11.865711231738281L49.94698046914063,8.782855531738281L50.392695869140624,4.994282631738281ZM78.69556086914062,32.44285953173828L77.61841786914063,35.860004531738284L62.16698386914062,35.860004531738284Q59.00983886914062,35.860004531738284,56.521266969140626,34.52285753173828Q54.66412546914063,33.55714453173828,53.14126686914062,31.737142531738282Q52.064124569140624,34.560005531738284,50.42983816914062,36.00857553173828L46.641265869140625,35.04285653173828Q48.349837669140626,33.14857253173828,49.35269496914063,31.23571353173828Q50.35555266914062,29.32285853173828,50.65269516914063,26.98285853173828L51.804124369140624,17.95714153173828L47.68126606914063,17.95714153173828L48.08983766914063,14.465714531738282L53.36412526914062,14.465714531738282Q54.40412476914062,14.465714531738282,54.97983936914063,15.078569531738282Q55.55555346914063,15.691427531738281,55.55555346914063,16.805711531738282Q55.55555346914063,17.25142853173828,55.51841066914062,17.474285531738282L54.181267269140626,27.465711531738283Q54.14412446914062,27.540000531738283,54.14412446914062,27.76285753173828Q55.33269596914062,29.65714253173828,57.22698186914062,30.84571453173828Q59.789840869140626,32.44285953173828,63.504127869140625,32.44285953173828L78.69556086914062,32.44285953173828ZM76.05841786914063,30.13999753173828L58.00698286914063,30.13999753173828L58.898410869140626,22.711429531738283Q59.084126869140626,21.48571353173828,59.80841086914062,20.83571253173828Q60.53269786914063,20.18571453173828,61.72126886914062,20.18571453173828L74.12698886914063,20.18571453173828Q75.42698686914062,20.18571453173828,76.13270186914062,20.891429531738282Q76.83841686914063,21.59714153173828,76.83841686914063,22.89714053173828Q76.83841686914063,23.305715531738283,76.80127286914063,23.52857253173828L76.05841786914063,30.13999753173828ZM73.12412686914062,23.23143053173828L62.31555386914063,23.23143053173828L61.981269869140625,27.094285531738283L72.71556086914063,27.094285531738283L73.12412686914062,23.23143053173828ZM92.88412886914062,3.6942825317382812L92.51271086914062,6.888568831738281L97.15556686914063,6.888568831738281L96.82127386914063,9.78571133173828L92.21556486914062,9.78571133173828L92.17842086914062,10.082855231738282Q94.29555486914063,11.45714093173828,96.78412586914062,13.79714053173828L94.44412986914062,15.839998531738281Q92.92127186914063,14.131426531738281,91.84413486914062,13.017141331738282L91.21270386914063,18.84856953173828L87.94413386914061,18.84856953173828L88.46413386914062,13.871426531738281Q85.30698386914062,17.214283531738282,82.52127486914063,19.03428653173828L80.25555786914063,17.10285553173828Q82.26127286914063,15.765711531738281,84.48984486914063,13.834283531738281Q86.71841786914062,11.902853931738282,88.72412886914063,9.78571133173828L83.04127486914062,9.78571133173828L83.37556086914063,6.888568831738281L89.20698586914062,6.888568831738281L89.57842286914062,3.6942825317382812L92.88412886914062,3.6942825317382812ZM106.96127686914062,3.7685683297382813L106.62699486914062,6.888568831738281L112.45841986914063,6.888568831738281L112.12413786914063,9.78571133173828L106.88698986914062,9.78571133173828Q109.48698786914062,13.35142613173828,113.75842286914063,17.214283531738282L110.86127486914063,18.77428553173828Q107.92699386914063,15.654283531738281,105.99555986914064,12.719998331738282L105.32699186914063,18.92285753173828L101.98413486914063,18.92285753173828L102.57841486914063,13.388568831738281Q99.97841986914062,16.24857053173828,97.15556686914063,18.36571453173828L94.81557086914063,16.471427531738282Q98.34413186914063,14.09428353173828,102.39270786914062,9.78571133173828L97.93555486914062,9.78571133173828L98.26985186914062,6.888568831738281L103.28413386914062,6.888568831738281L103.65555986914063,3.7685683297382813L106.96127686914062,3.7685683297382813ZM96.52413186914063,18.55142653173828Q95.63269786914063,19.59142853173828,94.74127186914063,20.55714053173828L105.92127986914062,20.55714053173828Q107.36984986914062,20.55714053173828,108.14984486914062,21.095712531738283Q108.92985186914063,21.63428653173828,108.92985186914063,22.52571453173828Q108.92985186914063,23.45428453173828,108.14984486914062,24.642856531738282Q106.84984986914063,26.61142953173828,104.24984786914062,28.46857453173828Q101.64984086914063,30.325715531738282,98.12127686914062,31.885713531738283Q94.62984886914063,33.445716531738285,90.67413286914064,34.59714553173828Q86.71841786914062,35.74857353173828,82.81841286914062,36.30571753173828L80.84984586914062,33.18571653173828Q87.98127386914062,32.220001531738276,93.81269786914064,30.102859531738282L88.76126886914062,26.57428553173828Q88.01841686914062,27.31714653173828,86.75556186914062,28.43142853173828L81.92699086914062,28.43142853173828Q84.08127586914063,26.61142953173828,87.16412686914063,23.60285553173828Q90.09841886914063,20.66857153173828,91.95556286914064,18.55142653173828L96.52413186914063,18.55142653173828ZM91.80699186914063,23.60285553173828L91.06413286914062,24.38285653173828L97.45270586914063,28.54285653173828Q100.98126986914062,26.797140531738282,103.61842386914063,24.457143531738282Q104.06413686914063,24.01142653173828,104.06413686914063,23.862857531738282Q104.06413686914063,23.60285553173828,103.13556286914063,23.60285553173828L91.80699186914063,23.60285553173828ZM118.84699286914062,7.074281931738281L127.90985086914063,7.074281931738281L128.35557586914064,3.9542814517382814L132.18128986914064,3.9542814517382814L131.7727128691406,7.074281931738281L137.93844586914062,7.074281931738281L137.56700086914063,10.231426731738281L131.32699586914063,10.231426731738281L130.88128686914064,13.759998531738281L134.4841458691406,13.759998531738281Q138.71843686914065,10.639997531738281,141.76414486914064,6.108569431738282L145.92414086914061,6.108569431738282Q143.32414986914063,10.528569231738281,139.86986586914063,13.759998531738281L146.0355678691406,13.759998531738281L145.66413886914063,17.06571253173828L135.67271386914064,17.06571253173828Q133.9270018691406,18.17999853173828,133.14699586914062,18.62571353173828L132.0698548691406,19.21999953173828L130.9555738691406,19.81428353173828L138.64414986914062,19.81428353173828Q139.86986586914063,19.81428353173828,140.57558486914064,20.464284531738283Q141.28128086914063,21.11428653173828,141.28128086914063,22.22857253173828Q141.28128086914063,22.599998531738283,141.2441408691406,22.78571353173828L139.75842286914065,35.60000253173828L118.28986386914063,35.60000253173828L119.58985886914063,24.494283531738283Q118.73557286914063,24.79142953173828,115.80128486914063,25.53428453173828L114.90985886914062,25.75714153173828L113.34986086914063,22.63714253173828Q122.56127886914062,20.44571353173828,129.0984268691406,17.06571253173828L114.83556386914063,17.06571253173828L115.24414086914062,13.759998531738281L127.01842486914063,13.759998531738281L127.50128886914062,10.231426731738281L118.47557086914063,10.231426731738281L118.84699286914062,7.074281931738281ZM137.41842686914063,22.93428753173828L124.08413686914062,22.93428753173828L123.37843286914062,23.23143053173828L123.04413586914062,26.20285653173828L137.08414486914063,26.20285653173828L137.41842686914063,22.93428753173828ZM122.30128486914063,32.47999953173829L136.41557286914062,32.47999953173829L136.74986286914063,29.17428753173828L122.67271386914062,29.17428753173828L122.30128486914063,32.47999953173829Z" fill="#000000" fill-opacity="0.8799999952316284"/><rect x="158.0355682373047" y="4" width="1" height="32" rx="0" fill="#000000" fill-opacity="0.44999998807907104"/><g><path d="M183.2155682373047,23.68Q183.1455682373047,23.575,183.4955682373047,23.61Q184.54556823730468,23.68,185.9105682373047,24.2575Q185.9980682373047,24.2925,186.05056823730467,24.309998999999998Q186.48806823730467,24.52,186.6455682373047,24.721251000000002Q186.8030682373047,24.9225,186.76806823730467,25.29Q186.7505682373047,26.55,185.78806923730468,26.55Q185.0880682373047,26.55,184.73806823730467,25.884999999999998Q184.58056823730467,25.5875,184.38806823730468,25.4125Q184.0030682373047,25.08,183.6268182373047,24.695Q183.2505682373047,24.309998999999998,183.2505682373047,24.240000000000002Q183.2505682373047,24.1525,183.1280682373047,24.0475Q183.0055682373047,23.942500000000003,183.13681823730468,23.855Q183.26806823730467,23.7675,183.2155682373047,23.68ZM176.0055680373047,19.8299999Q176.65306803730468,19.1475,176.7055683373047,19.1475Q176.7930684373047,19.1475,176.8018183373047,19.3225002Q176.8105683373047,19.4974995,176.74056813730468,19.707500500000002Q176.6180682373047,19.9875002,176.39056823730468,20.25875Q176.16306833730468,20.529999699999998,176.16306833730468,20.5912495Q176.16306833730468,20.6525002,175.95306823730468,20.9237499Q175.7430682373047,21.1949997,175.60306833730468,21.509999999999998L175.1480684373047,22.5075Q174.72806833730468,23.4,174.92056823730468,23.4875Q175.0255682373047,23.505000000000003,174.92056823730468,23.942500000000003Q174.79806823730468,24.52,174.50931833730468,24.82625Q174.2205681373047,25.1325,173.88806823730468,25.0625Q173.7305681373047,25.009999999999998,173.3805682373047,24.555Q172.9430682373047,24.0125,172.8468182373047,23.74125Q172.7505682373047,23.47,172.82056823730468,23.119999999999997Q172.90806833730468,22.822499999999998,173.2055683373047,22.630000000000003Q173.97556833730468,22.122498999999998,174.8680682373047,21.1075001L176.0055680373047,19.8299999ZM174.64056823730468,15.4549999Q174.8680682373047,15.4375,174.9030683373047,15.4200001Q174.99056813730468,15.4025002,175.68181843730468,15.6475Q176.3730683373047,15.8924999,176.5480680373047,15.9975004Q176.8105683373047,16.1374998,176.87181803730468,16.3125Q176.9330682373047,16.4875002,176.8805680373047,16.8900003Q176.82806823730468,17.292499499999998,176.6268181373047,17.5550003Q176.42556813730468,17.8175001,176.2330684373047,17.7475004Q175.72556833730468,17.6075001,175.72556833730468,17.4674997Q175.72556833730468,17.415,175.3580684373047,17.0649996Q174.0105681373047,15.8050003,174.48306823730468,15.524999600000001Q174.5355682373047,15.4724998,174.64056823730468,15.4549999ZM179.92556853730468,13.9499998Q179.9605684373047,13.8450003,180.0043182373047,13.7924995Q180.0480680373047,13.7399998,180.0480680373047,13.6087503Q180.0480680373047,13.4775,180.14431853730468,13.4425001Q180.24056813730468,13.4075003,180.2668180373047,13.4075003Q180.2930679373047,13.4075003,180.6955680373047,13.8275003Q181.2730682373047,14.4574995,180.9930687373047,14.7200003Q180.8705682373047,14.8599997,180.6605682373047,15.524999600000001Q180.6430683373047,15.6125002,180.7305679373047,15.6125002Q180.85306833730468,15.6125002,181.64056823730468,15.4899998Q182.1830682373047,15.4025002,183.3730682373047,15.2974997Q183.75806823730468,15.2624998,183.85431823730468,15.2887497Q183.95056823730468,15.3149996,184.1605682373047,15.4899998Q184.35306823730468,15.6824999,184.38806823730468,15.7699995Q184.42306823730468,15.8575001,184.4055682373047,16.1199999Q184.35306823730468,16.5050001,184.19556823730468,16.636249499999998Q184.03806823730469,16.7674999,183.6530682373047,16.6975002Q182.7780682373047,16.5574999,181.23806823730467,16.6975002Q180.45056823730468,16.7674999,180.4330682373047,16.7849998Q180.3805685373047,16.8199997,179.89056873730468,18.71Q179.7330684373047,19.3225002,179.62806793730468,19.4449997Q179.5230684373047,19.5675001,179.5230684373047,19.654999699999998Q179.5230684373047,19.7425003,179.2955684373047,20.188749299999998Q179.0680685373047,20.6350002,179.1118183373047,20.67875Q179.1555681373047,20.7224998,179.7680683373047,20.5562496Q180.3805685373047,20.3899994,180.5730686373047,20.354999499999998Q180.71306803730468,20.3199997,180.7480678373047,20.2150002Q180.7830686373047,20.1100006,180.8180685373047,19.479999499999998Q180.9055681373047,18.3074999,181.1155682373047,18.3074999Q181.20306823730468,18.3074999,181.88556823730468,18.6575003Q182.32306823730468,18.8850002,182.45431823730468,18.9724998Q182.5855682373047,19.0600004,182.5855682373047,19.1824999Q182.5855682373047,19.3575001,182.51556823730468,19.488750500000002Q182.44556823730468,19.6199999,182.48056823730468,19.8299999Q182.5330682373047,19.969999299999998,182.5680682373047,19.9962502Q182.60306823730468,20.0225,182.83056823730467,19.9875002Q183.11056823730468,19.9524994,183.75806823730468,19.9875002Q184.2130682373047,20.0225,184.3180682373047,20.0662498Q184.42306823730468,20.1100006,184.47556923730468,20.2849998Q184.5980682373047,20.5650005,184.5018182373047,20.8800001Q184.4055682373047,21.1949997,184.1605682373047,21.264999Q183.95056823730468,21.3525,183.4430682373047,21.2474995Q182.88306823730468,21.1774998,182.67306823730468,21.238750500000002Q182.4630682373047,21.3,182.3755682373047,21.5625Q182.2530682373047,21.93,182.3055682373047,24.3975Q182.39306823730467,26.585,181.9905682373047,27.459999Q181.76306823730468,27.932501,181.6143182373047,28.081249Q181.4655682373047,28.23,181.48306823730468,28.352501Q181.5005682373047,28.4575,181.26431823730468,28.5975Q181.02806853730468,28.737499,180.8355684373047,28.737499Q180.67806813730468,28.737499,180.32806873730468,28.623751Q179.97806833730468,28.51,179.97806833730468,28.370001Q179.97806833730468,28.23,179.9080686373047,28.23Q179.83806803730468,28.23,179.66306783730468,27.950001Q179.48806853730468,27.67,179.2868185373047,27.45125Q179.0855684373047,27.2325,179.0855684373047,27.17125Q179.0855684373047,27.11,178.57806823730468,26.5325Q178.1230683373047,25.990000000000002,178.05306813730468,26.025Q178.0355682373047,26.0425,178.00056843730468,26.130000000000003Q177.9480681373047,26.322499999999998,177.78181843730468,26.541249999999998Q177.61556813730468,26.759999999999998,177.47556833730468,27.057499999999997Q177.3355684373047,27.355,177.16931823730468,27.43375Q177.00306843730468,27.512501,176.7055683373047,27.285Q176.2855682373047,26.97,176.0930681373047,26.655Q175.98806813730468,26.48,175.9618182373047,26.208750000000002Q175.9355683373047,25.9375,176.0055680373047,25.884999999999998Q176.0930681373047,25.85,176.1455683373047,25.64875Q176.1980681373047,25.447499999999998,176.3730683373047,25.29875Q176.5480680373047,25.15,176.7055683373047,24.835Q176.82806823730468,24.6075,177.13431833730468,24.240000000000002Q177.44056843730468,23.872498999999998,177.56306843730468,23.8375Q177.61556813730468,23.802500000000002,177.73806813730468,23.715Q177.9830684373047,23.505000000000003,178.22806833730468,24.0475Q178.3680682373047,24.3975,178.3680682373047,24.817500000000003L178.3680682373047,25.22L178.8230681373047,25.5Q179.5580682373047,25.9375,179.84681793730468,26.033749999999998Q180.1355686373047,26.130000000000003,180.27556803730468,25.955Q180.53806783730468,25.64,180.6430683373047,23.085Q180.6955680373047,21.5625,180.67806813730468,21.536250000000003Q180.6605682373047,21.509999999999998,179.9080686373047,21.7375Q179.31306843730468,21.9125,178.8580684373047,22.166249999999998Q178.40306803730468,22.42,178.2980680373047,22.6475Q178.1580681373047,22.945,177.87806843730468,22.936251Q177.5980682373047,22.927500000000002,177.5455684373047,22.6475Q177.4930682373047,22.42,177.4230680373047,22.376249Q177.35306833730468,22.3325,177.4493184373047,22.192500000000003Q177.5455684373047,22.052500000000002,177.4580683373047,21.825Q177.3705682373047,21.5975,177.4143180373047,21.483749Q177.4580683373047,21.369999999999997,177.3705682373047,21.369999999999997Q177.1605682373047,21.369999999999997,177.4055681373047,21.1075001Q177.44056843730468,21.0725002,177.5105681373047,21.020000500000002Q177.73806813730468,20.844999299999998,177.73806813730468,20.7574997Q177.73806813730468,20.6700001,178.08806843730468,19.9524994Q178.52556843730468,19.0775003,178.75306843730468,18.4650002Q178.8580684373047,18.1324997,178.9455680373047,17.9925003Q179.0330681373047,17.8525,179.1555681373047,17.4324999Q179.2605686373047,17.0474997,179.18181803730468,16.9949999Q179.10306833730468,16.9425001,178.6305685373047,17.1350002Q178.26306823730468,17.2399998,178.04431823730468,17.2224998Q177.82556823730468,17.2049999,177.61556813730468,17.0124998Q177.03806833730468,16.4875002,178.5080680373047,16.1025Q178.7180681373047,16.0500002,179.01556823730468,15.9799995L179.4705686373047,15.875L179.6105680373047,15.4375Q179.8205680373047,14.7550001,179.92556853730468,13.9499998ZM201.1880682373047,26.6025Q202.11556823730467,26.619999999999997,202.1593172373047,26.567500000000003Q202.20306823730468,26.515,202.48306823730468,26.567500000000003Q203.44556823730468,26.689999999999998,203.66431823730468,26.80375Q203.88306823730468,26.9175,203.9355702373047,27.2325Q204.04056923730468,27.827499,203.72557023730468,28.195Q203.56806923730468,28.334999,203.4893192373047,28.36125Q203.4105682373047,28.387501,203.1480672373047,28.370001Q202.79806923730467,28.317499,202.54431923730468,28.23875Q202.29056923730468,28.16,201.81806923730468,28.1075L200.48806723730468,27.950001Q199.6830672373047,27.844999,197.8193172373047,27.844999Q195.9555682373047,27.844999,195.4305682373047,27.950001Q194.9580692373047,28.055,193.9080672373047,28.195Q192.1580672373047,28.440001,191.79056923730468,28.790001Q191.5980682373047,28.965,191.5018172373047,28.965Q191.4055692373047,28.965,191.10806823730468,28.772499Q190.82806823730468,28.58,190.7230682373047,28.440001Q190.6180682373047,28.299999,190.60056923730468,28.125Q190.5830692373047,27.985001,190.6530682373047,27.915001Q190.7230682373047,27.844999,191.03806923730468,27.705Q191.82556923730468,27.285,194.67806823730467,26.9525Q195.16806823730468,26.9,195.5005682373047,26.8125Q195.7805672373047,26.7425,197.9680672373047,26.66375Q200.1555672373047,26.585,201.1880682373047,26.6025ZM195.41306923730468,13.3024998Q195.55306823730467,13.1449995,195.79806923730467,13.1887503Q196.04306823730468,13.2325001,196.20056923730468,13.381250399999999Q196.35806823730468,13.5299997,196.41931923730468,13.5299997Q196.48056823730468,13.5299997,196.64681823730467,13.7662497Q196.8130682373047,14.0024996,196.8130682373047,14.0900002Q196.8130682373047,14.1774998,196.5593182373047,14.4487495Q196.3055682373047,14.7200003,196.3055682373047,14.78125Q196.3055682373047,14.8424997,196.1218182373047,15.087499600000001Q195.9380682373047,15.3324995,195.9993172373047,15.3324995Q196.0605682373047,15.3324995,196.67306923730467,15.21875Q197.2855682373047,15.1049995,197.69681923730468,15.1049995Q198.10806823730468,15.1049995,198.1605682373047,15.0524998Q198.26556823730468,14.8774996,199.0355682373047,15.306249600000001Q199.8055682373047,15.7349997,199.8055682373047,15.962499600000001Q199.8055682373047,16.1899996,199.0355682373047,16.7674999Q198.73806723730468,16.9775,198.5893172373047,17.1000004Q198.4405672373047,17.2224998,198.39681823730467,17.2224998Q198.35306923730468,17.2224998,197.9943182373047,17.5462503Q197.63556823730468,17.8699999,197.30306823730467,18.1062498Q196.9705692373047,18.3424997,196.9618182373047,18.3949995Q196.95306823730468,18.4475002,197.2418172373047,18.4825001Q197.5305672373047,18.5174999,197.82806823730468,18.5174999Q198.1255682373047,18.5174999,198.95681723730468,18.71875Q199.7880672373047,18.9200001,200.47931823730468,19.15625Q201.17056823730468,19.3924999,201.3455692373047,19.5762501Q201.5205692373047,19.7600002,201.5380672373047,20.2674999Q201.5905682373047,22.0175,201.38056923730468,22.822499999999998Q201.32806823730468,23.067500000000003,201.2493172373047,23.53125Q201.17056823730468,23.994999999999997,200.9955672373047,24.3625Q200.82056823730468,24.73,200.1818182373047,25.403748999999998Q199.54306823730468,26.0775,199.26306923730468,26.165Q199.07056823730468,26.235,199.00931923730468,26.2175Q198.94806823730468,26.2,198.82556923730468,26.0775Q198.6505682373047,25.884999999999998,198.4405672373047,25.71Q198.23056823730468,25.535,198.0555682373047,25.307499999999997Q197.7230682373047,24.8525,197.6268192373047,24.791249999999998Q197.5305672373047,24.73,197.1280672373047,24.73Q196.63806923730468,24.73,196.4630682373047,24.8875Q196.11306723730468,25.22,195.9030682373047,25.009999999999998Q195.8155692373047,24.940001000000002,195.7368182373047,24.940001000000002Q195.6580672373047,24.940001000000002,195.41306923730468,25.0275Q194.8355672373047,25.2025,194.3980672373047,25.8675Q194.2755682373047,26.0425,194.1530682373047,25.9725Q193.97806923730468,25.85,193.8380682373047,25.5175Q193.69806823730468,25.184998999999998,193.69806823730468,24.905Q193.69806823730468,24.555,193.6193182373047,24.555Q193.54056923730468,24.555,193.54056923730468,24.45Q193.54056923730468,24.345,193.4268192373047,24.275Q193.3130682373047,24.205,193.2518172373047,23.70625Q193.1905692373047,23.2075,193.1205672373047,23.032499Q193.05056723730468,22.8575,192.8930682373047,21.440001000000002Q192.7705692373047,20.354999499999998,192.78806923730468,20.0749998Q192.8055682373047,19.7950001,193.01556823730468,19.7950001Q193.1555672373047,19.7950001,193.66306923730468,19.4624996Q194.17056823730468,19.1300001,194.8618182373047,18.9025002Q195.55306823730467,18.6750002,195.88556823730468,18.3599997Q196.2180672373047,18.0450001,196.44556823730468,17.8699999Q196.9705692373047,17.4324999,197.51306923730468,16.3824997L197.6880682373047,16.0325003L197.4080692373047,15.9975004Q197.1805682373047,15.9975004,196.4980682373047,16.1374998Q195.8155692373047,16.2775002,195.64056823730468,16.3649998Q195.55306823730467,16.4350004,195.5005682373047,16.4087496Q195.44806823730468,16.3824997,195.32556923730468,16.2425003L195.16806823730468,16.0500002L195.0805682373047,16.2250004Q194.97556923730468,16.3999996,194.7480682373047,16.53125Q194.5205692373047,16.6625004,193.95181823730468,17.17875Q193.38306823730468,17.6949997,193.22556923730468,17.8175001Q193.0680672373047,17.9399996,192.8405682373047,17.9837503Q192.61306723730468,18.0275002,192.5605682373047,17.9574995Q192.50806823730468,17.8525,192.7530692373047,17.4237499Q192.9980682373047,16.9949999,193.3130682373047,16.6274996Q193.69806823730468,16.1724997,193.69806823730468,16.1025Q193.69806823730468,16.0325003,193.8380682373047,15.88375Q193.97806923730468,15.7349997,194.24056823730467,15.3675003Q194.5030692373047,14.9825001,194.85306923730468,14.2475004Q195.1505682373047,13.5824995,195.41306923730468,13.3024998ZM198.3705672373047,19.654999699999998Q196.9005682373047,19.5149994,196.9005682373047,19.6374998Q196.91806823730468,19.707500500000002,197.11056923730467,19.8125Q197.47806923730468,19.9875002,197.51306923730468,20.2849998Q197.5305672373047,20.6000004,197.82806823730468,20.6875Q198.26556823730468,20.7574997,198.26556823730468,21.3525Q198.26556823730468,21.6325,198.07306823730468,21.7725Q197.74056823730467,22.0175,197.6793172373047,22.14875Q197.6180682373047,22.280001,197.6180682373047,22.822499999999998L197.6180682373047,23.47L197.86306723730468,23.47Q198.26556823730468,23.47,198.26556823730468,23.8375Q198.26556823730468,24.275,198.4055672373047,24.275Q198.4405672373047,24.275,198.61556823730467,24.1175Q198.82556923730468,23.925,199.00931923730468,23.54875Q199.19306923730468,23.172501,199.26306923730468,22.822499999999998Q199.5955692373047,21.1949997,199.5605682373047,20.4250002L199.54306823730468,19.9524994L199.14056823730468,19.8125Q198.73806723730468,19.707500500000002,198.3705672373047,19.654999699999998ZM195.7805672373047,21.1075001Q195.88556823730468,21.0725002,195.88556823730468,20.7312498Q195.88556823730468,20.3899994,195.94681923730468,20.092499699999998Q196.00806823730468,19.7950001,195.9555682373047,19.7600002Q195.92056823730468,19.7250004,195.44806823730468,19.8299999Q194.97556923730468,19.9349995,194.69556823730468,20.04Q194.5205692373047,20.1100006,194.2755682373047,20.354999499999998L193.9955672373047,20.5650005L194.0830692373047,21.020000500000002Q194.13556823730468,21.4575,194.17056823730468,21.6325L194.1880682373047,21.79L194.48556923730467,21.5975Q194.76556823730468,21.3875,195.23806723730468,21.264999L195.7805672373047,21.1075001ZM195.79806923730467,22.84Q195.79806923730467,22.490000000000002,195.7805672373047,22.4025Q195.76306923730468,22.315001000000002,195.6580672373047,22.315001000000002Q195.5005682373047,22.315001000000002,195.47431923730468,22.3675Q195.44806823730468,22.42,195.11556823730467,22.516251Q194.7830672373047,22.6125,194.5205692373047,22.5075L194.29306823730468,22.384999999999998L194.32806823730468,22.98Q194.36306723730468,23.575,194.4680672373047,23.776249999999997Q194.57306823730468,23.9775,194.57306823730468,24.065001000000002Q194.57306823730468,24.309998999999998,195.16806823730468,24.0475Q195.2205672373047,24.03,195.23806723730468,24.03Q195.64056823730468,23.8375,195.7193182373047,23.68Q195.79806923730467,23.5225,195.79806923730467,22.84ZM214.1555672373047,17.5725002Q214.94306923730468,17.4324999,215.3105702373047,17.6424999Q215.5905682373047,17.8000002,215.5905682373047,18.0100002Q215.5905682373047,18.2375002,215.47681823730468,18.3687496Q215.36306723730468,18.5,215.04806923730467,18.5874996Q214.6805682373047,18.71,214.11181623730468,19.2349997Q213.54306823730468,19.7600002,213.26306923730468,19.9875002Q212.98307023730467,20.2150002,212.9655682373047,20.2325001Q212.9655682373047,20.2325001,213.0355682373047,20.2674999Q213.10556823730468,20.3024998,213.2193182373047,20.354999499999998Q213.3330692373047,20.407499299999998,213.4730682373047,20.46Q213.9630702373047,20.6525002,214.2430682373047,20.8800001Q214.5930672373047,21.1949997,214.8643192373047,21.0900002Q215.1355662373047,20.9850006,215.81806923730468,20.2849998Q216.8680682373047,19.1999998,216.8680682373047,18.9375Q216.8680682373047,18.7799997,216.9905702373047,18.6925001Q217.11306723730468,18.604999499999998,217.2880672373047,18.6750002Q217.44556823730468,18.71,217.57682023730467,18.8675003Q217.7080692373047,19.0249996,217.9005662373047,19.4624996Q218.07556923730468,19.8824997,218.01432023730467,20.092499699999998Q217.95306823730468,20.3024998,217.60306923730468,20.529999699999998Q217.2530672373047,20.7574997,216.98181923730468,21.020000500000002Q216.7105672373047,21.282499,216.3343202373047,21.5625Q215.9580692373047,21.842501,215.9580692373047,21.895Q215.9580692373047,22.07,216.72806923730468,22.752501000000002Q217.1480672373047,23.119999999999997,217.7080692373047,23.408751000000002Q218.26806623730468,23.697499999999998,219.6505662373047,24.309998999999998Q220.61306723730468,24.7125,220.8230662373047,24.9225Q220.98056823730468,25.0625,220.9893192373047,25.115000000000002Q220.9980702373047,25.1675,220.89306623730468,25.325Q220.7705692373047,25.535,220.4905702373047,25.57Q220.19306923730468,25.64,219.82556923730468,25.82375Q219.4580692373047,26.0075,219.31806923730468,26.1475Q219.2130662373047,26.2875,218.98556923730467,26.33125Q218.75806823730468,26.375,218.70556623730468,26.27Q218.67057023730467,26.2,218.4605672373047,26.1475Q218.26806623730468,26.1125,217.5593182373047,25.622498999999998Q216.8505672373047,25.1325,216.4480662373047,24.765L215.81806923730468,24.1875L215.5730662373047,23.9775L215.5030672373047,24.835Q215.4680672373047,25.4825,215.3718182373047,26.05125Q215.2755662373047,26.619999999999997,215.1880682373047,26.7075Q215.1005672373047,26.795,215.1005672373047,26.89125Q215.1005672373047,26.9875,214.8818172373047,27.3025Q214.6630672373047,27.6175,214.6630672373047,27.705Q214.6630672373047,27.7925,214.2518192373047,28.186251Q213.8405682373047,28.58,213.57806823730468,28.719999Q213.19306923730468,28.9475,212.5630682373047,28.9825Q212.35306923730468,29,212.1780702373047,28.754999Q211.98556923730467,28.440001,211.70556623730468,28.133751Q211.42556723730468,27.827499,211.35556823730468,27.827499Q211.2505682373047,27.827499,210.95306823730468,27.6Q210.6555672373047,27.372499,210.6205672373047,27.2675Q210.5855672373047,27.1625,210.4980702373047,27.075Q210.44556823730468,27.04,210.60306923730468,27.057499999999997Q210.83056623730468,27.075,211.5830692373047,27.25Q212.23056823730468,27.389999,212.5630682373047,27.407499Q212.7730672373047,27.424999,212.86056923730467,27.389999Q212.9480662373047,27.355,213.0880702373047,27.215Q213.29806923730467,26.97,213.5605702373047,26.427500000000002Q213.8230662373047,25.884999999999998,213.9280702373047,25.447499999999998Q214.05056723730468,24.940001000000002,214.06806923730468,23.872498999999998Q214.05056723730468,22.2625,213.8755682373047,22.280001Q213.7705692373047,22.297501,213.4905702373047,22.8575Q212.7205692373047,24.309998999999998,211.42556723730468,25.184998999999998Q211.0580672373047,25.43,211.04056923730468,25.4825Q210.9005702373047,25.622498999999998,210.3405682373047,25.9375Q209.7805672373047,26.252499999999998,209.6230702373047,26.252499999999998Q209.48306623730468,26.252499999999998,209.9380682373047,25.7275Q210.0955692373047,25.552500000000002,210.20056923730468,25.465Q210.39306623730468,25.325,210.39306623730468,25.24625Q210.39306623730468,25.1675,211.0580672373047,24.415Q211.82806823730468,23.54,212.1780702373047,23.07625Q212.5280682373047,22.6125,212.75556923730468,22.139999Q213.01806623730468,21.5625,213.14056823730468,21.509999999999998Q213.26306923730468,21.4575,213.0880702373047,21.317500000000003Q212.9130672373047,21.2124996,212.79931623730468,21.2124996Q212.6855702373047,21.2124996,212.6855702373047,21.335Q212.6855702373047,21.684998999999998,212.26556823730468,22.25375Q211.8455692373047,22.822499999999998,211.35556823730468,23.1375Q211.00556923730468,23.365000000000002,210.91806823730468,23.44375Q210.83056623730468,23.5225,210.60306923730468,23.697499999999998L210.04306823730468,24.134999999999998Q209.4130672373047,24.6075,209.16806823730468,24.6075Q208.85306923730468,24.6075,210.35807023730467,23.05Q211.07556923730468,22.297501,211.2768172373047,21.947499999999998Q211.47806923730468,21.5975,211.60931823730468,21.422501Q211.7405702373047,21.2474995,211.7230682373047,21.229999499999998Q211.67057023730467,21.1949997,211.2768172373047,21.405001Q210.88306823730468,21.615000000000002,210.7080692373047,21.7725Q210.23556923730467,22.192500000000003,209.9030682373047,22.192500000000003Q209.60556823730468,22.192500000000003,209.92056623730468,21.509999999999998Q210.04306823730468,21.264999,210.2443202373047,21.0812502Q210.44556823730468,20.8975,211.1630672373047,20.407499299999998Q211.9330672373047,19.8649998,212.2480702373047,19.6112499Q212.5630682373047,19.3575001,213.1580692373047,18.7974997Q213.5255702373047,18.4475002,213.4730682373047,18.4300003Q213.45556623730468,18.4125004,213.3680682373047,18.4125004Q213.19306923730468,18.4125004,212.5280682373047,18.6225004Q211.86306723730468,18.8324995,211.7755702373047,18.9200001Q211.70556623730468,18.9899998,211.45182023730467,18.9724998Q211.1980662373047,18.9549999,211.07556923730468,18.8850002Q210.67306923730467,18.5699997,211.6005672373047,18.167499499999998Q212.23056823730468,17.9049997,213.19306923730468,17.729999499999998L214.1555672373047,17.5725002ZM213.01806623730468,13.1975002Q213.19306923730468,13.1625004,213.22806923730468,13.1537495Q213.26306923730468,13.1449995,213.50806823730468,13.2849998L214.0330692373047,13.5299997Q214.2430682373047,13.6350002,214.38306823730468,13.7924995Q214.5230672373047,13.9499998,214.5230672373047,14.0725002Q214.5230672373047,14.1774998,214.61056923730467,14.4399996Q214.6455692373047,14.5974998,214.73307023730467,14.6587496Q214.82056823730468,14.7200003,215.1880682373047,14.79Q215.69556823730468,14.912500399999999,216.3780672373047,14.9825001Q217.6205672373047,15.1225004,218.39056823730468,15.4025002Q218.8980672373047,15.5600004,219.0205692373047,15.5600004Q219.14306623730468,15.5600004,219.4930682373047,15.88375Q219.8430672373047,16.2074995,219.91307023730468,16.3999996Q220.1230702373047,16.9075003,219.5893172373047,17.3362503Q219.0555682373047,17.7650003,218.54806923730467,17.4324999Q218.1980662373047,17.2224998,217.44556823730468,17.5900002Q217.0605702373047,17.7825003,216.9730682373047,17.7825003Q216.67556723730468,17.7825003,216.9730682373047,17.3625002Q217.00806823730468,17.292499499999998,217.04306823730468,17.2574997Q217.3055682373047,16.9425001,217.3055682373047,16.7937498Q217.3055682373047,16.6449995,217.44556823730468,16.3824997Q217.7430682373047,15.9099998,217.35807023730467,15.9099998Q217.20056923730468,15.9099998,216.8768192373047,15.813750299999999Q216.5530702373047,15.717499700000001,215.9405672373047,15.6737499Q215.32806823730468,15.6300001,215.04806923730467,15.5424995Q214.85556823730468,15.5074997,214.7418172373047,15.524999600000001Q214.6280672373047,15.5424995,214.3480682373047,15.6999998Q213.98056823730468,15.8924999,213.8405682373047,15.9012499Q213.70056923730468,15.9099998,213.3855662373047,15.787500399999999Q213.17556723730468,15.6824999,213.04431923730468,15.6737499Q212.9130672373047,15.665,212.5105662373047,15.7349997Q211.6180682373047,15.8924999,211.1980662373047,16.1199999Q211.0580672373047,16.2074995,210.8130682373047,16.3125Q210.63806923730468,16.3824997,210.57682023730467,16.4787502Q210.51556823730468,16.5749998,210.44556823730468,16.8725004Q210.3055682373047,17.3450003,210.3055682373047,17.5375004Q210.3055682373047,17.7124996,210.0605702373047,18.1237497Q209.8155672373047,18.5349998,209.5005682373047,18.8149996Q209.25556923730468,19.0950003,209.0980682373047,19.1037502Q208.9405672373047,19.1125002,208.7830692373047,18.8850002Q208.6780702373047,18.71,208.6168172373047,18.1850004Q208.5555682373047,17.6599998,208.64306623730468,17.5550003Q208.73056823730468,17.4499998,208.88806923730468,17.1350002L209.1505702373047,16.6274996Q209.25556923730468,16.4350004,209.25556923730468,16.30375Q209.25556923730468,16.1724997,209.4305682373047,15.8575001Q209.5355682373047,15.6125002,209.60556823730468,15.568750399999999Q209.67556723730468,15.524999600000001,209.92056623730468,15.524999600000001Q210.2880672373047,15.524999600000001,211.00556923730468,15.2974997Q211.7230682373047,15.0699997,212.23056823730468,14.9650002L212.7730672373047,14.8949995L212.7730672373047,14.5974998Q212.7730672373047,14.3175001,212.7205692373047,13.8975Q212.6855702373047,13.5299997,212.7468182373047,13.381250399999999Q212.8080672373047,13.2325001,213.01806623730468,13.1975002ZM235.6455692373047,25.2025Q236.60807023730467,25.0625,237.48307023730467,25.692500000000003Q237.8155672373047,25.884999999999998,238.13932023730467,26.22625Q238.4630662373047,26.567500000000003,238.4630662373047,26.689999999999998Q238.4630662373047,26.7425,238.56806923730468,26.865000000000002Q238.67306523730468,26.9875,238.56806923730468,27.083750000000002Q238.4630662373047,27.18,238.4630662373047,27.32Q238.4630662373047,27.7225,238.0080722373047,27.950001Q237.74556723730467,28.09,237.55307023730467,28.02Q237.41307023730468,27.950001,237.0980682373047,27.643749Q236.7830662373047,27.3375,236.7830662373047,27.25Q236.7830662373047,27.197499999999998,236.29306823730468,26.689999999999998Q235.29557023730467,25.64,235.29557023730467,25.4825Q235.29557023730467,25.2375,235.6455692373047,25.2025ZM235.29557023730467,19.7775002Q235.5405652373047,19.7250004,235.7593152373047,19.59375Q235.9780652373047,19.4624996,236.1180722373047,19.4974995Q236.2580722373047,19.532499299999998,236.48556523730468,19.585Q236.73056823730468,19.6199999,236.82682023730467,19.7687502Q236.92306523730468,19.917499499999998,236.9580692373047,20.3024998Q236.97557023730468,20.6875,236.8880692373047,20.7662506Q236.80056723730468,20.844999299999998,236.2755662373047,20.8274994Q235.92556723730468,20.8099995,235.4618222373047,20.915Q234.9980702373047,21.020000500000002,234.9980702373047,21.1075001Q234.9980702373047,21.1774998,235.2080692373047,21.282499Q235.3830722373047,21.3525,235.4093172373047,21.4575Q235.4355702373047,21.5625,235.4355702373047,21.9825L235.4355702373047,22.5425L235.6980662373047,22.5075Q236.87056723730467,22.3675,237.9030682373047,22.280001Q238.4630662373047,22.244999999999997,238.6118162373047,22.07Q238.7605662373047,21.895,238.9705662373047,21.903748999999998Q239.1805722373047,21.9125,239.5655672373047,22.122498999999998Q239.98556523730468,22.3325,240.0730662373047,22.3325Q240.1605682373047,22.3325,240.40557123730468,22.525Q240.54557023730467,22.682499999999997,240.58931723730467,22.77Q240.6330722373047,22.8575,240.6330722373047,23.067500000000003Q240.6330722373047,23.4175,240.4930722373047,23.54Q240.42306523730468,23.61,240.23056823730468,23.671249Q240.03807023730468,23.7325,239.8980712373047,23.74125Q239.7580722373047,23.75,239.74057023730467,23.715Q239.74057023730467,23.627501000000002,239.46931423730467,23.452499Q239.1980662373047,23.2775,238.55056723730468,23.2075Q237.30806723730467,23.067500000000003,236.2230682373047,23.2775L235.55806723730467,23.365000000000002Q235.4005662373047,23.4175,235.33931723730467,23.46125Q235.2780682373047,23.505000000000003,235.2430722373047,23.627501000000002Q235.1905672373047,23.872498999999998,235.09431423730467,24.05625Q234.9980702373047,24.240000000000002,234.85807023730467,24.625Q234.7180672373047,25.009999999999998,234.3068162373047,25.535Q233.8955692373047,26.059998999999998,233.4755672373047,26.497500000000002L232.7230682373047,27.197499999999998Q232.4955672373047,27.459999,232.00556923730468,27.7925Q231.51556823730468,28.125,231.3405682373047,28.2125Q231.16556923730468,28.247499,230.95556623730468,28.39625Q230.7455672373047,28.545,230.7105672373047,28.51Q230.5530702373047,28.334999,231.35807023730467,27.6875Q231.95306823730468,27.18,232.4605672373047,26.445Q233.42306923730467,25.009999999999998,233.7205692373047,24.065001000000002Q233.7730672373047,23.855,233.7468182373047,23.802500000000002Q233.7205692373047,23.75,233.54557023730467,23.82Q233.3705672373047,23.889999,232.8455692373047,24.0475Q232.2505682373047,24.2225,232.10181823730468,24.30125Q231.95306823730468,24.380000000000003,231.67306923730467,24.625Q231.4280702373047,24.835,231.33181723730468,24.87875Q231.23556923730467,24.9225,231.04306823730468,24.905Q230.79806923730467,24.8525,230.5355682373047,24.677500000000002Q230.3430672373047,24.5375,230.29056923730468,24.458750000000002Q230.23806723730468,24.380000000000003,230.23806723730468,24.205Q230.23806723730468,24.0125,230.29056923730468,23.95125Q230.3430672373047,23.889999,230.5530702373047,23.82Q231.5855672373047,23.3825,232.9680672373047,23.032499Q234.10556823730468,22.77,234.1230702373047,22.74375Q234.14056823730468,22.717501,234.1843182373047,22.07Q234.22806923730468,21.422501,234.28931823730468,21.422501Q234.3505672373047,21.422501,234.3855662373047,21.282499Q234.4030682373047,21.229999499999998,234.3330692373047,21.1687498Q234.26306923730468,21.1075001,234.1230702373047,21.020000500000002Q233.8955692373047,20.9324999,233.8343202373047,20.8712502Q233.7730672373047,20.8099995,233.79056923730468,20.6700001Q233.79056923730468,20.46,233.98307023730467,20.3199997Q234.19306923730468,20.2150002,234.63056923730468,20.0137501Q235.06806923730468,19.8125,235.29557023730467,19.7775002ZM232.8980672373047,19.0074997Q233.0380672373047,18.8324995,233.4755672373047,19.2525005Q233.75556923730468,19.532499299999998,233.8080672373047,19.6900005Q233.86056923730467,19.8299999,233.5543172373047,20.4250002Q233.2480702373047,21.020000500000002,233.0205692373047,21.2474995Q232.7755662373047,21.4575,232.13681823730468,21.895Q231.4980702373047,22.3325,231.4280702373047,22.3325Q231.35807023730467,22.3325,231.0955692373047,22.5075Q230.8680682373047,22.665,230.8855662373047,22.6125Q230.8855662373047,22.577499,231.2180672373047,22.122498999999998Q231.88306823730468,21.2474995,232.1630672373047,20.6875Q232.1980662373047,20.582500500000002,232.5218202373047,20.03125Q232.8455692373047,19.479999499999998,232.8455692373047,19.261249499999998Q232.8455692373047,19.042499499999998,232.8980672373047,19.0074997ZM227.66556923730468,20.25Q227.94556823730468,19.707500500000002,228.13806923730468,19.3050003Q228.33056623730468,18.9025002,228.4793162373047,18.8324995Q228.6280672373047,18.7624998,228.89056823730468,18.8324995Q229.0305672373047,18.9025002,229.0918202373047,18.9724998Q229.1530682373047,19.042499499999998,229.17057023730467,19.1824999Q229.20556623730468,19.4274998,229.2755702373047,19.5149994Q229.3455692373047,19.6025,229.04806923730467,20.1100006L228.8030702373047,20.6525002L229.1180682373047,20.6875Q229.5380672373047,20.7224998,230.0018192373047,21.13375Q230.4655682373047,21.545,230.4655682373047,21.860001Q230.4655682373047,22.07,230.3430672373047,22.4725Q229.92306923730467,23.96,229.73056823730468,24.309998999999998Q229.60807023730467,24.625,229.60807023730467,24.695Q229.60807023730467,24.765,229.5030672373047,24.8Q229.3980672373047,24.835,229.3980672373047,25.05375Q229.3980672373047,25.2725,229.1793172373047,25.61375Q228.9605672373047,25.955,228.9605672373047,26.0075Q228.9605672373047,26.130000000000003,228.5318182373047,26.68125Q228.10306923730468,27.2325,227.9630702373047,27.2325Q227.8755682373047,27.2325,227.66556923730468,27.495001L227.4380682373047,27.7575L227.3680682373047,27.565001Q227.26306923730468,27.355,227.2105672373047,27.355Q227.17556723730468,27.355,227.1318172373047,27.24125Q227.0880702373047,27.127499999999998,227.10556823730468,27.075Q227.1230702373047,27.04,226.9655682373047,26.8125Q226.8080672373047,26.585,226.8080672373047,26.52375Q226.8080672373047,26.4625,226.5630682373047,26.2875Q226.31806923730468,26.1125,226.31806923730468,26.059998999999998Q226.31806923730468,26.0075,225.82806823730468,25.54375Q225.3380702373047,25.08,225.26806623730468,25.08Q225.1805682373047,25.08,224.88306823730468,25.29Q223.9905702373047,25.955,223.9380682373047,25.884999999999998Q223.8330692373047,25.7975,224.67306923730467,24.817500000000003Q225.2505682373047,24.17,225.5305672373047,23.785Q226.4405672373047,22.5075,226.4405672373047,22.4375Q226.4405672373047,22.4025,226.63306823730468,22.096251000000002Q226.82556923730468,21.79,227.10556823730468,21.282499L227.66556923730468,20.25ZM228.5930672373047,24.065001000000002Q228.7505682373047,23.452499,228.82056823730468,23.233749Q228.89056823730468,23.014999,229.0043182373047,22.4725Q229.1180682373047,21.93,229.14431723730468,21.79Q229.17057023730467,21.65,228.9343182373047,21.483749Q228.6980662373047,21.317500000000003,228.61056923730467,21.317500000000003Q228.5230672373047,21.317500000000003,228.29557023730467,21.702499Q227.98056823730468,22.2275,227.1843182373047,23.1375Q226.38806923730468,24.0475,225.95056923730468,24.345Q225.8455692373047,24.4675,225.7405702373047,24.63375Q225.6355662373047,24.8,225.7230682373047,24.8525Q226.19556823730468,25.184998999999998,227.10556823730468,25.465Q227.54306823730468,25.605,227.6568182373047,25.61375Q227.7705692373047,25.622498999999998,227.9105682373047,25.535Q228.29557023730467,25.29,228.5930672373047,24.065001000000002ZM227.89306623730468,15.0174999Q227.98056823730468,14.9300003,228.76806623730468,15.0349998Q228.97806923730468,15.0699997,229.16181923730468,15.2537498Q229.3455692373047,15.4375,229.42431623730468,15.4375Q229.5030672373047,15.4375,229.73056823730468,15.6824999Q229.9580692373047,15.9274998,229.9580692373047,16.2862501Q229.9580692373047,16.6449995,229.8443182373047,16.7237501Q229.73056823730468,16.8024998,229.73056823730468,16.9250002Q229.73056823730468,17.0474997,229.48556923730467,17.1700001Q229.2405702373047,17.292499499999998,229.0830692373047,17.2574997Q228.8380702373047,17.2049999,228.5843202373047,16.8374996Q228.33056623730468,16.4700003,228.2080692373047,15.9975004Q228.17306923730467,15.8050003,227.98056823730468,15.6300001Q227.6480672373047,15.2449999,227.89306623730468,15.0174999ZM233.4055672373047,14.2825003Q233.4055672373047,14.212499600000001,233.5543172373047,13.8975Q233.70306823730468,13.5824995,233.8343202373047,13.6175003Q233.9655682373047,13.6525002,234.41181923730468,14.0725002Q234.85807023730467,14.4925003,234.85807023730467,14.5799999Q234.85807023730467,14.8599997,234.2105672373047,16.1724997Q234.14056823730468,16.3125,234.07056823730468,16.4437504Q234.0005682373047,16.5749998,233.9655682373047,16.6537504Q233.9305682373047,16.7325001,233.9305682373047,16.7325001Q233.9480662373047,16.7325001,234.5955692373047,16.5137501Q235.2430722373047,16.2950001,235.5755692373047,16.2512503Q235.9080662373047,16.2074995,236.0655672373047,16.1287498Q236.2230682373047,16.0500002,236.45932023730467,16.1287498Q236.6955722373047,16.2074995,236.92306523730468,16.2600002Q237.41307023730468,16.3474998,237.48307023730467,16.9775Q237.5180662373047,17.3625002,237.3955692373047,17.5199995Q237.30806723730467,17.6075001,237.19432023730468,17.63375Q237.0805662373047,17.6599998,236.73056823730468,17.6075001Q236.18806423730467,17.5900002,235.9780652373047,17.6599998Q235.1030652373047,17.9224997,234.63932023730467,17.8962498Q234.17556723730468,17.8699999,233.86056923730467,17.5550003L233.5980682373047,17.292499499999998L233.38806923730468,17.5199995Q232.3730702373047,18.7799997,232.3380662373047,18.8500004Q232.2855682373047,18.9375,231.8480682373047,19.261249499999998Q231.4105682373047,19.585,231.1480672373047,19.7250004Q230.7805672373047,19.8999996,230.6230702373047,20.0574999Q230.4655682373047,20.2150002,230.4655682373047,20.1275005Q230.4655682373047,20.04,230.57931923730467,19.9524994Q230.69306923730468,19.8649998,230.69306923730468,19.7862501Q230.69306923730468,19.707500500000002,230.8680682373047,19.5237503Q231.04306823730468,19.3400002,231.11306723730468,19.1999998Q231.1830672373047,19.0600004,231.3405682373047,18.8324995Q231.55056723730468,18.5,231.4893192373047,18.4037504Q231.4280702373047,18.3074999,230.79806923730467,18.2200003Q230.23806723730468,18.1499996,229.8355672373047,18.2200003Q228.8380702373047,18.4650002,228.4005702373047,18.6400003Q228.1905672373047,18.7275,228.1205672373047,18.7275Q228.0330692373047,18.7275,227.6568182373047,18.9112501Q227.2805672373047,19.0950003,227.07056823730468,19.2349997Q226.5280682373047,19.5149994,226.14306623730468,20.0225Q225.98556923730467,20.25,225.7755702373047,20.24125Q225.5655672373047,20.2325001,225.1630672373047,19.969999299999998Q224.7780682373047,19.7425003,224.7780682373047,19.532499299999998Q224.7780682373047,19.3225002,224.9705692373047,19.1737499Q225.1630672373047,19.0249996,225.6880682373047,18.7449999Q226.3705672373047,18.4300003,227.73556923730467,17.9925003Q229.1005672373047,17.5550003,229.7830692373047,17.4674997Q230.1855702373047,17.4324999,230.2205692373047,17.3625002Q230.25556923730468,17.292499499999998,230.72806923730468,17.292499499999998Q231.4630702373047,17.292499499999998,231.7255672373047,17.6599998Q231.8130682373047,17.8175001,231.9005662373047,17.7825003Q231.95306823730468,17.729999499999998,232.29431923730468,17.0387497Q232.6355662373047,16.3474998,232.82806823730468,15.8924999Q233.4055672373047,14.4399996,233.4055672373047,14.2825003ZM252.9355702373047,26.252499999999998Q252.9355702373047,26.0425,252.98806723730468,26.0425Q253.0755692373047,26.025,253.88056923730468,26.252499999999998Q254.84307123730468,26.515,255.19306923730468,26.9875Q255.28057123730468,27.0925,255.3593212373047,27.52125Q255.43806423730467,27.950001,255.4030682373047,28.0725Q255.35057023730468,28.2125,255.24556723730467,28.25625Q255.1405712373047,28.299999,255.1405712373047,28.422501Q255.1405712373047,28.615,254.73806723730468,28.4575Q254.5980682373047,28.422501,254.3093182373047,28.1425Q254.0205692373047,27.862499,253.8280712373047,27.5825Q253.6355662373047,27.32,253.3905712373047,27.0925Q253.1455692373047,26.865000000000002,253.1455692373047,26.786250000000003Q253.1455692373047,26.7075,253.0405652373047,26.61125Q252.9355702373047,26.515,252.9355702373047,26.252499999999998ZM250.1530682373047,25.744999999999997Q250.4155652373047,25.5875,250.8880692373047,26.059998999999998Q251.2205662373047,26.3575,251.2205662373047,26.62875Q251.2205662373047,26.9,250.9405672373047,27.11Q250.67807023730467,27.32,250.3105702373047,27.52125Q249.94306923730468,27.7225,249.81182123730468,27.7225Q249.6805722373047,27.7225,249.63681823730468,27.783751Q249.59307123730468,27.844999,248.92807023730467,28.116249Q248.2630692373047,28.387501,248.2368162373047,28.36125Q248.2105712373047,28.334999,248.80556523730468,27.7575Q249.22557023730468,27.32,249.6280672373047,26.716250000000002Q250.03057123730468,26.1125,250.03057123730468,25.92Q250.03057123730468,25.7975,250.1530682373047,25.744999999999997ZM245.62056723730467,19.9349995Q245.6905672373047,19.7425003,246.0405652373047,19.917499499999998Q246.2155682373047,20.0050001,246.3905712373047,20.25Q246.5655672373047,20.4949999,246.5655672373047,20.6525002Q246.5655672373047,20.7399998,246.2943192373047,21.317500000000003Q246.0230712373047,21.895,245.9005662373047,22.105Q245.8305662373047,22.21,245.74306523730468,22.384999999999998Q245.6905672373047,22.525,244.78057123730468,23.44375Q243.87056723730467,24.3625,243.36306723730468,24.817500000000003Q242.2605662373047,25.7975,242.1380692373047,25.7975Q241.98056823730468,25.7975,242.12056723730467,25.64Q242.1380692373047,25.605,242.17306523730468,25.5875Q242.2780682373047,25.4825,242.2780682373047,25.395Q242.2780682373047,25.36,242.4968182373047,25.05375Q242.7155682373047,24.747498999999998,242.8380662373047,24.6425Q243.04806523730468,24.45,243.77431523730468,23.408751000000002Q244.50056423730467,22.3675,244.7280652373047,21.877501000000002Q244.9030682373047,21.545,244.99932123730468,21.44875Q245.0955662373047,21.3525,245.0955662373047,21.229999499999998Q245.0955662373047,21.1075001,245.18306723730467,21.0025005Q245.3930662373047,20.7749996,245.62056723730467,19.9349995ZM252.5855712373047,18.7799997Q252.65557123730468,18.6925001,252.6643222373047,18.05375Q252.67306523730468,17.415,252.7780682373047,17.3625002Q252.8830722373047,17.3100004,252.9705662373047,17.3100004Q253.09307123730468,17.3100004,253.3643192373047,17.4324999Q253.6355662373047,17.5550003,253.79306823730468,17.729999499999998Q253.9505692373047,17.8699999,253.96807123730468,17.948749499999998Q253.98556523730468,18.0275002,253.9505692373047,18.2550001Q253.88056923730468,18.604999499999998,253.9243162373047,18.6487503Q253.96807123730468,18.6925001,254.47557023730468,18.6575003Q254.9480662373047,18.6225004,255.1405712373047,18.71875Q255.3330692373047,18.8149996,255.42057023730467,19.1999998Q255.5605702373047,19.6374998,255.35057023730468,19.7600002Q255.1405712373047,19.8824997,254.5805662373047,19.6725006Q254.40557123730468,19.6025,254.2480702373047,19.5587502Q254.0905682373047,19.5149994,253.98556523730468,19.5062504Q253.88056923730468,19.4974995,253.88056923730468,19.532499299999998Q253.86306723730468,19.5500002,253.8280712373047,21.719999L253.79306823730468,23.855L254.2655712373047,23.9075Q254.7205662373047,23.96,255.4030682373047,23.889999Q256.8555682373047,23.7325,257.1355662373047,23.889999Q257.2755662373047,23.96,257.3893202373047,24.205Q257.50306723730466,24.45,257.5205692373047,24.7125Q257.5380702373047,25.3425,256.87307023730466,25.2375Q256.5755692373047,25.184998999999998,256.4705662373047,25.115000000000002Q256.1380692373047,24.9575,254.2480702373047,24.869999999999997Q253.68806423730467,24.8525,253.53057123730468,24.86125Q253.3730702373047,24.869999999999997,253.3380662373047,24.940001000000002Q253.2680662373047,25.15,252.8830722373047,24.940001000000002Q252.6905672373047,24.8525,252.0518192373047,24.9225Q251.41307023730468,24.9925,251.0718152373047,25.00125Q250.73056823730468,25.009999999999998,249.82931523730468,25.307499999999997Q248.92807023730467,25.605,248.61306723730468,25.884999999999998Q248.29806523730468,26.165,248.2280652373047,26.165Q248.10556823730468,26.165,247.8255692373047,26.0075Q247.54557023730467,25.85,247.4580692373047,25.7275Q247.3530652373047,25.5875,247.2830662373047,25.5875Q247.23056823730468,25.5875,247.0905682373047,25.744999999999997Q246.9505692373047,25.9025,246.9505692373047,25.990000000000002Q246.93306723730467,26.059998999999998,246.4868162373047,26.541249999999998Q246.0405652373047,27.0225,245.9005662373047,27.075Q245.7080692373047,27.1625,245.62056723730467,27.258751Q245.5330662373047,27.355,245.4193192373047,27.355Q245.30556523730468,27.355,245.26181823730468,27.459999Q245.21807123730468,27.565001,245.0255662373047,27.5825Q244.93806423730467,27.6,244.8855662373047,27.547501Q244.8330692373047,27.495001,244.7630692373047,27.3375Q244.67556723730468,27.057499999999997,244.4043202373047,26.655Q244.1330722373047,26.252499999999998,244.1330722373047,26.1475Q244.1330722373047,26.059998999999998,244.2905652373047,25.990000000000002Q244.4480662373047,25.92,244.6230702373047,25.92Q244.7105712373047,25.9025,244.7630692373047,25.85Q244.8155672373047,25.7975,245.04306823730468,25.7975Q245.2530672373047,25.7975,245.4105682373047,25.64875Q245.56806923730468,25.5,245.86557023730467,25.009999999999998Q246.2680662373047,24.345,246.46931423730467,23.54Q246.67057023730467,22.735001,246.49556723730467,22.4375Q246.4080662373047,22.244999999999997,246.30307023730467,22.244999999999997Q246.18056523730468,22.244999999999997,246.1718212373047,22.122498999999998Q246.16307023730468,22,246.2680662373047,21.807499999999997Q246.5130692373047,21.4575,247.0030672373047,21.58Q247.2655712373047,21.65,247.61557023730467,21.877501000000002Q247.9655682373047,22.105,247.9655682373047,22.21Q247.9655682373047,22.315001000000002,248.0355682373047,22.3325Q248.0880662373047,22.35,248.02681723730467,22.83125Q247.9655682373047,23.3125,247.8955692373047,23.3825Q247.84307123730468,23.47,247.71181523730468,24.03Q247.5805662373047,24.59,247.5280682373047,24.7825Q247.4580692373047,24.9575,247.5018162373047,24.975Q247.54557023730467,24.9925,247.84307123730468,24.8525Q248.1580662373047,24.7125,248.49057023730467,24.66Q248.8230662373047,24.6075,249.12056723730467,24.502501000000002Q249.41806823730468,24.3975,249.7155682373047,24.3275L250.0130692373047,24.240000000000002L250.0655672373047,23.7675Q250.10057023730468,23.259999999999998,250.03057123730468,23.014999Q249.9605712373047,22.77,250.0830692373047,22.42875Q250.2055662373047,22.0875,250.2055662373047,21.13375Q250.2055662373047,20.1800003,250.1530682373047,20.1800003Q250.10057023730468,20.1800003,249.92556723730468,20.2849998Q249.75056423730467,20.3899994,249.7155682373047,20.46Q249.6455692373047,20.582500500000002,249.44432023730468,20.5387497Q249.2430722373047,20.4949999,249.0330662373047,20.3199997Q248.78807023730468,20.092499699999998,248.78807023730468,19.969999299999998Q248.78807023730468,19.8999996,249.2343212373047,19.6725006Q249.6805722373047,19.4449997,249.9780652373047,19.3924999Q250.17057023730467,19.3400002,250.2580722373047,19.15625Q250.3455662373047,18.9724998,250.3455662373047,18.50875Q250.3455662373047,18.0450001,250.3980712373047,18.0450001Q250.8530652373047,18.0450001,251.0805662373047,18.4650002Q251.25556923730468,18.7799997,251.3168182373047,18.7799997Q251.3780672373047,18.7799997,251.3780672373047,18.8937502Q251.3780672373047,19.0074997,251.2905652373047,19.0074997Q251.2030712373047,19.0074997,251.23806723730468,19.042499499999998Q251.2730712373047,19.0775003,251.89431723730468,18.9549999Q252.5155712373047,18.8324995,252.5855712373047,18.7799997ZM252.55056723730468,19.9349995Q252.55056723730468,19.6374998,252.4630662373047,19.6112499Q252.37556423730467,19.585,251.8155672373047,19.7250004Q251.34307123730468,19.8125,251.16806823730468,19.8649998Q251.06306423730467,19.8824997,251.0280682373047,19.9524994Q250.9930722373047,20.0225,250.9930722373047,20.25Q250.9930722373047,20.5124998,251.0280682373047,20.5650005Q251.06306423730467,20.6175003,251.16806823730468,20.582500500000002Q251.3955692373047,20.4949999,251.79806523730468,20.5124998Q252.2005692373047,20.529999699999998,252.3055722373047,20.6350002Q252.4105682373047,20.7399998,252.4455722373047,20.7312498Q252.48056823730468,20.7224998,252.5155712373047,20.529999699999998Q252.55056723730468,20.3199997,252.55056723730468,19.9349995ZM252.48056823730468,21.825Q252.48056823730468,21.440001000000002,252.4455722373047,21.369999999999997Q252.4105682373047,21.3,252.2530672373047,21.264999Q252.0605702373047,21.2474995,251.8855662373047,21.30875Q251.7105712373047,21.369999999999997,251.56182123730468,21.3525Q251.41307023730468,21.335,251.2030712373047,21.422501Q250.9930722373047,21.509999999999998,250.9143222373047,21.509999999999998Q250.8355712373047,21.509999999999998,250.87056723730467,21.877501000000002Q250.87056723730467,22.0875,250.90557123730468,22.14875Q250.9405672373047,22.21,251.0280682373047,22.192500000000003Q251.4480662373047,22.105,251.82431823730468,22.21Q252.2005692373047,22.315001000000002,252.3055722373047,22.5075Q252.37556423730467,22.6125,252.3843152373047,22.603749999999998Q252.3930662373047,22.594999,252.42807023730467,22.5075Q252.48056823730468,22.3675,252.48056823730468,21.825ZM252.35807023730467,23.802500000000002Q252.3930662373047,23.68,252.4105682373047,23.2425Q252.42807023730467,22.805,252.35807023730467,22.796249Q252.28807023730468,22.7875,251.8418202373047,22.8925Q251.3955692373047,22.997498999999998,251.2205662373047,23.05Q250.8880692373047,23.172501,250.9405672373047,23.7675L250.9580692373047,24.065001000000002L251.3780672373047,24.065001000000002Q252.2705692373047,24.0825,252.35807023730467,23.802500000000002ZM245.3230662373047,15.5600004Q245.55056723730468,15.279999700000001,245.7080692373047,15.3324995Q245.86557023730467,15.3850002,246.1280672373047,15.4549999Q246.35556823730468,15.4899998,246.67057023730467,15.6475Q246.98556523730468,15.8050003,247.0730662373047,15.9099998Q247.1430662373047,16.0150003,247.18682123730468,16.4437504Q247.23056823730468,16.8725004,247.30056723730468,16.96Q247.40557123730468,17.0824995,247.2655712373047,17.40625Q247.12556423730467,17.729999499999998,246.8980712373047,17.8699999Q246.53057123730468,18.1324997,246.30307023730467,17.7475004Q246.2155682373047,17.5375004,246.0230712373047,17.3625002Q245.8305662373047,17.1875,245.8305662373047,17.1175003Q245.8305662373047,17.0824995,245.5418162373047,16.6800003Q245.2530672373047,16.2775002,245.1655652373047,16.2250004Q245.0780712373047,16.1724997,245.11306723730468,15.962499600000001Q245.1480712373047,15.7524996,245.3230662373047,15.5600004ZM250.43306723730467,14.0199995Q250.48556523730468,13.7399998,250.5643162373047,13.6437502Q250.6430662373047,13.5474997,250.92306523730468,13.6612501Q251.2030712373047,13.774999600000001,251.2293162373047,13.8275003Q251.25556923730468,13.8800001,251.60556823730468,14.11625Q251.9555662373047,14.3525,251.99057023730467,14.4049997Q252.0255662373047,14.4925003,251.92057023730467,14.7112503Q251.8155672373047,14.9300003,251.6580662373047,15.1049995Q251.48307023730467,15.279999700000001,251.3955692373047,15.4200001Q250.92306523730468,16.1199999,250.9580692373047,16.1899996Q250.9930722373047,16.2074995,251.1505662373047,16.1199999Q251.78057123730468,15.8225002,252.6030652373047,15.6999998Q252.9530712373047,15.6475,253.09307123730468,15.595000299999999Q253.25056423730467,15.5074997,253.6793212373047,15.4899998Q254.10807023730467,15.4724998,254.30056723730468,15.524999600000001Q254.84307123730468,15.6999998,254.84307123730468,16.3649998Q254.84307123730468,16.6099997,254.80806723730467,16.6712503Q254.7730712373047,16.7325001,254.56306423730467,16.7849998Q254.2830662373047,16.8374996,254.2130662373047,16.7849998Q254.1430662373047,16.7325001,253.5043182373047,16.7150002Q252.86557023730467,16.6975002,252.42807023730467,16.75Q251.9730682373047,16.8024998,251.8330692373047,16.9425001Q251.6580662373047,17.1350002,251.33432023730467,17.0387497Q251.0105662373047,16.9425001,250.81806923730468,16.6274996L250.6955722373047,16.3999996L249.94306923730468,17.2049999L249.15557123730468,18.0100002L249.29557023730467,18.1850004Q249.4530712373047,18.3599997,249.44432023730468,18.6225004Q249.4355702373047,18.8850002,249.2780682373047,19.042499499999998Q249.0855712373047,19.2174997,248.71807123730468,19.2174997Q248.35057023730468,19.2174997,248.29806523730468,19.1300001Q248.2630692373047,19.0600004,248.07931523730468,19.0687504Q247.8955692373047,19.0775003,247.8780672373047,19.1824999Q247.84307123730468,19.2525005,247.6855702373047,19.165Q247.42306523730468,19.0074997,246.7230682373047,19.1824999Q246.30307023730467,19.270000500000002,245.7080692373047,19.4099998Q244.69306923730468,19.6199999,243.97557023730468,20.0225Q243.5030672373047,20.2674999,243.38056923730468,20.5124998Q243.2580722373047,20.7749996,243.0043182373047,20.7749996Q242.75056423730467,20.7749996,242.4705662373047,20.5124998L242.2780682373047,20.3374996L242.4355702373047,20.0749998Q242.59307123730468,19.7950001,242.6980662373047,19.7600002Q242.80307023730467,19.7250004,242.80307023730467,19.6199999Q242.80307023730467,19.5149994,242.8730702373047,19.5500002Q243.0130692373047,19.6374998,244.2205662373047,19.1824999Q245.21807123730468,18.7974997,246.74057023730467,18.4825001Q247.7905652373047,18.2725,248.02681723730467,18.2025003Q248.2630692373047,18.1324997,248.35057023730468,18.0450001Q248.49057023730467,17.8874998,248.92807023730467,17.3100004Q249.36557023730467,16.7325001,249.41806823730468,16.6099997Q249.73307023730467,16.085,250.04806523730468,15.2887497Q250.36306723730468,14.4925003,250.43306723730467,14.0199995ZM268.9830702373047,19.4449997Q269.12307023730466,19.4099998,269.6305692373047,19.4099998Q269.9630662373047,19.4099998,270.12056723730467,19.4712505Q270.2780682373047,19.532499299999998,270.7680662373047,19.8649998Q271.43306823730467,20.354999499999998,271.4593182373047,20.4949999Q271.4855682373047,20.6350002,271.5730682373047,20.90625Q271.6605682373047,21.1774998,271.50306823730466,21.4925Q270.9430692373047,22.665,270.36557023730467,21.9825Q270.1730652373047,21.755000000000003,269.7618182373047,21.335Q269.3505702373047,20.915,269.0705722373047,20.4949999Q268.7905652373047,20.0749998,268.6068192373047,19.9087505Q268.4230652373047,19.7425003,268.4230652373047,19.6900005Q268.4230652373047,19.6374998,268.61557023730467,19.5587502Q268.80806723730467,19.479999499999998,268.9830702373047,19.4449997ZM272.9905682373047,13.600000399999999Q273.18306823730467,13.5299997,273.7518182373047,13.5474997Q274.32056823730466,13.5649996,274.4780682373047,13.6700001Q274.6005682373047,13.7224998,274.8018182373047,14.0550003Q275.00306823730466,14.3874998,274.9680682373047,14.7375002Q274.9680682373047,14.9825001,274.9155682373047,15.0612497Q274.8630682373047,15.1400003,274.7230682373047,15.21Q274.4430682373047,15.3850002,274.2680682373047,15.3937502Q274.0930682373047,15.4025002,273.8655682373047,15.279999700000001Q273.25306823730466,14.9825001,271.1705682373047,15.0349998Q270.0505672373047,15.0524998,268.7205662373047,15.1575003Q267.3905712373047,15.2624998,267.3380662373047,15.3149996Q267.2855682373047,15.350000399999999,267.4605712373047,15.6475Q268.1955722373047,17.0299997,267.8805692373047,17.3975Q267.7580722373047,17.4849997,267.6705702373047,18.4825001Q267.5830692373047,19.479999499999998,267.61807223730466,20.25Q267.6355662373047,20.9850006,267.6268162373047,21.475Q267.61807223730466,21.965,267.61807223730466,23.452499Q267.61807223730466,24.940001000000002,267.49556723730467,25.57Q267.37307023730466,26.2,267.2943192373047,26.85625Q267.2155682373047,27.512501,267.15432023730466,27.55625Q267.0930712373047,27.6,267.0930712373047,27.809999Q267.0930712373047,28.02,266.8305662373047,28.299999L266.5855712373047,28.58L266.3755642373047,28.2125Q266.1655652373047,27.862499,266.1305692373047,27.809999Q266.0430682373047,27.7575,266.03431723730466,27.45125Q266.0255662373047,27.145,266.0255662373047,25.5875Q266.0255662373047,23.9775,266.0168152373047,23.4875Q266.0080722373047,22.997498999999998,266.0255662373047,19.3924999Q266.0430682373047,15.787500399999999,266.0430682373047,15.5775003L266.0430682373047,15.350000399999999L265.6055682373047,15.4200001Q264.9930652373047,15.4724998,262.99807023730466,15.8400002Q262.5430682373047,15.9274998,262.49057023730467,15.9887495Q262.4380642373047,16.0500002,262.2280652373047,16.0500002Q262.0180662373047,16.0500002,261.6768192373047,16.198749499999998Q261.3355712373047,16.3474998,261.3355712373047,16.4525003Q261.3355712373047,16.8024998,260.4430692373047,16.3474998Q260.1630702373047,16.2074995,259.86557023730467,16.0150003Q259.0080722373047,15.4375,260.8280712373047,15.0524998Q260.8980712373047,15.0349998,260.9680712373047,15.0349998Q261.5455702373047,14.912500399999999,262.3943172373047,14.7287502Q263.2430652373047,14.5450001,264.9930652373047,14.3962498Q266.74307223730466,14.2475004,267.49556723730467,14.1774998L268.9830702373047,14.037500399999999Q271.11806823730467,13.8099995,272.0805682373047,13.8099995Q272.6405682373047,13.8099995,272.6930682373047,13.7487497Q272.74556823730467,13.6875,272.9905682373047,13.600000399999999ZM282.19556823730466,21.405001Q282.7380682373047,21.3525,282.7555682373047,21.3525Q282.7730682373047,21.317500000000003,283.31556823730466,21.623751Q283.8580682373047,21.93,283.9630682373047,22.0175Q284.12056823730467,22.157499,284.16431823730466,22.5425Q284.2080682373047,22.927500000000002,283.9105682373047,23.56625Q283.6130682373047,24.205,283.6130682373047,24.283751000000002Q283.6130682373047,24.3625,283.2630682373047,24.8525Q282.80806823730467,25.622498999999998,283.0180682373047,25.71Q283.1055682373047,25.71,283.3068182373047,26.0775Q283.50806823730466,26.445,283.4380682373047,26.646250000000002Q283.36806823730467,26.8475,283.09681823730466,26.92625Q282.8255682373047,27.005000000000003,282.2130682373047,26.9875Q281.5305682373047,26.9875,280.8480682373047,27.215L280.1480682373047,27.442499L280.2005682373047,27.7575Q280.2180682373047,28.0375,280.0430682373047,28.125Q279.8855682373047,28.2125,279.6143182373047,28.063749Q279.3430682373047,27.915001,279.2555682373047,27.6525Q279.1680682373047,27.407499,278.99306823730467,27.11875Q278.8180682373047,26.83,278.7568182373047,26.05125Q278.69556823730466,25.2725,278.5818182373047,24.8525Q278.4680682373047,24.432499999999997,278.4593182373047,24.1Q278.4505682373047,23.7675,278.2930682373047,23.3125Q277.8555682373047,22.052500000000002,278.6605682373047,22.175Q278.9230682373047,22.21,279.5005682373047,21.965Q280.3405682373047,21.615000000000002,282.19556823730466,21.405001ZM282.3355682373047,22.594999Q282.37056823730467,22.4025,282.3530682373047,22.3675Q282.3355682373047,22.3325,282.1430682373047,22.3325Q281.0930682373047,22.4025,280.62056823730467,22.559998999999998Q280.3405682373047,22.6475,280.0255682373047,22.682499999999997Q279.6580682373047,22.752501000000002,279.59681823730466,22.91875Q279.5355682373047,23.085,279.57056823730466,23.7675Q279.62306823730466,24.555,279.74556823730467,25.1325L279.8855682373047,25.7275L280.1305682373047,25.692500000000003Q280.3755682373047,25.64,280.7780682373047,25.64Q281.05806823730467,25.64,281.1455682373047,25.57875Q281.2330682373047,25.5175,281.4080682373047,25.2025Q281.6880682373047,24.765,281.8980682373047,24.205Q282.1430682373047,23.5925,282.3355682373047,22.594999ZM286.0280682373047,21.0900002Q286.62306823730466,20.915,287.25306823730466,20.9587498Q287.88306823730466,21.0025005,288.75806823730466,21.0287495Q289.63306823730466,21.0550003,289.8255682373047,21.1424999Q290.2105682373047,21.317500000000003,290.6918182373047,21.7375Q291.1730682373047,22.157499,291.3480682373047,22.4725Q291.6105682373047,22.8925,291.0680682373047,23.4Q290.75306823730466,23.7325,290.46431823730467,24.161250000000003Q290.1755682373047,24.59,290.0005682373047,24.7825Q289.8255682373047,24.975,289.8255682373047,25.01875Q289.8255682373047,25.0625,290.2105682373047,25.552500000000002Q290.7705682373047,26.34,290.4730682373047,26.646250000000002Q290.1755682373047,26.9525,289.00306823730466,26.795Q288.2855682373047,26.689999999999998,287.4630682373047,26.759999999999998L286.62306823730466,26.83L286.62306823730466,27.215Q286.62306823730466,27.547501,286.52681823730467,27.705Q286.43056823730467,27.862499,286.2730682373047,27.809999Q286.1155682373047,27.7925,285.9055682373047,27.512501Q285.69556823730466,27.2325,285.69556823730466,27.0925Q285.69556823730466,26.97,285.4680682373047,26.497500000000002Q285.2405682373047,26.025,285.1880682373047,25.395Q285.1355682373047,24.765,284.9518182373047,24.021250000000002Q284.7680682373047,23.2775,284.6630682373047,22.6125Q284.5755682373047,22.175,284.5843182373047,22.04375Q284.5930682373047,21.9125,284.6630682373047,21.79Q285.0130682373047,21.3875,286.0280682373047,21.0900002ZM288.3030682373047,23.872498999999998Q289.0730682373047,22.3325,288.8893182373047,22.166249999999998Q288.7055682373047,22,287.3405682373047,22.122498999999998Q285.9755682373047,22.244999999999997,285.9055682373047,22.42Q285.87056823730467,22.525,285.91431823730466,23.02375Q285.9580682373047,23.5225,285.94056823730466,24.0125Q285.9055682373047,24.8525,286.2030682373047,25.2025Q286.2730682373047,25.29,286.6668182373047,25.17625Q287.06056823730466,25.0625,287.2880682373047,25.009999999999998Q287.8130682373047,24.905,288.3030682373047,23.872498999999998ZM282.9480682373047,14.0199995Q283.31556823730466,13.8800001,286.18556823730466,14.0725002Q286.62306823730466,14.0900002,287.4630682373047,14.3525Q288.2505682373047,14.5974998,288.5305682373047,14.8249998Q288.81056823730466,15.0524998,288.7755682373047,15.4549999Q288.7755682373047,15.875,288.59181823730466,16.09375Q288.4080682373047,16.3125,287.8130682373047,16.5574999Q287.5330682373047,16.6625004,287.1480682373047,17.1875Q286.7630682373047,17.7124996,286.7630682373047,17.7737503Q286.7630682373047,17.835,286.9205682373047,17.8874998Q287.0780682373047,17.9399996,287.25306823730466,18.3424997Q287.4280682373047,18.7449999,287.49806823730466,18.7974997Q287.62056823730467,18.8500004,287.5855682373047,19.0074997Q287.5505682373047,19.165,287.4280682373047,19.2875004Q287.2880682373047,19.4099998,286.9905682373047,19.4712505Q286.6930682373047,19.532499299999998,286.5793182373047,19.4449997Q286.4655682373047,19.3575001,285.5205682373047,19.261249499999998Q284.5755682373047,19.165,283.9280682373047,19.2875004Q282.8605682373047,19.4624996,282.8605682373047,19.7600002Q282.8605682373047,19.8474998,282.5193182373047,19.926250500000002Q282.1780682373047,20.0050001,282.0905682373047,19.9349995Q281.9505682373047,19.8649998,281.6880682373047,19.3487501Q281.4255682373047,18.8324995,281.3030682373047,18.3949995Q281.0055682373047,17.4674997,280.8305682373047,16.4700003Q280.6555682373047,15.4724998,280.71681823730466,15.279999700000001Q280.7780682373047,15.087499600000001,280.69056823730466,14.9825001Q280.6030682373047,14.8774996,281.0055682373047,14.5974998Q281.7755682373047,14.125,282.5105682373047,14.1075001Q282.7380682373047,14.0900002,282.9480682373047,14.0199995ZM285.1530682373047,14.8774996Q284.6980682373047,14.7725,283.9805682373047,14.7462502Q283.2630682373047,14.7200003,282.9480682373047,14.7550001Q281.8805682373047,14.9300003,281.8630682373047,15.1225004Q281.8280682373047,15.4724998,281.9855682373047,15.717499700000001Q282.1080682373047,15.875,282.1080682373047,16.0762501Q282.1080682373047,16.2775002,282.19556823730466,16.4350004Q282.2830682373047,16.5924997,282.3355682373047,16.9949999Q282.3880682373047,17.4499998,282.5193182373047,17.8525Q282.6505682373047,18.2550001,282.7380682373047,18.2550001Q282.8430682373047,18.2550001,282.8605682373047,18.167499499999998Q282.9130682373047,18.0974998,283.56056823730466,17.9312496Q284.2080682373047,17.7650003,284.4880682373047,17.7650003Q284.6630682373047,17.7650003,284.8818182373047,17.6075001Q285.1005682373047,17.4499998,285.1005682373047,17.3100004Q285.1005682373047,17.2399998,285.3455682373047,16.75Q285.5730682373047,16.3125,285.6868182373047,15.7524996Q285.8005682373047,15.1925001,285.69556823730466,15.0524998Q285.5730682373047,14.9300003,285.1530682373047,14.8774996ZM304.6305682373047,12.7950001L304.96307823730467,12.8474998Q305.27805823730466,12.8999996,305.4443182373047,13.0837498Q305.6105682373047,13.2674999,305.5405682373047,13.46Q305.5055682373047,13.6350002,304.9980582373047,14.125Q304.49056823730473,14.6149998,304.49056823730473,14.6587496Q304.49056823730473,14.7025003,305.5230682373047,14.7025003Q306.8180682373047,14.7025003,307.2905682373047,14.9300003Q308.42806823730473,15.4200001,308.7255682373047,15.5600004Q308.8480682373047,15.6125002,308.86556823730473,15.6824999Q308.88306823730466,15.7524996,308.8480682373047,16.1025Q308.7255682373047,17.3100004,308.5680682373047,17.6075001Q308.4805782373047,17.7825003,308.44556823730466,17.8874998Q308.3755682373047,18.0625,308.1393082373047,18.4562502Q307.90305823730466,18.8500004,307.6930682373047,19.0950003Q307.43056823730467,19.4099998,307.0980682373047,19.6025L306.7655682373047,19.7775002L306.50306823730466,19.479999499999998Q306.2930782373047,19.270000500000002,306.20556823730465,19.2174997Q306.11806823730467,19.165,305.9080682373047,19.165Q305.33056823730465,19.165,305.1555682373047,19.3225002Q305.1380582373047,19.3400002,305.1555682373047,19.3575001Q305.19056823730466,19.4274998,305.4180782373047,19.479999499999998Q305.6455682373047,19.532499299999998,305.6455682373047,19.6199999Q305.6455682373047,19.707500500000002,305.7243182373047,19.751249299999998Q305.80306823730473,19.7950001,305.9430682373047,20.0050001Q306.0830682373047,20.2150002,306.06556823730466,20.8887501Q306.0480682373047,21.5625,306.0305682373047,21.684998999999998Q306.0305682373047,21.79,306.1005682373047,21.81625Q306.1705582373047,21.842501,306.4855682373047,21.842501Q306.9580682373047,21.860001,307.4568182373047,21.825Q307.95556823730465,21.79,307.99056823730473,21.65Q308.00806823730466,21.5625,308.08681823730467,21.545Q308.1655682373047,21.5275,308.4805782373047,21.545Q308.9180782373047,21.58,309.1543082373047,21.719999Q309.3905682373047,21.860001,309.5480682373047,22.157499Q309.6355782373047,22.3675,309.65305823730466,22.455Q309.6705582373047,22.5425,309.6005682373047,22.717501Q309.5305682373047,22.927500000000002,309.33807823730467,23.067500000000003Q309.18056823730467,23.190001000000002,309.1105682373047,23.19875Q309.0405682373047,23.2075,308.7955582373047,23.119999999999997Q308.30556823730467,22.945,307.2555682373047,22.8925Q306.20556823730465,22.84,306.0830682373047,22.9625Q306.0305682373047,23.014999,305.9605682373047,24.9925Q305.9080682373047,27.2675,305.8293182373047,28.055Q305.7505682373047,28.842501,305.5230682373047,29.192499Q305.4180782373047,29.35,305.2693182373047,29.32375Q305.1205782373047,29.297501,304.84055823730466,29.07L304.49056823730473,28.772499L304.52557823730467,26.7075Q304.5605582373047,24.66,304.4730682373047,23.942500000000003L304.3855782373047,23.2425L304.05306823730473,23.259999999999998Q303.7205682373047,23.295,303.41431823730466,23.3825Q303.1080582373047,23.47,302.87180823730466,23.505000000000003Q302.6355782373047,23.54,302.4780682373047,23.68875Q302.32056823730466,23.8375,302.1718182373047,23.79375Q302.0230682373047,23.75,301.83056823730465,23.82Q301.5155682373047,23.942500000000003,301.30556823730467,23.54Q301.0780682373047,23.067500000000003,301.4105682373047,22.9625Q301.6380582373047,22.8925,302.1105682373047,22.717501Q302.61806823730467,22.5075,303.9830582373047,22.2275L304.52557823730467,22.0875L304.52557823730467,21.0375004Q304.5430782373047,20.7399998,304.53431823730466,20.5037498Q304.52557823730467,20.2674999,304.5168182373047,20.136249499999998Q304.50806823730466,20.0050001,304.50806823730466,20.0225Q304.4730682373047,20.04,304.2455782373047,20.4425001Q304.0355682373047,20.7574997,303.79931823730465,20.9587498Q303.5630682373047,21.1599998,302.74056823730473,21.719999Q302.0405682373047,22.2275,301.8218182373047,22.411250000000003Q301.6030682373047,22.594999,301.5418282373047,22.594999Q301.4805782373047,22.594999,301.2005582373047,22.7875Q301.02557823730467,22.927500000000002,300.9730682373047,22.997498999999998Q300.9205582373047,23.067500000000003,300.9205582373047,23.33Q300.9205582373047,23.68,300.8243282373047,23.776249999999997Q300.7280682373047,23.872498999999998,300.7193182373047,23.925Q300.7105682373047,23.9775,300.57056823730466,24.1525Q300.43056823730467,24.3275,300.3605682373047,24.23125Q300.2905682373047,24.134999999999998,300.15057823730467,24.0475Q299.99306823730467,23.96,299.93182823730467,23.715Q299.8705782373047,23.47,299.8880582373047,23.190001000000002Q299.9230682373047,22.84,299.9580682373047,21.5625L299.9755682373047,20.3024998L299.7655682373047,20.3374996Q299.5380682373047,20.407499299999998,299.3543282373047,20.5124998Q299.1705582373047,20.6175003,298.99556823730467,20.529999699999998Q298.8380682373047,20.46,298.8118182373047,20.4862499Q298.7855682373047,20.5124998,298.7155682373047,20.7749996Q298.55806823730467,21.4575,298.2693182373047,22.157499Q297.9805682373047,22.8575,297.7880682373047,22.997498999999998Q297.68306823730467,23.085,297.68306823730467,23.19875Q297.68306823730467,23.3125,297.5430682373047,23.434998999999998L297.1405682373047,23.785Q296.6505682373047,24.205,296.19556823730466,24.45Q295.81056823730466,24.695,295.7755682373047,24.747498999999998Q295.7230682373047,24.817500000000003,295.3555682373047,25.00125Q294.9880682373047,25.184998999999998,294.9530682373047,25.15Q294.7955682373047,24.9925,295.6005682373047,24.1875Q296.05556823730467,23.715,296.3968182373047,23.25125Q296.7380682373047,22.7875,296.7380682373047,22.665Q296.7380682373047,22.5425,296.7993182373047,22.525Q296.8605682373047,22.5075,297.1055682373047,22.026249999999997Q297.3505682373047,21.545,297.3505682373047,21.4575Q297.3505682373047,21.3875,297.46431823730467,21.020000500000002Q297.5780682373047,20.6525002,297.6655682373047,20.46Q297.7355682373047,20.25,297.9193182373047,18.9112501Q298.1030682373047,17.5725002,298.0680682373047,17.4849997Q298.0330682373047,17.4499998,298.12056823730467,16.5837498Q298.2080682373047,15.717499700000001,298.1555682373047,15.4899998Q298.0855682373047,15.1575003,298.2868182373047,14.9737501Q298.4880682373047,14.79,298.7855682373047,14.9300003Q298.9605682373047,14.9825001,299.0043182373047,15.21875Q299.0480682373047,15.4549999,299.15305823730466,15.524999600000001Q299.24056823730473,15.5600004,299.25806823730466,15.7524996Q299.27557823730467,15.9449997,299.25806823730466,16.5924997Q299.25806823730466,17.6075001,299.28431823730466,17.6075001Q299.3105582373047,17.6075001,299.7480582373047,17.415Q300.0105782373047,17.3100004,300.11556823730473,17.2137499Q300.2205682373047,17.1175003,300.2905682373047,16.9775Q300.4830582373047,16.5225,300.57056823730466,15.087499600000001Q300.6230582373047,13.9499998,300.8505682373047,13.8099995Q300.90305823730466,13.774999600000001,301.2180682373047,14.0024996Q301.5330682373047,14.2299995,301.6205782373047,14.3699999Q301.7080682373047,14.5450001,301.69056823730466,15.1662502Q301.6730682373047,15.787500399999999,301.5680682373047,16.0675001Q301.4805782373047,16.3125,301.42806823730473,16.5225Q301.4105682373047,16.6625004,301.42806823730473,16.7062502Q301.44556823730466,16.75,301.5680682373047,16.75Q301.74306823730467,16.75,301.8218182373047,16.5574999Q301.90057823730467,16.3649998,302.6880682373047,15.4899998Q304.1580682373047,13.8450003,304.1580682373047,13.6525002Q304.1580682373047,13.600000399999999,304.2630582373047,13.5124998Q304.36806823730467,13.4250002,304.36806823730467,13.337499600000001Q304.36806823730467,13.25,304.49056823730473,13.0050001L304.6305682373047,12.7950001ZM307.0980682373047,15.787500399999999Q306.9755682373047,15.665,306.7655682373047,15.6300001Q306.55556823730467,15.595000299999999,306.15305823730466,15.5600004L305.7330582373047,15.524999600000001L305.6980782373047,15.8575001Q305.6630682373047,16.1549997,305.6105682373047,16.2600002Q305.5930682373047,16.3474998,305.6455682373047,16.3737497Q305.6980782373047,16.3999996,305.8555782373047,16.4350004Q306.3105582373047,16.4875002,306.42431823730465,16.6537504Q306.5380682373047,16.8199997,306.3280682373047,17.1175003Q306.24056823730473,17.292499499999998,305.8730582373047,17.292499499999998Q305.5055682373047,17.292499499999998,305.4268182373047,17.4324999Q305.3480682373047,17.5725002,305.2693182373047,17.9312496Q305.19056823730466,18.29,305.2343182373047,18.3074999Q305.27805823730466,18.3249998,305.8905682373047,18.3074999Q306.3455682373047,18.29,306.4418182373047,18.2550001Q306.5380682373047,18.2200003,306.6080582373047,18.0625Q306.9755682373047,17.3275003,307.1068082373047,16.6537504Q307.2380682373047,15.9799995,307.0980682373047,15.787500399999999ZM303.93056823730467,15.7349997Q303.7205682373047,15.6475,303.6243182373047,15.6737499Q303.52805823730466,15.6999998,303.3355682373047,15.8924999Q303.0730782373047,16.1025,303.0730782373047,16.3649998Q303.0730782373047,16.6274996,303.19556823730466,16.8024998L303.3180682373047,16.9425001L303.8955682373047,16.7674999L304.4730682373047,16.5924997L304.5605582373047,16.1549997Q304.6305682373047,15.717499700000001,304.5955682373047,15.6824999Q304.5605582373047,15.6475,304.3243282373047,15.743749600000001Q304.08807823730467,15.8400002,303.93056823730467,15.7349997ZM302.12806823730466,16.75Q302.26806823730465,16.75,302.26806823730465,16.6800003Q302.26806823730465,16.6099997,302.1718182373047,16.6099997Q302.0755582373047,16.6099997,302.0405682373047,16.6625004Q302.0230682373047,16.6975002,302.04931823730465,16.7237501Q302.0755582373047,16.75,302.12806823730466,16.75ZM304.2980682373047,17.5900002Q304.2980682373047,17.4849997,304.1405682373047,17.5024996Q304.05306823730473,17.5024996,303.7030682373047,17.5900002Q303.4055682373047,17.6774998,303.3530682373047,17.7212496Q303.3005682373047,17.7650003,303.3005682373047,17.9224997Q303.3005682373047,18.167499499999998,303.3705782373047,18.4475002Q303.4230682373047,18.6575003,303.4668082373047,18.71Q303.5105782373047,18.7624998,303.61556823730473,18.7624998Q303.8080782373047,18.7624998,303.9130682373047,18.6400003Q304.0005682373047,18.5349998,304.14931823730467,18.1412497Q304.2980682373047,17.7475004,304.2980682373047,17.5900002ZM303.1255682373047,19.4974995Q302.8105582373047,19.3400002,302.8543282373047,19.2087498Q302.8980682373047,19.0775003,302.7230682373047,18.6837502Q302.5480682373047,18.29,302.5043182373047,18.0275002Q302.4605682373047,17.7650003,302.4255682373047,17.7650003L302.0755582373047,17.8175001Q301.0955682373047,17.9750004,300.08056823730465,18.4650002Q299.4155682373047,18.7799997,299.27557823730467,18.7799997Q299.1355782373047,18.7799997,299.05682823730467,18.9200001Q298.9780682373047,19.0600004,298.9780682373047,19.2525005Q298.9780682373047,19.4099998,298.87306823730466,19.5587502Q298.7680682373047,19.707500500000002,298.82056823730466,19.707500500000002Q298.9255682373047,19.707500500000002,299.45931823730473,19.4449997Q299.99306823730467,19.1824999,300.0105782373047,19.1125002Q300.0455582373047,18.9899998,300.1768182373047,18.9112501Q300.3080782373047,18.8324995,300.7018082373047,19.0337496Q301.0955682373047,19.2349997,301.17431823730465,19.2349997Q301.25306823730466,19.2349997,301.3493182373047,19.3924999Q301.44556823730466,19.5500002,301.3580582373047,19.8125Q300.9380682373047,21.1599998,301.0430782373047,21.9825L301.0955682373047,22.42L301.90057823730467,21.615000000000002Q302.4430682373047,21.1075001,302.87180823730466,20.5650005Q303.3005682373047,20.0225,303.4055682373047,19.7425003Q303.4230682373047,19.6900005,303.3443182373047,19.6374998Q303.2655682373047,19.585,303.1255682373047,19.4974995Z" fill="#000000" fill-opacity="0.8799999952316284"/></g></svg>