<svg xmlns="http://www.w3.org/2000/svg" xmlns:xlink="http://www.w3.org/1999/xlink" fill="none" version="1.1" width="53.30767822265625" height="22" viewBox="0 0 53.30767822265625 22"><defs><clipPath id="master_svg0_12_53367/12_53189/2_61653"><rect x="0" y="0" width="53.30768966674805" height="22" rx="0"/></clipPath></defs><g clip-path="url(#master_svg0_12_53367/12_53189/2_61653)"><path d="M0.44825494289398193,20.501324204736328C0.44825494289398193,20.501324204736328,0.44825494289398193,17.870545804736327,0.44825494289398193,17.870545804736327C0.44825494289398193,17.870545804736327,2.272747542893982,17.870545804736327,2.272747542893982,17.870545804736327C2.272747542893982,17.870545804736327,2.272747542893982,16.957538604736328,2.272747542893982,16.957538604736328C2.272747542893982,16.957538604736328,2.847277242893982,16.957538604736328,2.847277242893982,16.957538604736328C2.847277242893982,16.957538604736328,2.847277242893982,17.870545804736327,2.847277242893982,17.870545804736327C2.847277242893982,17.870545804736327,4.671757142893982,17.870545804736327,4.671757142893982,17.870545804736327C4.671757142893982,17.870545804736327,4.671757142893982,19.719029904736328,4.671757142893982,19.719029904736328C4.686182342893982,20.256221504736327,4.459675642893982,20.51560160473633,3.994275942893982,20.501324204736328C3.994275942893982,20.501324204736328,2.845216842893982,20.501324204736328,2.845216842893982,20.501324204736328C2.845216842893982,20.501324204736328,2.845216842893982,22.000524504736326,2.845216842893982,22.000524504736326C2.845216842893982,22.000524504736326,2.270687342893982,22.000524504736326,2.270687342893982,22.000524504736326C2.270687342893982,22.000524504736326,2.270687342893982,20.501324204736328,2.270687342893982,20.501324204736328C2.270687342893982,20.501324204736328,0.44825494289398193,20.501324204736328,0.44825494289398193,20.501324204736328C0.44825494289398193,20.501324204736328,0.44825494289398193,20.501324204736328,0.44825494289398193,20.501324204736328ZM0.9816005828939819,20.109160204736327C0.9816005828939819,20.109160204736327,2.272747542893982,20.109160204736327,2.272747542893982,20.109160204736327C2.272747542893982,20.109160204736327,2.272747542893982,18.260669504736327,2.272747542893982,18.260669504736327C2.272747542893982,18.260669504736327,0.9816005828939819,18.260669504736327,0.9816005828939819,18.260669504736327C0.9816005828939819,18.260669504736327,0.9816005828939819,20.109160204736327,0.9816005828939819,20.109160204736327C0.9816005828939819,20.109160204736327,0.9816005828939819,20.109160204736327,0.9816005828939819,20.109160204736327ZM4.138433542893981,18.260669504736327C4.138433542893981,18.260669504736327,2.845216842893982,18.260669504736327,2.845216842893982,18.260669504736327C2.845216842893982,18.260669504736327,2.845216842893982,20.109160204736327,2.845216842893982,20.109160204736327C2.845216842893982,20.109160204736327,3.829546842893982,20.109160204736327,3.829546842893982,20.109160204736327C4.035451042893982,20.109160204736327,4.1363641428939815,19.986599404736328,4.1363641428939815,19.73945330473633C4.1363641428939815,19.73945330473633,4.1363641428939815,18.260669504736327,4.1363641428939815,18.260669504736327C4.1363641428939815,18.260669504736327,4.138433542893981,18.260669504736327,4.138433542893981,18.260669504736327C4.138433542893981,18.260669504736327,4.138433542893981,18.260669504736327,4.138433542893981,18.260669504736327Z" fill="#FFFFFF" fill-opacity="1"/><path d="M7.312512755393982,21.825962114111327C7.312512755393982,21.825962114111327,7.312512755393982,17.195575714111328,7.312512755393982,17.195575714111328C7.312512755393982,17.195575714111328,11.638997455393982,17.195575714111328,11.638997455393982,17.195575714111328C11.638997455393982,17.195575714111328,11.638997455393982,21.109037114111327,11.638997455393982,21.109037114111327C11.653392655393983,21.60129501411133,11.420708055393982,21.840269614111328,10.94091425539398,21.825962114111327C10.94091425539398,21.825962114111327,7.312512755393982,21.825962114111327,7.312512755393982,21.825962114111327C7.312512755393982,21.825962114111327,7.312512755393982,21.825962114111327,7.312512755393982,21.825962114111327ZM7.843798105393982,21.456285914111326C7.843798105393982,21.456285914111326,10.734979055393982,21.456285914111326,10.734979055393982,21.456285914111326C10.994444055393982,21.47056341411133,11.117998955393983,21.356191614111328,11.103573655393982,21.109037114111327C11.103573655393982,21.109037114111327,11.103573655393982,17.565270064111328,11.103573655393982,17.565270064111328C11.103573655393982,17.565270064111328,7.843798105393982,17.565270064111328,7.843798105393982,17.565270064111328C7.843798105393982,17.565270064111328,7.843798105393982,21.456285914111326,7.843798105393982,21.456285914111326C7.843798105393982,21.456285914111326,7.843798105393982,21.456285914111326,7.843798105393982,21.456285914111326ZM8.132094565393983,18.43334361411133C8.132094565393983,18.43334361411133,8.132094565393983,18.063646314111327,8.132094565393983,18.063646314111327C8.132094565393983,18.063646314111327,10.798825855393982,18.063646314111327,10.798825855393982,18.063646314111327C10.798825855393982,18.063646314111327,10.798825855393982,18.43334361411133,10.798825855393982,18.43334361411133C10.798825855393982,18.43334361411133,9.690941455393983,18.43334361411133,9.690941455393983,18.43334361411133C9.690941455393983,18.43334361411133,9.690941455393983,19.17273561411133,9.690941455393983,19.17273561411133C9.690941455393983,19.17273561411133,10.695843355393983,19.17273561411133,10.695843355393983,19.17273561411133C10.695843355393983,19.17273561411133,10.695843355393983,19.51996301411133,10.695843355393983,19.51996301411133C10.695843355393983,19.51996301411133,9.690941455393983,19.51996301411133,9.690941455393983,19.51996301411133C9.690941455393983,19.51996301411133,9.690941455393983,20.56368351411133,9.690941455393983,20.56368351411133C9.690941455393983,20.56368351411133,10.860603455393981,20.56368351411133,10.860603455393981,20.56368351411133C10.860603455393981,20.56368351411133,10.860603455393981,20.91093301411133,10.860603455393981,20.91093301411133C10.860603455393981,20.91093301411133,8.070314105393981,20.91093301411133,8.070314105393981,20.91093301411133C8.070314105393981,20.91093301411133,8.070314105393981,20.56368351411133,8.070314105393981,20.56368351411133C8.070314105393981,20.56368351411133,9.157595855393982,20.56368351411133,9.157595855393982,20.56368351411133C9.157595855393982,20.56368351411133,9.157595855393982,19.51996301411133,9.157595855393982,19.51996301411133C9.157595855393982,19.51996301411133,8.214462395393982,19.51996301411133,8.214462395393982,19.51996301411133C8.214462395393982,19.51996301411133,8.214462395393982,19.17273561411133,8.214462395393982,19.17273561411133C8.214462395393982,19.17273561411133,9.157595855393982,19.17273561411133,9.157595855393982,19.17273561411133C9.157595855393982,19.17273561411133,9.157595855393982,18.43334361411133,9.157595855393982,18.43334361411133C9.157595855393982,18.43334361411133,8.132094565393983,18.43334361411133,8.132094565393983,18.43334361411133C8.132094565393983,18.43334361411133,8.132094565393983,18.43334361411133,8.132094565393983,18.43334361411133ZM10.203693555393983,20.390089714111326C10.162509755393982,20.17357201411133,10.094554755393983,19.94072461411133,9.997767855393981,19.69357851411133C9.997767855393981,19.69357851411133,10.366375055393982,19.69357851411133,10.366375055393982,19.69357851411133C10.502294655393982,19.94072461411133,10.584643755393982,20.171528614111327,10.611424555393981,20.390089714111326C10.611424555393981,20.390089714111326,10.203693555393983,20.390089714111326,10.203693555393983,20.390089714111326C10.203693555393983,20.390089714111326,10.203693555393983,20.390089714111326,10.203693555393983,20.390089714111326Z" fill="#FFFFFF" fill-opacity="1"/><path d="M14.112017010393982,19.261593579736328C14.029647372393981,18.826536279736327,13.976107807393982,18.32611657973633,13.947278380393982,17.762380539736327C13.947278380393982,17.762380539736327,14.274698410393983,17.762380539736327,14.274698410393983,17.762380539736327C14.289111110393982,18.28322357973633,14.348831240393983,18.783643479736327,14.460030500393982,19.261593579736328C14.460030500393982,19.261593579736328,14.112017010393982,19.261593579736328,14.112017010393982,19.261593579736328C14.112017010393982,19.261593579736328,14.112017010393982,19.261593579736328,14.112017010393982,19.261593579736328ZM13.988462567393983,21.95773127973633C13.988462567393983,21.95773127973633,13.988462567393983,21.479781179736328,13.988462567393983,21.479781179736328C14.206742640393982,21.08761737973633,14.350888490393983,20.683197979736327,14.418843540393983,20.262417779736328C14.486798640393982,19.85596417973633,14.521807910393981,19.23299617973633,14.521807910393981,18.393519479736327C14.521807910393981,18.393519479736327,14.521807910393981,17.002562451736328,14.521807910393981,17.002562451736328C14.521807910393981,17.002562451736328,14.972782580393982,17.002562451736328,14.972782580393982,17.002562451736328C14.972782580393982,17.002562451736328,14.972782580393982,18.046291979736328,14.972782580393982,18.046291979736328C15.108692880393981,18.031993279736326,15.252840980393982,17.98092927973633,15.403163880393983,17.893102819736328C15.403163880393983,17.893102819736328,15.403163880393983,18.328160079736328,15.403163880393983,18.328160079736328C15.226069880393982,18.40169067973633,15.081921680393982,18.444583779736327,14.972782580393982,18.458882479736328C14.972782580393982,19.576139879736328,15.123108480393983,20.415606979736328,15.423757580393982,20.981395679736327C15.423757580393982,20.981395679736327,15.423757580393982,21.459345379736327,15.423757580393982,21.459345379736327C15.149876880393983,21.18360517973633,14.937773530393981,20.78531357973633,14.787450550393983,20.26447057973633C14.651540400393982,20.971193279736326,14.385897700393983,21.53695157973633,13.988462567393983,21.95773127973633C13.988462567393983,21.95773127973633,13.988462567393983,21.95773127973633,13.988462567393983,21.95773127973633ZM15.423757580393982,20.675017579736327C15.423757580393982,20.675017579736327,15.423757580393982,20.282853079736327,15.423757580393982,20.282853079736327C15.709993580393983,20.06633587973633,15.942687280393981,19.819201979736327,16.12184198039398,19.543461279736327C15.944747680393982,19.412739079736326,15.759412480393982,19.318781879736328,15.567902680393981,19.261593579736328C15.567902680393981,19.261593579736328,15.567902680393981,18.914362879736327,15.567902680393981,18.914362879736327C15.841783180393982,18.957255379736328,16.08065478039398,19.04508517973633,16.286580180393983,19.17580457973633C16.286580180393983,19.17580457973633,16.286580180393983,19.241167279736327,16.286580180393983,19.241167279736327C16.368950980393983,19.09614637973633,16.436906180393983,18.936832679736327,16.49250588039398,18.76321717973633C16.32776388039398,18.646793379736327,16.144492280393983,18.546708679736327,15.938569780393982,18.458882479736328C15.938569780393982,18.458882479736328,15.938569780393982,18.30569337973633,15.938569780393982,18.30569337973633C15.788243980393982,18.53854067973633,15.590556380393982,18.76321717973633,15.343446880393982,18.979722479736328C15.343446880393982,18.979722479736328,15.343446880393982,18.61002797973633,15.343446880393982,18.61002797973633C15.670866980393981,18.189269679736327,15.876789180393981,17.639829219736328,15.959160180393981,16.95762687803633C15.959160180393981,16.95762687803633,16.389541780393984,16.95762687803633,16.389541780393984,16.95762687803633C16.389541780393984,16.95762687803633,16.307173580393982,17.37021636973633,16.307173580393982,17.37021636973633C16.307173580393982,17.37021636973633,17.085568580393982,17.37021636973633,17.085568580393982,17.37021636973633C17.085568580393982,17.37021636973633,17.085568580393982,17.71744399973633,17.085568580393982,17.71744399973633C17.085568580393982,17.71744399973633,17.06496588039398,18.02178177973633,17.06496588039398,18.02178177973633C17.06496588039398,18.02178177973633,17.433591280393983,18.02178177973633,17.433591280393983,18.02178177973633C17.447985280393983,17.95029460973633,17.454163180393984,17.884931739736327,17.454163180393984,17.825699629736327C17.454163180393984,17.825699629736327,17.454163180393984,16.955585479736328,17.454163180393984,16.955585479736328C17.454163180393984,16.955585479736328,17.884566180393982,16.955585479736328,17.884566180393982,16.955585479736328C17.884566180393982,16.955585479736328,17.884566180393982,17.825699629736327,17.884566180393982,17.825699629736327C17.884566180393982,17.825699629736327,17.884566180393982,18.02178177973633,17.884566180393982,18.02178177973633C17.884566180393982,18.02178177973633,18.191383680393983,18.02178177973633,18.191383680393983,18.02178177973633C18.191383680393983,18.02178177973633,18.191383680393983,17.23949580973633,18.191383680393983,17.23949580973633C18.191383680393983,17.23949580973633,18.498200780393983,17.23949580973633,18.498200780393983,17.23949580973633C18.498200780393983,17.23949580973633,18.498200780393983,18.02178177973633,18.498200780393983,18.02178177973633C18.498200780393983,18.02178177973633,18.683533080393982,18.02178177973633,18.683533080393982,18.02178177973633C18.683533080393982,18.02178177973633,18.683533080393982,18.39147917973633,18.683533080393982,18.39147917973633C18.683533080393982,18.39147917973633,17.90513768039398,18.39147917973633,17.90513768039398,18.39147917973633C17.97309288039398,19.202358279736327,18.267586080393983,19.82532927973633,18.78651608039398,20.260395779736328C18.78651608039398,20.260395779736328,18.78651608039398,20.65255977973633,18.78651608039398,20.65255977973633C18.185205780393982,20.27467297973633,17.816610680393982,19.804903079736327,17.67863118039398,19.239123779736328C17.542720880393983,19.84779597973633,17.200876080393982,20.319618479736327,16.653127080393983,20.65255977973633C16.653127080393983,20.65255977973633,16.653127080393983,20.262417779736328,16.653127080393983,20.262417779736328C17.104101780393982,19.827369879736327,17.363566980393983,19.20440197973633,17.433591280393983,18.393519479736327C17.433591280393983,18.393519479736327,16.98260698039398,18.393519479736327,16.98260698039398,18.393519479736327C16.81992618039398,19.406611479736327,16.29893598039398,20.16642947973633,15.423757580393982,20.675017579736327C15.423757580393982,20.675017579736327,15.423757580393982,20.675017579736327,15.423757580393982,20.675017579736327ZM15.444347880393982,21.82699967973633C15.497890280393982,21.522674079736326,15.580261080393981,21.181551979736327,15.689400080393982,20.805749379736326C15.689400080393982,20.805749379736326,16.07859718039398,20.805749379736326,16.07859718039398,20.805749379736326C15.955042980393982,21.226498079736327,15.880910180393983,21.567588779736326,15.854138480393981,21.82699967973633C15.854138480393981,21.82699967973633,15.444347880393982,21.82699967973633,15.444347880393982,21.82699967973633C15.444347880393982,21.82699967973633,15.444347880393982,21.82699967973633,15.444347880393982,21.82699967973633ZM16.039470780393984,18.132077979736327C16.216564980393983,18.17497097973633,16.40190018039398,18.24850167973633,16.59340988039398,18.34858617973633C16.607822580393982,18.277096079736328,16.628416180393984,18.16067227973633,16.655184380393983,18.00135547973633C16.66959988039398,17.87063306973633,16.68195518039398,17.776679219736327,16.696370980393983,17.719487489736327C16.696370980393983,17.719487489736327,16.20421278039398,17.719487489736327,16.20421278039398,17.719487489736327C16.163025480393983,17.876763759736328,16.10742578039398,18.015654179736327,16.039470780393984,18.132077979736327C16.039470780393984,18.132077979736327,16.039470780393984,18.132077979736327,16.039470780393984,18.132077979736327ZM16.55222258039398,21.84945677973633C16.525451580393984,21.50223827973633,16.46985518039398,21.15296747973633,16.38748468039398,20.805749379736326C16.38748468039398,20.805749379736326,16.756088380393983,20.805749379736326,16.756088380393983,20.805749379736326C16.85081468039398,21.095766579736328,16.92082988039398,21.443015079736327,16.962013580393982,21.84945677973633C16.962013580393982,21.84945677973633,16.55222258039398,21.84945677973633,16.55222258039398,21.84945677973633C16.55222258039398,21.84945677973633,16.55222258039398,21.84945677973633,16.55222258039398,21.84945677973633ZM17.41298878039398,21.82699967973633C17.39856348039398,21.551259479736327,17.330608680393983,21.21016787973633,17.20705378039398,20.805749379736326C17.20705378039398,20.805749379736326,17.575679680393982,20.805749379736326,17.575679680393982,20.805749379736326C17.699234080393982,21.15296747973633,17.787760580393982,21.49405857973633,17.843360780393983,21.82699967973633C17.843360780393983,21.82699967973633,17.41298878039398,21.82699967973633,17.41298878039398,21.82699967973633C17.41298878039398,21.82699967973633,17.41298878039398,21.82699967973633,17.41298878039398,21.82699967973633ZM18.29640568039398,21.82699967973633C18.240804980393982,21.46547317973633,18.16049518039398,21.124382479736326,18.051364780393982,20.805749379736326C18.051364780393982,20.805749379736326,18.44056258039398,20.805749379736326,18.44056258039398,20.805749379736326C18.59086648039398,21.18360517973633,18.67942418039398,21.522674079736326,18.706204780393982,21.82699967973633C18.706204780393982,21.82699967973633,18.29640568039398,21.82699967973633,18.29640568039398,21.82699967973633C18.29640568039398,21.82699967973633,18.29640568039398,21.82699967973633,18.29640568039398,21.82699967973633Z" fill="#FFFFFF" fill-opacity="1"/><path d="M20.934583067893982,18.847930279736328C20.934583067893982,18.847930279736328,20.934583067893982,18.478236079736327,20.934583067893982,18.478236079736327C21.46792864789398,18.159602679736327,21.78916787789398,17.65918272973633,21.898310007893983,16.979022979736328C21.898310007893983,16.979022979736328,22.452245967893983,16.979022979736328,22.452245967893983,16.979022979736328C22.411062267893982,17.12404192973633,22.369875067893982,17.26089190973633,22.328691267893984,17.391613419736327C22.328691267893984,17.391613419736327,25.425797867893984,17.391613419736327,25.425797867893984,17.391613419736327C25.425797867893984,17.391613419736327,25.425797867893984,17.761307779736327,25.425797867893984,17.761307779736327C25.425797867893984,17.761307779736327,22.184546067893983,17.761307779736327,22.184546067893983,17.761307779736327C22.00744886789398,18.19636487973633,21.58942317789398,18.55789137973633,20.934583067893982,18.847930279736328C20.934583067893982,18.847930279736328,20.934583067893982,18.847930279736328,20.934583067893982,18.847930279736328ZM25.116910367893983,21.97706367973633C24.501206467893983,22.04857157973633,24.20671376789398,21.280573879736327,24.235564067893982,19.673108079736327C24.235564067893982,19.673108079736327,21.22081798789398,19.673108079736327,21.22081798789398,19.673108079736327C21.22081798789398,19.673108079736327,21.22081798789398,19.28298757973633,21.22081798789398,19.28298757973633C21.22081798789398,19.28298757973633,24.810093567893983,19.28298757973633,24.810093567893983,19.28298757973633C24.783312867893983,20.921100179736328,24.892442567893983,21.680918179736327,25.137513067893984,21.566516879736326C25.261068267893982,21.580824879736326,25.32284576789398,21.45827297973633,25.32284576789398,21.196840779736327C25.32284576789398,21.196840779736327,25.670837267893983,21.196840779736327,25.670837267893983,21.196840779736327C25.685262567893982,21.731960779736326,25.499930767893982,21.99137167973633,25.116910367893983,21.97706367973633C25.116910367893983,21.97706367973633,25.116910367893983,21.97706367973633,25.116910367893983,21.97706367973633ZM21.857123017893983,18.694741379736328C21.857123017893983,18.694741379736328,21.857123017893983,18.30257717973633,21.857123017893983,18.30257717973633C21.857123017893983,18.30257717973633,25.07573636789398,18.30257717973633,25.07573636789398,18.30257717973633C25.07573636789398,18.30257717973633,25.07573636789398,18.694741379736328,25.07573636789398,18.694741379736328C25.07573636789398,18.694741379736328,21.857123017893983,18.694741379736328,21.857123017893983,18.694741379736328C21.857123017893983,18.694741379736328,21.857123017893983,18.694741379736328,21.857123017893983,18.694741379736328Z" fill="#FFFFFF" fill-opacity="1"/><path d="M28.57634478539398,21.82602645473633C28.57634478539398,21.82602645473633,28.57634478539398,21.45631985473633,28.57634478539398,21.45631985473633C28.57634478539398,21.45631985473633,28.76167678539398,21.45631985473633,28.76167678539398,21.45631985473633C28.967599305393982,21.470627754736327,29.062325605393983,21.376661254736327,29.047909905393983,21.17445185473633C29.047909905393983,21.17445185473633,29.047909905393983,18.95627315473633,29.047909905393983,18.95627315473633C29.047909905393983,18.95627315473633,28.63812208539398,18.95627315473633,28.63812208539398,18.95627315473633C28.652537885393983,20.347230454736327,28.36424154539398,21.354203654736327,27.777356505393982,21.97921565473633C27.777356505393982,21.97921565473633,27.777356505393982,21.43588445473633,27.777356505393982,21.43588445473633C27.954451535393982,21.088666454736327,28.06359082539398,20.725086654736327,28.10477653539398,20.349283254736328C28.158315895393983,19.987744854736327,28.187147405393983,19.34843705473633,28.187147405393983,18.435430454736327C28.187147405393983,18.435430454736327,28.187147405393983,17.869650844736327,28.187147405393983,17.869650844736327C28.187147405393983,17.869650844736327,27.83913449239398,17.869650844736327,27.83913449239398,17.869650844736327C27.83913449239398,17.869650844736327,27.83913449239398,17.49995642473633,27.83913449239398,17.49995642473633C27.83913449239398,17.49995642473633,28.475440745393982,17.49995642473633,28.475440745393982,17.49995642473633C28.475440745393982,17.49995642473633,28.475440745393982,16.999537706736326,28.475440745393982,16.999537706736326C28.475440745393982,16.999537706736326,28.988192805393982,16.999537706736326,28.988192805393982,16.999537706736326C28.988192805393982,16.999537706736326,28.988192805393982,17.49995642473633,28.988192805393982,17.49995642473633C28.988192805393982,17.49995642473633,29.583315805393983,17.49995642473633,29.583315805393983,17.49995642473633C29.583315805393983,17.49995642473633,29.583315805393983,17.869650844736327,29.583315805393983,17.869650844736327C29.583315805393983,17.869650844736327,28.660772805393982,17.869650844736327,28.660772805393982,17.869650844736327C28.660772805393982,17.869650844736327,28.660772805393982,18.259774454736327,28.660772805393982,18.259774454736327C28.660772805393982,18.259774454736327,28.660772805393982,18.586575854736328,28.660772805393982,18.586575854736328C28.660772805393982,18.586575854736328,29.50094510539398,18.586575854736328,29.50094510539398,18.586575854736328C29.50094510539398,18.586575854736328,29.50094510539398,21.17445185473633,29.50094510539398,21.17445185473633C29.51535770539398,21.623816954736327,29.30943520539398,21.840303854736327,28.885231605393983,21.82602645473633C28.885231605393983,21.82602645473633,28.57634478539398,21.82602645473633,28.57634478539398,21.82602645473633C28.57634478539398,21.82602645473633,28.57634478539398,21.82602645473633,28.57634478539398,21.82602645473633ZM29.64303290539398,18.17398855473633C29.64303290539398,18.17398855473633,29.64303290539398,17.869650844736327,29.64303290539398,17.869650844736327C29.958097805393983,17.667441124736328,30.12901680539398,17.369233994736327,30.15578500539398,16.977069854736328C30.15578500539398,16.977069854736328,30.647943605393984,16.977069854736328,30.647943605393984,16.977069854736328C30.633531005393984,17.13638654473633,30.59234390539398,17.27527728473633,30.52438870539398,17.389657164736327C30.52438870539398,17.389657164736327,32.534213405393984,17.389657164736327,32.534213405393984,17.389657164736327C32.534213405393984,17.389657164736327,32.534213405393984,17.73688787473633,32.534213405393984,17.73688787473633C32.534213405393984,17.73688787473633,30.318463205393982,17.73688787473633,30.318463205393982,17.73688787473633C30.182553405393982,17.912543774736328,29.95603740539398,18.057564854736327,29.64303290539398,18.17398855473633C29.64303290539398,18.17398855473633,29.64303290539398,18.17398855473633,29.64303290539398,18.17398855473633ZM29.70481030539398,18.674405454736327C29.70481030539398,18.674405454736327,29.70481030539398,18.34760095473633,29.70481030539398,18.34760095473633C29.70481030539398,18.34760095473633,30.094007605393983,18.34760095473633,30.094007605393983,18.34760095473633C30.094007605393983,18.34760095473633,30.094007605393983,17.95748025473633,30.094007605393983,17.95748025473633C30.094007605393983,17.95748025473633,30.586166505393983,17.95748025473633,30.586166505393983,17.95748025473633C30.586166505393983,17.95748025473633,30.586166505393983,18.34760095473633,30.586166505393983,18.34760095473633C30.586166505393983,18.34760095473633,31.61166080539398,18.34760095473633,31.61166080539398,18.34760095473633C31.61166080539398,18.34760095473633,31.61166080539398,17.95748025473633,31.61166080539398,17.95748025473633C31.61166080539398,17.95748025473633,32.103841205393984,17.95748025473633,32.103841205393984,17.95748025473633C32.103841205393984,17.95748025473633,32.103841205393984,18.34760095473633,32.103841205393984,18.34760095473633C32.103841205393984,18.34760095473633,32.49303900539398,18.34760095473633,32.49303900539398,18.34760095473633C32.49303900539398,18.34760095473633,32.49303900539398,18.674405454736327,32.49303900539398,18.674405454736327C32.49303900539398,18.674405454736327,32.103841205393984,18.674405454736327,32.103841205393984,18.674405454736327C32.103841205393984,18.674405454736327,32.103841205393984,20.588258554736328,32.103841205393984,20.588258554736328C32.103841205393984,20.588258554736328,32.55481610539398,20.588258554736328,32.55481610539398,20.588258554736328C32.55481610539398,20.588258554736328,32.55481610539398,20.93547655473633,32.55481610539398,20.93547655473633C32.55481610539398,20.93547655473633,29.663626305393983,20.93547655473633,29.663626305393983,20.93547655473633C29.663626305393983,20.93547655473633,29.663626305393983,20.588258554736328,29.663626305393983,20.588258554736328C29.663626305393983,20.588258554736328,30.094007605393983,20.588258554736328,30.094007605393983,20.588258554736328C30.094007605393983,20.588258554736328,30.094007605393983,18.674405454736327,30.094007605393983,18.674405454736327C30.094007605393983,18.674405454736327,29.70481030539398,18.674405454736327,29.70481030539398,18.674405454736327C29.70481030539398,18.674405454736327,29.70481030539398,18.674405454736327,29.70481030539398,18.674405454736327ZM29.663626305393983,21.977162854736328C29.663626305393983,21.977162854736328,29.663626305393983,21.69529485473633,29.663626305393983,21.69529485473633C30.046646205393984,21.564563754736326,30.28551730539398,21.36235375473633,30.380243705393983,21.086613154736327C30.380243705393983,21.086613154736327,30.872402505393982,21.086613154736327,30.872402505393982,21.086613154736327C30.722076505393982,21.564563754736326,30.31846650539398,21.860739254736327,29.663626305393983,21.977162854736328C29.663626305393983,21.977162854736328,29.663626305393983,21.977162854736328,29.663626305393983,21.977162854736328ZM30.586166505393983,18.674405454736327C30.586166505393983,18.674405454736327,30.586166505393983,19.08699275473633,30.586166505393983,19.08699275473633C30.586166505393983,19.08699275473633,31.61166080539398,19.08699275473633,31.61166080539398,19.08699275473633C31.61166080539398,19.08699275473633,31.61166080539398,18.674405454736327,31.61166080539398,18.674405454736327C31.61166080539398,18.674405454736327,30.586166505393983,18.674405454736327,30.586166505393983,18.674405454736327C30.586166505393983,18.674405454736327,30.586166505393983,18.674405454736327,30.586166505393983,18.674405454736327ZM30.586166505393983,19.41379715473633C30.586166505393983,19.41379715473633,30.586166505393983,19.848854254736327,30.586166505393983,19.848854254736327C30.586166505393983,19.848854254736327,31.61166080539398,19.848854254736327,31.61166080539398,19.848854254736327C31.61166080539398,19.848854254736327,31.61166080539398,19.41379715473633,31.61166080539398,19.41379715473633C31.61166080539398,19.41379715473633,30.586166505393983,19.41379715473633,30.586166505393983,19.41379715473633C30.586166505393983,19.41379715473633,30.586166505393983,19.41379715473633,30.586166505393983,19.41379715473633ZM30.586166505393983,20.173606154736326C30.586166505393983,20.173606154736326,30.586166505393983,20.586205754736326,30.586166505393983,20.586205754736326C30.586166505393983,20.586205754736326,31.61166080539398,20.586205754736326,31.61166080539398,20.586205754736326C31.61166080539398,20.586205754736326,31.61166080539398,20.173606154736326,31.61166080539398,20.173606154736326C31.61166080539398,20.173606154736326,30.586166505393983,20.173606154736326,30.586166505393983,20.173606154736326C30.586166505393983,20.173606154736326,30.586166505393983,20.173606154736326,30.586166505393983,20.173606154736326ZM32.513611205393985,21.977162854736328C31.87112650539398,21.87504725473633,31.467534905393983,21.578871754736326,31.30277430539398,21.08459135473633C31.30277430539398,21.08459135473633,31.815526805393983,21.08459135473633,31.815526805393983,21.08459135473633C31.91026200539398,21.360331054736328,32.14294660539398,21.56254105473633,32.513611205393985,21.693242054736327C32.513611205393985,21.693242054736327,32.513611205393985,21.977162854736328,32.513611205393985,21.977162854736328C32.513611205393985,21.977162854736328,32.513611205393985,21.977162854736328,32.513611205393985,21.977162854736328Z" fill="#FFFFFF" fill-opacity="1"/><path d="M34.72071588039398,17.73877831848633C34.72071588039398,17.73877831848633,34.72071588039398,17.326190948486328,34.72071588039398,17.326190948486328C34.72071588039398,17.326190948486328,39.43639838039398,17.326190948486328,39.43639838039398,17.326190948486328C39.43639838039398,17.326190948486328,39.43639838039398,17.73877831848633,39.43639838039398,17.73877831848633C39.43639838039398,17.73877831848633,37.220638880393984,17.73877831848633,37.220638880393984,17.73877831848633C37.220638880393984,17.73877831848633,37.220638880393984,21.93412014848633,37.220638880393984,21.93412014848633C37.220638880393984,21.93412014848633,36.62551888039398,21.93412014848633,36.62551888039398,21.93412014848633C36.62551888039398,21.93412014848633,36.62551888039398,17.73877831848633,36.62551888039398,17.73877831848633C36.62551888039398,17.73877831848633,34.72071588039398,17.73877831848633,34.72071588039398,17.73877831848633C34.72071588039398,17.73877831848633,34.72071588039398,17.73877831848633,34.72071588039398,17.73877831848633ZM39.15015348039398,20.150998848486328C38.563268280393984,19.730240348486326,37.99491628039398,19.40547914848633,37.44715798039398,19.172631748486328C37.44715798039398,19.172631748486328,37.44715798039398,18.73757154848633,37.44715798039398,18.73757154848633C38.08965198039398,18.92548564848633,38.658003880393984,19.18692734848633,39.15015348039398,19.519859348486328C39.15015348039398,19.519859348486328,39.15015348039398,20.150998848486328,39.15015348039398,20.150998848486328C39.15015348039398,20.150998848486328,39.15015348039398,20.150998848486328,39.15015348039398,20.150998848486328Z" fill="#FFFFFF" fill-opacity="1"/><path d="M41.80860650539398,21.82596251411133C41.80860650539398,21.82596251411133,41.80860650539398,19.564900114111328,41.80860650539398,19.564900114111328C41.80860650539398,19.564900114111328,43.71546690539398,19.564900114111328,43.71546690539398,19.564900114111328C43.71546690539398,19.564900114111328,43.71546690539398,21.17441801411133,43.71546690539398,21.17441801411133C43.72988300539398,21.623753114111327,43.50954450539398,21.84027001411133,43.058569705393985,21.82596251411133C43.058569705393985,21.82596251411133,41.80860650539398,21.82596251411133,41.80860650539398,21.82596251411133C41.80860650539398,21.82596251411133,41.80860650539398,21.82596251411133,41.80860650539398,21.82596251411133ZM42.28017479539398,19.021590114111326C42.28017479539398,19.021590114111326,42.28017479539398,17.195575714111328,42.28017479539398,17.195575714111328C42.28017479539398,17.195575714111328,45.70468960539398,17.195575714111328,45.70468960539398,17.195575714111328C45.70468960539398,17.195575714111328,45.70468960539398,18.282198314111326,45.70468960539398,18.282198314111326C45.71911440539398,18.77444411411133,45.480251905393985,19.021590114111326,44.98603310539398,19.021590114111326C44.98603310539398,19.021590114111326,42.28017479539398,19.021590114111326,42.28017479539398,19.021590114111326C42.28017479539398,19.021590114111326,42.28017479539398,19.021590114111326,42.28017479539398,19.021590114111326ZM42.30076524539398,21.433797314111327C42.30076524539398,21.433797314111327,42.93707220539398,21.433797314111327,42.93707220539398,21.433797314111327C43.14299790539398,21.44810581411133,43.237720805393984,21.34599021411133,43.223308205393984,21.129472514111328C43.223308205393984,21.129472514111328,43.223308205393984,19.95502091411133,43.223308205393984,19.95502091411133C43.223308205393984,19.95502091411133,42.30076524539398,19.95502091411133,42.30076524539398,19.95502091411133C42.30076524539398,19.95502091411133,42.30076524539398,21.433797314111327,42.30076524539398,21.433797314111327C42.30076524539398,21.433797314111327,42.30076524539398,21.433797314111327,42.30076524539398,21.433797314111327ZM42.79292696539398,18.629425714111328C42.79292696539398,18.629425714111328,44.823342205393985,18.629425714111328,44.823342205393985,18.629425714111328C45.06838210539398,18.64372141411133,45.18575920539398,18.506874714111326,45.171365405393985,18.21683561411133C45.171365405393985,18.21683561411133,45.171365405393985,17.585696314111328,45.171365405393985,17.585696314111328C45.171365405393985,17.585696314111328,42.79292696539398,17.585696314111328,42.79292696539398,17.585696314111328C42.79292696539398,17.585696314111328,42.79292696539398,18.629425714111328,42.79292696539398,18.629425714111328C42.79292696539398,18.629425714111328,42.79292696539398,18.629425714111328,42.79292696539398,18.629425714111328ZM44.22821940539398,21.82596251411133C44.22821940539398,21.82596251411133,44.22821940539398,19.564900114111328,44.22821940539398,19.564900114111328C44.22821940539398,19.564900114111328,46.155663805393985,19.564900114111328,46.155663805393985,19.564900114111328C46.155663805393985,19.564900114111328,46.155663805393985,21.17441801411133,46.155663805393985,21.17441801411133C46.17008960539398,21.623753114111327,45.95797620539398,21.84027001411133,45.51935680539398,21.82596251411133C45.51935680539398,21.82596251411133,44.22821940539398,21.82596251411133,44.22821940539398,21.82596251411133C44.22821940539398,21.82596251411133,44.22821940539398,21.82596251411133,44.22821940539398,21.82596251411133ZM44.72038090539398,21.433797314111327C44.72038090539398,21.433797314111327,45.37726940539398,21.433797314111327,45.37726940539398,21.433797314111327C45.59555950539398,21.44810581411133,45.69851170539398,21.34599021411133,45.684117405393984,21.129472514111328C45.684117405393984,21.129472514111328,45.684117405393984,19.95502091411133,45.684117405393984,19.95502091411133C45.684117405393984,19.95502091411133,44.72038090539398,19.95502091411133,44.72038090539398,19.95502091411133C44.72038090539398,19.95502091411133,44.72038090539398,21.433797314111327,44.72038090539398,21.433797314111327C44.72038090539398,21.433797314111327,44.72038090539398,21.433797314111327,44.72038090539398,21.433797314111327Z" fill="#FFFFFF" fill-opacity="1"/><path d="M49.656076067893984,21.913765879736328C49.656076067893984,21.913765879736328,49.656076067893984,19.760937479736327,49.656076067893984,19.760937479736327C49.656076067893984,19.760937479736327,49.18451094789398,19.760937479736327,49.18451094789398,19.760937479736327C49.18451094789398,19.760937479736327,49.18451094789398,20.042805479736327,49.18451094789398,20.042805479736327C49.225694777893985,20.970120479736327,48.98682325789398,21.61553717973633,48.46583306789398,21.977063179736327C48.46583306789398,21.977063179736327,48.46583306789398,21.56449367973633,48.46583306789398,21.56449367973633C48.65734293789398,21.30303047973633,48.74589124789398,20.83938887973633,48.73353573789398,20.17353727973633C48.73353573789398,20.17353727973633,48.73353573789398,17.17306336973633,48.73353573789398,17.17306336973633C48.73353573789398,17.17306336973633,49.18451094789398,17.17306336973633,49.18451094789398,17.17306336973633C49.18451094789398,17.17306336973633,49.18451094789398,18.367939679736327,49.18451094789398,18.367939679736327C49.18451094789398,18.367939679736327,49.61489226789398,18.367939679736327,49.61489226789398,18.367939679736327C49.61489226789398,18.367939679736327,49.61489226789398,17.04234217073633,49.61489226789398,17.04234217073633C49.61489226789398,17.04234217073633,50.04527356789398,17.04234217073633,50.04527356789398,17.04234217073633C50.04527356789398,17.04234217073633,50.04527356789398,18.367939679736327,50.04527356789398,18.367939679736327C50.04527356789398,18.367939679736327,50.29032566789398,18.367939679736327,50.29032566789398,18.367939679736327C50.29032566789398,18.367939679736327,50.29032566789398,18.71516747973633,50.29032566789398,18.71516747973633C50.29032566789398,18.71516747973633,49.18245058789398,18.71516747973633,49.18245058789398,18.71516747973633C49.18245058789398,18.71516747973633,49.18245058789398,19.411666379736328,49.18245058789398,19.411666379736328C49.18245058789398,19.411666379736328,50.08440016789398,19.411666379736328,50.08440016789398,19.411666379736328C50.08440016789398,19.411666379736328,50.08440016789398,21.91171267973633,50.08440016789398,21.91171267973633C50.08440016789398,21.91171267973633,49.656076067893984,21.91171267973633,49.656076067893984,21.91171267973633C49.656076067893984,21.91171267973633,49.656076067893984,21.913765879736328,49.656076067893984,21.913765879736328C49.656076067893984,21.913765879736328,49.656076067893984,21.913765879736328,49.656076067893984,21.913765879736328ZM50.496248567893986,19.695577579736327C50.496248567893986,19.695577579736327,50.496248567893986,17.391613389736328,50.496248567893986,17.391613389736328C50.496248567893986,17.391613389736328,51.23345906789398,17.391613389736328,51.23345906789398,17.391613389736328C51.28700176789398,17.246594129736327,51.32200796789398,17.109744459736326,51.33642066789398,16.979022979736328C51.33642066789398,16.979022979736328,51.86976636789398,16.979022979736328,51.86976636789398,16.979022979736328C51.828591967893985,17.12404192973633,51.78738606789398,17.260891879736327,51.746211367893984,17.391613389736328C51.746211367893984,17.391613389736328,53.03735866789398,17.391613389736328,53.03735866789398,17.391613389736328C53.03735866789398,17.391613389736328,53.03735866789398,19.001119379736327,53.03735866789398,19.001119379736327C53.05178396789398,19.49336817973633,52.83967056789398,19.72621587973633,52.401052067893986,19.695577579736327C52.401052067893986,19.695577579736327,51.74414216789398,19.695577579736327,51.74414216789398,19.695577579736327C51.56705726789398,19.98561377973633,51.18403776789398,20.27565307973633,50.59509236789398,20.56570147973633C50.59509236789398,20.56570147973633,51.76474506789398,20.56570147973633,51.76474506789398,20.56570147973633C51.76474506789398,20.56570147973633,51.76474506789398,19.914126679736327,51.76474506789398,19.914126679736327C51.76474506789398,19.914126679736327,52.25689446789398,19.914126679736327,52.25689446789398,19.914126679736327C52.25689446789398,19.914126679736327,52.25689446789398,20.56570147973633,52.25689446789398,20.56570147973633C52.25689446789398,20.56570147973633,53.28239806789398,20.56570147973633,53.28239806789398,20.56570147973633C53.28239806789398,20.56570147973633,53.28239806789398,20.935376879736328,53.28239806789398,20.935376879736328C53.28239806789398,20.935376879736328,52.25689446789398,20.935376879736328,52.25689446789398,20.935376879736328C52.25689446789398,20.935376879736328,52.25689446789398,21.956657879736326,52.25689446789398,21.956657879736326C52.25689446789398,21.956657879736326,51.76474506789398,21.956657879736326,51.76474506789398,21.956657879736326C51.76474506789398,21.956657879736326,51.76474506789398,20.935376879736328,51.76474506789398,20.935376879736328C51.76474506789398,20.935376879736328,50.26767206789398,20.935376879736328,50.26767206789398,20.935376879736328C50.26767206789398,20.935376879736328,50.26767206789398,20.56570147973633,50.26767206789398,20.56570147973633C50.26767206789398,20.56570147973633,50.57450206789398,20.56570147973633,50.57450206789398,20.56570147973633C50.57450206789398,20.56570147973633,50.57450206789398,20.23888757973633,50.57450206789398,20.23888757973633C50.86073796789398,20.06526277973633,51.07901606789398,19.883488379736328,51.23139896789398,19.695577579736327C51.23139896789398,19.695577579736327,50.496248567893986,19.695577579736327,50.496248567893986,19.695577579736327C50.496248567893986,19.695577579736327,50.496248567893986,19.695577579736327,50.496248567893986,19.695577579736327ZM50.926629667893984,17.76130771973633C50.926629667893984,17.76130771973633,50.926629667893984,18.32708727973633,50.926629667893984,18.32708727973633C50.926629667893984,18.32708727973633,51.542345867893985,18.32708727973633,51.542345867893985,18.32708727973633C51.542345867893985,18.32708727973633,51.542345867893985,17.76130771973633,51.542345867893985,17.76130771973633C51.542345867893985,17.76130771973633,50.926629667893984,17.76130771973633,50.926629667893984,17.76130771973633C50.926629667893984,17.76130771973633,50.926629667893984,17.76130771973633,50.926629667893984,17.76130771973633ZM50.926629667893984,19.325880279736328C50.926629667893984,19.325880279736328,51.43938506789398,19.325880279736328,51.43938506789398,19.325880279736328C51.50734026789398,19.15226797973633,51.542345867893985,18.94188737973633,51.542345867893985,18.694741279736327C51.542345867893985,18.694741279736327,51.542345867893985,18.67227437973633,51.542345867893985,18.67227437973633C51.542345867893985,18.67227437973633,50.926629667893984,18.67227437973633,50.926629667893984,18.67227437973633C50.926629667893984,18.67227437973633,50.926629667893984,19.325880279736328,50.926629667893984,19.325880279736328C50.926629667893984,19.325880279736328,50.926629667893984,19.325880279736328,50.926629667893984,19.325880279736328ZM52.279566367893985,19.325880279736328C52.51225076789398,19.34017897973633,52.62138116789398,19.21762777973633,52.60698736789398,18.95618287973633C52.60698736789398,18.95618287973633,52.60698736789398,18.674318079736327,52.60698736789398,18.674318079736327C52.60698736789398,18.674318079736327,51.99125136789398,18.674318079736327,51.99125136789398,18.674318079736327C51.99125136789398,18.935760179736327,51.96450196789398,19.15226797973633,51.90890256789398,19.325880279736328C51.90890256789398,19.325880279736328,52.279566367893985,19.325880279736328,52.279566367893985,19.325880279736328C52.279566367893985,19.325880279736328,52.279566367893985,19.325880279736328,52.279566367893985,19.325880279736328ZM52.60698736789398,17.76130771973633C52.60698736789398,17.76130771973633,51.99125136789398,17.76130771973633,51.99125136789398,17.76130771973633C51.99125136789398,17.76130771973633,51.99125136789398,18.32708727973633,51.99125136789398,18.32708727973633C51.99125136789398,18.32708727973633,52.60698736789398,18.32708727973633,52.60698736789398,18.32708727973633C52.60698736789398,18.32708727973633,52.60698736789398,17.76130771973633,52.60698736789398,17.76130771973633C52.60698736789398,17.76130771973633,52.60698736789398,17.76130771973633,52.60698736789398,17.76130771973633Z" fill="#FFFFFF" fill-opacity="1"/><path d="M1.3632196,9.284821071875001C1.3632196,8.075659471875,2.355778,7.091161971875,3.5748403,7.091161971875C4.7939239,7.091161971875,5.7864699,8.075659471875,5.7864699,9.284821071875001C5.7864699,10.494003771875,4.7959938,11.478489371875,3.5748403,11.478489371875C2.355778,11.478489371875,1.3632196,10.494003771875,1.3632196,9.284821071875001C1.3632196,9.284821071875001,1.3632196,9.284821071875001,1.3632196,9.284821071875001ZM6.4680905,7.205545271875C5.817359,6.317048311875,4.7630353,5.739013671875,3.5748403,5.739013671875C1.6041514,5.739013671875,0,7.330136871875,0,9.284821071875001C0,11.239513871875001,1.6041514,12.830658871875,3.5748403,12.830658871875C5.5455384,12.830658871875,7.1497107,11.239513871875001,7.1497107,9.284821071875001C7.1497107,8.022551971875,8.2287455,7.007419571875,9.5198917,7.097289671875C10.609244,7.172863671875,11.490591,8.047061871875,11.568832,9.127557471875C11.65946,10.408218371875,10.633954,11.478489371875,9.3633795,11.478489371875C9.155406,11.478489371875,8.9474325,11.449904471875,8.7497444,11.392703571875C8.4470367,11.306917171875,8.1257944,11.435595971875,7.9692802,11.705209771875001C7.7489514,12.087170571875,7.948678,12.571248071875,8.3749428,12.693800471875C8.6961851,12.785713671875001,9.0277443,12.830658871875,9.3633795,12.830658871875C11.391747,12.830658871875,13.030915,11.147600671875,12.934111,9.115302371875C12.849692,7.299499171875,11.362928,5.828884832875,9.534317,5.743098796775C9.4766493,5.741056286475,9.4210501,5.739013671875,9.3633795,5.739013671875C8.1731453,5.739013671875002,7.1188226,6.317048311875,6.4680905,7.205545271875C6.4680905,7.205545271875,6.4680905,7.205545271875,6.4680905,7.205545271875Z" fill="#F39800" fill-opacity="1"/><path d="M3.338434925,0C1.878432125,0,0.657298271,1.1846635,0.68200921357,2.6348531C0.706720166,4.04214,1.868133825,5.1798453,3.293133925,5.1798453C3.293133925,5.1798453,5.074382325,5.1798453,5.074382325,5.1798453C5.449154825,5.1798453,5.772466225,4.8877444,5.778644125,4.5160151C5.786891425,4.136106,5.478004925,3.8276751,5.097023925,3.8276751C5.097023925,3.8276751,3.324022525,3.8276751,3.324022525,3.8276751C2.6485890249999997,3.8276751,2.071999225,3.3088851,2.0472880250000003,2.6389368C2.020520125,1.9342672,2.588871825,1.3541918,3.293133925,1.3541918C3.293133925,1.3541918,9.612950325,1.3541918,9.612950325,1.3541918C10.288393025,1.3541918,10.862922625,1.8729912,10.889703625,2.5429394C10.916453625,3.2455568,10.346062625,3.8276751,9.643838925,3.8276751C9.643838925,3.8276751,7.646390425,3.8276751,7.646390425,3.8276751C7.347789325,3.8276751,7.082147625,4.013555,6.979195125,4.291348C6.979195125,4.291348,6.419059725,5.8130069,6.419059725,5.8130069C6.379954825,5.9192271,6.522042225,5.9948111,6.592036225,5.9069724C6.592036225,5.9069724,6.937989725,5.4576073,6.937989725,5.4576073C7.071861225,5.2840142,7.281904725,5.1818671,7.502232525,5.1818671C7.502232525,5.1818671,9.598556525,5.1818671,9.598556525,5.1818671C11.060610625,5.1818671,12.279693625,3.9972246,12.254982625,2.5470233C12.230271625,1.1376836,11.068857625,0,9.643838925,0C9.643838925,0,3.338434925,0,3.338434925,0C3.338434925,0,3.338434925,0,3.338434925,0Z" fill="#F39800" fill-opacity="1"/><path d="M43.38655135,9.570821166038513C43.38655135,9.570821166038513,42.15100396,9.570821166038513,42.15100396,9.570821166038513C42.13041353,9.570821166038513,42.1118772,9.585118430038513,42.10775971,9.605543628038513C41.88330096,10.508338506038513,41.6114836,11.255901466038512,41.2984772515,11.829849166038514C41.282003265,11.860487066038512,41.304655483,11.893168066038513,41.337603521,11.893168066038513C41.337603521,11.893168066038513,42.64728315,11.893168066038513,42.64728315,11.893168066038513C42.66581645,11.893168066038513,42.68023215,11.882956866038512,42.68846715,11.868658166038513C43.00970945,11.215052266038514,43.26093955,10.461361706038513,43.43185565,9.628011569038513C43.43597315,9.599416211038513,43.41538265,9.570821166038513,43.38655135,9.570821166038513C43.38655135,9.570821166038513,43.38655135,9.570821166038513,43.38655135,9.570821166038513Z" fill="#FFFFFF" fill-opacity="1"/><path d="M50.9808478625,10.525322792913514C50.9808478625,10.525322792913514,49.6155686625,10.502853092913513,49.6155686625,10.502853092913513C49.6155686625,10.502853092913513,49.6032123625,10.929742212913514,49.6032123625,10.929742212913514C49.5929264625,11.109482012913514,49.5867485625,11.234077012913513,49.5022988625,11.325990412913512C49.4117026625,11.424031512913514,49.2655057625,11.475095612913513,49.0678186625,11.475095612913513C49.0307521625,11.475095612913513,48.9936861625,11.473051912913514,48.9586582625,11.471008312913513C48.9586582625,11.471008312913513,46.4628586625,11.471008312913513,46.4628586625,11.471008312913513C46.4237320625,11.473051912913514,46.3866655625,11.475095612913513,46.351659562500004,11.475095612913513C46.0633628625,11.475095612913513,45.8471451625,11.403605312913513,45.7132922625,11.260630812913513C45.5856199625,11.125824212913514,45.5300171625,10.925655112913514,45.5464932625,10.672384512913514C45.5464932625,10.672384512913514,45.5464932625,9.618442296913512,45.5464932625,9.618442296913512C45.5464932625,9.593932184913513,45.5259028625,9.573506712913513,45.5011919625,9.573506712913513C45.5011919625,9.573506712913513,44.0947263725,9.573506712913513,44.0947263725,9.573506712913513C44.0700153355,9.573506712913513,44.0494226234,9.593932184913513,44.0494226234,9.618442296913512C44.0494226234,9.618442296913512,44.0494226234,10.841912712913514,44.0494226234,10.841912712913514C44.0329486685,11.311694712913514,44.1462073025,11.675261612913513,44.3809613625,11.916279912913513C44.6424865725,12.183849712913513,45.0646297625,12.318655812913512,45.6370990625,12.318655812913512C45.6370990625,12.318655812913512,45.7503589625,12.316612612913513,45.7503589625,12.316612612913513C45.7503589625,12.316612612913513,49.4920129625,12.316612612913513,49.4920129625,12.316612612913513C49.4920129625,12.316612612913513,49.5949659625,12.318655812913512,49.5949659625,12.318655812913512C50.0747589625,12.318655812913512,50.4330987625,12.200191812913513,50.6616749625,11.965300912913513C50.8902511625,11.730409712913513,50.9973115625,11.370926812913513,50.9808478625,10.890933312913512C50.9808478625,10.890933312913512,50.9808478625,10.525322792913514,50.9808478625,10.525322792913514C50.9808478625,10.525322792913514,50.9808478625,10.525322792913514,50.9808478625,10.525322792913514Z" fill="#FFFFFF" fill-opacity="1"/><path d="M48.4727389625,9.570821166038513C48.4727389625,9.570821166038513,47.0147922295,9.570821166038513,47.0147922295,9.570821166038513C46.9839035715,9.570821166038513,46.9633128974,9.599416211038513,46.9715498743,9.628011569038513C47.0889269125,10.016089886038513,47.1960074925,10.391914906038513,47.2866135525,10.745269966038514C47.2907341125,10.765696366038513,47.3092642425,10.777951466038513,47.3298577025,10.777951466038513C47.3298577025,10.777951466038513,48.9257708625,10.777951466038513,48.9257708625,10.777951466038513C48.9566599625,10.777951466038513,48.9772529625,10.747313466038513,48.9690180625,10.718719266038512C48.8166317625,10.226470586038513,48.6621883625,9.848603906038512,48.5118656625,9.591246054038514C48.5036276625,9.578990926038513,48.4892119625,9.570821166038513,48.4727389625,9.570821166038513C48.4727389625,9.570821166038513,48.4727389625,9.570821166038513,48.4727389625,9.570821166038513Z" fill="#FFFFFF" fill-opacity="1"/><path d="M52.4606571625,9.598017522913514C52.4524190625,9.583719893913512,52.435946262499996,9.573506712913513,52.4194732625,9.573506712913513C52.4194732625,9.573506712913513,51.1942227445,9.573506712913513,51.1942227445,9.573506712913513C51.1612747715,9.573506712913513,51.1406829245,9.606186851913513,51.1530383977,9.634782060913514C51.4660446925,10.376217722913513,51.6925607325,11.123780712913513,51.8284708225,11.859088512913512C51.8325883125,11.879514812913513,51.8511216025,11.895853612913513,51.8717119725,11.895853612913513C51.8717119725,11.895853612913513,53.2596485625,11.895853612913513,53.2596485625,11.895853612913513C53.2884769625,11.895853612913513,53.3111243625,11.869303112913514,53.3049468625,11.840705512913512C53.1299096625,11.091099212913512,52.8457373625,10.339452262913513,52.4606571625,9.598017522913514C52.4606571625,9.598017522913514,52.4606571625,9.598017522913514,52.4606571625,9.598017522913514Z" fill="#FFFFFF" fill-opacity="1"/><path d="M31.1277174625,5.641033036351013C31.1277174625,5.641033036351013,36.8565497625,5.641033036351013,36.8565497625,5.641033036351013C36.8565497625,5.641033036351013,36.9553928625,5.643086336351013,36.9553928625,5.643086336351013C37.5257835625,5.643086336351013,37.958224262499996,5.4980467363510135,38.2403631625,5.210051436351013C38.538932762499996,4.905725836351014,38.6830892625,4.429828536351013,38.6645564625,3.792552836351013C38.6645564625,3.792552836351013,38.6645564625,1.1393163133510131,38.6645564625,1.1393163133510131C38.6645564625,1.1148058993510133,38.6439542625,1.0943807363510132,38.619241762499996,1.0943807363510132C38.619241762499996,1.0943807363510132,31.6548857625,1.0943807363510132,31.6548857625,1.0943807363510132C31.6301746625,1.0943807363510132,31.6095812625,1.1148058993510133,31.6095812625,1.1393163133510131C31.6095812625,1.1393163133510131,31.6095812625,2.1033854363510134,31.6095812625,2.1033854363510134C31.6095812625,2.127895736351013,31.6301746625,2.1483218363510135,31.6548857625,2.1483218363510135C31.6548857625,2.1483218363510135,37.0151018625,2.1483218363510135,37.0151018625,2.1483218363510135C37.0398120625,2.1483218363510135,37.0604143625,2.168748036351013,37.0604143625,2.193258236351013C37.0604143625,2.193258236351013,37.0604143625,3.782337736351013,37.0604143625,3.782337736351013C37.0789484625,4.080548436351013,37.0192098625,4.305224536351013,36.8832993625,4.450233336351014C36.7618141625,4.576889836351013,36.5826597625,4.642240436351013,36.3458361625,4.642240436351013C36.3149471625,4.642240436351013,36.2820200625,4.640187836351013,36.2531695625,4.638165836351013C36.2531695625,4.638165836351013,31.6466476625,4.638165836351013,31.6466476625,4.638165836351013C31.3686491625,4.638165836351013,31.1441935625,4.415520836351013,31.1441935625,4.139780136351013C31.1441935625,4.139780136351013,31.1441935625,1.1393163133510131,31.1441935625,1.1393163133510131C31.1441935625,1.1148058993510133,31.1236001625,1.0943807363510132,31.0988890625,1.0943807363510132C31.0988890625,1.0943807363510132,29.5853425745,1.0943807363510132,29.5853425745,1.0943807363510132C29.5606317785,1.0943807363510132,29.5400390625,1.1148058993510133,29.5400390625,1.1393163133510131C29.5400390625,1.1393163133510131,29.5400390625,4.0682927363510135,29.5400390625,4.0682927363510135C29.5420983094,4.936363136351013,30.250478802499998,5.641033036351013,31.1277174625,5.641033036351013C31.1277174625,5.641033036351013,31.1277174625,5.641033036351013,31.1277174625,5.641033036351013Z" fill="#FFFFFF" fill-opacity="1"/><path d="M33.4373369125,6.764424681663513C33.4373369125,6.764424681663513,28.4642488175,6.764424681663513,28.4642488175,6.764424681663513C28.4395380245,6.764424681663513,28.4189453125,6.784850150663513,28.4189453125,6.809360258663514C28.4189453125,6.809360258663514,28.4189453125,10.796361781663514,28.4189453125,10.796361781663514C28.4189453125,11.635838381663513,29.1046772025,12.318050281663513,29.9530841125,12.318050281663513C29.9530841125,12.318050281663513,31.7261040125,12.318050281663513,31.7261040125,12.318050281663513C31.7261040125,12.318050281663513,31.8311250125,12.320073481663513,31.8311250125,12.320073481663513C32.4076931125,12.320073481663513,32.8360267125,12.179138581663512,33.1078472125,11.901376581663513C33.3714208125,11.631763381663514,33.4970455125,11.221216581663512,33.4805808125,10.679938681663513C33.4805808125,10.679938681663513,33.4805808125,6.809360258663514,33.4805808125,6.809360258663514C33.4826193125,6.784850150663513,33.4620480125,6.764424681663513,33.4373369125,6.764424681663513C33.4373369125,6.764424681663513,33.4373369125,6.764424681663513,33.4373369125,6.764424681663513ZM32.0926289125,10.673811281663513C32.0926289125,11.196706681663514,31.8311250125,11.474468581663512,31.3389571125,11.474468581663512C31.3389571125,11.474468581663512,30.3669928125,11.474468581663512,30.3669928125,11.474468581663512C30.0581058125,11.474468581663512,29.8068789125,11.225291581663512,29.8068789125,10.918913681663513C29.8068789125,10.918913681663513,29.8068789125,7.810194581663513,29.8068789125,7.810194581663513C29.8068789125,7.785684381663513,29.8274692125,7.765261181663513,29.8521801125,7.765261181663513C29.8521801125,7.765261181663513,32.0452764125,7.765261181663513,32.0452764125,7.765261181663513C32.0699873125,7.765261181663513,32.0905902125,7.785684381663513,32.0905902125,7.810194581663513C32.0905902125,7.810194581663513,32.0905902125,10.673811281663513,32.0905902125,10.673811281663513C32.0905902125,10.673811281663513,32.0926289125,10.673811281663513,32.0926289125,10.673811281663513C32.0926289125,10.673811281663513,32.0926289125,10.673811281663513,32.0926289125,10.673811281663513Z" fill="#FFFFFF" fill-opacity="1"/><path d="M39.7519807375,6.763894939163513C39.7519807375,6.763894939163513,35.7838034375,6.763894939163513,35.7838034375,6.763894939163513C35.7838034375,6.763894939163513,34.6615144535,6.753682494163513,34.6615144535,6.753682494163513C34.6368036535,6.753682494163513,34.6162109375,6.774107965163513,34.6162109375,6.798618074163513C34.6162109375,6.798618074163513,34.6162109375,10.804002594163514,34.6162109375,10.804002594163514C34.6162109375,11.639404694163513,35.2978192575,12.315458194163513,36.1400518375,12.315458194163513C36.1400518375,12.315458194163513,38.0839917375,12.315458194163513,38.0839917375,12.315458194163513C38.0839917375,12.315458194163513,38.1869437375,12.317511394163514,38.1869437375,12.317511394163514C38.7367620375,12.317511394163514,39.150671037500004,12.180652994163513,39.4142437375,11.911039194163514C39.677847837499996,11.641426894163512,39.8034410375,11.226805094163513,39.7869773375,10.679399394163513C39.7869773375,10.679399394163513,39.797263137499996,6.808830581163513,39.797263137499996,6.808830581163513C39.797263137499996,6.7843203191635135,39.7766914375,6.763894939163513,39.7519807375,6.763894939163513C39.7519807375,6.763894939163513,39.7519807375,6.763894939163513,39.7519807375,6.763894939163513ZM38.1807656375,11.310538194163513C38.0757439375,11.420834394163514,37.9233703375,11.478034894163514,37.7277212375,11.478034894163514C37.6989021375,11.478034894163514,37.6700706375,11.475981594163514,37.6433024375,11.473959794163513C37.6433024375,11.473959794163513,36.7022259375,11.473959794163513,36.7022259375,11.473959794163513C36.3171459375,11.473959794163513,36.0062018375,11.165529094163514,36.0062018375,10.783567294163513C36.0062018375,10.783567294163513,36.0062018375,7.8096673941635135,36.0062018375,7.8096673941635135C36.0062018375,7.785156894163514,36.0267953375,7.7647306941635135,36.0515062375,7.7647306941635135C36.0515062375,7.7647306941635135,38.2981426375,7.7647306941635135,38.2981426375,7.7647306941635135C38.3228538375,7.7647306941635135,38.3434560375,7.785156894163514,38.3434560375,7.8096673941635135C38.3434560375,7.8096673941635135,38.3434560375,10.669196694163514,38.3434560375,10.669196694163514C38.3619895375,10.961266894163513,38.3084285375,11.175731494163514,38.1807656375,11.310538194163513C38.1807656375,11.310538194163513,38.1807656375,11.310538194163513,38.1807656375,11.310538194163513Z" fill="#FFFFFF" fill-opacity="1"/><path d="M42.0208894465,7.547121408538513C42.0208894465,7.547121408538513,49.8233809375,7.547121408538513,49.8233809375,7.547121408538513C49.9840011375,7.547121408538513,50.1095953375,7.418442428538513,50.1095953375,7.265253308538513C50.1095953375,7.265253308538513,50.1095953375,7.018107488538513,50.1095953375,7.018107488538513C50.1095953375,6.993597231538513,50.0890236375,6.973171828538513,50.0643119375,6.973171828538513C50.0643119375,6.973171828538513,42.0208894465,6.950703978538513,42.0208894465,6.950703978538513C41.9961786495,6.950703978538513,41.9755859375,6.971129449538513,41.9755859375,6.995639555538514C41.9755859375,6.995639555538514,41.9755859375,7.506268798538513,41.9755859375,7.506268798538513C41.97558593750001,7.526695068538514,41.9961786495,7.547121408538513,42.0208894465,7.547121408538513C42.0208894465,7.547121408538513,42.0208894465,7.547121408538513,42.0208894465,7.547121408538513Z" fill="#FFFFFF" fill-opacity="1"/><path d="M41.68798662,4.899569401976013C41.68798662,4.899569401976013,43.5721964,4.899569401976013,43.5721964,4.899569401976013C43.5969075,4.899569401976013,43.617497900000004,4.9199742019760135,43.617497900000004,4.944484601976013C43.617497900000004,4.944484601976013,43.617497900000004,5.553166301976013,43.617497900000004,5.553166301976013C43.617497900000004,5.577676701976014,43.5969075,5.5981120019760136,43.5721964,5.5981120019760136C43.5721964,5.5981120019760136,42.02158439,5.5981120019760136,42.02158439,5.5981120019760136C41.99687344,5.5981120019760136,41.97627997,5.618516801976013,41.97627997,5.643026701976013C41.97627997,5.643026701976013,41.97627997,6.235378601976013,41.97627997,6.235378601976013C41.97627997,6.259889001976013,41.99687344,6.280293301976013,42.02158439,6.280293301976013C42.02158439,6.280293301976013,50.7774973,6.280293301976013,50.7774973,6.280293301976013C50.8022089,6.280293301976013,50.8228121,6.300728701976013,50.8228121,6.325239101976013C50.8228121,6.325239101976013,50.8228121,7.503785501976013,50.8228121,7.503785501976013C50.8248501,7.779525201976013,50.7507181,7.998064401976013,50.6106997,8.138998901976013C50.5015697,8.247241901976013,50.3574123,8.304441801976013,50.1885433,8.304441801976013C50.1659012,8.304441801976013,50.1411905,8.302390501976014,50.1226568,8.300369101976013C50.1226568,8.300369101976013,42.02158439,8.300369101976013,42.02158439,8.300369101976013C41.99687344,8.300369101976013,41.97627997,8.320772501976013,41.97627997,8.345282401976014C41.97627997,8.345282401976014,41.97627997,9.039751401976012,41.97627997,9.039751401976012C41.97627997,9.064261801976013,41.99687344,9.084697101976014,42.02158439,9.084697101976014C42.02158439,9.084697101976014,50.7239676,9.084697101976014,50.7239676,9.084697101976014C50.7239676,9.084697101976014,50.8186731,9.086718001976013,50.8186731,9.086718001976013C51.312892,9.086718001976013,51.687695,8.958039601976013,51.934804,8.706809401976013C52.206624,8.429047001976013,52.336358000000004,7.987862501976013,52.317824,7.395511001976013C52.317824,7.395511001976013,52.317824,5.645080001976013,52.317824,5.645080001976013C52.317824,5.620570101976013,52.297221,5.600134301976013,52.27251,5.600134301976013C52.27251,5.600134301976013,51.032855,5.600134301976013,51.032855,5.600134301976013C51.0081434,5.600134301976013,50.9875402,5.5797290019760135,50.9875402,5.5552191019760135C50.9875402,5.5552191019760135,50.9875402,4.999632701976013,50.9875402,4.999632701976013C50.9875402,4.975122301976013,51.0081434,4.954717501976013,51.032855,4.954717501976013C51.032855,4.954717501976013,53.026195,4.954717501976013,53.026195,4.954717501976013C53.050905,4.954717501976013,53.071507,4.934282701976013,53.071507,4.909771801976013C53.071507,4.909771801976013,53.071507,4.215303801976013,53.071507,4.215303801976013C53.071507,4.190793601976013,53.050905,4.1703891019760135,53.026195,4.1703891019760135C53.026195,4.1703891019760135,51.032855,4.1703891019760135,51.032855,4.1703891019760135C51.0081434,4.1703891019760135,50.9875402,4.149954201976014,50.9875402,4.125443301976013C50.9875402,4.125443301976013,50.9875402,3.463666301976013,50.9875402,3.463666301976013C50.9875402,3.439156401976013,51.0081434,3.4187299019760133,51.032855,3.4187299019760133C51.032855,3.4187299019760133,53.026195,3.4187299019760133,53.026195,3.4187299019760133C53.050905,3.4187299019760133,53.071507,3.398306501976013,53.071507,3.373796601976013C53.071507,3.373796601976013,53.071507,2.679338101976013,53.071507,2.679338101976013C53.071507,2.6548280019760133,53.050905,2.6344017019760133,53.026195,2.6344017019760133C53.026195,2.6344017019760133,51.032855,2.6344017019760133,51.032855,2.6344017019760133C51.0081434,2.6344017019760133,50.9875402,2.613978501976013,50.9875402,2.589468101976013C50.9875402,2.589468101976013,50.9875402,1.976711501976013,50.9875402,1.976711501976013C50.9875402,1.952201201976013,51.0081434,1.9317751019760132,51.032855,1.9317751019760132C51.032855,1.9317751019760132,53.026195,1.9317751019760132,53.026195,1.9317751019760132C53.050905,1.9317751019760132,53.071507,1.9113487019760131,53.071507,1.886838701976013C53.071507,1.886838701976013,53.071507,1.1923831719760132,53.071507,1.1923831719760132C53.071507,1.167872961976013,53.050905,1.1474466319760133,53.026195,1.1474466319760133C53.026195,1.1474466319760133,51.032855,1.1474466319760133,51.032855,1.1474466319760133C51.0081434,1.1474466319760133,50.9875402,1.1270204819760132,50.9875402,1.1025102119760133C50.9875402,1.1025102119760133,50.9875402,0.6102635859760132,50.9875402,0.6102635859760132C50.9875402,0.5857532319760131,50.966938999999996,0.5653280019760132,50.9422274,0.5653280019760132C50.9422274,0.5653280019760132,49.6428642,0.5653280019760132,49.6428642,0.5653280019760132C49.6181536,0.5653280019760132,49.5975504,0.5857532319760131,49.5975504,0.6102635859760132C49.5975504,0.6102635859760132,49.5975504,1.1025102119760133,49.5975504,1.1025102119760133C49.5975504,1.1270204819760132,49.5769472,1.1474466319760133,49.5522361,1.1474466319760133C49.5522361,1.1474466319760133,47.7792258,1.1474466319760133,47.7792258,1.1474466319760133C47.7545147,1.1474466319760133,47.733943,1.167872961976013,47.733943,1.1923831719760132C47.733943,1.1923831719760132,47.733943,1.886838701976013,47.733943,1.886838701976013C47.733943,1.9113487019760131,47.7545147,1.9317751019760132,47.7792258,1.9317751019760132C47.7792258,1.9317751019760132,49.5522361,1.9317751019760132,49.5522361,1.9317751019760132C49.5769472,1.9317751019760132,49.5975504,1.952201201976013,49.5975504,1.976711501976013C49.5975504,1.976711501976013,49.5975504,2.5853811019760133,49.5975504,2.5853811019760133C49.5975504,2.6098913019760133,49.5769472,2.6303176019760133,49.5522361,2.6303176019760133C49.5522361,2.6303176019760133,47.7792258,2.6303176019760133,47.7792258,2.6303176019760133C47.7545147,2.6303176019760133,47.733943,2.650743801976013,47.733943,2.675254201976013C47.733943,2.675254201976013,47.733943,3.3697091019760133,47.733943,3.3697091019760133C47.733943,3.3942198019760133,47.7545147,3.4146458019760133,47.7792258,3.4146458019760133C47.7792258,3.4146458019760133,49.5522361,3.4146458019760133,49.5522361,3.4146458019760133C49.5769472,3.4146458019760133,49.5975504,3.4350718019760134,49.5975504,3.4595822019760134C49.5975504,3.4595822019760134,49.5975504,4.121368801976013,49.5975504,4.121368801976013C49.5975504,4.145878701976013,49.5769472,4.166283501976013,49.5522361,4.166283501976013C49.5522361,4.166283501976013,47.7792258,4.166283501976013,47.7792258,4.166283501976013C47.7545147,4.166283501976013,47.733943,4.1867188019760135,47.733943,4.2112290019760135C47.733943,4.2112290019760135,47.733943,4.905697201976013,47.733943,4.905697201976013C47.733943,4.930207601976013,47.7545147,4.950612401976013,47.7792258,4.950612401976013C47.7792258,4.950612401976013,49.5522361,4.950612401976013,49.5522361,4.950612401976013C49.5769472,4.950612401976013,49.5975504,4.971047801976013,49.5975504,4.995557701976013C49.5975504,4.995557701976013,49.5975504,5.551113501976014,49.5975504,5.551113501976014C49.5975504,5.575623401976014,49.5769472,5.596059201976013,49.5522361,5.596059201976013C49.5522361,5.596059201976013,44.9972057,5.596059201976013,44.9972057,5.596059201976013C44.9724951,5.596059201976013,44.9518921,5.575623401976014,44.9518921,5.551113501976014C44.9518921,5.551113501976014,44.9518921,4.942462301976013,44.9518921,4.942462301976013C44.9518921,4.917952401976013,44.9724951,4.897516101976013,44.9972057,4.897516101976013C44.9972057,4.897516101976013,46.8237462,4.897516101976013,46.8237462,4.897516101976013C46.8484573,4.897516101976013,46.86906,4.877080801976013,46.86906,4.852570901976013C46.86906,4.852570901976013,46.86906,4.158133901976013,46.86906,4.158133901976013C46.86906,4.133623701976013,46.8484573,4.113188101976013,46.8237462,4.113188101976013C46.8237462,4.113188101976013,44.9972057,4.113188101976013,44.9972057,4.113188101976013C44.9724951,4.113188101976013,44.9518921,4.0927528019760135,44.9518921,4.068242701976013C44.9518921,4.068242701976013,44.9518921,3.4595822019760134,44.9518921,3.4595822019760134C44.9518921,3.4350718019760134,44.9724951,3.4146458019760133,44.9972057,3.4146458019760133C44.9972057,3.4146458019760133,46.8237462,3.4146458019760133,46.8237462,3.4146458019760133C46.8484573,3.4146458019760133,46.86906,3.3942198019760133,46.86906,3.3697091019760133C46.86906,3.3697091019760133,46.86906,2.675254201976013,46.86906,2.675254201976013C46.86906,2.650743801976013,46.8484573,2.6303176019760133,46.8237462,2.6303176019760133C46.8237462,2.6303176019760133,44.9972057,2.6303176019760133,44.9972057,2.6303176019760133C44.9724951,2.6303176019760133,44.9518921,2.6098913019760133,44.9518921,2.5853811019760133C44.9518921,2.5853811019760133,44.9518921,1.976711501976013,44.9518921,1.976711501976013C44.9518921,1.952201201976013,44.9724951,1.9317751019760132,44.9972057,1.9317751019760132C44.9972057,1.9317751019760132,46.8237462,1.9317751019760132,46.8237462,1.9317751019760132C46.8484573,1.9317751019760132,46.86906,1.9113487019760131,46.86906,1.886838701976013C46.86906,1.886838701976013,46.86906,1.1923831719760132,46.86906,1.1923831719760132C46.86906,1.167872961976013,46.8484573,1.1474466319760133,46.8237462,1.1474466319760133C46.8237462,1.1474466319760133,44.9972057,1.1474466319760133,44.9972057,1.1474466319760133C44.9724951,1.1474466319760133,44.9518921,1.1270204819760132,44.9518921,1.1025102119760133C44.9518921,1.1025102119760133,44.9518921,0.6102635859760132,44.9518921,0.6102635859760132C44.9518921,0.5857532319760131,44.9312894,0.5653280019760132,44.9065785,0.5653280019760132C44.9065785,0.5653280019760132,43.6607454,0.5653280019760132,43.6607454,0.5653280019760132C43.636034,0.5653280019760132,43.6154406,0.5857532319760131,43.6154406,0.6102635859760132C43.6154406,0.6102635859760132,43.6154406,1.1025102119760133,43.6154406,1.1025102119760133C43.6154406,1.1270204819760132,43.5948473,1.1474466319760133,43.570136,1.1474466319760133C43.570136,1.1474466319760133,41.685925424,1.1474466319760133,41.685925424,1.1474466319760133C41.661214562,1.1474466319760133,41.640625,1.167872961976013,41.640625,1.1923831719760132C41.640625,1.1923831719760132,41.640625,1.886838701976013,41.640625,1.886838701976013C41.640625,1.9113487019760131,41.661214562,1.9317751019760132,41.685925424,1.9317751019760132C41.685925424,1.9317751019760132,43.570136,1.9317751019760132,43.570136,1.9317751019760132C43.5948473,1.9317751019760132,43.6154406,1.952201201976013,43.6154406,1.976711501976013C43.6154406,1.976711501976013,43.6154406,2.5853811019760133,43.6154406,2.5853811019760133C43.6154406,2.6098913019760133,43.5948473,2.6303176019760133,43.570136,2.6303176019760133C43.570136,2.6303176019760133,41.685925424,2.6303176019760133,41.685925424,2.6303176019760133C41.661214562,2.6303176019760133,41.640625,2.650743801976013,41.640625,2.675254201976013C41.640625,2.675254201976013,41.640625,3.3697091019760133,41.640625,3.3697091019760133C41.640625,3.3942198019760133,41.661214562,3.4146458019760133,41.685925424,3.4146458019760133C41.685925424,3.4146458019760133,43.570136,3.4146458019760133,43.570136,3.4146458019760133C43.5948473,3.4146458019760133,43.6154406,3.4350718019760134,43.6154406,3.4595822019760134C43.6154406,3.4595822019760134,43.6154406,4.068242701976013,43.6154406,4.068242701976013C43.6154406,4.0927528019760135,43.5948473,4.113188101976013,43.570136,4.113188101976013C43.570136,4.113188101976013,41.685925424,4.113188101976013,41.685925424,4.113188101976013C41.661214562,4.113188101976013,41.640625,4.133623701976013,41.640625,4.158133901976013C41.640625,4.158133901976013,41.640625,4.852570901976013,41.640625,4.852570901976013C41.6426842469,4.879134101976013,41.663275827,4.899569401976013,41.68798662,4.899569401976013C41.68798662,4.899569401976013,41.68798662,4.899569401976013,41.68798662,4.899569401976013Z" fill="#FFFFFF" fill-opacity="1"/><path d="M26.998339625,11.420586404788514C26.998339625,11.420586404788514,23.981564525,11.420586404788514,23.981564525,11.420586404788514C23.950676925,11.420586404788514,23.925965325,11.389948664788513,23.942428624999998,11.359310924788513C24.012454025,11.220417324788514,24.179253625,10.858890984788513,24.238961225,10.521876457788514C24.243069625,10.493281071788513,24.222497025,10.468770384788513,24.193647425,10.468770384788513C24.193647425,10.468770384788513,22.640995525,10.468770384788513,22.640995525,10.468770384788513C22.618324325,10.468770384788513,22.599791025000002,10.485111066788512,22.595682125,10.507578707788513C22.480375325,11.110121134788514,22.379462225,11.330713454788514,22.340326325,11.400160254788513C22.332110425,11.414458874788513,22.317685125,11.422626914788513,22.301221325,11.422626914788513C22.301221325,11.422626914788513,20.299634425,11.422626914788513,20.299634425,11.422626914788513C20.299634425,11.422626914788513,19.455322725000002,11.422626914788513,19.455322725000002,11.422626914788513C19.438859425,11.422626914788513,19.424433725,11.414458874788513,19.416218325,11.400160254788513C19.377082325,11.332756994788513,19.276168325,11.106037144788512,19.160861525,10.507578707788513C19.156752625,10.487153570788513,19.138219825,10.468770384788513,19.115546725,10.468770384788513C19.115546725,10.468770384788513,17.562887925,10.468770384788513,17.562887925,10.468770384788513C17.534059025,10.468770384788513,17.511405425,10.493281071788513,17.517583325,10.521876457788514C17.577300325,10.858890984788513,17.742042025,11.218376874788513,17.814114525,11.359310924788513C17.830578125,11.389948664788513,17.805867225,11.420586404788514,17.774987925,11.420586404788514C17.774987925,11.420586404788514,14.758194134,11.420586404788514,14.758194134,11.420586404788514C14.733483339,11.420586404788514,14.712890625,11.441009764788513,14.712890625,11.465519904788513C14.712890625,11.465519904788513,14.712890625,12.215126384788514,14.712890625,12.215126384788514C14.712890625,12.239636784788512,14.733483339,12.260062884788514,14.758194134,12.260062884788514C14.758194134,12.260062884788514,21.094492425,12.260062884788514,21.094492425,12.260062884788514C21.094492425,12.260062884788514,26.998339625,12.260062884788514,26.998339625,12.260062884788514C27.023051625,12.260062884788514,27.043653624999997,12.239636784788512,27.043653624999997,12.215126384788514C27.043653624999997,12.215126384788514,27.043653624999997,11.465519904788513,27.043653624999997,11.465519904788513C27.043653624999997,11.441009764788513,27.023051625,11.420586404788514,26.998339625,11.420586404788514C26.998339625,11.420586404788514,26.998339625,11.420586404788514,26.998339625,11.420586404788514Z" fill="#FFFFFF" fill-opacity="1"/><path d="M14.863662884,2.042319256663513C14.863662884,2.042319256663513,19.999411575,2.042319256663513,19.999411575,2.042319256663513C20.024121775,2.042319256663513,20.044724975,2.062745556663513,20.044724975,2.0872555566635134C20.044724975,2.0872555566635134,20.044724975,2.853201256663513,20.044724975,2.853201256663513C20.044724975,2.8777114566635134,20.024121775,2.898137656663513,19.999411575,2.898137656663513C19.999411575,2.898137656663513,15.878869875,2.898137656663513,15.878869875,2.898137656663513C15.854158775,2.898137656663513,15.833568475,2.9185610566635134,15.833568475,2.943071456663513C15.833568475,2.943071456663513,15.833568475,3.692677656663513,15.833568475,3.692677656663513C15.833568475,3.717187756663513,15.854158775,3.737623356663513,15.878869875,3.737623356663513C15.878869875,3.737623356663513,25.872400374999998,3.737623356663513,25.872400374999998,3.737623356663513C25.897112375,3.737623356663513,25.917683375,3.717187756663513,25.917683375,3.692677656663513C25.917683375,3.692677656663513,25.917683375,2.941030856663513,25.917683375,2.941030856663513C25.917683375,2.916520456663513,25.897112375,2.8960944566635134,25.872400374999998,2.8960944566635134C25.872400374999998,2.8960944566635134,21.698288475,2.8960944566635134,21.698288475,2.8960944566635134C21.673578275,2.8960944566635134,21.653006075,2.8756679566635133,21.653006075,2.8511577566635133C21.653006075,2.8511577566635133,21.653006075,2.085212256663513,21.653006075,2.085212256663513C21.653006075,2.060701956663513,21.673578275,2.040278756663513,21.698288475,2.040278756663513C21.698288475,2.040278756663513,26.834058374999998,2.040278756663513,26.834058374999998,2.040278756663513C26.858768375,2.040278756663513,26.879370375,2.0198525566635133,26.879370375,1.9953422566635133C26.879370375,1.9953422566635133,26.879370375,1.1926312466635132,26.879370375,1.1926312466635132C26.879370375,1.1681209766635132,26.858768375,1.147694766663513,26.834058374999998,1.147694766663513C26.834058374999998,1.147694766663513,21.698288475,1.147694766663513,21.698288475,1.147694766663513C21.673578275,1.147694766663513,21.653006075,1.1272715966635132,21.653006075,1.1027613266635132C21.653006075,1.1027613266635132,21.653006075,0.5574071366635132,21.653006075,0.5574071366635132C21.653006075,0.5328967846635132,21.632402374999998,0.5124715566635132,21.607691775,0.5124715566635132C21.607691775,0.5124715566635132,20.087968875,0.5124715566635132,20.087968875,0.5124715566635132C20.063257675,0.5124715566635132,20.042654974999998,0.5328967846635132,20.042654974999998,0.5574071366635132C20.042654974999998,0.5574071366635132,20.042654974999998,1.1027613266635132,20.042654974999998,1.1027613266635132C20.042654974999998,1.1272715966635132,20.022083275,1.147694766663513,19.997372675,1.147694766663513C19.997372675,1.147694766663513,14.863662884,1.147694766663513,14.863662884,1.147694766663513C14.838952089,1.147694766663513,14.818359375,1.1681209766635132,14.818359375,1.1926312466635132C14.818359375,1.1926312466635132,14.818359375,1.9953422566635133,14.818359375,1.9953422566635133C14.8204186219,2.021896156663513,14.838952089,2.042319256663513,14.863662884,2.042319256663513C14.863662884,2.042319256663513,14.863662884,2.042319256663513,14.863662884,2.042319256663513Z" fill="#FFFFFF" fill-opacity="1"/><path d="M26.828581687499998,6.334958694163513C26.828581687499998,6.334958694163513,26.828581687499998,5.509777794163513,26.828581687499998,5.509777794163513C26.828581687499998,4.915404114163513,26.3426096875,4.433369994163513,25.743368687500002,4.433369994163513C25.743368687500002,4.433369994163513,15.9598817875,4.433369994163513,15.9598817875,4.433369994163513C15.3606411475,4.433369994163513,14.8746612435,4.917447564163513,14.8746612435,5.509777794163513C14.8746612435,5.509777794163513,14.8623046875,6.334958694163513,14.8623046875,6.334958694163513C14.8623046875,6.361509394163513,14.8828978355,6.383979194163513,14.9096681665,6.383979194163513C14.9096681665,6.383979194163513,16.4293896875,6.396234294163513,16.4293896875,6.396234294163513C16.4561608875,6.396234294163513,16.4788114875,6.375807894163513,16.4788114875,6.347213794163514C16.4788114875,6.347213794163514,16.4788114875,5.767135694163513,16.4788114875,5.767135694163513C16.4788114875,5.493438694163514,16.7012133875,5.272846344163513,16.9771513875,5.272846344163513C16.9771513875,5.272846344163513,24.756970387499997,5.272846344163513,24.756970387499997,5.272846344163513C25.045285687499998,5.272846344163513,25.2779696875,5.505693894163513,25.2779696875,5.789605394163513C25.2779696875,5.789605394163513,25.265614687499998,6.332914994163513,25.265614687499998,6.332914994163513C25.265614687499998,6.359468794163513,25.2862166875,6.381935594163513,25.315036687499997,6.381935594163513C25.315036687499997,6.381935594163513,26.7812286875,6.381935594163513,26.7812286875,6.381935594163513C26.805940687499998,6.381935594163513,26.828581687499998,6.361509394163513,26.828581687499998,6.334958694163513C26.828581687499998,6.334958694163513,26.828581687499998,6.334958694163513,26.828581687499998,6.334958694163513Z" fill="#FFFFFF" fill-opacity="1"/><path d="M24.5387187,6.756812569788513C24.5634308,6.756812569788513,24.5840025,6.736386179788513,24.5840025,6.7118759797885135C24.5840025,6.7118759797885135,24.5840025,6.066440332788513,24.5840025,6.066440332788513C24.5840025,6.041930228788513,24.5634308,6.021504759788513,24.5387187,6.021504759788513C24.5387187,6.021504759788513,17.162489466,6.021504759788513,17.162489466,6.021504759788513C17.137778642,6.021504759788513,17.1171875,6.041930228788513,17.1171875,6.066440332788513C17.1171875,6.066440332788513,17.1171875,6.7118759797885135,17.1171875,6.7118759797885135C17.1171875,6.736386179788513,17.137778642,6.756812569788513,17.162489466,6.756812569788513C17.162489466,6.756812569788513,24.5387187,6.756812569788513,24.5387187,6.756812569788513C24.5387187,6.756812569788513,24.5387187,6.756812569788513,24.5387187,6.756812569788513Z" fill="#FFFFFF" fill-opacity="1"/><path d="M16.0274748988,7.483432531288513C16.0274748988,7.483432531288513,16.0274748988,8.614989447288513,16.0274748988,8.614989447288513C15.994526992,9.127661547288513,16.097489379,9.515741747288512,16.336360545,9.766971447288514C16.573174775,10.018201947288514,16.954134225,10.144837047288513,17.466886275,10.144837047288513C17.466886275,10.144837047288513,17.571907875,10.142796647288513,17.571907875,10.142796647288513C17.571907875,10.142796647288513,24.132666575000002,10.142796647288513,24.132666575000002,10.142796647288513C24.132666575000002,10.142796647288513,24.235619575,10.144837047288513,24.235619575,10.144837047288513C24.748371075,10.144837047288513,25.129352575,10.018201947288514,25.366147075,9.766971447288514C25.605039575,9.515741747288512,25.707990674999998,9.127661547288513,25.675031675,8.610905447288513C25.675031675,8.610905447288513,25.675031675,7.495687969288513,25.675031675,7.495687969288513C25.675031675,7.471177704288513,25.654460874999998,7.450752353288514,25.629749275,7.450752353288514C25.629749275,7.450752353288514,17.981698475,7.450752353288514,17.981698475,7.450752353288514C17.956987875,7.450752353288514,17.936394175,7.471177704288513,17.936394175,7.495687969288513C17.936394175,7.495687969288513,17.936394175,8.194231097288514,17.936394175,8.194231097288514C17.936394175,8.218741297288513,17.956987875,8.239164407288513,17.981698475,8.239164407288513C17.981698475,8.239164407288513,24.128558175000002,8.239164407288513,24.128558175000002,8.239164407288513C24.186196375,8.239164407288513,24.231510175,8.284100947288513,24.231510175,8.341292617288513C24.231510175,8.341292617288513,24.231510175,8.762051147288513,24.231510175,8.762051147288513C24.250044775,8.939750547288513,24.212977375,9.080684547288513,24.120311774999998,9.180768947288513C24.013221275,9.297192947288513,23.834066875,9.356424947288513,23.584917575,9.356424947288513C23.584917575,9.356424947288513,18.117609275,9.356424947288513,18.117609275,9.356424947288513C17.868439475,9.356424947288513,17.689284775,9.297192947288513,17.582203175,9.180768947288513C17.491597175,9.080684547288513,17.454530875,8.939750547288513,17.471003775,8.768178747288513C17.471003775,8.768178747288513,17.471003775,7.495687969288513,17.471003775,7.495687969288513C17.471003775,7.471177704288513,17.450413475,7.450752353288514,17.425702375,7.450752353288514C17.425702375,7.450752353288514,16.072778437,7.438496947288513,16.072778437,7.438496947288513C16.048067613,7.438496947288513,16.0274748988,7.4589224192885135,16.0274748988,7.483432531288513C16.0274748988,7.483432531288513,16.0274748988,7.483432531288513,16.0274748988,7.483432531288513Z" fill="#FFFFFF" fill-opacity="1"/></g></svg>