<svg xmlns="http://www.w3.org/2000/svg" xmlns:xlink="http://www.w3.org/1999/xlink" fill="none" version="1.1" width="310" height="40" viewBox="0 0 310 40"><defs><clipPath id="master_svg0_40_50967"><rect x="0" y="0" width="310" height="40" rx="0"/></clipPath></defs><g clip-path="url(#master_svg0_40_50967)"><path d="M167.09999084472656,22.802142127868652C167.09999084472656,22.802142127868652,167.09999084472656,15.548054227868652,167.09999084472656,15.548054227868652C167.09999084472656,15.548054227868652,172.09437654472657,15.548054227868652,172.09437654472657,15.548054227868652C172.09437654472657,15.548054227868652,172.09437654472657,13.031607627868652,172.09437654472657,13.031607627868652C172.09437654472657,13.031607627868652,173.66716434472656,13.031607627868652,173.66716434472656,13.031607627868652C173.66716434472656,13.031607627868652,173.66716434472656,15.548054227868652,173.66716434472656,15.548054227868652C173.66716434472656,15.548054227868652,178.65511684472656,15.548054227868652,178.65511684472656,15.548054227868652C178.65511684472656,15.548054227868652,178.65511684472656,20.64515592786865,178.65511684472656,20.64515592786865C178.69363484472657,22.121641127868653,178.07736084472657,22.840659127868655,176.80629734472657,22.802142127868652C176.80629734472657,22.802142127868652,173.66716434472656,22.802142127868652,173.66716434472656,22.802142127868652C173.66716434472656,22.802142127868652,173.66716434472656,26.93627762786865,173.66716434472656,26.93627762786865C173.66716434472656,26.93627762786865,172.09437654472657,26.93627762786865,172.09437654472657,26.93627762786865C172.09437654472657,26.93627762786865,172.09437654472657,22.802142127868652,172.09437654472657,22.802142127868652C172.09437654472657,22.802142127868652,167.09999084472656,22.802142127868652,167.09999084472656,22.802142127868652C167.09999084472656,22.802142127868652,167.09999084472656,22.802142127868652,167.09999084472656,22.802142127868652ZM168.55723674472657,21.723634727868653C168.55723674472657,21.723634727868653,172.09437654472657,21.723634727868653,172.09437654472657,21.723634727868653C172.09437654472657,21.723634727868653,172.09437654472657,16.626533027868653,172.09437654472657,16.626533027868653C172.09437654472657,16.626533027868653,168.55723674472657,16.626533027868653,168.55723674472657,16.626533027868653C168.55723674472657,16.626533027868653,168.55723674472657,21.723634727868653,168.55723674472657,21.723634727868653C168.55723674472657,21.723634727868653,168.55723674472657,21.723634727868653,168.55723674472657,21.723634727868653ZM177.19146684472656,16.626533027868653C177.19146684472656,16.626533027868653,173.66073174472658,16.626533027868653,173.66073174472658,16.626533027868653C173.66073174472658,16.626533027868653,173.66073174472658,21.723634727868653,173.66073174472658,21.723634727868653C173.66073174472658,21.723634727868653,176.35051534472657,21.723634727868653,176.35051534472657,21.723634727868653C176.91539664472657,21.723634727868653,177.19146684472656,21.383394227868653,177.19146684472656,20.702931427868652C177.19146684472656,20.702931427868652,177.19146684472656,16.626533027868653,177.19146684472656,16.626533027868653C177.19146684472656,16.626533027868653,177.19146684472656,16.626533027868653,177.19146684472656,16.626533027868653Z" fill="#3E3A39" fill-opacity="1"/><path d="M185.56251525878906,26.454526222480773C185.56251525878906,26.454526222480773,185.56251525878906,13.692562222480774,185.56251525878906,13.692562222480774C185.56251525878906,13.692562222480774,197.39371325878906,13.692562222480774,197.39371325878906,13.692562222480774C197.39371325878906,13.692562222480774,197.39371325878906,24.483800222480774,197.39371325878906,24.483800222480774C197.43223025878905,25.844705222480776,196.79669825878906,26.499495222480775,195.48711685878905,26.460978222480776C195.48711685878905,26.460978222480776,185.56251525878906,26.460978222480776,185.56251525878906,26.460978222480776C185.56251525878906,26.460978222480776,185.56251525878906,26.454526222480773,185.56251525878906,26.454526222480773C185.56251525878906,26.454526222480773,185.56251525878906,26.454526222480773,185.56251525878906,26.454526222480773ZM187.01974185878908,25.44027522248077C187.01974185878908,25.44027522248077,194.92858025878905,25.44027522248077,194.92858025878905,25.44027522248077C195.64118525878905,25.478792222480774,195.97493625878906,25.164204222480773,195.93641925878907,24.483800222480774C195.93641925878907,24.483800222480774,195.93641925878907,14.706842422480774,195.93641925878907,14.706842422480774C195.93641925878907,14.706842422480774,187.01974185878908,14.706842422480774,187.01974185878908,14.706842422480774C187.01974185878908,14.706842422480774,187.01974185878908,25.44027522248077,187.01974185878908,25.44027522248077C187.01974185878908,25.44027522248077,187.01974185878908,25.44027522248077,187.01974185878908,25.44027522248077ZM187.80934215878906,17.107747422480774C187.80934215878906,17.107747422480774,187.80934215878906,16.087044622480775,187.80934215878906,16.087044622480775C187.80934215878906,16.087044622480775,195.10192675878906,16.087044622480775,195.10192675878906,16.087044622480775C195.10192675878906,16.087044622480775,195.10192675878906,17.107747422480774,195.10192675878906,17.107747422480774C195.10192675878906,17.107747422480774,192.07191275878907,17.107747422480774,192.07191275878907,17.107747422480774C192.07191275878907,17.107747422480774,192.07191275878907,19.149153322480775,192.07191275878907,19.149153322480775C192.07191275878907,19.149153322480775,194.81946275878906,19.149153322480775,194.81946275878906,19.149153322480775C194.81946275878906,19.149153322480775,194.81946275878906,20.105657722480775,194.81946275878906,20.105657722480775C194.81946275878906,20.105657722480775,192.07191275878907,20.105657722480775,192.07191275878907,20.105657722480775C192.07191275878907,20.105657722480775,192.07191275878907,22.981604722480775,192.07191275878907,22.981604722480775C192.07191275878907,22.981604722480775,195.26882175878907,22.981604722480775,195.26882175878907,22.981604722480775C195.26882175878907,22.981604722480775,195.26882175878907,23.93810822248077,195.26882175878907,23.93810822248077C195.26882175878907,23.93810822248077,187.64242835878906,23.93810822248077,187.64242835878906,23.93810822248077C187.64242835878906,23.93810822248077,187.64242835878906,22.981604722480775,187.64242835878906,22.981604722480775C187.64242835878906,22.981604722480775,190.61466745878906,22.981604722480775,190.61466745878906,22.981604722480775C190.61466745878906,22.981604722480775,190.61466745878906,20.105657722480775,190.61466745878906,20.105657722480775C190.61466745878906,20.105657722480775,188.03403165878908,20.105657722480775,188.03403165878908,20.105657722480775C188.03403165878908,20.105657722480775,188.03403165878908,19.149153322480775,188.03403165878908,19.149153322480775C188.03403165878908,19.149153322480775,190.61466745878906,19.149153322480775,190.61466745878906,19.149153322480775C190.61466745878906,19.149153322480775,190.61466745878906,17.107747422480774,190.61466745878906,17.107747422480774C190.61466745878906,17.107747422480774,187.80934215878906,17.107747422480774,187.80934215878906,17.107747422480774C187.80934215878906,17.107747422480774,187.80934215878906,17.107747422480774,187.80934215878906,17.107747422480774ZM193.47136355878905,22.500140322480775C193.35581255878907,21.903125922480776,193.16965005878907,21.261171022480774,192.91286615878906,20.580698622480774C192.91286615878906,20.580698622480774,193.92071345878907,20.580698622480774,193.92071345878907,20.580698622480774C194.29304885878906,21.261171022480774,194.51773835878907,21.896702922480774,194.59477235878907,22.500140322480775C194.59477235878907,22.500140322480775,193.47136355878905,22.500140322480775,193.47136355878905,22.500140322480775C193.47136355878905,22.500140322480775,193.47136355878905,22.500140322480775,193.47136355878905,22.500140322480775Z" fill="#3E3A39" fill-opacity="1"/><path d="M203.86456191569337,19.38692762786865C203.63987822569337,18.18647522786865,203.49222201069335,16.806282727868652,203.41518783569336,15.252763027868653C203.41518783569336,15.252763027868653,204.31391572569336,15.252763027868653,204.31391572569336,15.252763027868653C204.35243284569336,16.69073132786865,204.51934753569336,18.070923827868654,204.82106163569335,19.38692762786865C204.82106163569335,19.38692762786865,203.86456191569337,19.38692762786865,203.86456191569337,19.38692762786865C203.86456191569337,19.38692762786865,203.86456191569337,19.38692762786865,203.86456191569337,19.38692762786865ZM203.52432793569335,26.814274627868652C203.52432793569335,26.814274627868652,203.52432793569335,25.49833862786865,203.52432793569335,25.49833862786865C204.12134277569336,24.419859627868654,204.51293443569335,23.302863627868653,204.70552003569335,22.140899627868652C204.89168263569337,21.023904327868653,204.98797533569336,19.303470627868652,204.98797533569336,16.986032027868653C204.98797533569336,16.986032027868653,204.98797533569336,13.147158897868652,204.98797533569336,13.147158897868652C204.98797533569336,13.147158897868652,206.22051263569335,13.147158897868652,206.22051263569335,13.147158897868652C206.22051263569335,13.147158897868652,206.22051263569335,16.02310492786865,206.22051263569335,16.02310492786865C206.59284753569335,15.984587627868653,206.98444123569337,15.843355427868651,207.39529323569337,15.605830227868653C207.39529323569337,15.605830227868653,207.39529323569337,16.806282727868652,207.39529323569337,16.806282727868652C206.90740703569335,17.00529072786865,206.51581363569335,17.127255427868654,206.22051263569335,17.165772427868653C206.22051263569335,20.24072642786865,206.63137433569335,22.558164627868653,207.45306873569336,24.118078627868652C207.45306873569336,24.118078627868652,207.45306873569336,25.434111627868653,207.45306873569336,25.434111627868653C206.70198583569336,24.67657562786865,206.12422943569337,23.578839627868653,205.71338673569335,22.140899627868652C205.34105193569337,24.09881962786865,204.60922733569336,25.658761627868653,203.52432793569335,26.814274627868652C203.52432793569335,26.814274627868652,203.52432793569335,26.814274627868652,203.52432793569335,26.814274627868652ZM207.45306873569336,23.283605627868653C207.45306873569336,23.283605627868653,207.45306873569336,22.205098127868652,207.45306873569336,22.205098127868652C208.23624663569336,21.608082727868652,208.87177853569335,20.927611327868654,209.35966493569336,20.170105427868652C208.87177853569335,19.810615527868652,208.37104653569335,19.55383202786865,207.84465313569336,19.39335012786865C207.84465313569336,19.39335012786865,207.84465313569336,18.424000227868653,207.84465313569336,18.424000227868653C208.58931353569335,18.54597422786865,209.24410393569335,18.783490227868654,209.80901483569335,19.14298962786865C209.80901483569335,19.14298962786865,209.80901483569335,19.32272912786865,209.80901483569335,19.32272912786865C210.03370423569336,18.924722627868654,210.21988633569336,18.48177572786865,210.36753173569335,18.00673482786865C209.91817233569336,17.685752827868654,209.41743083569335,17.40971992786865,208.85252003569337,17.165772427868653C208.85252003569337,17.165772427868653,208.85252003569337,16.748506827868653,208.85252003569337,16.748506827868653C208.44166753569337,17.39046142786865,207.89601563569335,18.00673482786865,207.22837973569335,18.610163227868654C207.22837973569335,18.610163227868654,207.22837973569335,17.589459927868653,207.22837973569335,17.589459927868653C208.12710853569337,16.433947527868654,208.68560643569336,14.912522427868652,208.91029553569336,13.031607627868652C208.91029553569336,13.031607627868652,210.08507683569337,13.031607627868652,210.08507683569337,13.031607627868652C210.08507683569337,13.031607627868652,209.86038683569336,14.167861827868652,209.86038683569336,14.167861827868652C209.86038683569336,14.167861827868652,211.99167253569337,14.167861827868652,211.99167253569337,14.167861827868652C211.99167253569337,14.167861827868652,211.99167253569337,15.124366527868652,211.99167253569337,15.124366527868652C211.99167253569337,15.124366527868652,211.93389603569335,15.965329127868653,211.93389603569335,15.965329127868653C211.93389603569335,15.965329127868653,212.94174383569336,15.965329127868653,212.94174383569336,15.965329127868653C212.98026083569337,15.766320927868652,212.99952033569335,15.586571427868652,212.99952033569335,15.426090027868652C212.99952033569335,15.426090027868652,212.99952033569335,13.031607627868652,212.99952033569335,13.031607627868652C212.99952033569335,13.031607627868652,214.17426183569336,13.031607627868652,214.17426183569336,13.031607627868652C214.17426183569336,13.031607627868652,214.17426183569336,15.426090027868652,214.17426183569336,15.426090027868652C214.17426183569336,15.426090027868652,214.17426183569336,15.965329127868653,214.17426183569336,15.965329127868653C214.17426183569336,15.965329127868653,215.01528283569337,15.965329127868653,215.01528283569337,15.965329127868653C215.01528283569337,15.965329127868653,215.01528283569337,13.808369277868652,215.01528283569337,13.808369277868652C215.01528283569337,13.808369277868652,215.85620783569337,13.808369277868652,215.85620783569337,13.808369277868652C215.85620783569337,13.808369277868652,215.85620783569337,15.965329127868653,215.85620783569337,15.965329127868653C215.85620783569337,15.965329127868653,216.35692883569337,15.965329127868653,216.35692883569337,15.965329127868653C216.35692883569337,15.965329127868653,216.35692883569337,16.986032027868653,216.35692883569337,16.986032027868653C216.35692883569337,16.986032027868653,214.22568183569336,16.986032027868653,214.22568183569336,16.986032027868653C214.41181683569337,19.22643662786865,215.21422383569336,20.940456427868654,216.63935683569335,22.140899627868652C216.63935683569335,22.140899627868652,216.63935683569335,23.21937862786865,216.63935683569335,23.21937862786865C214.99602483569336,22.179416627868655,213.98167683569335,20.882671327868653,213.60940983569336,19.32272912786865C213.23704533569335,20.998222327868653,212.29979993569336,22.301390627868653,210.80405573569337,23.21937862786865C210.80405573569337,23.21937862786865,210.80405573569337,22.140899627868652,210.80405573569337,22.140899627868652C212.03660203569336,20.940456427868654,212.74917793569335,19.22643662786865,212.93534083569335,16.986032027868653C212.93534083569335,16.986032027868653,211.70278553569335,16.986032027868653,211.70278553569335,16.986032027868653C211.26626113569336,19.784934527868653,209.84755133569337,21.88411612786865,207.45306873569336,23.283605627868653C207.45306873569336,23.283605627868653,207.45306873569336,23.283605627868653,207.45306873569336,23.283605627868653ZM207.51084473569335,26.454813627868653C207.65849063569337,25.61388962786865,207.88317013569335,24.67657562786865,208.18488403569336,23.636614627868653C208.18488403569336,23.636614627868653,209.25052693569336,23.636614627868653,209.25052693569336,23.636614627868653C208.91028593569337,24.798579627868655,208.70487453569336,25.735795627868654,208.63425353569335,26.454813627868653C208.63425353569335,26.454813627868653,207.51084473569335,26.454813627868653,207.51084473569335,26.454813627868653C207.51084473569335,26.454813627868653,207.51084473569335,26.454813627868653,207.51084473569335,26.454813627868653ZM209.13497543569335,16.267043127868654C209.62286183569336,16.38901732786865,210.12359383569336,16.588015827868652,210.64999723569335,16.864058227868654C210.68851423569336,16.665050027868652,210.74627063569335,16.344077627868653,210.81689163569337,15.907553627868651C210.85540863569335,15.548054227868652,210.88749363569335,15.291280027868652,210.93243363569337,15.130789327868651C210.93243363569337,15.130789327868651,209.58435443569337,15.130789327868651,209.58435443569337,15.130789327868651C209.46880343569336,15.567312927868652,209.32114793569335,15.946070627868652,209.13497543569335,16.267043127868654C209.13497543569335,16.267043127868654,209.13497543569335,16.267043127868654,209.13497543569335,16.267043127868654ZM210.53442673569336,26.51904062786865C210.46381523569335,25.56246962786865,210.30975623569336,24.599541627868653,210.08507683569337,23.643066627868652C210.08507683569337,23.643066627868652,211.09292463569335,23.643066627868652,211.09292463569335,23.643066627868652C211.35612153569335,24.44547362786865,211.54230303569335,25.402045627868652,211.65143203569335,26.51904062786865C211.65143203569335,26.51904062786865,210.53442673569336,26.51904062786865,210.53442673569336,26.51904062786865C210.53442673569336,26.51904062786865,210.53442673569336,26.51904062786865,210.53442673569336,26.51904062786865ZM212.89040093569335,26.454813627868653C212.85188393569337,25.697278627868652,212.66571233569337,24.760062627868653,212.32548043569335,23.636614627868653C212.32548043569335,23.636614627868653,213.33333873569336,23.636614627868653,213.33333873569336,23.636614627868653C213.67354083569336,24.593186627868654,213.91109483569335,25.536855627868654,214.06516383569337,26.454813627868653C214.06516383569337,26.454813627868653,212.89040093569335,26.454813627868653,212.89040093569335,26.454813627868653C212.89040093569335,26.454813627868653,212.89040093569335,26.454813627868653,212.89040093569335,26.454813627868653ZM215.30416083569335,26.454813627868653C215.15644883569337,25.453369627868653,214.93179683569335,24.516152627868653,214.63011283569335,23.636614627868653C214.63011283569335,23.636614627868653,215.69568683569335,23.636614627868653,215.69568683569335,23.636614627868653C216.10656883569337,24.67657562786865,216.35047783569337,25.61388962786865,216.42751183569337,26.454813627868653C216.42751183569337,26.454813627868653,215.30416083569335,26.454813627868653,215.30416083569335,26.454813627868653C215.30416083569335,26.454813627868653,215.30416083569335,26.454813627868653,215.30416083569335,26.454813627868653Z" fill="#3E3A39" fill-opacity="1"/><path d="M222.23078155517578,18.244033015614843C222.23078155517578,18.244033015614843,222.23078155517578,17.223330215614844,222.23078155517578,17.223330215614844C223.6880081551758,16.343859615614843,224.56749795517578,14.963667115614843,224.86921195517579,13.089165415614843C224.86921195517579,13.089165415614843,226.38420435517577,13.089165415614843,226.38420435517577,13.089165415614843C226.26865295517578,13.487175045614844,226.15952445517578,13.865927065614843,226.04397345517577,14.225419615614843C226.04397345517577,14.225419615614843,234.51128055517577,14.225419615614843,234.51128055517577,14.225419615614843C234.51128055517577,14.225419615614843,234.51128055517577,15.246122515614843,234.51128055517577,15.246122515614843C234.51128055517577,15.246122515614843,225.6459665551758,15.246122515614843,225.6459665551758,15.246122515614843C225.16450305517577,16.44657511561484,224.02824895517577,17.448019215614842,222.23078155517578,18.244033015614843C222.23078155517578,18.244033015614843,222.23078155517578,18.244033015614843,222.23078155517578,18.244033015614843ZM233.67035655517577,26.878284415614843C231.98841185517577,27.077320415614842,231.1860046551758,24.958881415614844,231.25661655517578,20.522963715614843C231.25661655517578,20.522963715614843,223.0139629851758,20.522963715614843,223.0139629851758,20.522963715614843C223.0139629851758,20.522963715614843,223.0139629851758,19.444485415614842,223.0139629851758,19.444485415614842C223.0139629851758,19.444485415614842,232.82943255517577,19.444485415614842,232.82943255517577,19.444485415614842C232.75239855517577,23.95743741561484,233.0540825551758,26.056617415614845,233.7281325551758,25.735578415614846C234.0683345551758,25.774095415614845,234.23530555517578,25.433893415614843,234.23530555517578,24.71487541561484C234.23530555517578,24.71487541561484,235.1917815551758,24.71487541561484,235.1917815551758,24.71487541561484C235.22384755517578,26.19778441561484,234.71676955517577,26.91680141561484,233.67035655517577,26.878284415614843C233.67035655517577,26.878284415614843,233.67035655517577,26.878284415614843,233.67035655517577,26.878284415614843ZM224.7536506551758,17.826767615614845C224.7536506551758,17.826767615614845,224.7536506551758,16.748289115614842,224.7536506551758,16.748289115614842C224.7536506551758,16.748289115614842,233.56125755517579,16.748289115614842,233.56125755517579,16.748289115614842C233.56125755517579,16.748289115614842,233.56125755517579,17.826767615614845,233.56125755517579,17.826767615614845C233.56125755517579,17.826767615614845,224.7536506551758,17.826767615614845,224.7536506551758,17.826767615614845C224.7536506551758,17.826767615614845,224.7536506551758,17.826767615614845,224.7536506551758,17.826767615614845Z" fill="#3E3A39" fill-opacity="1"/><path d="M242.8310057852539,26.454596415614844C242.8310057852539,26.454596415614844,242.8310057852539,25.433893415614843,242.8310057852539,25.433893415614843C242.8310057852539,25.433893415614843,243.3381507852539,25.433893415614843,243.3381507852539,25.433893415614843C243.9030615852539,25.472410415614846,244.15984558525392,25.215597415614845,244.12132838525392,24.657099415614844C244.12132838525392,24.657099415614844,244.12132838525392,18.545756515614844,244.12132838525392,18.545756515614844C244.12132838525392,18.545756515614844,242.9979197852539,18.545756515614844,242.9979197852539,18.545756515614844C243.0364367852539,22.384620415614844,242.24682678525392,25.157822415614845,240.6419448852539,26.878284415614843C240.6419448852539,26.878284415614843,240.6419448852539,25.382569415614846,240.6419448852539,25.382569415614846C241.1298283652539,24.425997415614844,241.42514175525392,23.424552415614844,241.5406930452539,22.384620415614844C241.6883386852539,21.389598615614844,241.7653630852539,19.63064831561484,241.7653630852539,17.10777871561484C241.7653630852539,17.10777871561484,241.7653630852539,15.547836515614843,241.7653630852539,15.547836515614843C241.7653630852539,15.547836515614843,240.81528429525392,15.547836515614843,240.81528429525392,15.547836515614843C240.81528429525392,15.547836515614843,240.81528429525392,14.527133715614843,240.81528429525392,14.527133715614843C240.81528429525392,14.527133715614843,242.5549634852539,14.527133715614843,242.5549634852539,14.527133715614843C242.5549634852539,14.527133715614843,242.5549634852539,13.146941147614843,242.5549634852539,13.146941147614843C242.5549634852539,13.146941147614843,243.95441458525391,13.146941147614843,243.95441458525391,13.146941147614843C243.95441458525391,13.146941147614843,243.95441458525391,14.527133715614843,243.95441458525391,14.527133715614843C243.95441458525391,14.527133715614843,245.5785550852539,14.527133715614843,245.5785550852539,14.527133715614843C245.5785550852539,14.527133715614843,245.5785550852539,15.547836515614843,245.5785550852539,15.547836515614843C245.5785550852539,15.547836515614843,243.0556857852539,15.547836515614843,243.0556857852539,15.547836515614843C243.0556857852539,15.547836515614843,243.0556857852539,16.626315115614844,243.0556857852539,16.626315115614844C243.0556857852539,16.626315115614844,243.0556857852539,17.525053715614845,243.0556857852539,17.525053715614845C243.0556857852539,17.525053715614845,245.35388468525392,17.525053715614845,245.35388468525392,17.525053715614845C245.35388468525392,17.525053715614845,245.35388468525392,24.657099415614844,245.35388468525392,24.657099415614844C245.3924021852539,25.896098415614844,244.8274716852539,26.493113415614843,243.6719591852539,26.454596415614844C243.6719591852539,26.454596415614844,242.8310057852539,26.454596415614844,242.8310057852539,26.454596415614844C242.8310057852539,26.454596415614844,242.8310057852539,26.454596415614844,242.8310057852539,26.454596415614844ZM245.74546908525392,16.388799615614843C245.74546908525392,16.388799615614843,245.74546908525392,15.547836515614843,245.74546908525392,15.547836515614843C246.6056804852539,14.989338715614844,247.0742983852539,14.167644015614844,247.1449193852539,13.089165415614843C247.1449193852539,13.089165415614843,248.4930181852539,13.089165415614843,248.4930181852539,13.089165415614843C248.45450118525392,13.532111965614844,248.3453716852539,13.910864025614844,248.1527871852539,14.225419615614843C248.1527871852539,14.225419615614843,253.6479138852539,14.225419615614843,253.6479138852539,14.225419615614843C253.6479138852539,14.225419615614843,253.6479138852539,15.181924315614843,253.6479138852539,15.181924315614843C253.6479138852539,15.181924315614843,247.5878662852539,15.181924315614843,247.5878662852539,15.181924315614843C247.2219543852539,15.669810515614843,246.6056804852539,16.067817215614845,245.74546908525392,16.388799615614843C245.74546908525392,16.388799615614843,245.74546908525392,16.388799615614843,245.74546908525392,16.388799615614843ZM245.9123825852539,17.768992115614843C245.9123825852539,17.768992115614843,245.9123825852539,16.870263115614843,245.9123825852539,16.870263115614843C245.9123825852539,16.870263115614843,246.9780254852539,16.870263115614843,246.9780254852539,16.870263115614843C246.9780254852539,16.870263115614843,246.9780254852539,15.791784515614843,246.9780254852539,15.791784515614843C246.9780254852539,15.791784515614843,248.3261041852539,15.791784515614843,248.3261041852539,15.791784515614843C248.3261041852539,15.791784515614843,248.3261041852539,16.870263115614843,248.3261041852539,16.870263115614843C248.3261041852539,16.870263115614843,251.1314968852539,16.870263115614843,251.1314968852539,16.870263115614843C251.1314968852539,16.870263115614843,251.1314968852539,15.791784515614843,251.1314968852539,15.791784515614843C251.1314968852539,15.791784515614843,252.47949788525392,15.791784515614843,252.47949788525392,15.791784515614843C252.47949788525392,15.791784515614843,252.47949788525392,16.870263115614843,252.47949788525392,16.870263115614843C252.47949788525392,16.870263115614843,253.5451688852539,16.870263115614843,253.5451688852539,16.870263115614843C253.5451688852539,16.870263115614843,253.5451688852539,17.768992115614843,253.5451688852539,17.768992115614843C253.5451688852539,17.768992115614843,252.47949788525392,17.768992115614843,252.47949788525392,17.768992115614843C252.47949788525392,17.768992115614843,252.47949788525392,23.045833315614843,252.47949788525392,23.045833315614843C252.47949788525392,23.045833315614843,253.7120458852539,23.045833315614843,253.7120458852539,23.045833315614843C253.7120458852539,23.045833315614843,253.7120458852539,24.00230841561484,253.7120458852539,24.00230841561484C253.7120458852539,24.00230841561484,245.8032445852539,24.00230841561484,245.8032445852539,24.00230841561484C245.8032445852539,24.00230841561484,245.8032445852539,23.045833315614843,245.8032445852539,23.045833315614843C245.8032445852539,23.045833315614843,246.9780254852539,23.045833315614843,246.9780254852539,23.045833315614843C246.9780254852539,23.045833315614843,246.9780254852539,17.768992115614843,246.9780254852539,17.768992115614843C246.9780254852539,17.768992115614843,245.9123825852539,17.768992115614843,245.9123825852539,17.768992115614843C245.9123825852539,17.768992115614843,245.9123825852539,17.768992115614843,245.9123825852539,17.768992115614843ZM245.8032445852539,26.878284415614843C245.8032445852539,26.878284415614843,245.8032445852539,26.101490415614844,245.8032445852539,26.101490415614844C246.8496188852539,25.742029415614844,247.5044092852539,25.18353241561484,247.76760628525392,24.425997415614844C247.76760628525392,24.425997415614844,249.1157140852539,24.425997415614844,249.1157140852539,24.425997415614844C248.6984490852539,25.735578415614846,247.5942887852539,26.557340415614846,245.8032445852539,26.878284415614843C245.8032445852539,26.878284415614843,245.8032445852539,26.878284415614843,245.8032445852539,26.878284415614843ZM248.3261041852539,17.768992115614843C248.3261041852539,17.768992115614843,248.3261041852539,18.905246015614843,248.3261041852539,18.905246015614843C248.3261041852539,18.905246015614843,251.1314968852539,18.905246015614843,251.1314968852539,18.905246015614843C251.1314968852539,18.905246015614843,251.1314968852539,17.768992115614843,251.1314968852539,17.768992115614843C251.1314968852539,17.768992115614843,248.3261041852539,17.768992115614843,248.3261041852539,17.768992115614843C248.3261041852539,17.768992115614843,248.3261041852539,17.768992115614843,248.3261041852539,17.768992115614843ZM248.3261041852539,19.803975315614842C248.3261041852539,19.803975315614842,248.3261041852539,21.004428115614843,248.3261041852539,21.004428115614843C248.3261041852539,21.004428115614843,251.1314968852539,21.004428115614843,251.1314968852539,21.004428115614843C251.1314968852539,21.004428115614843,251.1314968852539,19.803975315614842,251.1314968852539,19.803975315614842C251.1314968852539,19.803975315614842,248.3261041852539,19.803975315614842,248.3261041852539,19.803975315614842C248.3261041852539,19.803975315614842,248.3261041852539,19.803975315614842,248.3261041852539,19.803975315614842ZM248.3261041852539,21.903156015614844C248.3261041852539,21.903156015614844,248.3261041852539,23.039381715614844,248.3261041852539,23.039381715614844C248.3261041852539,23.039381715614844,251.1314968852539,23.039381715614844,251.1314968852539,23.039381715614844C251.1314968852539,23.039381715614844,251.1314968852539,21.903156015614844,251.1314968852539,21.903156015614844C251.1314968852539,21.903156015614844,248.3261041852539,21.903156015614844,248.3261041852539,21.903156015614844C248.3261041852539,21.903156015614844,248.3261041852539,21.903156015614844,248.3261041852539,21.903156015614844ZM253.5964938852539,26.878284415614843C251.8376108852539,26.595857415614844,250.7334208852539,25.780546415614843,250.2904758852539,24.419641415614844C250.2904758852539,24.419641415614844,251.6898978852539,24.419641415614844,251.6898978852539,24.419641415614844C251.9531618852539,25.177080415614846,252.58869488525391,25.735578415614846,253.5964938852539,26.095134415614844C253.5964938852539,26.095134415614844,253.5964938852539,26.878284415614843,253.5964938852539,26.878284415614843C253.5964938852539,26.878284415614843,253.5964938852539,26.878284415614843,253.5964938852539,26.878284415614843Z" fill="#3E3A39" fill-opacity="1"/><path d="M259.3355712890625,15.188346890603638C259.3355712890625,15.188346890603638,259.3355712890625,14.052092790603638,259.3355712890625,14.052092790603638C259.3355712890625,14.052092790603638,272.2387952890625,14.052092790603638,272.2387952890625,14.052092790603638C272.2387952890625,14.052092790603638,272.2387952890625,15.188346890603638,272.2387952890625,15.188346890603638C272.2387952890625,15.188346890603638,266.1787767890625,15.188346890603638,266.1787767890625,15.188346890603638C266.1787767890625,15.188346890603638,266.1787767890625,26.75628079060364,266.1787767890625,26.75628079060364C266.1787767890625,26.75628079060364,264.5546173890625,26.75628079060364,264.5546173890625,26.75628079060364C264.5546173890625,26.75628079060364,264.5546173890625,15.188346890603638,264.5546173890625,15.188346890603638C264.5546173890625,15.188346890603638,259.3355712890625,15.188346890603638,259.3355712890625,15.188346890603638C259.3355712890625,15.188346890603638,259.3355712890625,15.188346890603638,259.3355712890625,15.188346890603638ZM271.4491952890625,21.845380990603637C269.8379282890625,20.683454790603637,268.2907943890625,19.784716390603638,266.7950410890625,19.149184490603638C266.7950410890625,19.149184490603638,266.7950410890625,17.948741390603637,266.7950410890625,17.948741390603637C268.5539903890625,18.468722090603638,270.1010972890625,19.187701490603637,271.4491952890625,20.10569879060364C271.4491952890625,20.10569879060364,271.4491952890625,21.845380990603637,271.4491952890625,21.845380990603637C271.4491952890625,21.845380990603637,271.4491952890625,21.845380990603637,271.4491952890625,21.845380990603637Z" fill="#3E3A39" fill-opacity="1"/><path d="M278.4336242675781,26.454526222480773C278.4336242675781,26.454526222480773,278.4336242675781,20.221209122480772,278.4336242675781,20.221209122480772C278.4336242675781,20.221209122480772,283.64626696757813,20.221209122480772,283.64626696757813,20.221209122480772C283.64626696757813,20.221209122480772,283.64626696757813,24.657125222480772,283.64626696757813,24.657125222480772C283.6847843675781,25.896028222480773,283.0877599675781,26.49304322248077,281.8487899675781,26.454526222480773C281.8487899675781,26.454526222480773,278.4336242675781,26.454526222480773,278.4336242675781,26.454526222480773C278.4336242675781,26.454526222480773,278.4336242675781,26.454526222480773,278.4336242675781,26.454526222480773ZM279.72393716757813,18.725464922480775C279.72393716757813,18.725464922480775,279.72393716757813,13.692562222480774,279.72393716757813,13.692562222480774C279.72393716757813,13.692562222480774,289.09005026757814,13.692562222480774,289.09005026757814,13.692562222480774C289.09005026757814,13.692562222480774,289.09005026757814,16.690472522480775,289.09005026757814,16.690472522480775C289.12856726757815,18.051416022480772,288.4737772675781,18.731878422480776,287.12563136757814,18.731878422480776C287.12563136757814,18.731878422480776,279.72393716757813,18.731878422480776,279.72393716757813,18.731878422480776C279.72393716757813,18.731878422480776,279.72393716757813,18.725464922480775,279.72393716757813,18.725464922480775C279.72393716757813,18.725464922480775,279.72393716757813,18.725464922480775,279.72393716757813,18.725464922480775ZM279.7752996675781,25.37604722248077C279.7752996675781,25.37604722248077,281.51498176757815,25.37604722248077,281.51498176757815,25.37604722248077C282.0734793675781,25.414564222480774,282.3366858675781,25.138590222480772,282.2981688675781,24.535124222480775C282.2981688675781,24.535124222480775,282.2981688675781,21.299688022480773,282.2981688675781,21.299688022480773C282.2981688675781,21.299688022480773,279.7752996675781,21.299688022480773,279.7752996675781,21.299688022480773C279.7752996675781,21.299688022480773,279.7752996675781,25.37604722248077,279.7752996675781,25.37604722248077C279.7752996675781,25.37604722248077,279.7752996675781,25.37604722248077,279.7752996675781,25.37604722248077ZM281.12339786757815,17.646986622480775C281.12339786757815,17.646986622480775,286.6762819675781,17.646986622480775,286.6762819675781,17.646986622480775C287.3503303675781,17.685503822480776,287.6648807675781,17.306746122480774,287.63277626757815,16.510732722480775C287.63277626757815,16.510732722480775,287.63277626757815,14.771040822480774,287.63277626757815,14.771040822480774C287.63277626757815,14.771040822480774,281.12981076757814,14.771040822480774,281.12981076757814,14.771040822480774C281.12981076757814,14.771040822480774,281.12981076757814,17.646986622480775,281.12981076757814,17.646986622480775C281.12981076757814,17.646986622480775,281.12339786757815,17.646986622480775,281.12339786757815,17.646986622480775C281.12339786757815,17.646986622480775,281.12339786757815,17.646986622480775,281.12339786757815,17.646986622480775ZM285.0521406675781,26.454526222480773C285.0521406675781,26.454526222480773,285.0521406675781,20.221209122480772,285.0521406675781,20.221209122480772C285.0521406675781,20.221209122480772,290.32259726757815,20.221209122480772,290.32259726757815,20.221209122480772C290.32259726757815,20.221209122480772,290.32259726757815,24.657125222480772,290.32259726757815,24.657125222480772C290.3611142675781,25.896028222480773,289.78335826757814,26.49304322248077,288.5828772675781,26.454526222480773C288.5828772675781,26.454526222480773,285.0521406675781,26.454526222480773,285.0521406675781,26.454526222480773C285.0521406675781,26.454526222480773,285.0521406675781,26.454526222480773,285.0521406675781,26.454526222480773ZM286.3938159675781,25.37604722248077C286.3938159675781,25.37604722248077,288.19125456757814,25.37604722248077,288.19125456757814,25.37604722248077C288.78826926757813,25.414564222480774,289.0707922675781,25.138590222480772,289.03227526757814,24.535124222480775C289.03227526757814,24.535124222480775,289.03227526757814,21.299688022480773,289.03227526757814,21.299688022480773C289.03227526757814,21.299688022480773,286.3938159675781,21.299688022480773,286.3938159675781,21.299688022480773C286.3938159675781,21.299688022480773,286.3938159675781,25.37604722248077,286.3938159675781,25.37604722248077C286.3938159675781,25.37604722248077,286.3938159675781,25.37604722248077,286.3938159675781,25.37604722248077Z" fill="#3E3A39" fill-opacity="1"/><path d="M299.5923559431641,26.698505415614843C299.5923559431641,26.698505415614843,299.5923559431641,20.766902615614843,299.5923559431641,20.766902615614843C299.5923559431641,20.766902615614843,298.30203314316407,20.766902615614843,298.30203314316407,20.766902615614843C298.30203314316407,20.766902615614843,298.30203314316407,21.543666615614843,298.30203314316407,21.543666615614843C298.41758464316405,24.105052415614843,297.75637134316406,25.876839415614846,296.33766174316406,26.878284415614843C296.33766174316406,26.878284415614843,296.33766174316406,25.742029415614844,296.33766174316406,25.742029415614844C296.85764247316405,25.023011415614846,297.10158753316404,23.745592415614844,297.0630704731641,21.903156015614844C297.0630704731641,21.903156015614844,297.0630704731641,13.628404705614843,297.0630704731641,13.628404705614843C297.0630704731641,13.628404705614843,298.2956298431641,13.628404705614843,298.2956298431641,13.628404705614843C298.2956298431641,13.628404705614843,298.2956298431641,16.928038815614844,298.2956298431641,16.928038815614844C298.2956298431641,16.928038815614844,299.47039154316406,16.928038815614844,299.47039154316406,16.928038815614844C299.47039154316406,16.928038815614844,299.47039154316406,13.268912165614843,299.47039154316406,13.268912165614843C299.47039154316406,13.268912165614843,300.64515304316404,13.268912165614843,300.64515304316404,13.268912165614843C300.64515304316404,13.268912165614843,300.64515304316404,16.928038815614844,300.64515304316404,16.928038815614844C300.64515304316404,16.928038815614844,301.3192114431641,16.928038815614844,301.3192114431641,16.928038815614844C301.3192114431641,16.928038815614844,301.3192114431641,17.884543115614843,301.3192114431641,17.884543115614843C301.3192114431641,17.884543115614843,298.2891974431641,17.884543115614843,298.2891974431641,17.884543115614843C298.2891974431641,17.884543115614843,298.2891974431641,19.803975315614842,298.2891974431641,19.803975315614842C298.2891974431641,19.803975315614842,300.7542910431641,19.803975315614842,300.7542910431641,19.803975315614842C300.7542910431641,19.803975315614842,300.7542910431641,26.698505415614843,300.7542910431641,26.698505415614843C300.7542910431641,26.698505415614843,299.5923559431641,26.698505415614843,299.5923559431641,26.698505415614843C299.5923559431641,26.698505415614843,299.5923559431641,26.698505415614843,299.5923559431641,26.698505415614843ZM301.89053584316406,20.580739715614843C301.89053584316406,20.580739715614843,301.89053584316406,14.225419615614843,301.89053584316406,14.225419615614843C301.89053584316406,14.225419615614843,303.9127020431641,14.225419615614843,303.9127020431641,14.225419615614843C304.0603475431641,13.827410005614844,304.15662144316406,13.448657955614843,304.19513844316407,13.089165415614843C304.19513844316407,13.089165415614843,305.65238384316405,13.089165415614843,305.65238384316405,13.089165415614843C305.54325584316405,13.487175045614844,305.42768474316404,13.865927065614843,305.31855674316404,14.225419615614843C305.31855674316404,14.225419615614843,308.84926374316404,14.225419615614843,308.84926374316404,14.225419615614843C308.84926374316404,14.225419615614843,308.84926374316404,18.661308015614843,308.84926374316404,18.661308015614843C308.88778074316406,20.022241815614844,308.31002474316404,20.657774215614843,307.10963874316406,20.580739715614843C307.10963874316406,20.580739715614843,305.3121528431641,20.580739715614843,305.3121528431641,20.580739715614843C304.8242673431641,21.383175615614846,303.77787254316405,22.179198915614844,302.17300084316406,22.975250915614843C302.17300084316406,22.975250915614843,305.36991884316404,22.975250915614843,305.36991884316404,22.975250915614843C305.36991884316404,22.975250915614843,305.36991884316404,21.184177115614844,305.36991884316404,21.184177115614844C305.36991884316404,21.184177115614844,306.71801674316407,21.184177115614844,306.71801674316407,21.184177115614844C306.71801674316407,21.184177115614844,306.71801674316407,22.981606215614843,306.71801674316407,22.981606215614843C306.71801674316407,22.981606215614843,309.52331374316407,22.981606215614843,309.52331374316407,22.981606215614843C309.52331374316407,22.981606215614843,309.52331374316407,24.00230841561484,309.52331374316407,24.00230841561484C309.52331374316407,24.00230841561484,306.71801674316407,24.00230841561484,306.71801674316407,24.00230841561484C306.71801674316407,24.00230841561484,306.71801674316407,26.820508415614846,306.71801674316407,26.820508415614846C306.71801674316407,26.820508415614846,305.36991884316404,26.820508415614846,305.36991884316404,26.820508415614846C305.36991884316404,26.820508415614846,305.36991884316404,24.00230841561484,305.36991884316404,24.00230841561484C305.36991884316404,24.00230841561484,301.2742719431641,24.00230841561484,301.2742719431641,24.00230841561484C301.2742719431641,24.00230841561484,301.2742719431641,22.981606215614843,301.2742719431641,22.981606215614843C301.2742719431641,22.981606215614843,302.11522484316407,22.981606215614843,302.11522484316407,22.981606215614843C302.11522484316407,22.981606215614843,302.11522484316407,22.082906415614843,302.11522484316407,22.082906415614843C302.89840264316405,21.601443015614844,303.49543664316406,21.107143115614843,303.9127020431641,20.587162715614845C303.9127020431641,20.587162715614845,301.89053584316406,20.587162715614845,301.89053584316406,20.587162715614845C301.89053584316406,20.587162715614845,301.89053584316406,20.580739715614843,301.89053584316406,20.580739715614843C301.89053584316406,20.580739715614843,301.89053584316406,20.580739715614843,301.89053584316406,20.580739715614843ZM303.06531664316407,15.246122515614843C303.06531664316407,15.246122515614843,303.06531664316407,16.806064615614844,303.06531664316407,16.806064615614844C303.06531664316407,16.806064615614844,304.7472324431641,16.806064615614844,304.7472324431641,16.806064615614844C304.7472324431641,16.806064615614844,304.7472324431641,15.246122515614843,304.7472324431641,15.246122515614843C304.7472324431641,15.246122515614843,303.06531664316407,15.246122515614843,303.06531664316407,15.246122515614843C303.06531664316407,15.246122515614843,303.06531664316407,15.246122515614843,303.06531664316407,15.246122515614843ZM303.06531664316407,19.566459415614844C303.06531664316407,19.566459415614844,304.4647674431641,19.566459415614844,304.4647674431641,19.566459415614844C304.6509399431641,19.084995515614843,304.7472324431641,18.50723951561484,304.7472324431641,17.826767615614845C304.7472324431641,17.826767615614845,304.7472324431641,17.768992115614843,304.7472324431641,17.768992115614843C304.7472324431641,17.768992115614843,303.06531664316407,17.768992115614843,303.06531664316407,17.768992115614843C303.06531664316407,17.768992115614843,303.06531664316407,19.566459415614844,303.06531664316407,19.566459415614844C303.06531664316407,19.566459415614844,303.06531664316407,19.566459415614844,303.06531664316407,19.566459415614844ZM306.76934074316404,19.566459415614844C307.40487374316405,19.604976815614844,307.70665474316405,19.264735915614843,307.66813774316404,18.545756515614844C307.66813774316404,18.545756515614844,307.66813774316404,17.768992115614843,307.66813774316404,17.768992115614843C307.66813774316404,17.768992115614843,305.98619274316405,17.768992115614843,305.98619274316405,17.768992115614843C305.98619274316405,18.487981015614842,305.9091577431641,19.084995515614843,305.76150324316404,19.566459415614844C305.76150324316404,19.566459415614844,306.76934074316404,19.566459415614844,306.76934074316404,19.566459415614844C306.76934074316404,19.566459415614844,306.76934074316404,19.566459415614844,306.76934074316404,19.566459415614844ZM307.66813774316404,15.246122515614843C307.66813774316404,15.246122515614843,305.98619274316405,15.246122515614843,305.98619274316405,15.246122515614843C305.98619274316405,15.246122515614843,305.98619274316405,16.806064615614844,305.98619274316405,16.806064615614844C305.98619274316405,16.806064615614844,307.66813774316404,16.806064615614844,307.66813774316404,16.806064615614844C307.66813774316404,16.806064615614844,307.66813774316404,15.246122515614843,307.66813774316404,15.246122515614843C307.66813774316404,15.246122515614843,307.66813774316404,15.246122515614843,307.66813774316404,15.246122515614843Z" fill="#3E3A39" fill-opacity="1"/><path d="M156.7389003046875,0C156.7389003046875,0,156.1932373046875,0,156.1932373046875,0C156.1932373046875,0,156.1932373046875,40,156.1932373046875,40C156.1932373046875,40,156.7389003046875,40,156.7389003046875,40C156.7389003046875,40,156.7389003046875,0,156.7389003046875,0C156.7389003046875,0,156.7389003046875,0,156.7389003046875,0Z" fill="#3E3A39" fill-opacity="1"/><path d="M3.7489936,27.969847189483644C3.7489936,24.618830689483644,6.4772935,21.89053078948364,9.82831,21.89053078948364C13.179296,21.89053078948364,15.901106,24.618830689483644,15.901106,27.969847189483644C15.901106,31.320833189483643,13.179296,34.049095189483644,9.82831,34.049095189483644C6.4772935,34.049095189483644,3.7489936,31.320833189483643,3.7489936,27.969847189483644C3.7489936,27.969847189483644,3.7489936,27.969847189483644,3.7489936,27.969847189483644ZM17.775635,22.211512589483643C15.991044,19.75283218948364,13.089358,18.14795685188364,9.82831,18.14795685188364C4.4102068,18.14795685188364,0,22.551743989483644,0,27.969847189483644C0,33.38785218948364,4.4102068,37.79170418948364,9.8218575,37.79170418948364C15.239961,37.79170418948364,19.643715,33.381498189483644,19.643715,27.969847189483644C19.643715,24.477598189483643,22.609531,21.659428089483644,26.153103,21.909789289483644C29.14463,22.12163308948364,31.571207,24.541796689483643,31.783049,27.533284689483644C32.033413,31.076827189483645,29.215212,34.04264318948364,25.722965,34.04264318948364C25.151659,34.04264318948364,24.580353,33.95925518948364,24.034662,33.80518618948364C23.206547,33.567632189483646,22.320654,33.920737189483646,21.890512,34.67182018948364C21.280691,35.73104118948365,21.832737,37.07268618948365,23.007507,37.406534189483644C23.887047,37.65689518948364,24.805006,37.78525218948364,25.722965,37.78525218948364C31.295135,37.78525218948364,35.801636,33.12468518948364,35.532017,27.494776289483642C35.29446,22.468286989483644,31.2181,18.38547937948364,26.191622,18.15437647648364C26.037554,18.14795699618364,25.877033,18.141537189483643,25.722965,18.141537189483643C22.461914,18.147956707483644,19.560228,19.75283218948364,17.775635,22.211512589483643C17.775635,22.211512589483643,17.775635,22.211512589483643,17.775635,22.211512589483643Z" fill="#F39800" fill-opacity="1"/><path d="M9.173505642448426,2.2468228340148926C5.161305742448425,2.2468228340148926,1.8038989904484253,5.533611034014893,1.8745136482484253,9.545810734014893C1.9387087974484254,13.442487834014893,5.135624542448426,16.594436834014893,9.051531642448424,16.594436834014893C9.051531642448424,16.594436834014893,13.943231642448426,16.594436834014893,13.943231642448426,16.594436834014893C14.970288642448425,16.594436834014893,15.856181642448425,15.785578834014892,15.875440642448424,14.758423834014893C15.894698642448425,13.705655834014893,15.047322642448425,12.851827834014893,14.001005642448426,12.851827834014893C14.001005642448426,12.851827834014893,9.128566142448426,12.851827834014893,9.128566142448426,12.851827834014893C7.273322942448425,12.851827834014893,5.687709242448426,11.413889434014893,5.617087942448425,9.558646634014892C5.546476742448425,7.607120534014893,7.106418942448426,6.002238734014893,9.038696142448426,6.002238734014893C9.038696142448426,6.002238734014893,26.409865642448427,6.002238734014893,26.409865642448427,6.002238734014893C28.265137642448426,6.002238734014893,29.844336642448425,7.440207034014892,29.921370642448426,9.295449734014893C29.991953642448426,11.246984934014893,28.432011642448426,12.851827834014893,26.499800642448424,12.851827834014893C26.499800642448424,12.851827834014893,21.011116642448425,12.851827834014893,21.011116642448425,12.851827834014893C20.189352642448426,12.851827834014893,19.457529642448424,13.365452834014892,19.175102642448426,14.135794834014893C19.175102642448426,14.135794834014893,17.634419642448425,18.353416834014894,17.634419642448425,18.353416834014894C17.525319642448423,18.648649834014893,17.916846642448427,18.86049283401489,18.109431642448424,18.616584834014894C18.109431642448424,18.616584834014894,19.059551642448426,17.371231834014893,19.059551642448426,17.371231834014893C19.431915642448427,16.889766834014893,20.003222642448424,16.607243834014895,20.613041642448426,16.607243834014895C20.613041642448426,16.607243834014895,26.371346642448426,16.607243834014895,26.371346642448426,16.607243834014895C30.383576642448425,16.607243834014895,33.741015642448424,13.320485834014892,33.670334642448424,9.308285734014893C33.60620364244842,5.398801134014892,30.415640642448427,2.2468228340148926,26.499800642448424,2.2468228340148926C26.499800642448424,2.2468228340148926,9.173505642448426,2.2468228340148926,9.173505642448426,2.2468228340148926C9.173505642448426,2.2468228340148926,9.173505642448426,2.2468228340148926,9.173505642448426,2.2468228340148926Z" fill="#F39800" fill-opacity="1"/><path d="M119.22324803833008,28.765836596488953C119.22324803833008,28.765836596488953,115.82732133833008,28.765836596488953,115.82732133833008,28.765836596488953C115.76954583833007,28.765836596488953,115.72461553833008,28.804352238488953,115.70535703833008,28.862127862488954C115.08908353833007,31.365739896488954,114.33800029833007,33.432826896488955,113.48420511633007,35.01844059648895C113.43926857433007,35.101897096488955,113.49704295933007,35.19176709648895,113.59333587833008,35.19176709648895C113.59333587833008,35.19176709648895,117.19468783833008,35.19176709648895,117.19468783833008,35.19176709648895C117.24604053833008,35.19176709648895,117.28455783833007,35.16609559648895,117.31023903833008,35.121155596488954C118.19613213833009,33.310852396488954,118.88301703833008,31.224507496488954,119.35164453833008,28.91348509648895C119.35805793833008,28.84287048148895,119.30028203833008,28.765836596488953,119.22324803833008,28.765836596488953C119.22324803833008,28.765836596488953,119.22324803833008,28.765836596488953,119.22324803833008,28.765836596488953Z" fill="#3E3A39" fill-opacity="1"/><path d="M136.344144763916,31.346481396488954C136.344144763916,31.346481396488954,136.311982763916,32.534088496488955,136.311982763916,32.534088496488955C136.27991776391602,33.03481039648895,136.26701576391602,33.375051396488956,136.02955676391602,33.631825296488955C135.785550763916,33.90786779648895,135.381121763916,34.042677296488954,134.83552676391602,34.042677296488954C134.73278276391602,34.042677296488954,134.630134763916,34.036254796488954,134.53384176391603,34.029832196488954C134.53384176391603,34.029832196488954,127.67775156391602,34.029832196488954,127.67775156391602,34.029832196488954C127.57504556391602,34.036254796488954,127.47233056391602,34.036254796488954,127.36962416391601,34.036254796488954C126.57360126391602,34.036254796488954,125.98299976391601,33.83725629648895,125.61708736391601,33.43923989648896C125.26401046391601,33.060491896488955,125.10995196391602,32.514829996488956,125.16130496391601,31.808686596488954C125.16130496391601,31.808686596488954,125.16130496391601,28.887806716488953,125.16130496391601,28.887806716488953C125.16130496391601,28.817191813488954,125.10352946391602,28.765836596488953,125.03933096391602,28.765836596488953C125.03933096391602,28.765836596488953,121.17478193391601,28.765836596488953,121.17478193391601,28.765836596488953C121.10416740891601,28.765836596488953,121.05281950211601,28.823611360488954,121.05281950211601,28.887806716488953C121.05281950211601,28.887806716488953,121.05281950211601,32.27731429648895,121.05281950211601,32.27731429648895C121.00788286291602,33.58047239648895,121.31601834391601,34.58191669648895,121.96438902391601,35.25596559648895C122.68337516391601,35.99420349648895,123.84530086391601,36.372961396488954,125.41807886391601,36.372961396488954C125.41807886391601,36.372961396488954,125.73263836391601,36.366538396488956,125.73263836391601,36.366538396488956C125.73263836391601,36.366538396488956,136.01029776391601,36.366538396488956,136.01029776391601,36.366538396488956C136.01029776391601,36.366538396488956,136.29272576391602,36.372961396488954,136.29272576391602,36.372961396488954C137.608756763916,36.372961396488954,138.59739476391601,36.04556599648895,139.22647476391603,35.39719809648895C139.85555476391602,34.748820696488956,140.15088476391603,33.74737629648895,140.105916763916,32.41853699648895C140.105916763916,32.41853699648895,140.09956176391603,31.404256896488953,140.09956176391603,31.404256896488953C140.09956176391603,31.404256896488953,136.344144763916,31.346481396488954,136.344144763916,31.346481396488954C136.344144763916,31.346481396488954,136.344144763916,31.346481396488954,136.344144763916,31.346481396488954Z" fill="#3E3A39" fill-opacity="1"/><path d="M129.19276548536132,28.765836596488953C129.10931213936132,28.765836596488953,129.05154122236132,28.849290318488954,129.07721926596133,28.92632478648895C129.40461429536134,30.00480599648895,129.69348674536133,31.038344496488953,129.94384783536134,32.02053059648895C129.95668649536134,32.07830609648895,130.00804805536131,32.110400296488955,130.05940288536132,32.110400296488955C130.05940288536132,32.110400296488955,134.44392869536134,32.110400296488955,134.44392869536134,32.110400296488955C134.52737569536131,32.110400296488955,134.58516119536134,32.026943596488955,134.55947969536132,31.943496096488953C134.14221429536133,30.57613969648895,133.71851679536132,29.529758516488954,133.30125189536133,28.82361232148895C133.27557039536134,28.785095235488953,133.23705289536133,28.765836596488953,133.19212289536134,28.765836596488953C133.19212289536134,28.765836596488953,129.19276548536132,28.765836596488953,129.19276548536132,28.765836596488953C129.19276548536132,28.765836596488953,129.19276548536132,28.765836596488953,129.19276548536132,28.765836596488953Z" fill="#3E3A39" fill-opacity="1"/><path d="M144.1630771293457,28.836449205488954C144.1438186293457,28.79151256948895,144.0988788293457,28.765836596488953,144.0475261293457,28.765836596488953C144.0475261293457,28.765836596488953,140.6772773593457,28.765836596488953,140.6772773593457,28.765836596488953C140.5874044593457,28.765836596488953,140.5296300703457,28.855710059488953,140.5681471643457,28.939163506488953C141.4283626093457,30.99340499648895,142.0510598293457,33.060491896488955,142.4233852293457,35.10189759648895C142.4362211293457,35.15967309648895,142.4811608293457,35.19819009648895,142.5453592293457,35.19819009648895C142.5453592293457,35.19819009648895,146.3585515293457,35.19819009648895,146.3585515293457,35.19819009648895C146.4420085293457,35.19819009648895,146.4997744293457,35.12115609648895,146.4805159293457,35.044122096488955C145.9990520293457,32.97703539648895,145.2158842293457,30.890689696488952,144.1630771293457,28.836449205488954C144.1630771293457,28.836449205488954,144.1630771293457,28.836449205488954,144.1630771293457,28.836449205488954Z" fill="#3E3A39" fill-opacity="1"/><path d="M85.53364086420899,17.878328868019103C85.53364086420899,17.878328868019103,101.27432456420898,17.878328868019103,101.27432456420898,17.878328868019103C101.27432456420898,17.878328868019103,101.55029856420899,17.884781868019104,101.55029856420899,17.884781868019104C103.11669356420899,17.884781868019104,104.30427156420899,17.480351868019106,105.08106456420899,16.684299868019103C105.90273056420898,15.836922868019103,106.29435356420899,14.520920368019103,106.24938356420898,12.755556668019103C106.24938356420898,12.755556668019103,106.24938356420898,5.405212958019104,106.24938356420898,5.405212958019104C106.24938356420898,5.334598336019104,106.19161056420899,5.283241868019104,106.12747756420899,5.283241868019104C106.12747756420899,5.283241868019104,86.98445466420898,5.283241868019104,86.98445466420898,5.283241868019104C86.91383366420898,5.283241868019104,86.86248066420899,5.341017883019104,86.86248066420899,5.405212958019104C86.86248066420899,5.405212958019104,86.86248066420899,8.075730668019105,86.86248066420899,8.075730668019105C86.86248066420899,8.146342168019103,86.92025616420898,8.197704668019103,86.98445466420898,8.197704668019103C86.98445466420898,8.197704668019103,101.71727156420899,8.197704668019103,101.71727156420899,8.197704668019103C101.78785356420899,8.197704668019103,101.83917856420899,8.255480168019105,101.83917856420899,8.319669168019104C101.83917856420899,8.319669168019104,101.83917856420899,12.723462268019105,101.83917856420899,12.723462268019105C101.89059856420899,13.551579068019104,101.72362556420899,14.174265468019104,101.35135856420898,14.572282468019104C101.01751156420899,14.925320268019105,100.52324056420898,15.105098368019105,99.87480556420898,15.105098368019105C99.79141656420899,15.105098368019105,99.70147856420898,15.105098368019105,99.62444456420899,15.098647668019105C99.62444456420899,15.098647668019105,86.96519616420899,15.098647668019105,86.96519616420899,15.098647668019105C86.20127676420898,15.098647668019105,85.58500336420899,14.482403368019105,85.58500336420899,13.718483568019105C85.58500336420899,13.718483568019105,85.58500336420899,5.405212958019104,85.58500336420899,5.405212958019104C85.58500336420899,5.334598336019104,85.52722786420898,5.283241868019104,85.46302936420898,5.283241868019104C85.46302936420898,5.283241868019104,81.30318164420899,5.283241868019104,81.30318164420899,5.283241868019104C81.23256729120898,5.283241868019104,81.18120956420898,5.341017883019104,81.18120956420898,5.405212958019104C81.18120956420898,5.405212958019104,81.18120956420898,13.519476568019105,81.18120956420898,13.519476568019105C81.18120956420898,15.926763868019105,83.12632266420898,17.878328868019103,85.53364086420899,17.878328868019103C85.53364086420899,17.878328868019103,85.53364086420899,17.878328868019103,85.53364086420899,17.878328868019103Z" fill="#3E3A39" fill-opacity="1"/><path d="M91.888972515625,20.98566234111786C91.888972515625,20.98566234111786,78.221820775625,20.98566234111786,78.221820775625,20.98566234111786C78.151206329625,20.98566234111786,78.099853515625,21.04343951111786,78.099853515625,21.10763440111786C78.099853515625,21.10763440111786,78.099853515625,32.15561734111786,78.099853515625,32.15561734111786C78.099853515625,34.48590134111786,79.987181415625,36.36678634111786,82.317465315625,36.36678634111786C82.317465315625,36.36678634111786,87.189887015625,36.36678634111786,87.189887015625,36.36678634111786C87.189887015625,36.36678634111786,87.478765515625,36.37323734111786,87.478765515625,36.37323734111786C89.064416515625,36.37323734111786,90.239189515625,35.98161634111786,90.990271515625,35.21127434111786C91.715645515625,34.46664234111786,92.062298515625,33.33038834111786,92.017331515625,31.828222341117858C92.017331515625,31.828222341117858,92.017331515625,21.10763440111786,92.017331515625,21.10763440111786C92.010974515625,21.04343951111786,91.953199515625,20.98566234111786,91.888972515625,20.98566234111786C91.888972515625,20.98566234111786,91.888972515625,20.98566234111786,91.888972515625,20.98566234111786ZM88.191330515625,31.82177034111786C88.191330515625,33.27261334111786,87.472342515625,34.03650234111786,86.124244715625,34.03650234111786C86.124244715625,34.03650234111786,83.453729115625,34.03650234111786,83.453729115625,34.03650234111786C82.606352815625,34.03650234111786,81.913045615625,33.34964734111786,81.913045615625,32.49582034111786C81.913045615625,32.49582034111786,81.913045615625,23.887279641117857,81.913045615625,23.887279641117857C81.913045615625,23.81666814111786,81.970821115625,23.76531544111786,82.035019415625,23.76531544111786C82.035019415625,23.76531544111786,88.062973015625,23.76531544111786,88.062973015625,23.76531544111786C88.133555515625,23.76531544111786,88.184880515625,23.823090941117858,88.184880515625,23.887279641117857C88.184880515625,23.887279641117857,88.184880515625,31.82177034111786,88.184880515625,31.82177034111786C88.184880515625,31.82177034111786,88.191330515625,31.82177034111786,88.191330515625,31.82177034111786C88.191330515625,31.82177034111786,88.191330515625,31.82177034111786,88.191330515625,31.82177034111786Z" fill="#3E3A39" fill-opacity="1"/><path d="M109.23443010717773,20.98563698329071C109.23443010717773,20.98563698329071,98.32767030717774,20.98563698329071,98.32767030717774,20.98563698329071C98.32767030717774,20.98563698329071,95.24630416717774,20.95996081829071,95.24630416717774,20.95996081829071C95.17568981617774,20.95996081829071,95.11791610717773,21.01773558229071,95.11791610717773,21.08193093829071C95.11791610717773,21.08193093829071,95.11791610717773,32.181239818290706,95.11791610717773,32.181239818290706C95.11791610717773,34.49226481829071,96.99241780717773,36.36679581829071,99.30344340717774,36.36679581829071C99.30344340717774,36.36679581829071,104.64447310717773,36.36679581829071,104.64447310717773,36.36679581829071C104.64447310717773,36.36679581829071,104.92696760717773,36.37324781829071,104.92696760717773,36.37324781829071C106.44194110717774,36.37324781829071,107.57819510717773,35.99443181829071,108.29721210717773,35.24979981829071C109.02258610717773,34.50516881829071,109.36924010717773,33.35600981829071,109.32427110717774,31.834585818290712C109.32427110717774,31.834585818290712,109.34998110717774,21.11402819829071,109.34998110717774,21.11402819829071C109.36278810717774,21.04341309529071,109.30501310717773,20.98563698329071,109.23443010717773,20.98563698329071C109.23443010717773,20.98563698329071,109.23443010717773,20.98563698329071,109.23443010717773,20.98563698329071ZM104.92051600717774,33.58711381829071C104.63163760717774,33.89524981829071,104.21437170717773,34.04931781829071,103.67513270717774,34.04931781829071C103.59809870717774,34.04931781829071,103.51464270717773,34.04296381829071,103.44403080717774,34.04296381829071C103.44403080717774,34.04296381829071,100.85696270717773,34.04296381829071,100.85696270717773,34.04296381829071C99.80416540717773,34.04296381829071,98.94395350717774,33.18913581829071,98.94395350717774,32.12991581829071C98.94395350717774,32.12991581829071,98.94395350717774,23.88725931829071,98.94395350717774,23.88725931829071C98.94395350717774,23.81664791829071,99.00172920717773,23.76528541829071,99.06592750717773,23.76528541829071C99.06592750717773,23.76528541829071,105.24146010717773,23.76528541829071,105.24146010717773,23.76528541829071C105.31213810717773,23.76528541829071,105.36346210717774,23.82306111829071,105.36346210717774,23.88725931829071C105.36346210717774,23.88725931829071,105.36346210717774,31.80897181829071,105.36346210717774,31.80897181829071C105.41478610717773,32.61783081829071,105.26717010717773,33.21484581829071,104.92051600717774,33.58711381829071C104.92051600717774,33.58711381829071,104.92051600717774,33.58711381829071,104.92051600717774,33.58711381829071Z" fill="#3E3A39" fill-opacity="1"/><path d="M115.46783922698242,23.155172944755556C115.46783922698242,23.155172944755556,136.90898515698242,23.155172944755556,136.90898515698242,23.155172944755556C137.35193215698243,23.155172944755556,137.69223015698242,22.802096344755554,137.69223015698242,22.371988594755553C137.69223015698242,22.371988594755553,137.69223015698242,21.685099914755554,137.69223015698242,21.685099914755554C137.69223015698242,21.614485564755554,137.63445515698243,21.556712060755554,137.5702271569824,21.556712060755554C137.5702271569824,21.556712060755554,115.46783922698242,21.492515444755554,115.46783922698242,21.492515444755554C115.39722488098242,21.492515444755554,115.34586715698242,21.550290208755555,115.34586715698242,21.614485564755554C115.34586715698242,21.614485564755554,115.34586715698242,23.026776144755555,115.34586715698242,23.026776144755555C115.34586715698242,23.097397244755555,115.39722488098242,23.155172944755556,115.46783922698242,23.155172944755556C115.46783922698242,23.155172944755556,115.46783922698242,23.155172944755556,115.46783922698242,23.155172944755556Z" fill="#3E3A39" fill-opacity="1"/><path d="M114.54985507848633,15.824097789834976C114.54985507848633,15.824097789834976,119.73039814848633,15.824097789834976,119.73039814848633,15.824097789834976C119.80100964848633,15.824097789834976,119.85237214848632,15.881874789834976,119.85237214848632,15.946004789834976C119.85237214848632,15.946004789834976,119.85237214848632,17.634401789834975,119.85237214848632,17.634401789834975C119.85237214848632,17.704983789834976,119.79459664848633,17.756307789834977,119.73039814848633,17.756307789834977C119.73039814848633,17.756307789834977,115.46783674848633,17.756307789834977,115.46783674848633,17.756307789834977C115.39722627848633,17.756307789834977,115.34586858848633,17.814084789834975,115.34586858848633,17.878311789834974C115.34586858848633,17.878311789834974,115.34586858848633,19.515286789834974,115.34586858848633,19.515286789834974C115.34586858848633,19.585869789834977,115.40364610848633,19.637291789834975,115.46783674848633,19.637291789834975C115.46783674848633,19.637291789834975,139.52821144848633,19.637291789834975,139.52821144848633,19.637291789834975C139.59879344848633,19.637291789834975,139.65011744848633,19.695065789834977,139.65011744848633,19.759197789834978C139.65011744848633,19.759197789834978,139.65011744848633,23.020342789834977,139.65011744848633,23.020342789834977C139.65657044848632,23.784232789834977,139.45753244848632,24.387700789834977,139.06600744848632,24.779322789834975C138.77067744848634,25.081006789834976,138.36624944848631,25.235074789834975,137.91049344848633,25.235074789834975C137.84626544848632,25.235074789834975,137.78203944848633,25.228623789834977,137.72426444848634,25.228623789834977C137.72426444848634,25.228623789834977,115.46142374848633,25.228623789834977,115.46142374848633,25.228623789834977C115.39081030848632,25.228623789834977,115.33945256848632,25.286398789834976,115.33945256848632,25.350627789834977C115.33945256848632,25.350627789834977,115.33945256848632,27.276480789834977,115.33945256848632,27.276480789834977C115.33945256848632,27.347064789834977,115.39723014848633,27.398484789834978,115.46142374848633,27.398484789834978C115.46142374848633,27.398484789834978,139.37414344848634,27.398484789834978,139.37414344848634,27.398484789834978C139.37414344848634,27.398484789834978,139.63731144848634,27.404837789834975,139.63731144848634,27.404837789834975C140.99186144848633,27.404837789834975,142.02537144848634,27.051829789834976,142.70587144848633,26.352070789834976C143.45050244848633,25.581729789834977,143.80996544848634,24.361989789834976,143.75864044848632,22.718657789834975C143.75864044848632,22.718657789834975,143.75864044848632,17.865504789834976,143.75864044848632,17.865504789834976C143.75864044848632,17.794824789834976,143.70086444848633,17.743500789834975,143.63663644848634,17.743500789834975C143.63663644848634,17.743500789834975,140.23432544848632,17.743500789834975,140.23432544848632,17.743500789834975C140.16374444848634,17.743500789834975,140.11232344848634,17.685725789834976,140.11232344848634,17.621498789834977C140.11232344848634,17.621498789834977,140.11232344848634,16.080814789834974,140.11232344848634,16.080814789834974C140.11232344848634,16.010232789834976,140.17009944848633,15.958908789834977,140.23432544848632,15.958908789834977C140.23432544848632,15.958908789834977,145.71020544848633,15.958908789834977,145.71020544848633,15.958908789834977C145.78078644848634,15.958908789834977,145.83210944848634,15.901131789834976,145.83210944848634,15.836904789834977C145.83210944848634,15.836904789834977,145.83210944848634,13.911049789834976,145.83210944848634,13.911049789834976C145.83210944848634,13.840468789834976,145.77433744848634,13.789048589834977,145.71020544848633,13.789048589834977C145.71020544848633,13.789048589834977,140.23432544848632,13.789048589834977,140.23432544848632,13.789048589834977C140.16374444848634,13.789048589834977,140.11232344848634,13.731272089834976,140.11232344848634,13.667141389834976C140.11232344848634,13.667141389834976,140.11232344848634,11.831127589834976,140.11232344848634,11.831127589834976C140.11232344848634,11.760516589834976,140.17009944848633,11.709153989834977,140.23432544848632,11.709153989834977C140.23432544848632,11.709153989834977,145.71020544848633,11.709153989834977,145.71020544848633,11.709153989834977C145.78078644848634,11.709153989834977,145.83210944848634,11.651378989834976,145.83210944848634,11.587190489834976C145.83210944848634,11.587190489834976,145.83210944848634,9.661335389834976,145.83210944848634,9.661335389834976C145.83210944848634,9.590714389834975,145.77433744848634,9.539361389834976,145.71020544848633,9.539361389834976C145.71020544848633,9.539361389834976,140.23432544848632,9.539361389834976,140.23432544848632,9.539361389834976C140.16374444848634,9.539361389834976,140.11232344848634,9.481585889834976,140.11232344848634,9.417387889834977C140.11232344848634,9.417387889834977,140.11232344848634,7.729058189834976,140.11232344848634,7.729058189834976C140.11232344848634,7.658446889834976,140.17009944848633,7.607084389834976,140.23432544848632,7.607084389834976C140.23432544848632,7.607084389834976,145.71020544848633,7.607084389834976,145.71020544848633,7.607084389834976C145.78078644848634,7.607084389834976,145.83210944848634,7.549308689834977,145.83210944848634,7.485119989834976C145.83210944848634,7.485119989834976,145.83210944848634,5.559265489834976,145.83210944848634,5.559265489834976C145.83210944848634,5.488644389834976,145.77433744848634,5.437291389834976,145.71020544848633,5.437291389834976C145.71020544848633,5.437291389834976,140.23432544848632,5.437291389834976,140.23432544848632,5.437291389834976C140.16374444848634,5.437291389834976,140.11232344848634,5.379515889834976,140.11232344848634,5.315317389834976C140.11232344848634,5.315317389834976,140.11232344848634,3.9415448798349764,140.11232344848634,3.9415448798349764C140.11232344848634,3.870929974834976,140.05454844848634,3.819573789834976,139.99041744848634,3.819573789834976C139.99041744848634,3.819573789834976,136.42113544848633,3.819573789834976,136.42113544848633,3.819573789834976C136.35055344848632,3.819573789834976,136.29913144848632,3.877349421834976,136.29913144848632,3.9415448798349764C136.29913144848632,3.9415448798349764,136.29913144848632,5.308904389834976,136.29913144848632,5.308904389834976C136.29913144848632,5.379515889834976,136.24135544848633,5.430868789834976,136.17722544848633,5.430868789834976C136.17722544848633,5.430868789834976,131.30481144848633,5.430868789834976,131.30481144848633,5.430868789834976C131.23413444848632,5.430868789834976,131.18280944848632,5.488644389834976,131.18280944848632,5.552842789834976C131.18280944848632,5.552842789834976,131.18280944848632,7.4786971898349766,131.18280944848632,7.4786971898349766C131.18280944848632,7.549308689834977,131.24058544848634,7.600671189834976,131.30481144848633,7.600671189834976C131.30481144848633,7.600671189834976,136.17722544848633,7.600671189834976,136.17722544848633,7.600671189834976C136.24780644848633,7.600671189834976,136.29913144848632,7.658446889834976,136.29913144848632,7.722635389834976C136.29913144848632,7.722635389834976,136.29913144848632,9.410974389834976,136.29913144848632,9.410974389834976C136.29913144848632,9.481585889834976,136.24135544848633,9.532938889834977,136.17722544848633,9.532938889834977C136.17722544848633,9.532938889834977,131.30481144848633,9.532938889834977,131.30481144848633,9.532938889834977C131.23413444848632,9.532938889834977,131.18280944848632,9.590714389834975,131.18280944848632,9.654912889834975C131.18280944848632,9.654912889834975,131.18280944848632,11.580767589834977,131.18280944848632,11.580767589834977C131.18280944848632,11.651378989834976,131.24058544848634,11.702741489834978,131.30481144848633,11.702741489834978C131.30481144848633,11.702741489834978,136.17722544848633,11.702741489834978,136.17722544848633,11.702741489834978C136.24780644848633,11.702741489834978,136.29913144848632,11.760516589834976,136.29913144848632,11.824705489834976C136.29913144848632,11.824705489834976,136.29913144848632,13.660690689834976,136.29913144848632,13.660690689834976C136.29913144848632,13.731272089834976,136.24135544848633,13.782692389834976,136.17722544848633,13.782692389834976C136.17722544848633,13.782692389834976,131.30481144848633,13.782692389834976,131.30481144848633,13.782692389834976C131.23413444848632,13.782692389834976,131.18280944848632,13.840468789834976,131.18280944848632,13.904599789834975C131.18280944848632,13.904599789834975,131.18280944848632,15.830453789834976,131.18280944848632,15.830453789834976C131.18280944848632,15.901131789834976,131.24058544848634,15.952456789834976,131.30481144848633,15.952456789834976C131.30481144848633,15.952456789834976,136.17722544848633,15.952456789834976,136.17722544848633,15.952456789834976C136.24780644848633,15.952456789834976,136.29913144848632,16.010232789834976,136.29913144848632,16.074459789834975C136.29913144848632,16.074459789834975,136.29913144848632,17.615142789834977,136.29913144848632,17.615142789834977C136.29913144848632,17.685725789834976,136.24135544848633,17.737050789834974,136.17722544848633,17.737050789834974C136.17722544848633,17.737050789834974,123.65915014848633,17.737050789834974,123.65915014848633,17.737050789834974C123.58852954848632,17.737050789834974,123.53717704848633,17.679273789834976,123.53717704848633,17.615142789834977C123.53717704848633,17.615142789834977,123.53717704848633,15.926746789834976,123.53717704848633,15.926746789834976C123.53717704848633,15.856164789834976,123.59495254848633,15.804840789834977,123.65915014848633,15.804840789834977C123.65915014848633,15.804840789834977,128.67919944848632,15.804840789834977,128.67919944848632,15.804840789834977C128.74978144848632,15.804840789834977,128.80120144848632,15.747063789834977,128.80120144848632,15.682836789834976C128.80120144848632,15.682836789834976,128.80120144848632,13.756982189834977,128.80120144848632,13.756982189834977C128.80120144848632,13.686400789834977,128.74342644848633,13.634979589834977,128.67919944848632,13.634979589834977C128.67919944848632,13.634979589834977,123.65915014848633,13.634979589834977,123.65915014848633,13.634979589834977C123.58852954848632,13.634979589834977,123.53717704848633,13.577204089834977,123.53717704848633,13.513073389834977C123.53717704848633,13.513073389834977,123.53717704848633,11.824705489834976,123.53717704848633,11.824705489834976C123.53717704848633,11.754093989834976,123.59495254848633,11.702741489834978,123.65915014848633,11.702741489834978C123.65915014848633,11.702741489834978,128.67919944848632,11.702741489834978,128.67919944848632,11.702741489834978C128.74978144848632,11.702741489834978,128.80120144848632,11.644965589834976,128.80120144848632,11.580767589834977C128.80120144848632,11.580767589834977,128.80120144848632,9.654912889834975,128.80120144848632,9.654912889834975C128.80120144848632,9.584301389834977,128.74342644848633,9.532938889834977,128.67919944848632,9.532938889834977C128.67919944848632,9.532938889834977,123.65915014848633,9.532938889834977,123.65915014848633,9.532938889834977C123.58852954848632,9.532938889834977,123.53717704848633,9.475163389834975,123.53717704848633,9.410974389834976C123.53717704848633,9.410974389834976,123.53717704848633,7.722635389834976,123.53717704848633,7.722635389834976C123.53717704848633,7.652024189834976,123.59495254848633,7.600671189834976,123.65915014848633,7.600671189834976C123.65915014848633,7.600671189834976,128.67919944848632,7.600671189834976,128.67919944848632,7.600671189834976C128.74978144848632,7.600671189834976,128.80120144848632,7.542895489834976,128.80120144848632,7.4786971898349766C128.80120144848632,7.4786971898349766,128.80120144848632,5.552842789834976,128.80120144848632,5.552842789834976C128.80120144848632,5.482231389834976,128.74342644848633,5.430868789834976,128.67919944848632,5.430868789834976C128.67919944848632,5.430868789834976,123.65915014848633,5.430868789834976,123.65915014848633,5.430868789834976C123.58852954848632,5.430868789834976,123.53717704848633,5.373093189834976,123.53717704848633,5.308904389834976C123.53717704848633,5.308904389834976,123.53717704848633,3.9415448798349764,123.53717704848633,3.9415448798349764C123.53717704848633,3.870929974834976,123.47940154848632,3.819573789834976,123.41520304848633,3.819573789834976C123.41520304848633,3.819573789834976,119.99360464848633,3.819573789834976,119.99360464848633,3.819573789834976C119.92298364848632,3.819573789834976,119.87163064848633,3.877349421834976,119.87163064848633,3.9415448798349764C119.87163064848633,3.9415448798349764,119.87163064848633,5.308904389834976,119.87163064848633,5.308904389834976C119.87163064848633,5.379515889834976,119.81385514848633,5.430868789834976,119.74965664848632,5.430868789834976C119.74965664848632,5.430868789834976,114.56911265848633,5.430868789834976,114.56911265848633,5.430868789834976C114.49849832048633,5.430868789834976,114.44714064058633,5.488644389834976,114.44714064058633,5.552842789834976C114.44714064058633,5.552842789834976,114.44714064058633,7.4786971898349766,114.44714064058633,7.4786971898349766C114.44714064058633,7.549308689834977,114.50491786748633,7.600671189834976,114.56911265848633,7.600671189834976C114.56911265848633,7.600671189834976,119.74965664848632,7.600671189834976,119.74965664848632,7.600671189834976C119.82026814848633,7.600671189834976,119.87163064848633,7.658446889834976,119.87163064848633,7.722635389834976C119.87163064848633,7.722635389834976,119.87163064848633,9.410974389834976,119.87163064848633,9.410974389834976C119.87163064848633,9.481585889834976,119.81385514848633,9.532938889834977,119.74965664848632,9.532938889834977C119.74965664848632,9.532938889834977,114.56911265848633,9.532938889834977,114.56911265848633,9.532938889834977C114.49849832048633,9.532938889834977,114.44714064058633,9.590714389834975,114.44714064058633,9.654912889834975C114.44714064058633,9.654912889834975,114.44714064058633,11.580767589834977,114.44714064058633,11.580767589834977C114.44714064058633,11.651378989834976,114.50491786748633,11.702741489834978,114.56911265848633,11.702741489834978C114.56911265848633,11.702741489834978,119.74965664848632,11.702741489834978,119.74965664848632,11.702741489834978C119.82026814848633,11.702741489834978,119.87163064848633,11.760516589834976,119.87163064848633,11.824705489834976C119.87163064848633,11.824705489834976,119.87163064848633,13.513073389834977,119.87163064848633,13.513073389834977C119.87163064848633,13.583655789834976,119.81385514848633,13.634979589834977,119.74965664848632,13.634979589834977C119.74965664848632,13.634979589834977,114.56911265848633,13.634979589834977,114.56911265848633,13.634979589834977C114.49849832048633,13.634979589834977,114.44714064058633,13.692755089834977,114.44714064058633,13.756982189834977C114.44714064058633,13.756982189834977,114.44714064058633,15.682836789834976,114.44714064058633,15.682836789834976C114.42788214348633,15.766323789834976,114.48566009148632,15.824097789834976,114.54985507848633,15.824097789834976C114.54985507848633,15.824097789834976,114.54985507848633,15.824097789834976,114.54985507848633,15.824097789834976Z" fill="#3E3A39" fill-opacity="1"/><path d="M74.19033430200196,33.89530570935516C74.19033430200196,33.89530570935516,65.90270830200195,33.89530570935516,65.90270830200195,33.89530570935516C65.81931730200195,33.89530570935516,65.75509030200195,33.811849009355164,65.79360730200196,33.721978809355164C65.98619430200195,33.33680810935516,66.44194630200195,32.335363909355166,66.60891930200195,31.404533909355163C66.62172730200196,31.327499747355162,66.56394930200196,31.256885409355164,66.48046530200196,31.256885409355164C66.48046530200196,31.256885409355164,62.21797030200195,31.256885409355164,62.21797030200195,31.256885409355164C62.160194302001955,31.256885409355164,62.108774302001954,31.301821947355165,62.095966302001955,31.359597959355163C61.78137730200196,33.02867140935516,61.50540330200195,33.64494480935517,61.39620830200195,33.831107509355164C61.370594302001955,33.86962450935516,61.33207730200195,33.88889280935516,61.28710730200196,33.88889280935516C61.28710730200196,33.88889280935516,55.785616302001955,33.88889280935516,55.785616302001955,33.88889280935516C55.785616302001955,33.88889280935516,53.468138302001954,33.88889280935516,53.468138302001954,33.88889280935516C53.42317030200195,33.88889280935516,53.38465330200195,33.86962450935516,53.35903830200195,33.831107509355164C53.24984330200195,33.64494480935517,52.973868302001954,33.015835609355165,52.65928030200195,31.359597959355163C52.64647330200195,31.301821947355165,52.59505230200195,31.256885409355164,52.537277302001954,31.256885409355164C52.537277302001954,31.256885409355164,48.27474450200195,31.256885409355164,48.27474450200195,31.256885409355164C48.197710002001955,31.256885409355164,48.133521602001956,31.327499747355162,48.14635800200195,31.404533909355163C48.31327150200195,32.34178650935517,48.762630502001954,33.33680810935516,48.96163840200195,33.721978809355164C49.00656890200195,33.80543600935516,48.94238090200196,33.89530570935516,48.852510502001955,33.89530570935516C48.852510502001955,33.89530570935516,40.552073442001955,33.89530570935516,40.552073442001955,33.89530570935516C40.48145852600195,33.89530570935516,40.43010330200195,33.953081509355165,40.43010330200195,34.017279709355165C40.43010330200195,34.017279709355165,40.43010330200195,36.097202609355165,40.43010330200195,36.097202609355165C40.43010330200195,36.167813609355164,40.48787807300195,36.21916660935516,40.552073442001955,36.21916660935516C40.552073442001955,36.21916660935516,57.96183030200196,36.21916660935516,57.96183030200196,36.21916660935516C57.96183030200196,36.21916660935516,74.18388030200195,36.21916660935516,74.18388030200195,36.21916660935516C74.25456230200194,36.21916660935516,74.30588530200195,36.161391109355165,74.30588530200195,36.097202609355165C74.30588530200195,36.097202609355165,74.30588530200195,34.017279709355165,74.30588530200195,34.017279709355165C74.31233630200195,33.94666830935516,74.25456230200194,33.89530570935516,74.19033430200196,33.89530570935516C74.19033430200196,33.89530570935516,74.19033430200196,33.89530570935516,74.19033430200196,33.89530570935516Z" fill="#3E3A39" fill-opacity="1"/><path d="M40.84734800053413,7.902551525883484C40.84734800053413,7.902551525883484,54.95744092053413,7.902551525883484,54.95744092053413,7.902551525883484C55.02802392053413,7.902551525883484,55.07944392053413,7.960327025883484,55.07944392053413,8.024525025883484C55.07944392053413,8.024525025883484,55.07944392053413,10.142964725883484,55.07944392053413,10.142964725883484C55.07944392053413,10.213576625883483,55.021667920534135,10.264939225883484,54.95744092053413,10.264939225883484C54.95744092053413,10.264939225883484,43.63341622053414,10.264939225883484,43.63341622053414,10.264939225883484C43.562804920534134,10.264939225883484,43.51144242053413,10.322714725883483,43.51144242053413,10.386903625883484C43.51144242053413,10.386903625883484,43.51144242053413,12.466826325883483,43.51144242053413,12.466826325883483C43.51144242053413,12.537446825883483,43.56922772053414,12.588800325883485,43.63341622053414,12.588800325883485C43.63341622053414,12.588800325883485,71.09610392053413,12.588800325883485,71.09610392053413,12.588800325883485C71.16668492053414,12.588800325883485,71.21810492053413,12.531024825883485,71.21810492053413,12.466826325883483C71.21810492053413,12.466826325883483,71.21810492053413,10.399749125883485,71.21810492053413,10.399749125883485C71.21810492053413,10.329128125883484,71.16032992053414,10.277775125883483,71.09610392053413,10.277775125883483C71.09610392053413,10.277775125883483,59.63081692053413,10.277775125883483,59.63081692053413,10.277775125883483C59.56023392053413,10.277775125883483,59.508910920534134,10.219999625883485,59.508910920534134,10.155800725883484C59.508910920534134,10.155800725883484,59.508910920534134,8.037361025883484,59.508910920534134,8.037361025883484C59.508910920534134,7.9667495258834835,59.56668492053413,7.915397025883484,59.63081692053413,7.915397025883484C59.63081692053413,7.915397025883484,73.74097392053413,7.915397025883484,73.74097392053413,7.915397025883484C73.81155792053414,7.915397025883484,73.86288092053414,7.857621025883484,73.86288092053414,7.793423025883484C73.86288092053414,7.793423025883484,73.86288092053414,5.553008925883484,73.86288092053414,5.553008925883484C73.86288092053414,5.482397425883484,73.80510292053413,5.431044625883484,73.74097392053413,5.431044625883484C73.74097392053413,5.431044625883484,59.63081692053413,5.431044625883484,59.63081692053413,5.431044625883484C59.56023392053413,5.431044625883484,59.508910920534134,5.373268825883484,59.508910920534134,5.309070625883484C59.508910920534134,5.309070625883484,59.508910920534134,3.794065315883484,59.508910920534134,3.794065315883484C59.508910920534134,3.723450410883484,59.45113392053413,3.672094225883484,59.38690592053413,3.672094225883484C59.38690592053413,3.672094225883484,55.207802920534135,3.672094225883484,55.207802920534135,3.672094225883484C55.13721892053413,3.672094225883484,55.08579892053413,3.7298698578834837,55.08579892053413,3.794065315883484C55.08579892053413,3.794065315883484,55.08579892053413,5.309070625883484,55.08579892053413,5.309070625883484C55.08579892053413,5.379681925883483,55.02802392053413,5.431044625883484,54.963892920534136,5.431044625883484C54.963892920534136,5.431044625883484,40.84734800053413,5.431044625883484,40.84734800053413,5.431044625883484C40.77673364753414,5.431044625883484,40.725375920534134,5.488820125883484,40.725375920534134,5.553008925883484C40.725375920534134,5.553008925883484,40.725375920534134,7.780587125883484,40.725375920534134,7.780587125883484C40.72537592053413,7.8511985258834835,40.77673364753414,7.902551525883484,40.84734800053413,7.902551525883484C40.84734800053413,7.902551525883484,40.84734800053413,7.902551525883484,40.84734800053413,7.902551525883484Z" fill="#3E3A39" fill-opacity="1"/><path d="M73.72168189677811,19.79801169346161C73.72168189677811,19.79801169346161,73.72168189677811,17.51266749346161,73.72168189677811,17.51266749346161C73.72168189677811,15.86285569346161,72.38648589677811,14.527593493461609,70.73660689677811,14.527593493461609C70.73660689677811,14.527593493461609,43.85170489677811,14.527593493461609,43.85170489677811,14.527593493461609C42.208305696778105,14.527593493461609,40.866632956778105,15.86285569346161,40.866632956778105,17.51266749346161C40.866632956778105,17.51266749346161,40.83453589677811,19.79801169346161,40.83453589677811,19.79801169346161C40.83453589677811,19.875045693461608,40.892310954778104,19.93282119346161,40.969344746778106,19.93282119346161C40.969344746778106,19.93282119346161,45.14202719677811,19.96492519346161,45.14202719677811,19.96492519346161C45.219061696778105,19.96492519346161,45.276837196778104,19.90714969346161,45.276837196778104,19.830115693461607C45.276837196778104,19.830115693461607,45.276837196778104,18.225233693461607,45.276837196778104,18.225233693461607C45.276837196778104,17.46772779346161,45.89311109677811,16.851454593461607,46.650616496778106,16.851454593461607C46.650616496778106,16.851454593461607,68.02760189677811,16.851454593461607,68.02760189677811,16.851454593461607C68.8172018967781,16.851454593461607,69.4591868967781,17.49340899346161,69.4591868967781,18.283009393461608C69.4591868967781,18.283009393461608,69.42702489677811,19.78517569346161,69.42702489677811,19.78517569346161C69.42702489677811,19.862210193461607,69.48480089677811,19.91998569346161,69.56183489677811,19.91998569346161C69.56183489677811,19.91998569346161,73.58687089677811,19.91998569346161,73.58687089677811,19.91998569346161C73.65754889677811,19.93282119346161,73.72168189677811,19.875045693461608,73.72168189677811,19.79801169346161C73.72168189677811,19.79801169346161,73.72168189677811,19.79801169346161,73.72168189677811,19.79801169346161Z" fill="#3E3A39" fill-opacity="1"/><path d="M67.43060751690675,20.966131569621275C67.50119151690674,20.966131569621275,67.55261151690674,20.908355969621276,67.55261151690674,20.84415766962128C67.55261151690674,20.84415766962128,67.55261151690674,19.059532959621276,67.55261151690674,19.059532959621276C67.55261151690674,18.98891833762128,67.49483551690673,18.937561869621277,67.43060751690675,18.937561869621277C67.43060751690675,18.937561869621277,47.15778158690674,18.937561869621277,47.15778158690674,18.937561869621277C47.08716724090674,18.937561869621277,47.03580951690674,18.99533788462128,47.03580951690674,19.059532959621276C47.03580951690674,19.059532959621276,47.03580951690674,20.84415766962128,47.03580951690674,20.84415766962128C47.03580951690674,20.914769069621276,47.09358669090674,20.966131569621275,47.15778158690674,20.966131569621275C47.15778158690674,20.966131569621275,67.43060751690675,20.966131569621275,67.43060751690675,20.966131569621275C67.43060751690675,20.966131569621275,67.43060751690675,20.966131569621275,67.43060751690675,20.966131569621275Z" fill="#3E3A39" fill-opacity="1"/><path d="M44.0378971413103,22.981839668588563C44.0378971413103,22.981839668588563,44.0378971413103,26.120978448588563,44.0378971413103,26.120978448588563C43.948023863310304,27.539697548588563,44.2304820293103,28.61175334858856,44.8852725593103,29.311483248588562C45.5336443493103,30.004791148588563,46.5800282493103,30.35785804858856,47.9923250493103,30.35785804858856C47.9923250493103,30.35785804858856,48.281193749310304,30.351445048588563,48.281193749310304,30.351445048588563C48.281193749310304,30.351445048588563,66.3135869493103,30.351445048588563,66.3135869493103,30.351445048588563C66.3135869493103,30.351445048588563,66.5961089493103,30.35785804858856,66.5961089493103,30.35785804858856C68.0083389493103,30.35785804858856,69.04829894931031,30.004791148588563,69.70308994931031,29.311483248588562C70.3578809493103,28.61175334858856,70.6404029493103,27.539697548588563,70.55046594931031,26.108142748588563C70.55046594931031,26.108142748588563,70.55046594931031,23.02035772858856,70.55046594931031,23.02035772858856C70.55046594931031,22.94974242858856,70.4926909493103,22.898385189588563,70.4285599493103,22.898385189588563C70.4285599493103,22.898385189588563,49.4110345493103,22.898385189588563,49.4110345493103,22.898385189588563C49.340423149310304,22.898385189588563,49.28906054931031,22.956162268588564,49.28906054931031,23.02035772858856C49.28906054931031,23.02035772858856,49.28906054931031,24.952629948588562,49.28906054931031,24.952629948588562C49.28906054931031,25.02324144858856,49.346836549310304,25.07460394858856,49.4110345493103,25.07460394858856C49.4110345493103,25.07460394858856,66.3007789493103,25.07460394858856,66.3007789493103,25.07460394858856C66.4612989493103,25.07460394858856,66.5832059493103,25.196568348588563,66.5832059493103,25.357059348588564C66.5832059493103,25.357059348588564,66.5832059493103,26.518994648588563,66.5832059493103,26.518994648588563C66.6346259493103,27.013294148588564,66.5318809493103,27.398464548588564,66.28151994931031,27.67450754858856C65.9861899493103,28.001902448588563,65.4919199493103,28.162383948588563,64.8114199493103,28.162383948588563C64.8114199493103,28.162383948588563,49.7897830493103,28.162383948588563,49.7897830493103,28.162383948588563C49.1028976493103,28.162383948588563,48.608588649310306,28.001902448588563,48.3197107493103,27.67450754858856C48.06934924931031,27.398464548588564,47.9666438493103,27.006881148588562,48.0115835493103,26.53183044858856C48.0115835493103,26.53183044858856,48.0115835493103,23.00751804858856,48.0115835493103,23.00751804858856C48.0115835493103,22.936903528588562,47.9537982493103,22.88554830858856,47.8896095493103,22.88554830858856C47.8896095493103,22.88554830858856,44.172706379310306,22.853448748588562,44.172706379310306,22.853448748588562C44.0956722053103,22.859868266188563,44.0378971413103,22.91764440358856,44.0378971413103,22.981839668588563C44.0378971413103,22.981839668588563,44.0378971413103,22.981839668588563,44.0378971413103,22.981839668588563Z" fill="#3E3A39" fill-opacity="1"/></g></svg>