<svg xmlns="http://www.w3.org/2000/svg" xmlns:xlink="http://www.w3.org/1999/xlink" fill="none" version="1.1" width="22" height="22" viewBox="0 0 22 22"><defs><clipPath id="master_svg0_528_248990/884_548918/531_409742"><rect x="0" y="0" width="22" height="22" rx="0"/></clipPath></defs><g clip-path="url(#master_svg0_528_248990/884_548918/531_409742)"><path d="M5.362548828125,0L16.500048828125,0L16.500048828125,5.2249999L5.362548828125,5.2249999L5.362548828125,0Z" fill="#205046" fill-opacity="1" style="mix-blend-mode:passthrough"/><path d="M5.362548828125,1.6500244140625L16.500048828125,1.6500244140625L16.500048828125,3.4375244140625L5.362548828125,3.4375244140625L5.362548828125,1.6500244140625Z" fill="#AFAEAE" fill-opacity="1" style="mix-blend-mode:passthrough"/><path d="M5.3624997,0C4.5374999,1.1,3.57499993,2.3375001,2.75,3.5750003L7.4249997,10.725L11.2749996,8.937501L5.3624997,0Z" fill="#21A491" fill-opacity="1" style="mix-blend-mode:passthrough"/><path d="M4.5374511518750005,1.0999755859375C4.262451171875,1.5124755759375,3.849951181875,1.9249755759375,3.574951171875,2.3374755859375L8.662451271875,10.0374755859375L9.899950971875,9.4874753859375L4.5374511518750005,1.0999755859375Z" fill="#FFFFFF" fill-opacity="1" style="mix-blend-mode:passthrough"/><path d="M16.4999751859375,0L16.6374749859375,0.1375C17.3249749859375,1.1,18.2874750859375,2.4750001,19.2499751859375,3.5750003L14.5749752859375,10.725L10.7249755859375,8.937501L16.4999751859375,0Z" fill="#21A491" fill-opacity="1" style="mix-blend-mode:passthrough"/><path d="M17.5999755859375,1.0999755859375C17.8749756859375,1.5124755759375,18.1499757859375,1.9249755759375,18.5624756859375,2.3374755859375L13.3374755859375,10.0374755859375L12.0999755859375,9.4874753859375L17.5999755859375,1.0999755859375Z" fill="#FFFFFF" fill-opacity="1" style="mix-blend-mode:passthrough"/><path d="M17.5999755859375,1.0999755859375C17.8749756859375,1.5124755759375,18.1499757859375,1.9249755759375,18.5624756859375,2.3374755859375L13.3374755859375,10.0374755859375L12.0999755859375,9.4874753859375L17.5999755859375,1.0999755859375Z" fill="#FFFFFF" fill-opacity="1" style="mix-blend-mode:passthrough"/><path d="M3.574951171875,14.57501220703125C3.574951171875,18.70001220703125,6.874951171875,22.00001220703125,10.999951371875,22.00001220703125C15.124951171875,22.00001220703125,18.562451171875,18.70001220703125,18.562451171875,14.57501220703125C18.562451171875,10.45001220703125,15.262451171875,7.01251220703125,10.999951371875,7.01251220703125C6.737451071875,7.01251220703125,3.574951171875,10.31251220703125,3.574951171875,14.57501220703125Z" fill="#F4AB8E" fill-opacity="1" style="mix-blend-mode:passthrough"/><path d="M5.0875244140625,14.5749754859375C5.0875244140625,16.6374754859375,6.1875244140625,18.6999755859375,8.1125245140625,19.6624755859375C9.9000244140625,20.7624755859375,12.2375245140625,20.7624755859375,14.0250244140625,19.6624755859375C15.8125244140625,18.5624751859375,17.0500244140625,16.6374754859375,17.0500244140625,14.5749754859375C17.0500244140625,11.2749755859375,14.4375248140625,8.6624755859375,11.1375246140625,8.6624755859375C7.8375244140625,8.6624755859375,5.0875244140625,11.2749755859375,5.0875244140625,14.5749754859375Z" fill="#DB9076" fill-opacity="1" style="mix-blend-mode:passthrough"/><path d="M11.0000243140625,8.8000244240625C14.3000240140625,8.8000244240625,16.9125244140625,11.4125247140625,16.9125244140625,14.5750246140625L16.9125244140625,14.437524814062499C16.9125244140625,11.1375246140625,14.3000240140625,8.5250244140625,11.0000243140625,8.5250244140625C7.7000244140625,8.5250244140625,5.0875244140625,11.1375246140625,5.0875244140625,14.437524814062499L5.0875244140625,14.5750246140625C5.0875244140625,11.4125247140625,7.7000244140625,8.8000244240625,11.0000243140625,8.8000244240625Z" fill="#BF7D68" fill-opacity="1" style="mix-blend-mode:passthrough"/><path d="M8.25,16.22501230703125C8.25,16.36251210703125,8.3875,16.50001240703125,8.3875,16.63751220703125C8.52500001,17.05001210703125,8.80000001,17.46251200703125,9.21250004,17.60001230703125C9.6250001,17.87501240703125,10.3125002,18.01251220703125,11.0000002,18.01251220703125C11.5500002,18.01251220703125,12.2375002,17.87501240703125,12.6500001,17.73751210703125C12.9250002,17.60001230703125,13.2000003,17.32501220703125,13.3375001,17.18751240703125C13.475000399999999,16.91251230703125,13.6125002,16.50001240703125,13.6125002,16.08751200703125C13.6125002,15.67501210703125,13.475000399999999,15.26251220703125,13.062500499999999,14.85001230703125C12.787500399999999,14.57501220703125,12.5125003,14.43751220703125,12.100000099999999,14.43751220703125C13.062500499999999,14.16251230703125,13.475000399999999,13.75001220703125,13.475000399999999,12.92501220703125C13.475000399999999,12.51251220703125,13.3375001,12.10001218703125,13.062500499999999,11.82501220703125C12.6500001,11.41251221703125,11.9625003,11.13751220703125,11.1375003,11.13751220703125C10.1750001,11.13751220703125,9.4875001,11.41251221703125,8.93750006,11.96251219703125C8.66250002,12.23751220703125,8.52500001,12.51251220703125,8.3875,12.92501220703125L10.037500099999999,13.20001220703125C10.1750001,12.65001220703125,10.45,12.51251220703125,11.0000002,12.51251220703125C11.5500002,12.51251220703125,11.8250003,12.78751220703125,11.8250003,13.20001220703125C11.8250003,13.75001220703125,11.412500099999999,14.02501220703125,10.725000099999999,14.02501220703125L9.9000001,14.02501220703125L9.9000001,15.40001200703125L10.8625002,15.40001200703125C11.1375003,15.40001200703125,11.412500099999999,15.40001200703125,11.5500002,15.53751230703125C11.8250003,15.67501210703125,11.9625003,15.95001220703125,11.9625003,16.22501230703125C11.9625003,16.77501200703125,11.5500002,17.05001210703125,11.0000002,17.05001210703125C10.5875001,17.05001210703125,10.3125002,16.91251230703125,10.037500099999999,16.77501200703125C9.9000001,16.63751220703125,9.9000001,16.50001240703125,9.7625,16.22501230703125L8.25,16.22501230703125Z" fill="#BF7D68" fill-opacity="1" style="mix-blend-mode:passthrough"/><path d="M8.25,15.94998789296875C8.25,16.08748769296875,8.3875,16.22498799296875,8.3875,16.36248779296875C8.52500001,16.77498769296875,8.80000001,17.18748759296875,9.21250004,17.32498789296875C9.6250001,17.59998799296875,10.3125002,17.73748779296875,11.0000002,17.73748779296875C11.5500002,17.73748779296875,12.2375002,17.59998799296875,12.6500001,17.46248769296875C12.9250002,17.32498789296875,13.2000003,17.04998779296875,13.3375001,16.91248799296875C13.475000399999999,16.63748789296875,13.6125002,16.22498799296875,13.6125002,15.81248759296875C13.6125002,15.39998769296875,13.475000399999999,14.98748779296875,13.062500499999999,14.57498789296875C12.787500399999999,14.29998779296875,12.5125003,14.16248779296875,12.100000099999999,14.16248779296875C13.062500499999999,13.88748789296875,13.475000399999999,13.47498779296875,13.475000399999999,12.64998779296875C13.475000399999999,12.23748779296875,13.3375001,11.82498777296875,13.062500499999999,11.54998779296875C12.6500001,11.13748780296875,11.9625003,10.86248779296875,11.1375003,10.86248779296875C10.1750001,10.86248779296875,9.4875001,11.13748780296875,8.93750006,11.68748778296875C8.66250002,11.96248779296875,8.52500001,12.23748779296875,8.3875,12.64998779296875L10.037500099999999,12.92498779296875C10.1750001,12.37498779296875,10.45,12.23748779296875,11.0000002,12.23748779296875C11.5500002,12.23748779296875,11.8250003,12.51248779296875,11.8250003,12.92498779296875C11.8250003,13.47498779296875,11.412500099999999,13.74998779296875,10.725000099999999,13.74998779296875L9.9000001,13.74998779296875L9.9000001,15.12498759296875L10.8625002,15.12498759296875C11.1375003,15.12498759296875,11.412500099999999,15.12498759296875,11.5500002,15.26248789296875C11.8250003,15.39998769296875,11.9625003,15.67498779296875,11.9625003,15.94998789296875C11.9625003,16.49998759296875,11.5500002,16.77498769296875,11.0000002,16.77498769296875C10.5875001,16.77498769296875,10.3125002,16.63748789296875,10.037500099999999,16.49998759296875C9.9000001,16.36248779296875,9.9000001,16.22498799296875,9.7625,15.94998789296875L8.25,15.94998789296875Z" fill="#FFFFFF" fill-opacity="1" style="mix-blend-mode:passthrough"/></g></svg>