<svg xmlns="http://www.w3.org/2000/svg" xmlns:xlink="http://www.w3.org/1999/xlink" fill="none" version="1.1" width="22" height="22" viewBox="0 0 22 22"><defs><clipPath id="master_svg0_528_248990/884_548854/531_409742"><rect x="0" y="0" width="22" height="22" rx="0"/></clipPath></defs><g clip-path="url(#master_svg0_528_248990/884_548854/531_409742)"><path d="M5.37109375,0L16.54296875,0L16.54296875,5.15625L5.37109375,5.15625L5.37109375,0Z" fill="#831A27" fill-opacity="1" style="mix-blend-mode:passthrough"/><path d="M5.37109375,1.71875L16.54296875,1.71875L16.54296875,3.4375L5.37109375,3.4375L5.37109375,1.71875Z" fill="#AFAEAE" fill-opacity="1" style="mix-blend-mode:passthrough"/><path d="M5.368460925,0.016357421875L5.254808625,0.101005851875C4.550164025,1.054869021875,3.560121115,2.391798521875,2.697265625,3.545165821875L7.375488325,10.682876421875L11.279628725,8.922145821875L5.368460925,0.016357421875Z" fill="#D83150" fill-opacity="1" style="mix-blend-mode:passthrough"/><path d="M4.489736321875,1.13525390625C4.203263581875,1.52201565625,3.899517741875,1.93146484625,3.594482421875,2.3417734062499997L8.676825521875,10.09599970625L9.978220021875,9.50913240625L4.489736321875,1.13525390625Z" fill="#FFFFFF" fill-opacity="1" style="mix-blend-mode:passthrough"/><path d="M16.570330596875,0.016357421875L16.758018496875,0.101005851875C17.462620296875002,1.054869021875,18.452705896875,2.391798521875,19.315562296875,3.545165821875L14.637337696875,10.682876421875L10.733154296875,8.922188721875L16.570330596875,0.016357421875Z" fill="#D83150" fill-opacity="1" style="mix-blend-mode:passthrough"/><path d="M17.522907728125,1.13525390625C17.809423928125,1.52201565625,18.113083828125,1.93146484625,18.418205228125,2.3417734062499997L13.335775228125,10.09599970625L12.034423828125,9.50913240625L17.522907728125,1.13525390625Z" fill="#FFFFFF" fill-opacity="1" style="mix-blend-mode:passthrough"/><path d="M17.522907728125,1.13525390625C17.809423928125,1.52201565625,18.113083828125,1.93146484625,18.418205228125,2.3417734062499997L13.335775228125,10.09599970625L12.034423828125,9.50913240625L17.522907728125,1.13525390625Z" fill="#FFFFFF" fill-opacity="1" style="mix-blend-mode:passthrough"/><path d="M15.85177756875,8.82965996171875L15.97707506875,8.63849176171875C14.91462896875,7.69206226171875,13.58066496875,7.04426555171875,12.10632066875,6.82684326171875L11.92529296875,7.10304630171875C13.41351566875,7.28549144171875,14.76651616875,7.90505806171875,15.85177756875,8.82965996171875Z" fill="#831A27" fill-opacity="1" style="mix-blend-mode:passthrough"/><path d="M14.69648150625,8.01997685578125L14.83887920625,7.80268424578125C14.43086080625,7.55841192578125,14.00036424625,7.35381857578125,13.55329704625,7.19171142578125L13.39306640625,7.43620361578125C13.84525123625,7.58855047578125,14.28173231625,7.78404235578125,14.69648150625,8.01997685578125Z" fill="#AFAEAE" fill-opacity="1" style="mix-blend-mode:passthrough"/><path d="M6.160696670625,8.82962222734375C7.2425636906249995,7.9078998273437495,8.590407590625,7.28923541734375,10.073087190625,7.10459902734375L9.890169390625001,6.82904052734375C8.422142290625,7.04878246734375,7.0939782906249995,7.69546216734375,6.035400390625,8.638455027343749L6.160696670625,8.82962222734375Z" fill="#831A27" fill-opacity="1" style="mix-blend-mode:passthrough"/><path d="M7.316226735,8.01997685578125C7.730951545,7.78399622578125,8.167437675,7.58850264578125,8.619640925,7.43620361578125L8.459410325,7.19171142578125C8.012343105,7.35381857578125,7.581846625,7.55841192578125,7.173828125,7.80268424578125L7.316226735,8.01997685578125Z" fill="#AFAEAE" fill-opacity="1" style="mix-blend-mode:passthrough"/><path d="M18.48433915625,14.5234556234375Q18.48433915625,14.7070584234375,18.47533115625,14.890440023437499Q18.46632415625,15.0738220234375,18.44833015625,15.2565403234375Q18.43033615625,15.4392586234375,18.40339915625,15.6208734234375Q18.37646315625,15.8024893234375,18.340649156250002,15.9825639234375Q18.304836156249998,16.162638623437502,18.26023115625,16.340739223437502Q18.21562715625,16.5188389234375,18.16233815625,16.694536223437503Q18.109049156250002,16.870232623437502,18.04720515625,17.0431022234375Q17.98536015625,17.2159715234375,17.91510915625,17.3855995234375Q17.844858156249998,17.5552255234375,17.766370156249998,17.7212005234375Q17.68788115625,17.8871765234375,17.601345156249998,18.049099523437498Q17.514808156249998,18.2110235234375,17.42043215625,18.3685035234375Q17.32605515625,18.525985523437498,17.22406815625,18.678645523437503Q17.122079156250003,18.831304523437502,17.012724156250002,18.9787765234375Q16.90336915625,19.1262475234375,16.78691115625,19.2681755234375Q16.67045215625,19.4101015234375,16.547171156250002,19.5461425234375Q16.42389115625,19.6821825234375,16.29408415625,19.8120085234375Q16.16427815625,19.9418355234375,16.02825815625,20.065135523437498Q15.89223815625,20.188435523437498,15.75033515625,20.3049125234375Q15.60842915625,20.4213885234375,15.46098015625,20.5307595234375Q15.31353215625,20.6401315234375,15.16089615625,20.7421355234375Q15.00826015625,20.844140523437503,14.85080315625,20.9385305234375Q14.69334615625,21.0329215234375,14.53144815625,21.1194715234375Q14.36955015625,21.206020523437502,14.20360015625,21.284521523437498Q14.03765115625,21.3630205234375,13.86805015625,21.433282523437498Q13.69845015625,21.503544523437498,13.52560715625,21.5653995234375Q13.35276415625,21.627252523437498,13.17709445625,21.6805495234375Q13.00142475625,21.7338465234375,12.82335185625,21.7784585234375Q12.64527895625,21.8230695234375,12.46523185625,21.8588885234375Q12.28518485625,21.8947075234375,12.10359765625,21.9216485234375Q11.92201045625,21.9485885234375,11.73932075625,21.9665855234375Q11.55663015625,21.9845805234375,11.373277156250001,21.9935895234375Q11.18992425625,22.0025995234375,11.00634955625,22.0025995234375Q10.82277535625,22.0025995234375,10.63942245625,21.9935905234375Q10.45606895625,21.9845805234375,10.27337835625,21.9665865234375Q10.09068775625,21.948589523437498,9.90910005625,21.9216485234375Q9.72751285625,21.8947085234375,9.54746575625,21.858889523437497Q9.36741875625,21.8230705234375,9.18934585625,21.778457523437503Q9.011273356250001,21.7338465234375,8.83560375625,21.6805505234375Q8.65993355625,21.627252523437498,8.48709015625,21.5653995234375Q8.314246656249999,21.503544523437498,8.144646156250001,21.433282523437498Q7.97504515625,21.3630205234375,7.80909635625,21.284521523437498Q7.64314695625,21.206020523437502,7.48124935625,21.1194715234375Q7.319351156250001,21.0329215234375,7.16189435625,20.9385305234375Q7.00443745625,20.844140523437503,6.85180095625,20.7421355234375Q6.69916435625,20.6401315234375,6.55171655625,20.5307595234375Q6.40426825625,20.4213885234375,6.26236345625,20.3049115234375Q6.12045855625,20.1884345234375,5.98443885625,20.0651345234375Q5.848419156249999,19.9418355234375,5.71861265625,19.8120075234375Q5.5888061562499995,19.6821815234375,5.46552515625,19.5461405234375Q5.3422441562500005,19.410099523437502,5.22578585625,19.2681735234375Q5.10932745625,19.1262465234375,4.99997225625,18.9787755234375Q4.89061715625,18.831304523437502,4.78862865625,18.678644523437498Q4.68664025625,18.5259835234375,4.59226415625,18.3685035234375Q4.49788820625,18.211021523437502,4.4113518562500005,18.0490985234375Q4.32481551625,17.8871755234375,4.24632739625,17.7212005234375Q4.16783922625,17.5552255234375,4.09758841625,17.3855995234375Q4.02733754625,17.2159715234375,3.96549329625,17.0431022234375Q3.90364897625,16.870232623437502,3.85036018625,16.694536223437503Q3.79707136625,16.5188389234375,3.75246645625,16.340739223437502Q3.70786154625,16.162638623437502,3.67204797625,15.9825639234375Q3.63623440625,15.8024893234375,3.60929846725,15.6208744234375Q3.58236253225,15.4392586234375,3.56436910825,15.2565403234375Q3.54637568225,15.0738220234375,3.53736811965,14.890440023437499Q3.52836055755,14.7070584234375,3.52836055755,14.5234556234375Q3.52836055755,14.339853323437499,3.53736812065,14.1564717234375Q3.54637568425,13.973090123437501,3.56436911225,13.790371923437501Q3.58236254025,13.607652623437499,3.60929848225,13.4260373234375Q3.63623441625,13.2444219234375,3.67204798625,13.0643468234375Q3.70786155625,12.884272123437501,3.75246646625,12.7061720234375Q3.79707139625,12.528071423437499,3.85036021625,12.3523750234375Q3.90364903625,12.1766777234375,3.96549332625,12.0038080234375Q4.02733760625,11.8309374234375,4.09758847625,11.661310623437501Q4.16783928625,11.491683923437499,4.24632739625,11.3257093234375Q4.32481557625,11.1597342234375,4.41135191625,10.9978113234375Q4.49788832625,10.8358879234375,4.59226425625,10.6784067234375Q4.68664035625,10.5209255234375,4.78862885625,10.3682654234375Q4.89061715625,10.2156052234375,4.99997235625,10.0681343234375Q5.10932745625,9.9206633234375,5.22578585625,9.7787366234375Q5.3422441562500005,9.636809823437499,5.46552515625,9.5007691234375Q5.5888061562499995,9.3647284234375,5.71861265625,9.2349019234375Q5.848419156249999,9.1050753234375,5.98443885625,8.9817753234375Q6.12045855625,8.8584752234375,6.26236345625,8.7419989234375Q6.40426825625,8.6255226234375,6.55171635625,8.5161507234375Q6.69916435625,8.4067787234375,6.85180095625,8.3047745234375Q7.00443745625,8.2027703234375,7.16189405625,8.1083797234375Q7.319351156250001,8.0139890334375,7.48124935625,7.9274393334374995Q7.64314695625,7.8408895734375,7.80909635625,7.7623893634375Q7.97504515625,7.6838890334375,8.144646156250001,7.6136273734375Q8.314246656249999,7.5433657134375,8.48709015625,7.4815118334375Q8.65993305625,7.4196579734375,8.83560325625,7.3663609334375Q9.01127295625,7.3130638934375,9.18934585625,7.2684520734374995Q9.36741875625,7.2238402634375,9.54746575625,7.1880211534375Q9.72751285625,7.1522020534375,9.90910055625,7.1252619474375Q10.09068775625,7.0983218474375,10.27337885625,7.0803256404375Q10.45606895625,7.0623294334375,10.63942195625,7.0533204786375Q10.82277535625,7.0443115234375,11.00634955625,7.0443115234375Q11.18992425625,7.0443115234375,11.37327675625,7.0533204786375Q11.55663015625,7.0623294334375,11.73932075625,7.0803256404375Q11.92201045625,7.0983218474375,12.10359765625,7.1252619474375Q12.28518485625,7.1522020534375,12.46523285625,7.1880211534375Q12.64527985625,7.2238402634375,12.82335285625,7.2684520734374995Q13.00142575625,7.3130638934375,13.17709545625,7.3663609334375Q13.35276415625,7.4196579734375,13.52560805625,7.4815118334375Q13.69845015625,7.5433657134375,13.86805115625,7.6136273734375Q14.03765115625,7.6838890334375,14.20360115625,7.7623893034375Q14.36955115625,7.8408895734375,14.53144915625,7.9274393334374995Q14.69334715625,8.0139890334375,14.85080315625,8.1083796234375Q15.00826015625,8.2027703234375,15.16089615625,8.3047745234375Q15.31353315625,8.4067787234375,15.46098115625,8.5161507234375Q15.60843115625,8.6255226234375,15.75033615625,8.7419989234375Q15.89224015625,8.8584752234375,16.02825915625,8.9817753234375Q16.16427815625,9.1050753234375,16.29408515625,9.2349019234375Q16.423892156249998,9.3647284234375,16.54717315625,9.5007691234375Q16.670454156250003,9.636809823437499,16.78691315625,9.7787366234375Q16.90337115625,9.9206633234375,17.01272615625,10.0681343234375Q17.12208015625,10.2156052234375,17.22406815625,10.3682656234375Q17.326057156250002,10.5209255234375,17.42043315625,10.6784069234375Q17.514808156249998,10.835888123437499,17.601346156250003,10.9978113234375Q17.68788115625,11.1597342234375,17.766370156249998,11.3257093234375Q17.844858156249998,11.491683923437499,17.91510915625,11.661310623437501Q17.98536015625,11.8309374234375,18.04720515625,12.0038075234375Q18.109049156250002,12.1766777234375,18.16233815625,12.3523745234375Q18.21562715625,12.528071423437499,18.260232156249998,12.7061715234375Q18.304836156249998,12.884271623437499,18.340649156250002,13.064346323437501Q18.37646315625,13.2444210234375,18.40340015625,13.4260368234375Q18.43033615625,13.607652623437499,18.44833015625,13.790371923437501Q18.46632415625,13.973090123437501,18.47533115625,14.1564712234375Q18.48433915625,14.339853323437499,18.48433915625,14.5234556234375Z" fill="#EBC059" fill-opacity="1" style="mix-blend-mode:passthrough"/><path d="M16.937763171874998,14.523447015624999Q16.937763171874998,14.669055015625,16.930617171875,14.814487015625Q16.923473171875003,14.959919915625001,16.909201171875,15.104826415625Q16.894930171875,15.249733015625,16.873564171875,15.393764515625Q16.852198171875,15.537796015625,16.823791171875,15.680605915625Q16.795384171875,15.823415715625,16.760004171875,15.964660615625Q16.724624171875,16.105904615625,16.682358171875002,16.245243115625Q16.640089171874997,16.384580615624998,16.591035171875,16.521676515625Q16.541981171875,16.658772515625,16.486259171875,16.793296815625Q16.430538171875,16.927820215624998,16.368282171875002,17.059449215625Q16.306028171875,17.191077215625,16.237389171875,17.319492315625Q16.168751171875,17.447906515625,16.093893171875,17.572798715624998Q16.019035171875,17.697690915625,15.938140171875,17.818758915625Q15.857244171875,17.939826915624998,15.770506171875,18.056780815625Q15.683768171875,18.173734615625,15.591396171875,18.286291115624998Q15.499023171875,18.398847615625,15.401239171875,18.506734815625002Q15.303454171875,18.614623015625,15.200494171875,18.717584015625Q15.097533171875,18.820544015625,14.989644971875,18.918328015625Q14.881756771875,19.016113015625002,14.769200371875,19.108486015624997Q14.656643871875,19.200858015625002,14.539689971875,19.287597015625Q14.422737071875,19.374334015625,14.301668171875,19.455231015625Q14.180599171875,19.536125015625,14.055707971875,19.610983015625Q13.930816671875,19.685841015625,13.802402471875,19.754480015625Q13.673987371875,19.823118015625,13.542358371875,19.885373015625Q13.410730371875,19.947628015625,13.276206971875,20.003350015625Q13.141682671875,20.059072015625,13.004587171875,20.108126015625Q12.867490771875,20.157179015624997,12.728153271875,20.199448015625002Q12.588815171875,20.241714015625,12.447570771875,20.277095015625Q12.306326871875001,20.312475015624997,12.163516971875,20.340881015625Q12.020707171875,20.369288015625,11.876675171875,20.390654015625Q11.732643571875,20.412020015625,11.587737071875,20.426292015625002Q11.442830071875001,20.440563015625003,11.297397571874999,20.447708015625Q11.151965171875,20.454853015624998,11.006357171874999,20.454853015624998Q10.860749271875001,20.454853015624998,10.715316771874999,20.447707015625Q10.569884271875,20.440563015625003,10.424977771875,20.426291015625Q10.280071271875,20.412020015625,10.136038771875,20.390654015625Q9.992007271875,20.369288015625,9.849196871875,20.340881015625Q9.706386571875,20.312474015625,9.565142671875,20.277094015625Q9.423898671875001,20.241714015625,9.284560671875,20.199448015625002Q9.145222671875,20.157179015624997,9.008126271875,20.108125015625Q8.871030071875,20.059071015625,8.736505971875001,20.003349015625Q8.601981871875001,19.947628015625,8.470354071875,19.885372015625002Q8.338726071875,19.823118015625,8.210311671875,19.754479015625Q8.081896771875,19.685841015625,7.957005071875,19.610983015625Q7.832112771875,19.536125015625,7.711044271875,19.455230015625Q7.589975871875,19.374334015625,7.473022471875,19.287596015625Q7.356069371875,19.200858015625002,7.243513071875,19.108486015624997Q7.1309566718749995,19.016113015625002,7.023068471875,18.918329015624998Q6.915179971875,18.820544015625,6.812219571875,18.717584015625Q6.709259271875,18.614623015625,6.611475071875,18.506734815625002Q6.5136909718750005,18.398846615625,6.421318271875,18.286290215625Q6.328945671875,18.173733715624998,6.242207071875,18.056779815625Q6.155468471875,17.939826915624998,6.074573161875,17.818758015625Q5.993677791875,17.697689015625002,5.918820441875,17.572797815625Q5.843963031875,17.447906515625,5.775323991875,17.319492315625Q5.706684951875,17.191077215625,5.6444295618750004,17.059448215625Q5.582174181875,16.927820215624998,5.526452481875,16.793296815625Q5.470730781875,16.658772515625,5.421676991875,16.521677015625002Q5.372623201875,16.384580615624998,5.3303554618749995,16.245243115625Q5.288087741875,16.105905015624998,5.252707931875,15.964660615625Q5.217328131875,15.823416715625001,5.188921451875,15.680606815625Q5.160514771875,15.537797015625,5.139149672875,15.393765015625Q5.117784570875,15.249733415625,5.103512508875,15.104826915625Q5.089240445875,14.959919915625001,5.082095808775,14.814487415624999Q5.074951171875,14.669055015625,5.074951171875,14.523447015624999Q5.074951171875,14.377839115625001,5.082095808775,14.232406615624999Q5.089240445875,14.086974115625,5.103512508875,13.942067615625Q5.117784570875,13.797161115625,5.139149672875,13.653128615625Q5.160514771875,13.509097115625,5.188921451875,13.366286715625Q5.217328131875,13.223476415625,5.252707931875,13.082232515625Q5.288087741875,12.940988515625001,5.3303554618749995,12.801650515625Q5.372623201875,12.662312515625,5.421676991875,12.525216115625Q5.470730781875,12.388119915625,5.526452481875,12.253595815625001Q5.582174181875,12.119071715625001,5.6444295618750004,11.987443915625Q5.706684951875,11.855815915625,5.775323991875,11.727401515625Q5.843963031875,11.598986615625,5.918820441875,11.474094915624999Q5.993677791875,11.349202615625,6.074573161875,11.228134115625Q6.155468471875,11.107065715625,6.242207071875,10.990112315625Q6.3289454718750005,10.873159215625,6.421318171875,10.760602915625Q6.513690871875,10.648046515625,6.611474971875,10.540158315625Q6.709259271875,10.432269815625,6.812219571875,10.329309415625Q6.915179971875,10.226349115625,7.023068171875,10.128564915625Q7.1309566718749995,10.030780815625,7.243512871875,9.938408115625Q7.356069071875,9.846035515625,7.473022471875,9.759296915625Q7.589975871875,9.672558315625,7.711044271875,9.591663005625Q7.832112771875,9.510767635625,7.957004771875,9.435910285625Q8.081896771875,9.361052875624999,8.210311671875,9.292413835625Q8.338726071875,9.223774795625,8.470354071875,9.161519405625Q8.601981871875001,9.099264025625,8.736505971875001,9.043542325625Q8.871030071875,8.987820625625,9.008126271875,8.938766835625Q9.145222671875,8.889713045625,9.284560671875,8.847445305625Q9.423898671875001,8.805177585625,9.565142671875,8.769797775625Q9.706386571875,8.734417975625,9.849196871875,8.706011295625Q9.992007271875,8.677604615625,10.136038771875,8.656239516625Q10.280071271875,8.634874414625,10.424977771875,8.620602352625Q10.569884271875,8.606330289625,10.715316771874999,8.599185652525Q10.860749271875001,8.592041015625,11.006357171874999,8.592041015625Q11.151965171875,8.592041015625,11.297397171875,8.599185652525Q11.442830071875001,8.606330289625,11.587736571875,8.620602352625Q11.732643171875,8.634874414625,11.876674671875,8.656239516625Q12.020706171875,8.677604615625,12.163516071875,8.706011295625Q12.306325871875,8.734417975625,12.447570771875,8.769797775625Q12.588814771875,8.805177585625,12.728153271875,8.847445305625Q12.867490771875,8.889713045625,13.004586671875,8.938766835625Q13.141682671875,8.987820625625,13.276206971875,9.043542325625Q13.410730371875,9.099264025625,13.542359371875,9.161519405625Q13.673987371875,9.223774795625,13.802402471875,9.292413835625Q13.930816671875,9.361052875624999,14.055708871875,9.435910285625Q14.180601071875,9.510767635625,14.301669071875,9.591663005625Q14.422737071875,9.672558315625,14.539690971875,9.759296915625Q14.656644771875,9.846035315625,14.769201271875,9.938408015625Q14.881757771875,10.030780715625,14.989644971875,10.128564815625Q15.097533171875,10.226349115625,15.200494171875,10.329309415625Q15.303454171875,10.432269815625,15.401238171875,10.540158015625Q15.499023171875,10.648046515625,15.591396171875,10.760602715625Q15.683768171875,10.873158915625,15.770507171875,10.990112315625Q15.857244171875,11.107065715625,15.938141171875,11.228134115625Q16.019035171875,11.349202615625,16.093893171875,11.474094615624999Q16.168751171875,11.598986615625,16.237390171875,11.727401515625Q16.306028171875,11.855815915625,16.368283171875,11.987443915625Q16.430538171875,12.119071715625001,16.486260171875,12.253595815625001Q16.541982171875,12.388119915625,16.591036171875,12.525216115625Q16.640089171874997,12.662312515625,16.682358171875002,12.801650515625Q16.724624171875,12.940988515625001,16.760005171875,13.082232515625Q16.795385171874997,13.223476415625,16.823791171875,13.366286715625Q16.852198171875,13.509097115625,16.873564171875,13.653128615625Q16.894930171875,13.797161115625,16.909202171875002,13.942067615625Q16.923473171875003,14.086974115625,16.930618171875,14.232406615624999Q16.937763171874998,14.377839115625001,16.937763171874998,14.523447015624999Z" fill="#DFAB38" fill-opacity="1" style="mix-blend-mode:passthrough"/><path d="M11.006356671875,8.867255865625C14.236188871875,8.867255865625,16.862825171875002,11.448818415625,16.935959171874998,14.661032715625C16.936990171875,14.615271115625,16.937721171874998,14.569423715625,16.937721171874998,14.523447015624999C16.937721171874998,11.247638915625,14.282167471875,8.592041015625,11.006357671875,8.592041015625C7.730506371875,8.592041015625,5.074951171875,11.247638915625,5.074951171875,14.523447015624999C5.074951171875,14.569423715625,5.075638504055,14.615271115625,5.076712722875,14.661032715625C5.149845622875,11.448774815625,7.776524971875,8.867255865625,11.006356671875,8.867255865625Z" fill="#E0862C" fill-opacity="1" style="mix-blend-mode:passthrough"/><path d="M13.1091099125,17.6168432046875L8.9814453125,17.6168432046875L8.9814453125,17.2274170046875C9.9939183125,17.2797952046875,10.4349925125,16.9810767046875,10.3053981125,16.3317771046875L10.3053981125,12.2430856046875C10.4088235125,11.8281368046875,10.0456092125,11.6462069146875,9.2150660725,11.6978978046875L9.2150660725,11.2695421546875C10.123425512499999,11.2957102646875,10.7854018125,11.1010190546875,11.2009961125,10.6854248046875L11.824043012499999,10.6854248046875L11.824043012499999,16.3318191046875C11.6938476125,16.9810767046875,12.1221604125,17.2798390046875,13.1090660125,17.227458904687502L13.1091099125,17.6168432046875L13.1091099125,17.6168432046875Z" fill="#AF7B1F" fill-opacity="1" style="mix-blend-mode:passthrough"/><path d="M13.1091099125,17.35555220078125L8.9814453125,17.35555220078125L8.9814453125,16.96612640078125C9.9939183125,17.01846270078125,10.4349925125,16.71974420078125,10.3053981125,16.07052850078125L10.3053981125,11.98179410078125C10.4088235125,11.56684530078125,10.0456092125,11.38487255078125,9.2150660725,11.43660630078125L9.2150660725,11.00825065078125C10.123425512499999,11.03446162078125,10.7854018125,10.83972755078125,11.2009961125,10.42413330078125L11.824043012499999,10.42413330078125L11.824043012499999,16.07052850078125C11.6938476125,16.71970030078125,12.1221604125,17.01846270078125,13.1090660125,16.96612640078125L13.1091099125,17.35555220078125L13.1091099125,17.35555220078125Z" fill="#FFFFFF" fill-opacity="1" style="mix-blend-mode:passthrough"/><path d="M15.97723115625,8.63852315L15.85193315625,8.82969115C17.42613715625,10.17083145,18.43714815625,12.153410449999999,18.48102015625,14.37309025C18.48196515625,14.32303195,18.48291015625,14.272973050000001,18.48291015625,14.22269965C18.482866156249997,12.001989349999999,17.51439515625,10.00785235,15.97723115625,8.63852315ZM6.03546455625,8.63852315C4.49830078625,10.00785165,3.52978515625,12.001988449999999,3.52978515625,14.22265625C3.52978515625,14.27292965,3.53068733215,14.32298805,3.53167594915,14.37304685C3.57550407225,12.15336705,4.58655865625,10.17083235,6.16076205625,8.82964845L6.03546455625,8.63852315ZM11.00634765625,6.74609375C10.62701895625,6.74609375,10.25439405625,6.774581946,9.89023395625,6.82910946L10.07315155625,7.1046679600000004C10.688180956250001,7.02815211,11.31028935625,7.02761838,11.92544935625,7.10307845L12.10647675625,6.826875418C11.74221615625,6.773094406,11.374519356250001,6.74609458923339,11.00634765625,6.74609375Z" fill="#AFAEAE" fill-opacity="1" style="mix-blend-mode:passthrough"/></g></svg>