<svg xmlns="http://www.w3.org/2000/svg" xmlns:xlink="http://www.w3.org/1999/xlink" fill="none" version="1.1" width="22" height="22" viewBox="0 0 22 22"><defs><clipPath id="master_svg0_528_248990/884_548886/531_409742"><rect x="0" y="0" width="22" height="22" rx="0"/></clipPath></defs><g clip-path="url(#master_svg0_528_248990/884_548886/531_409742)"><path d="M5.4140625,0L16.5859375,0L16.5859375,5.15625L5.4140625,5.15625L5.4140625,0Z" fill="#174A7A" fill-opacity="1" style="mix-blend-mode:passthrough"/><path d="M5.4140625,1.71875L16.5859375,1.71875L16.5859375,3.4375L5.4140625,3.4375L5.4140625,1.71875Z" fill="#AFAEAE" fill-opacity="1" style="mix-blend-mode:passthrough"/><path d="M5.4113076046875,0.016357421875L5.2976553046875,0.101005851875C4.5930107046875,1.054869021875,3.6029677946875,2.391798521875,2.7401123046875,3.545165821875L7.4183350046875,10.682876421875L11.3224754046875,8.922145821875L5.4113076046875,0.016357421875Z" fill="#2E79BF" fill-opacity="1" style="mix-blend-mode:passthrough"/><path d="M4.5325830015625,1.13525390625C4.2461102615625,1.52201565625,3.9423644215625,1.93146484625,3.6373291015625,2.3417734062499997L8.7196722015625,10.09599970625L10.0210667015625,9.50913240625L4.5325830015625,1.13525390625Z" fill="#FFFFFF" fill-opacity="1" style="mix-blend-mode:passthrough"/><path d="M16.613256446875,0.016357421875L16.800944346875,0.101005851875C17.505546046875,1.054869021875,18.495631646875,2.391798521875,19.358488046875,3.545165821875L14.680263746875,10.682876421875L10.776123046875,8.922145821875L16.613256446875,0.016357421875Z" fill="#2E79BF" fill-opacity="1" style="mix-blend-mode:passthrough"/><path d="M17.565876478125,1.13525390625C17.852392678125,1.52201565625,18.156052578125,1.93146484625,18.461173978125,2.3417734062499997L13.378743978125,10.09599970625L12.077392578125,9.50913240625L17.565876478125,1.13525390625Z" fill="#FFFFFF" fill-opacity="1" style="mix-blend-mode:passthrough"/><path d="M17.565876478125,1.13525390625C17.852392678125,1.52201565625,18.156052578125,1.93146484625,18.461173978125,2.3417734062499997L13.378743978125,10.09599970625L12.077392578125,9.50913240625L17.565876478125,1.13525390625Z" fill="#FFFFFF" fill-opacity="1" style="mix-blend-mode:passthrough"/><path d="M15.8948683890625,8.82965996171875L16.0201658890625,8.63849176171875C14.9577197890625,7.69210505171875,13.6237557890625,7.04430835171875,12.1494114890625,6.82684326171875L11.9683837890625,7.10304630171875C13.4566064890625,7.28549144171875,14.8096069890625,7.90505806171875,15.8948683890625,8.82965996171875Z" fill="#174A7A" fill-opacity="1" style="mix-blend-mode:passthrough"/><path d="M14.73945025625,8.01997768578125L14.88184795625,7.80264139578125C14.47382785625,7.55838337578125,14.04333132625,7.35380430578125,13.59626579625,7.19171142578125L13.43603515625,7.43624639578125C13.88823342625,7.58854290578125,14.32471787625,7.78402131578125,14.73945025625,8.01997768578125Z" fill="#AFAEAE" fill-opacity="1" style="mix-blend-mode:passthrough"/><path d="M6.203665420625,8.82962222734375C7.2855324406249995,7.9078998273437495,8.633376340625,7.28923541734375,10.116055940625,7.10459902734375L9.933138140625001,6.82904052734375C8.465111040625,7.04878246734375,7.1369470406249995,7.69546216734375,6.078369140625,8.63841142734375L6.203665420625,8.82962222734375Z" fill="#174A7A" fill-opacity="1" style="mix-blend-mode:passthrough"/><path d="M7.3590734146875,8.01997685578125C7.7738074646875,7.78401380578125,8.2102919246875,7.58852195578125,8.6624876046875,7.43620361578125L8.5022570046875,7.19171142578125C8.0551822746875,7.35380011578125,7.6246840646875,7.55839514578125,7.2166748046875,7.80268424578125L7.3590734146875,8.01997685578125Z" fill="#AFAEAE" fill-opacity="1" style="mix-blend-mode:passthrough"/><path d="M18.525880906250002,14.5234375Q18.525880906250002,14.7069769,18.516873906249998,14.890295Q18.50786890625,15.0736132,18.48987890625,15.2562695Q18.47188790625,15.4389248,18.44495690625,15.6204767Q18.41802590625,15.8020296,18.38221890625,15.9820423Q18.346412906250002,16.162055000000002,18.30181590625,16.3400936Q18.25721990625,16.5181332,18.20394090625,16.693768499999997Q18.15066290625,16.869404799999998,18.088829906249998,17.042215300000002Q18.026996906249998,17.215025,17.95675990625,17.384593000000002Q17.88652190625,17.554161,17.80804790625,17.720078Q17.72957590625,17.885996,17.64305690625,18.047864Q17.556536906250003,18.20973,17.462177906249998,18.367158Q17.36781890625,18.524585000000002,17.26584990625,18.677193000000003Q17.16388090625,18.8298,17.05454790625,18.977221Q16.94521390625,19.12464,16.82877890625,19.266519000000002Q16.71234190625,19.408396,16.58908490625,19.54439Q16.46582690625,19.680384,16.336044906250002,19.810164999999998Q16.20626490625,19.939947,16.070270906250002,20.063205Q15.93427690625,20.186462,15.79239890625,20.302898Q15.65051990625,20.419334,15.50309990625,20.528667Q15.35568090625,20.638001,15.20307290625,20.73997Q15.05046490625,20.84194,14.89303790625,20.936298Q14.73561090625,21.030656999999998,14.57374390625,21.117176Q14.41187690625,21.203695,14.24595890625,21.282169Q14.08004190625,21.360641,13.91047290625,21.430880000000002Q13.74090490625,21.501117,13.56809420625,21.562949Q13.39528460625,21.624783,13.21964840625,21.678061Q13.04401210625,21.73134,12.86597350625,21.775936Q12.68793490625,21.820532999999998,12.50792220625,21.856339Q12.32790950625,21.892146,12.14635660625,21.919077Q11.96480370625,21.946009,11.78214930625,21.963999Q11.59949300625,21.981989,11.41617490625,21.990993Q11.23285670625,22,11.049317406250001,22Q10.86577800625,22,10.68245930625,21.990994Q10.49914120625,21.981989,10.31648590625,21.963999Q10.133830106249999,21.946008,9.952277206249999,21.919077Q9.770724306249999,21.892145,9.59071160625,21.856339Q9.410698906250001,21.820532,9.23266030625,21.775936Q9.05462170625,21.73134,8.878985406249999,21.678061Q8.70334910625,21.624783,8.530538606250001,21.562949Q8.35772800625,21.501117,8.18815990625,21.430880000000002Q8.01859190625,21.360641,7.85267450625,21.282169Q7.68675710625,21.203695,7.524889706250001,21.117176Q7.36302230625,21.030656999999998,7.20559520625,20.936298Q7.048168206250001,20.84194,6.89556070625,20.73997Q6.74295330625,20.638001,6.59553340625,20.528667Q6.44811340625,20.419334,6.30623550625,20.302898Q6.16435770625,20.186462,6.02836390625,20.063204Q5.89237020625,19.939947,5.76258850625,19.810164999999998Q5.632806506250001,19.680384,5.50954910625,19.54439Q5.38629170625,19.408396,5.26985560625,19.266519000000002Q5.15341950625,19.12464,5.0440850062500004,18.977220000000003Q4.93475080625,18.8298,4.83278190625,18.677193000000003Q4.73081290625,18.524585000000002,4.63645480625,18.367158Q4.54209679625,18.20973,4.45557695625,18.047864Q4.36905705625,17.885996,4.29058384625,17.720079Q4.21211075625,17.554161,4.14187329625,17.384593000000002Q4.07163587625,17.215025,4.00980335625,17.042215300000002Q3.94797083625,16.8694057,3.89469218625,16.693769500000002Q3.84141352625,16.5181332,3.79681710625,16.3400936Q3.75222068625,16.1620541,3.71641394625,15.9820414Q3.68060720625,15.8020287,3.65367639825,15.6204758Q3.62674559325,15.4389229,3.60875559625,15.2562685Q3.59076559925,15.0736122,3.58175975275,14.8902946Q3.57275390625,14.7069769,3.57275390625,14.5234375Q3.57275390625,14.3398981,3.58175975275,14.15658Q3.59076559925,13.9732618,3.60875559625,13.790606499999999Q3.62674559325,13.607950200000001,3.65367639825,13.4263973Q3.68060720625,13.2448444,3.71641394625,13.0648322Q3.75222068625,12.884819499999999,3.79681710625,12.7067809Q3.84141352625,12.528741799999999,3.89469218625,12.353106Q3.94797083625,12.1774702,4.00980335625,12.004659700000001Q4.07163587625,11.8318491,4.14187329625,11.662280599999999Q4.21211075625,11.4927125,4.29058390625,11.3267951Q4.36905705625,11.1608772,4.45557701625,10.9990103Q4.54209685625,10.8371429,4.63645480625,10.6797161Q4.73081290625,10.5222893,4.83278190625,10.3696818Q4.93475080625,10.2170744,5.04408510625,10.0696545Q5.15341950625,9.9222345,5.26985560625,9.780356600000001Q5.38629170625,9.6384788,5.50954910625,9.502485Q5.632806506250001,9.3664913,5.76258850625,9.2367094Q5.89237020625,9.1069274,6.02836420625,8.9836701Q6.16435770625,8.8604126,6.30623580625,8.7439766Q6.44811340625,8.6275403,6.59553340625,8.5182061Q6.74295350625,8.4088719,6.89556100625,8.3069029Q7.048168206250001,8.2049339,7.20559520625,8.1105759Q7.36302230625,8.01621789,7.52488950625,7.92969805Q7.68675660625,7.84317815,7.85267450625,7.76470494Q8.01859190625,7.68623179,8.18815990625,7.61599433Q8.35772800625,7.54575691,8.530538606250001,7.48392439Q8.70334910625,7.42209187,8.878985406249999,7.36881322Q9.05462170625,7.31553459,9.23266030625,7.27093817Q9.410698906250001,7.22634175,9.59071160625,7.19053502Q9.770724306249999,7.15472829,9.952277206249999,7.127797484Q10.133830106249999,7.100866683,10.31648590625,7.082876686Q10.49914120625,7.064886691,10.68245980625,7.0558808455Q10.86577800625,7.046875,11.049317406250001,7.046875Q11.23285670625,7.046875,11.41617490625,7.0558808455Q11.59949300625,7.064886691,11.78214840625,7.082876686Q11.96480370625,7.100866683,12.14635660625,7.127797484Q12.32790950625,7.15472829,12.50792120625,7.19053502Q12.68793390625,7.22634175,12.86597250625,7.27093817Q13.04401210625,7.31553459,13.21964840625,7.36881322Q13.39528460625,7.42209187,13.56809420625,7.48392439Q13.74090490625,7.54575691,13.91047290625,7.61599433Q14.08004190625,7.68623179,14.24595890625,7.76470494Q14.41187690625,7.84317815,14.57374390625,7.92969799Q14.73561090625,8.01621783,14.89303690625,8.1105759Q15.05046490625,8.2049339,15.20307190625,8.3069029Q15.35567890625,8.4088719,15.50309990625,8.5182061Q15.65051990625,8.6275403,15.79239890625,8.7439766Q15.93427690625,8.8604126,16.070270906250002,8.98367Q16.20626490625,9.1069274,16.336044906250002,9.2367094Q16.46582690625,9.3664913,16.58908390625,9.502485Q16.71234090625,9.6384788,16.82877690625,9.780356600000001Q16.94521290625,9.9222345,17.05454690625,10.0696545Q17.16388090625,10.2170744,17.26584990625,10.3696818Q17.36781890625,10.5222893,17.46217690625,10.6797161Q17.556535906249998,10.8371429,17.643055906249998,10.9990103Q17.72957590625,11.1608772,17.80804890625,11.3267951Q17.88652190625,11.4927125,17.95675990625,11.662280599999999Q18.026996906249998,11.8318491,18.088829906249998,12.004659700000001Q18.15066290625,12.1774702,18.20394090625,12.353106Q18.25721990625,12.528741799999999,18.30181690625,12.7067809Q18.346412906250002,12.884819499999999,18.38221890625,13.0648322Q18.41802590625,13.2448444,18.44495690625,13.4263973Q18.47188790625,13.607950200000001,18.48987890625,13.790606499999999Q18.50786890625,13.9732618,18.516874906250003,14.15658Q18.525880906250002,14.3398981,18.525880906250002,14.5234375Z" fill="#D9DBEE" fill-opacity="1" style="mix-blend-mode:passthrough"/><path d="M16.980733921875,14.523447015624999Q16.980733921875,14.669055015625,16.973588921875,14.814487015625Q16.966444921875002,14.959919915625001,16.952172921875,15.104826415625Q16.937900921875,15.249733015625,16.916534921874998,15.393764515625Q16.895169921875002,15.537796015625,16.866762921875,15.680605915625Q16.838355921875,15.823415715625,16.802975921875,15.964660615625Q16.767594921875002,16.105904615625,16.725328921875,16.245243115625Q16.683060921875,16.384580615624998,16.634006921875,16.521676515625Q16.584952921875,16.658772515625,16.529230921874998,16.793296815625Q16.473508921875002,16.927820215624998,16.411253921875,17.059449215625Q16.348998921875,17.191077215625,16.280360921875,17.319492315625Q16.211720921875,17.447906515625,16.136863921874998,17.572798715624998Q16.062005921875,17.697690915625,15.981111921875,17.818758915625Q15.900214921875,17.939826915624998,15.813477921875,18.056780815625Q15.726738921875,18.173734615625,15.634366921875,18.286291115624998Q15.541993921875,18.398847615625,15.444208921875,18.506734815625002Q15.346424921875,18.614623015625,15.243464921875,18.717584015625Q15.140503921875,18.820544015625,15.032615621875,18.918328015625Q14.924728421875,19.016113015625002,14.812171921875,19.108486015624997Q14.699615521875,19.200858015625002,14.582661621875,19.287597015625Q14.465707821875,19.374334015625,14.344639821875,19.455231015625Q14.223571821875,19.536125015625,14.098679521875,19.610983015625Q13.973787321875,19.685841015625,13.845373121875,19.754480015625Q13.716958021875,19.823118015625,13.585330021875,19.885373015625Q13.453701021875,19.947628015625,13.319177621875,20.003350015625Q13.184653321875,20.059072015625,13.047557321875,20.108126015625Q12.910461421874999,20.157179015624997,12.771123421875,20.199448015625002Q12.631785421875,20.241714015625,12.490541021875,20.277095015625Q12.349296521875,20.312475015624997,12.206486721874999,20.340881015625Q12.063676821875,20.369288015625,11.919645321874999,20.390654015625Q11.775613321875,20.412020015625,11.630706821875,20.426292015625002Q11.485799821875,20.440563015625003,11.340367321875,20.447708015625Q11.194934821875,20.454853015624998,11.049326921875,20.454853015624998Q10.903718921875,20.454853015624998,10.758286521875,20.447707015625Q10.612854021875,20.440563015625003,10.467947921875,20.426291015625Q10.323040921875,20.412020015625,10.179008521875,20.390654015625Q10.034976921875,20.369288015625,9.892166621874999,20.340881015625Q9.749356221875,20.312474015625,9.608112321875,20.277094015625Q9.466867921875,20.241714015625,9.327529921875,20.199448015625002Q9.188191921875,20.157179015624997,9.051095721875,20.108125015625Q8.913999321875,20.059071015625,8.779475221875,20.003349015625Q8.644951121875,19.947628015625,8.513323321875,19.885372015625002Q8.381695221874999,19.823118015625,8.253280921875,19.754479015625Q8.124866021875,19.685841015625,7.9999740218749995,19.610983015625Q7.875082021875,19.536125015625,7.754013521875001,19.455230015625Q7.632945021875,19.374334015625,7.515991721875,19.287596015625Q7.399038321875,19.200858015625002,7.286482121875,19.108486015624997Q7.173925621875,19.016113015625002,7.066037421875,18.918329015624998Q6.958149121875,18.820544015625,6.855188721875,18.717584015625Q6.752228521875,18.614623015625,6.654444221875,18.506734815625002Q6.556659921875,18.398846615625,6.464287321875,18.286290215625Q6.371914621875,18.173733715624998,6.2851760218749995,18.056779815625Q6.198437521875,17.939826915624998,6.117542151875,17.818758015625Q6.036646721875,17.697689015625002,5.961789371875,17.572797815625Q5.886931951875,17.447906515625,5.818292911875,17.319492315625Q5.749653811875,17.191077215625,5.687398431875,17.059448215625Q5.625143051875,16.927820215624998,5.569421321875,16.793296815625Q5.513699591875,16.658772515625,5.464645801875,16.521677015625002Q5.415592011875,16.384580615624998,5.373324301875,16.245243115625Q5.331056561875,16.105905015624998,5.295676741875,15.964660615625Q5.260296911875,15.823416715625001,5.231890221875,15.680606815625Q5.2034835438750004,15.537797015625,5.182118437875,15.393765015625Q5.160753327875,15.249733415625,5.146481264875,15.104826915625Q5.132209198875,14.959919915625001,5.125064560175,14.814487415624999Q5.117919921875,14.669055015625,5.117919921875,14.523447015624999Q5.117919921875,14.377839115625001,5.125064560175,14.232406615624999Q5.132209198875,14.086974115625,5.146481264875,13.942067615625Q5.160753327875,13.797161115625,5.182118437875,13.653128615625Q5.2034835438750004,13.509097115625,5.231890221875,13.366286715625Q5.260296911875,13.223476415625,5.295676721875,13.082232515625Q5.331056531875,12.940988515625001,5.373324271875,12.801650515625Q5.415592011875,12.662312515625,5.464645801875,12.525216115625Q5.513699591875,12.388119915625,5.569421321875,12.253595815625001Q5.625143051875,12.119071715625001,5.687398371875,11.987443915625Q5.749653811875,11.855815915625,5.818292851875,11.727401515625Q5.886931891875,11.598986615625,5.961789311875,11.474094915624999Q6.036646721875,11.349202615625,6.117542151875,11.228134115625Q6.198437521875,11.107065715625,6.2851760218749995,10.990112315625Q6.371914621875,10.873159215625,6.464287321875,10.760602915625Q6.556659921875,10.648046515625,6.654444221875,10.540158315625Q6.752228521875,10.432269815625,6.855188721875,10.329309415625Q6.958149121875,10.226349115625,7.066037421875,10.128564915625Q7.173925621875,10.030780815625,7.286482121875,9.938408115625Q7.399038321875,9.846035515625,7.515991721875,9.759296915625Q7.632945021875,9.672558315625,7.754013521875001,9.591663005625Q7.875082021875,9.510767635625,7.999974221875,9.435910285625Q8.124866021875,9.361052875624999,8.253280921875,9.292413835625Q8.381695521875,9.223774795625,8.513323521875,9.161519405625Q8.644951321875,9.099264025625,8.779475421875,9.043542325625Q8.913999521875,8.987820625625,9.051095921875,8.938766835625Q9.188192321875,8.889713045625,9.327530421875,8.847445305625Q9.466868421874999,8.805177585625,9.608112321875,8.769797775625Q9.749356221875,8.734417975625,9.892166621874999,8.706011295625Q10.034976921875,8.677604615625,10.179008521875,8.656239516625Q10.323040921875,8.634874414625,10.467947521875,8.620602352625Q10.612854021875,8.606330289625,10.758286521875,8.599185652525Q10.903718921875,8.592041015625,11.049326921875,8.592041015625Q11.194934821875,8.592041015625,11.340367321875,8.599185652525Q11.485799821875,8.606330289625,11.630706821875,8.620602352625Q11.775613321875,8.634874414625,11.919644821875,8.656239516625Q12.063676821875,8.677604615625,12.206486721874999,8.706011295625Q12.349296521875,8.734417975625,12.490541021875,8.769797775625Q12.631785421875,8.805177585625,12.771123921874999,8.847445305625Q12.910461421874999,8.889713045625,13.047557821875,8.938766835625Q13.184653321875,8.987820625625,13.319177621875,9.043542325625Q13.453701021875,9.099264025625,13.585330021875,9.161519405625Q13.716958021875,9.223774795625,13.845373121875,9.292413835625Q13.973787321875,9.361052875624999,14.098678621875,9.435910285625Q14.223569821875,9.510767635625,14.344638821875,9.591663005625Q14.465707821875,9.672558315625,14.582660721875,9.759296915625Q14.699614521875,9.846035315625,14.812171021875,9.938408015625Q14.924727421875,10.030780715625,15.032615621875,10.128564815625Q15.140503921875,10.226349115625,15.243464921875,10.329309415625Q15.346424921875,10.432269815625,15.444209921875,10.540158015625Q15.541993921875,10.648046515625,15.634366921875,10.760602715625Q15.726738921875,10.873158915625,15.813476921875,10.990112315625Q15.900214921875,11.107065715625,15.981111921875,11.228134115625Q16.062006921875,11.349202615625,16.136863921874998,11.474094615624999Q16.211721921875,11.598986615625,16.280361921875,11.727401515625Q16.349000921875,11.855815915625,16.411255921875,11.987443915625Q16.473510921875,12.119071715625001,16.529231921875002,12.253595815625001Q16.584952921875,12.388119915625,16.634007921875,12.525216115625Q16.683061921875,12.662312515625,16.725328921875,12.801650515625Q16.767595921875,12.940988515625001,16.802976921875,13.082232515625Q16.838355921875,13.223476415625,16.866762921875,13.366286715625Q16.895169921875002,13.509097115625,16.916534921874998,13.653128615625Q16.937900921875,13.797161115625,16.952172921875,13.942067615625Q16.966444921875002,14.086974115625,16.973588921875,14.232406615624999Q16.980733921875,14.377839115625001,16.980733921875,14.523447015624999Z" fill="#C1C4D8" fill-opacity="1" style="mix-blend-mode:passthrough"/><path d="M11.049325421875,8.867255865625C14.279157621875,8.867255865625,16.905793921875002,11.448775515625,16.978927921874998,14.661032715625C16.979958921875,14.615271115625,16.980689921874998,14.569423715625,16.980689921874998,14.523447015624999C16.980689921874998,11.247638915625,14.325136221875,8.592041015625,11.049326421875,8.592041015625C7.773475121875,8.592041015625,5.117919921875,11.247638915625,5.117919921875,14.523447015624999C5.117919921875,14.569423715625,5.118607254055,14.615271115625,5.119681472875,14.661032715625C5.192814372875,11.448774815625,7.819493721875,8.867255865625,11.049325421875,8.867255865625Z" fill="#ABAFC6" fill-opacity="1" style="mix-blend-mode:passthrough"/><path d="M16.02019990625,8.63848035L15.89490190625,8.82964845C17.46910590625,10.17083235,18.48011690625,12.15336705,18.52398890625,14.37304685C18.52493390625,14.32298805,18.52587890625,14.27292965,18.52587890625,14.22265625C18.525834906249997,12.001988449999999,17.55736390625,10.00785165,16.02019990625,8.63848035ZM6.07843330625,8.63848035C4.54126953625,10.00785165,3.57275390625,12.001988449999999,3.57275390625,14.22265625C3.57275390625,14.27292965,3.57365608215,14.32298805,3.57464469915,14.37304685C3.61847282225,12.15336705,4.62952740625,10.17083235,6.20373080625,8.82964845L6.07843330625,8.63848035ZM11.04931640625,6.74609375C10.67003150625,6.74609375,10.29736280625,6.774581946,9.93320270625,6.82910946L10.11612030625,7.1046679600000004C10.731149706250001,7.02815211,11.35325810625,7.02761838,11.96841810625,7.10307845L12.14944550625,6.826875418C11.78518490625,6.773094406,11.417488106250001,6.74609458923339,11.04931640625,6.74609375Z" fill="#AFAEAE" fill-opacity="1" style="mix-blend-mode:passthrough"/><path d="M8.3770751953125,18.39063545L8.3770751953125,16.95251515C8.4897389153125,16.84638215,8.7866529853125,16.59299565,9.2678173753125,16.19351575C11.1341220953125,14.70237065,12.0526647953125,13.67683605,12.0248643953125,13.11755495C11.9678880953125,12.55827375,11.6570090953125,12.25242185,11.0917124953125,12.19875375C10.5257284953125,12.25242185,10.2148494953125,12.61194105,10.1585167953125,13.27735495L8.5043054953125,13.27735495C8.5043054953125,11.94601107,9.366516235312499,11.240034483,11.0917114953125,11.16015625C12.731313195312499,11.240035325,13.594211595312501,11.90605092,13.6790747953125,13.15751575C13.6790747953125,13.98333235,12.8585438953125,15.04878445,11.2189418953125,16.35331585C10.7377774953125,16.69977285,10.3421216953125,17.03243685,10.0312855953125,17.351994949999998L13.7214417953125,17.351994949999998L13.7214417953125,18.39063545L8.3770751953125,18.39063545Z" fill="#ABAFC6" fill-opacity="1" style="mix-blend-mode:passthrough"/><path d="M8.3770751953125,18.138682325L8.3770751953125,16.700562025C8.4897389153125,16.594429025,8.7866529853125,16.341042525,9.2678173753125,15.941562625C11.1341220953125,14.450417525,12.0526647953125,13.424882925,12.0248643953125,12.865601825C11.9678880953125,12.306320625,11.6570090953125,12.000468725,11.0917124953125,11.946800625C10.5257284953125,12.000468725,10.2148494953125,12.359987925,10.1585167953125,13.025401825L8.5043054953125,13.025401825C8.5043054953125,11.694057945,9.366516235312499,10.988081358,11.0917114953125,10.908203125C12.731313195312499,10.9880822,13.594211595312501,11.654097795,13.6790747953125,12.905562625C13.6790747953125,13.731379225,12.8585438953125,14.796831325,11.2189418953125,16.101362725C10.7377774953125,16.447819725,10.3421216953125,16.780483725,10.0312855953125,17.100041824999998L13.7214417953125,17.100041824999998L13.7214417953125,18.138682325L8.3770751953125,18.138682325Z" fill="#FFFFFF" fill-opacity="1" style="mix-blend-mode:passthrough"/></g></svg>